<svg style="position: absolute; width: 0; height: 0; overflow: hidden;" version="1.1" xmlns="http://www.w3.org/2000/svg" xmlns:xlink="http://www.w3.org/1999/xlink">
<defs>
  
<symbol id="icon-logo" viewBox="0 0 440 24">
<title>logo</title>
<path d="M21.032 2.070c-0.073-1.154-0.238-1.392-0.916-1.392-0.311 0-1.832 0.018-3.554 0.018-2.308 0.037-5.002 0.055-5.716 0.055-1.557 0-7.64-0.037-9.398-0.073-0.403 0-0.806 0-1.044 0.293-0.238 0.403-0.403 3.206-0.403 3.682 0 0.421 0 1.209 0.476 1.209 0.495 0 0.751-0.934 0.806-1.209 0.44-1.777 0.641-2.070 5.514-2.070 0.953 0 1.905 0.073 2.015 0.128 0.147 0.238 0.293 2.052 0.293 4.031v11.395c0 3.664-0.202 4.104-1.887 4.379-0.421 0.055-0.861 0.128-0.861 0.641 0 0.183 0.073 0.586 0.714 0.586 0.147 0 0.385-0.018 0.696-0.055 0.366-0.037 0.806-0.073 1.246-0.092 0.403-0.018 0.824-0.037 1.173-0.055s0.641-0.037 0.788-0.037c0.641 0 1.191 0.037 1.667 0.092 0.092 0 0.843 0.073 1.209 0.128l0.44 0.037c0.513 0 0.678-0.311 0.678-0.586 0-0.531-0.403-0.696-1.026-0.751-1.337-0.128-1.905-0.55-1.905-2.84v-12.44c0-3.737 0.275-4.397 0.348-4.489 0.037-0.018 0.366-0.128 2.803-0.128 2.089 0 3.591 0.183 4.012 0.476s0.714 0.861 0.824 1.521c0.018 0.202 0.128 0.806 0.678 0.806 0.366 0 0.55-0.256 0.55-0.788 0-0.22-0.073-0.879-0.165-1.74l-0.055-0.733zM185.075 22.369c-2.766 0-4.947-0.989-5.258-1.301-0.128-0.147-0.311-1.173-0.311-2.308v-7.548l0.202-7.566c0.018-1.429 0.275-1.759 2.748-1.759 3.188 0 5.624 0.403 8.024 2.4 3.444 2.858 3.719 7.566 3.719 8.94 0 5.551-3.573 9.142-9.124 9.142zM183.939 0.458c-0.879 0-2.089 0.037-3.261 0.055h-0.128c-1.209 0.037-2.418 0.073-3.371 0.11h-2.62c-0.916 0-1.466 0.055-1.466 0.678 0 0.641 0.898 0.714 1.319 0.751 1.081 0.092 2.125 0.366 2.125 2.437v15.261c0 1.209-0.238 1.576-0.531 1.942-0.202 0.165-0.531 0.44-1.429 0.66-0.311 0.073-1.044 0.238-1.044 0.843 0 0.33 0.275 0.55 0.678 0.55 0.165 0 1.227-0.11 1.429-0.128 1.008-0.073 2.089-0.092 3.188-0.092 0.385 0 1.631 0.055 2.968 0.165 0.495 0.018 0.989 0.055 1.429 0.073 0.751 0.037 1.337 0.073 1.631 0.073 7.127 0 12.513-5.13 12.513-11.927 0-7.053-5.148-11.45-13.429-11.45zM49.502 22.314c-1.466-0.238-1.832-0.311-2.235-1.209-0.165-0.293-0.165-0.531-0.165-3.023l-0.037-10.26c0-2.437 0.183-4.305 0.348-4.983 0.165-0.44 0.311-0.769 1.466-0.953 0.513-0.073 1.008-0.202 1.008-0.751 0-0.293-0.165-0.641-0.953-0.641-0.33 0-1.319 0-2.345 0.055-0.989 0.073-1.96 0.11-2.327 0.11-0.165 0-0.714-0.037-1.264-0.073-0.531-0.037-1.099-0.055-1.319-0.055-0.44 0-0.879 0.202-0.879 0.641 0 0.55 0.586 0.623 0.806 0.641 1.997 0.257 2.602 1.081 2.602 3.554v4.324c0 0.788-0.202 0.861-0.366 0.934-0.531 0.128-1.924 0.128-7.805 0.128-1.246 0-3.554 0-4.067-0.183-0.238-0.092-0.275-0.495-0.275-0.66v-5.588c0-2.18 0.66-2.308 1.136-2.4 0.953-0.183 1.282-0.256 1.282-0.769 0-0.293-0.128-0.641-0.788-0.641-0.275 0-1.044 0.037-1.869 0.073-0.824 0.018-1.704 0.073-2.015 0.073-0.202 0-0.824-0.018-1.466-0.037-0.696-0.018-1.411-0.037-1.667-0.037-0.421 0-1.044 0-1.044 0.678 0 0.55 0.476 0.586 0.824 0.623 2.089 0.11 2.638 0.953 2.638 4.067v7.53c0 1.631-0.128 6.54-0.55 7.914-0.183 0.605-0.641 0.714-1.173 0.843-0.953 0.183-1.319 0.238-1.319 0.788 0 0.678 0.953 0.678 1.264 0.678 0.275 0 0.989-0.055 1.777-0.092 0.769-0.055 1.557-0.11 1.832-0.11s1.044 0.037 1.814 0.092l0.128 0.018c0.751 0.055 1.466 0.128 1.759 0.128 0.275 0 1.081 0 1.081-0.678s-0.843-0.678-1.154-0.678v0c-2.272-0.073-2.473-1.521-2.51-3.389l-0.073-4.525c-0.018-1.008 0.073-1.521 0.275-1.722 0.165-0.165 0.513-0.183 1.044-0.183l9.344-0.037c1.869 0 1.869 0.202 1.869 0.66v5.313c0 2.51-0.073 3.316-1.502 3.646-1.063 0.238-1.356 0.311-1.356 0.769 0 0.22 0.165 0.513 0.385 0.568 0.055 0.018 0.128 0.055 1.026 0.055 0.605 0 1.392-0.018 2.015-0.018l0.879-0.018c0.293 0 1.044 0 1.832 0.037 0.769 0.037 1.557 0.073 1.832 0.073 0.788 0 0.916-0.403 0.916-0.641-0.018-0.33-0.22-0.55-0.66-0.66z"></path>
<path d="M139.218 22.589l-0.073-0.037c-0.165-0.092-0.531-0.183-1.136-0.293-0.275-0.055-0.586-0.128-0.66-0.165-0.861-0.348-1.246-1.832-1.246-2.711v-15.463c0-0.293 0.092-1.74 1.887-1.979 0.311-0.018 1.026-0.092 1.026-0.714 0-0.275-0.147-0.714-0.55-0.714-0.11 0-0.531 0.055-0.696 0.092-0.66 0.055-1.795 0.073-2.656 0.073-1.337 0-2.345-0.055-2.95-0.092l-0.55-0.055-0.605-0.037c-0.421 0-0.678 0.238-0.678 0.623 0 0.513 0.256 0.568 1.374 0.843 0.769 0.202 1.447 0.513 1.447 2.107v14.162c0 3.389-0.769 3.847-1.557 4.012-0.953 0.202-1.282 0.275-1.282 0.806 0 0.403 0.293 0.623 0.879 0.623l0.989-0.037 0.916-0.037c0.953-0.037 1.96-0.073 2.29-0.073 0.22 0 0.861 0.037 1.539 0.073 0.66 0.037 1.337 0.073 1.576 0.073 0.531 0 0.916-0.257 0.916-0.623 0-0.183-0.092-0.293-0.165-0.385l-0.037-0.073zM168.311 0.623l-2.913 0.037c-0.256 0-0.989-0.018-1.74-0.055-0.806-0.018-1.631-0.055-1.942-0.055-0.678 0-0.788 0.348-0.788 0.55 0 0.421 0.495 0.641 0.953 0.714 2.565 0.605 3.023 0.714 3.023 5.056v9.38c-0.018 0.238-0.037 0.898-0.037 1.557l-0.037 1.319-0.861-0.916-0.476-0.531c-3.792-4.122-5.881-6.394-12.421-13.85-1.539-1.777-2.51-2.803-2.913-3.041-0.403-0.22-0.55-0.238-1.466-0.202l-2.107-0.037c-0.476 0-0.678 0.366-0.678 0.714 0 0.311 0.202 0.55 0.55 0.605 0.696 0.092 1.026 0.165 1.631 0.605 2.107 1.484 2.089 3.334 2.015 8.263l-0.11 3.866v0.147c-0.073 1.777-0.165 4.763-0.788 6.247-0.256 0.605-0.714 1.026-1.374 1.191l-0.183 0.037c-0.788 0.183-1.063 0.256-1.063 0.769 0 0.147 0.055 0.623 0.678 0.623 0.238 0 0.879-0.037 1.557-0.073 0.641-0.055 1.319-0.092 1.539-0.092 0.275 0 1.026 0.037 1.814 0.055 0.843 0.037 1.704 0.073 2.015 0.073 0.531 0 0.843-0.202 0.843-0.55 0-0.256-0.238-0.623-0.55-0.678-2.693-0.458-3.188-0.531-3.078-4.14l0.128-6.504c0.018-0.202 0.055-1.154 0.092-2.162 0.037-1.118 0.092-2.528 0.092-2.62l0.018-0.037c0.311 0.22 0.953 0.934 1.173 1.191l0.165 0.202c0.147 0.202 2.583 2.858 6.54 7.218 2.895 3.169 5.881 6.449 6.87 7.566l0.147 0.165c0.586 0.641 0.696 0.769 1.063 0.769 0.22 0 0.458-0.165 0.458-0.385 0.055-0.476 0.092-2.602 0.092-2.62l0.257-13.594c0.073-4.598 0.421-5.093 1.392-5.368l0.165-0.055c0.916-0.256 1.136-0.311 1.136-0.788 0-0.128-0.073-0.568-0.879-0.568zM124.269 0.495l-0.55 0.037-0.586 0.018c-0.55 0.037-1.118 0.073-1.319 0.073l-0.586-0.037c-0.257-0.018-0.568-0.055-0.861-0.055-0.586-0.073-1.154-0.11-1.301-0.11-0.568 0-0.916 0.202-0.916 0.55 0 0.202 0.165 0.476 0.641 0.605l0.092 0.018c1.869 0.366 2.217 0.458 2.217 1.282 0 0.568-0.147 1.173-0.989 3.078l-4.489 10.26c-0.421 1.008-1.118 2.473-1.502 3.060l-0.66-1.209-3.811-7.695 0.586-1.484 2.217-4.983c0.898-1.979 1.337-2.070 2.034-2.18 0.623-0.092 0.934-0.33 0.934-0.714 0-0.183-0.073-0.623-0.678-0.623l-0.366 0.055-0.385 0.055c-0.458 0.037-1.319 0.055-1.887 0.055-0.147 0-0.623-0.037-1.118-0.055-0.55-0.037-1.136-0.073-1.337-0.073-0.366 0-0.843 0.055-0.843 0.586 0 0.66 0.586 0.733 0.971 0.788 0.605 0.092 1.227 0.275 1.227 0.953 0 0.202-0.11 0.495-0.165 0.678l-0.055 0.147-1.209 3.114c-0.311 0.806-0.568 1.466-0.714 1.777-0.202-0.385-0.568-1.136-0.714-1.466l-1.411-3.096c-0.073-0.147-0.33-0.714-0.33-1.392 0-0.586 0.385-0.714 0.879-0.788 0.348-0.073 0.733-0.165 0.733-0.586s-0.257-0.714-0.66-0.714v0l-0.916 0.073c-0.623 0.073-1.466 0.165-2.748 0.165-0.202 0-0.806-0.037-1.392-0.073-0.66-0.037-1.282-0.092-1.521-0.092-0.311 0-1.008 0-1.008 0.641s0.458 0.641 1.044 0.641c1.282 0 1.96 0.513 2.675 2.015l3.719 7.951-2.382 5.606c-0.22 0.568-0.623 1.466-0.843 1.795-0.183-0.238-0.495-0.843-0.934-1.795l-4.397-9.49-1.466-3.518c-0.257-0.568-0.641-1.502-0.641-1.96 0-0.256 0.33-0.476 0.971-0.605 0.238-0.037 0.769-0.128 0.769-0.586s-0.33-0.678-0.971-0.678c-0.165 0-0.733 0.018-1.337 0.037-0.714 0.018-1.466 0.055-1.74 0.055s-1.063-0.037-1.795-0.092h-0.458c-0.586-0.037-1.081-0.055-1.264-0.055-0.531 0-0.879 0.257-0.879 0.641 0 0.568 0.678 0.641 0.989 0.678 0.953 0.092 1.887 0.33 2.858 2.253l1.246 2.51 7.969 17.35h0.751l4.195-9.508 0.092-0.183 0.165-0.366c0.092 0.183 0.257 0.495 0.531 1.026l4.397 8.959h0.788l8.812-19.713c0.293-0.641 0.824-1.887 1.557-2.198 0.568-0.22 0.879-0.348 0.879-0.806 0.018-0.128-0.055-0.605-0.806-0.605zM72.934 18.614c-0.311 0-0.513 0.238-0.824 0.66-1.686 2.162-6.156 2.473-8.684 2.473-2.547 0-2.766-0.238-2.766-3.078v-4.287c0-0.934 0.018-1.337 0.128-1.429 0.147-0.073 1.173-0.22 4.049-0.22 3.188 0 3.353 0.366 3.646 2.345 0.092 0.568 0.311 0.733 0.879 0.733 0.476 0 0.476-0.348 0.476-0.623 0-0.183-0.037-0.714-0.073-1.227-0.037-0.476-0.055-0.934-0.055-1.099 0-0.714 0.037-1.191 0.092-1.96l0.073-1.264 0.037-0.568c0-0.44-0.238-0.751-0.55-0.751-0.568 0-0.696 0.385-0.769 0.898-0.147 0.916-0.531 1.356-1.264 1.484l-4.305 0.202-0.623 0.018c-1.099 0-1.521-0.128-1.594-0.183-0.073-0.11-0.165-0.751-0.165-1.74v-3.499c0-1.612 0.128-2.583 0.385-2.858 0.202-0.22 0.605-0.256 2.657-0.256 3.829 0 5.276 0.202 5.918 0.751 0.366 0.513 0.44 0.824 0.44 1.722 0 0.476 0.055 0.916 0.678 0.916 0.165 0 0.257-0.055 0.403-0.128l0.073-0.037 0.037-0.073c0.11-0.238 0.165-0.879 0.33-3.114l0.128-1.612-5.771-0.128h-2.455c-3.096 0-5.661-0.037-6.54-0.055-0.22-0.037-0.257-0.055-0.366-0.037-1.099 0-1.392 0.037-1.521 0.11-0.202 0.073-0.33 0.275-0.33 0.55 0 0.641 0.641 0.751 1.081 0.806 1.392 0.165 2.015 0.696 2.015 3.444v5.661c0 0.531-0.018 2.034-0.037 3.481-0.018 1.392-0.037 2.748-0.037 3.206 0 3.243-0.073 4.195-1.832 4.525-0.421 0.092-0.824 0.22-0.824 0.733 0 0.586 0.641 0.586 1.374 0.586 0.202 0 0.586-0.018 1.044-0.037 0.421-0.018 0.898-0.037 1.411-0.055 1.008-0.037 2.015-0.073 2.345-0.073 0.531 0 2.089 0.055 3.682 0.165 1.667 0.11 3.060 0.202 3.389 0.202 1.759 0 2.547-0.421 3.682-1.942 0.586-0.806 1.466-2.235 1.466-2.748-0.018-0.348-0.238-0.586-0.531-0.586zM237.014 1.557c4.818 0 10.003 4.525 10.003 11.249 0 6.357-4.342 9.673-8.629 9.673-4.214 0-10.168-3.518-10.168-11.304 0-5.844 3.463-9.618 8.794-9.618zM237.728 0.128c-7.145 0-12.751 5.423-12.751 12.348 0 5.496 3.847 11.395 12.275 11.395 7.31 0 12.843-5.295 12.843-12.311 0.018-5.514-3.847-11.432-12.366-11.432zM359.579 9.966c-4.031-1.374-5.46-2.565-5.46-4.543 0-2.382 2.51-3.976 4.855-3.976 2.821 0 5.258 1.777 5.918 4.324 0.165 0.623 0.421 0.953 0.733 0.953s0.513-0.238 0.513-0.586c0-0.421-0.33-2.638-0.33-2.656-0.073-0.531-0.293-2.308-0.421-2.51-0.037-0.073-0.147-0.275-0.385-0.275-0.311 0-0.44 0.257-0.476 0.348l-0.055 0.147-0.769-0.238-0.769-0.22c-1.282-0.421-2.437-0.641-3.554-0.641-4.214 0-7.402 2.748-7.402 6.376 0 3.518 2.583 5.111 7.017 6.669 4.177 1.484 5.588 2.693 5.588 4.8 0 1.814-1.484 4.525-5.606 4.525-3.829 0-5.808-2.437-6.412-4.727-0.165-0.55-0.385-1.099-0.824-1.099-0.147 0-0.513 0.055-0.513 0.623 0 0.202 0.733 4.415 1.044 5.002 0.403 0.806 3.682 1.686 6.266 1.686 6.431 0 8.153-4.397 8.153-6.998 0-4.159-3.518-5.734-7.108-6.98zM211.731 9.966c-4.031-1.374-5.46-2.565-5.46-4.543 0-2.382 2.51-3.976 4.855-3.976 2.821 0 5.258 1.777 5.918 4.324 0.11 0.44 0.311 0.953 0.733 0.953 0.311 0 0.513-0.238 0.513-0.586 0-0.385-0.257-2.217-0.33-2.656-0.037-0.238-0.293-2.29-0.421-2.51-0.037-0.073-0.128-0.275-0.385-0.275-0.311 0-0.44 0.257-0.476 0.348l-0.055 0.147-0.751-0.238-0.769-0.22c-1.282-0.421-2.437-0.641-3.536-0.641-4.214 0-7.402 2.748-7.402 6.376 0 3.518 2.583 5.111 7.017 6.669 4.177 1.466 5.588 2.693 5.588 4.8 0 1.814-1.502 4.525-5.606 4.525-3.829 0-5.808-2.437-6.412-4.727-0.165-0.55-0.385-1.099-0.843-1.099-0.147 0-0.513 0.055-0.513 0.623 0 0.202 0.733 4.415 1.044 5.002 0.403 0.806 3.682 1.686 6.266 1.686 6.431 0 8.153-4.397 8.153-6.998 0-4.177-3.518-5.734-7.127-6.98zM378.724 23.286v0 0zM393.069 2.070c-0.073-1.154-0.22-1.392-0.916-1.392-0.311 0-1.832 0.018-3.554 0.018-2.308 0.018-4.983 0.037-5.716 0.037-1.557 0-7.64-0.037-9.398-0.073-0.403 0-0.806 0-1.044 0.293-0.22 0.403-0.403 3.206-0.403 3.664 0 0.421 0 1.209 0.495 1.209s0.751-0.934 0.806-1.209c0.44-1.777 0.641-2.070 5.514-2.070 0.953 0 1.905 0.073 2.034 0.128 0.128 0.238 0.275 2.052 0.275 4.049v11.414c0 3.664-0.183 4.104-1.887 4.379-0.421 0.073-0.861 0.128-0.861 0.641 0 0.183 0.073 0.586 0.714 0.586 0.147 0 0.385-0.018 0.696-0.055 0.366-0.037 0.806-0.073 1.246-0.092 0.403-0.018 0.824-0.037 1.173-0.055s0.641-0.037 0.788-0.037c0.641 0 1.191 0.037 1.667 0.092 0.092 0 0.843 0.073 1.209 0.128l0.421 0.037c0.513 0 0.678-0.293 0.678-0.586 0-0.531-0.403-0.696-1.026-0.751-1.337-0.147-1.905-0.568-1.905-2.858v-12.421c0-3.719 0.257-4.397 0.33-4.489 0.037-0.018 0.366-0.128 2.821-0.128 2.089 0 3.591 0.183 4.012 0.476 0.403 0.275 0.714 0.843 0.806 1.502 0.037 0.202 0.128 0.806 0.678 0.806 0.366 0 0.55-0.256 0.55-0.788 0-0.22-0.073-0.879-0.147-1.722l-0.055-0.733zM439.182 18.614c-0.311 0-0.495 0.22-0.824 0.66-1.667 2.162-6.156 2.492-8.666 2.492-2.547 0-2.748-0.238-2.748-3.078v-4.305c0-0.934 0.018-1.337 0.128-1.429 0.147-0.073 1.173-0.22 4.049-0.22 3.188 0 3.353 0.366 3.646 2.345 0.092 0.568 0.293 0.751 0.879 0.751 0.495 0 0.495-0.348 0.495-0.623 0-0.183-0.037-0.714-0.073-1.227-0.037-0.476-0.055-0.934-0.055-1.099 0-0.733 0.037-1.227 0.092-2.034l0.073-1.209 0.037-0.568c0-0.44-0.238-0.751-0.55-0.751-0.568 0-0.678 0.385-0.769 0.898-0.147 0.916-0.531 1.356-1.264 1.484l-4.287 0.202-0.623 0.018c-1.099 0-1.521-0.128-1.594-0.183-0.073-0.11-0.165-0.733-0.165-1.722v-3.518c0-1.612 0.128-2.583 0.385-2.858 0.22-0.22 0.605-0.256 2.675-0.256 3.829 0 5.276 0.202 5.918 0.751 0.366 0.513 0.44 0.824 0.44 1.722 0 0.476 0.055 0.916 0.678 0.916 0.165 0 0.256-0.037 0.403-0.128l0.073-0.037 0.037-0.073c0.11-0.22 0.165-0.824 0.311-3.114l0.11-1.612-5.771-0.11h-2.455c-3.096 0-5.661-0.037-6.54-0.055l-0.366-0.037c-1.099 0-1.392 0.037-1.521 0.11-0.183 0.073-0.311 0.256-0.311 0.531 0 0.641 0.641 0.751 1.081 0.806 1.392 0.165 1.997 0.696 1.997 3.444v5.661c0 0.531-0.018 2.034-0.037 3.481-0.018 1.392-0.037 2.748-0.037 3.206 0 3.243-0.073 4.195-1.832 4.525-0.44 0.092-0.824 0.202-0.824 0.714 0 0.586 0.641 0.586 1.374 0.586 0.202 0 0.586-0.018 1.026-0.037 0.421-0.018 0.916-0.037 1.392-0.055 1.008-0.037 2.015-0.073 2.345-0.073 0.531 0 2.089 0.055 3.682 0.165 1.667 0.11 3.060 0.202 3.389 0.202 1.759 0 2.547-0.421 3.682-1.942 0.55-0.806 1.429-2.235 1.429-2.73 0-0.348-0.22-0.586-0.513-0.586zM416.079 18.65c-0.311 0-0.403 0.128-0.733 0.531l-0.11 0.128c-0.458 0.66-1.246 1.246-2.107 1.576-2.052 0.806-5.478 0.898-6.852 0.898-1.722 0-2.565-0.073-2.565-1.869v-7.475c0-9.050 0.33-9.49 0.806-10.131 0.33-0.33 0.33-0.33 1.081-0.476l0.092-0.018c0.311-0.055 0.769-0.147 0.769-0.751 0-0.165-0.055-0.55-0.623-0.55-0.238 0-0.861 0.055-1.521 0.092-0.66 0.055-1.337 0.092-1.576 0.092-0.33 0-1.429-0.055-2.327-0.11-0.623-0.037-1.154-0.055-1.246-0.055-1.081 0-1.301 0.348-1.301 0.641 0 0.55 0.641 0.605 0.916 0.623 1.667 0.147 2.034 0.861 2.034 4.104v13.997c0 0.751-0.22 2.089-1.667 2.473-0.568 0.147-0.788 0.366-0.788 0.769 0 0.55 0.641 0.55 0.971 0.55 0.147 0 0.458-0.018 0.806-0.037 0.33-0.018 0.733-0.037 1.136-0.055 0.843-0.073 1.631-0.092 1.905-0.092 0.495 0 1.869 0.055 3.316 0.11l0.531 0.018c1.722 0.11 3.371 0.183 3.957 0.183 1.85 0 2.968-0.366 3.847-1.246 0.769-0.733 1.74-2.473 1.74-3.371 0.018-0.33-0.202-0.55-0.495-0.55zM269.221 7.2c0 1.429-0.513 2.583-1.539 3.444-0.495 0.403-1.173 0.953-4.195 0.953-1.979 0-1.979-0.311-1.979-0.568v-5.826c0-2.876 0.202-3.188 2.107-3.188 2.73 0 5.606 1.814 5.606 5.185zM277.026 22.369c-1.008 0-1.887-0.44-2.583-1.282l-0.934-1.173-2.693-3.866c-0.495-0.714-1.539-2.382-2.455-3.957 2.162-1.374 4.067-2.876 4.067-5.789 0-1.74-0.733-5.789-7.603-5.789-0.33 0-1.282 0.018-2.272 0.055-1.026 0.018-2.070 0.055-2.455 0.055l-0.403-0.018c-0.311-0.018-0.751-0.018-1.173-0.018h-0.018c-0.678-0.037-1.411-0.037-1.667-0.037-0.696 0-1.081 0-1.081 0.714 0 0.44 0.403 0.531 0.843 0.586 1.282 0.202 2.070 0.586 2.070 4.305v11.102c0 4.653-0.385 4.727-1.521 4.965l-0.092 0.018c-0.348 0.092-1.099 0.311-1.099 0.879 0 0.513 0.733 0.513 0.971 0.513 0.256 0 1.008-0.037 1.74-0.055h0.073c0.788-0.037 1.557-0.073 1.85-0.073 0.275 0 1.081 0.055 1.887 0.128l0.165 0.018c0.934 0.073 1.777 0.128 2.125 0.128 0.568 0 0.953-0.22 0.953-0.586 0-0.568-0.66-0.641-1.026-0.678-2.766-0.22-3.133-1.594-3.133-2.895v-5.514c0-1.044 0.183-1.081 1.191-1.081 2.125 0 2.711 0.073 3.151 0.769l4.36 6.577c1.649 2.51 3.096 3.481 5.203 3.481 0.971 0 2.62-0.11 2.62-0.879-0.018-0.605-0.348-0.605-1.063-0.605zM316.104 16.873c-0.275 0-0.531 0.293-1.264 1.411l-0.22 0.311c-1.997 2.492-4.727 3.866-7.658 3.866-5.24 0-9.344-4.818-9.344-10.974 0-6.962 4.543-10.058 9.050-10.058 5.057 0 7.365 3.994 8.116 5.716 0.44 1.008 0.751 1.136 0.953 1.136 0.257 0 0.513-0.147 0.513-0.586 0-0.348-0.165-1.576-0.311-2.693l-0.073-0.788c-0.147-1.557-0.165-1.795-0.256-1.997-0.037-0.073-0.128-0.275-0.385-0.275-0.165 0-0.348 0.128-0.513 0.385-0.147 0.238-0.22 0.238-0.275 0.238-0.165-0.018-0.916-0.476-1.264-0.678l-0.513-0.311c-1.85-0.989-3.719-1.466-5.753-1.466-8.208 0-12.513 6.339-12.513 12.605 0 6.614 4.91 11.231 11.945 11.231 4.195 0 8.849-2.18 9.124-2.51 0.275-0.385 1.099-3.664 1.099-4.012 0-0.458-0.238-0.55-0.458-0.55zM336.22 12.861c-0.128 0.147-1.044 0.311-2.345 0.311-0.879 0-4.452-0.11-4.928-0.275l-0.037-0.018h-0.018c0.018-0.11 0.11-0.311 0.238-0.623l0.055-0.128 3.188-6.687 0.348-0.751c0.165 0.202 0.458 0.824 0.55 1.044l0.11 0.22 2.253 5.331c0.366 0.879 0.568 1.484 0.586 1.576zM345.38 22.626l-0.11-0.018c-1.722-0.22-2.455-1.173-3.206-2.858l-0.916-2.089-2.565-6.595-2.217-5.368-1.539-3.939c-0.256-0.678-0.366-0.953-0.421-1.118-0.073-0.202-0.073-0.22-0.202-0.495l-0.073-0.147h-0.605l-0.22 0.366c-0.128 0.22-0.275 0.44-0.458 0.788l-8.574 17.826c-0.293 0.605-1.191 2.455-2.492 3.298l-0.073 0.055c-0.641 0.403-0.769 0.495-0.769 0.824 0 0.385 0.293 0.641 0.714 0.641 0.073 0 0.311-0.018 1.356-0.202 0.458-0.092 0.879-0.092 1.191-0.092 0.458 0 0.898 0.037 1.649 0.092 0.165 0.037 1.521 0.22 1.631 0.22 0.44 0 0.788-0.275 0.788-0.623 0-0.147-0.037-0.256-0.183-0.458l-0.055-0.055c-0.128-0.092-0.531-0.202-1.191-0.33-0.495-0.165-1.319-0.513-1.319-1.191 0-1.081 1.081-3.664 1.777-5.038 0.421-0.843 0.568-0.989 0.843-1.008h0.055c0.256-0.018 1.777-0.018 3.921-0.018 0.238 0 0.953-0.018 1.667-0.037 0.733-0.018 1.484-0.037 1.74-0.037 1.447 0 1.557 0.018 1.795 0.623l1.374 3.719 0.11 0.33c0.165 0.476 0.44 1.282 0.44 1.777 0 0.183 0 0.733-1.136 0.934-0.311 0.055-0.806 0.128-0.806 0.586 0 0.293 0.257 0.751 0.641 0.751 0.128 0 1.008-0.147 1.118-0.165 0.531-0.055 1.026-0.055 1.539-0.055 0.971 0 1.631 0.073 2.547 0.183l0.714 0.092c0.531 0.073 0.879 0.11 1.301 0.11 0.678 0 1.008-0.202 1.008-0.623-0.018-0.513-0.495-0.605-0.788-0.66z"></path>
</symbol>

<symbol id="icon-arrow_downward" viewBox="0 0 24 24">
<title>arrow_downward</title>
<path d="M20.016 12l-8.016 8.016-8.016-8.016 1.453-1.406 5.578 5.578v-12.188h1.969v12.188l5.625-5.578z"></path>
</symbol>

</defs>
</svg>
