<?xml version="1.0" standalone="no"?>
<!DOCTYPE svg PUBLIC "-//W3C//DTD SVG 1.1//EN" "http://www.w3.org/Graphics/SVG/1.1/DTD/svg11.dtd" >
<svg>
<metadata>
Created by FontForge 20090622 at Mon Dec 19 18:07:30 2016
 By deploy user
version 1.01 /created on 08-08-1997/   Dutch Type Library/ File#H022013D
</metadata>
<defs>
<font id="DTLHaarlemmerD" horiz-adv-x="550" >
  <font-face 
    font-family="DTLHaarlemmerD"
    font-weight="400"
    font-stretch="normal"
    units-per-em="1000"
    panose-1="2 0 5 3 8 0 0 2 0 3"
    ascent="800"
    descent="-200"
    x-height="437"
    cap-height="673"
    bbox="-253 -292 1161 924"
    underline-thickness="20"
    underline-position="-113"
    unicode-range="U+0020-U+FB02"
  />
<missing-glyph horiz-adv-x="500" 
 />
    <glyph glyph-name=".notdef" horiz-adv-x="500" 
 />
    <glyph glyph-name=".null" horiz-adv-x="0" 
 />
    <glyph glyph-name="nonmarkingreturn" horiz-adv-x="333" 
 />
    <glyph glyph-name="space" unicode=" " horiz-adv-x="200" 
 />
    <glyph glyph-name="exclam" unicode="!" horiz-adv-x="285" 
d="M201 611q0 -29 -30 -304l-12 -110q-1 -11 -14 -11t-14 11q-7 76 -11 110q-1 6 -10 82.5t-15 135.5t-6 86q0 28 15.5 45.5t40.5 17.5t40.5 -17.5t15.5 -45.5zM200 53q0 -23 -17 -39.5t-40 -16.5t-40 16.5t-17 39.5t17 40t40 17t40 -17t17 -40z" />
    <glyph glyph-name="quotedbl" unicode="&#x22;" horiz-adv-x="366" 
d="M316 713q-15 -106 -19 -130l-19 -106h-20q-15 80 -19 106l-19 130q23 10 48 10q11 0 23 -2.5t19 -4.5zM146 713q-15 -106 -19 -130l-19 -106h-20q-15 80 -19 106l-19 130q23 10 48 10q11 0 23 -2.5t19 -4.5z" />
    <glyph glyph-name="numbersign" unicode="#" horiz-adv-x="696" 
d="M677 435h-180l-31 -175h162v-46h-169l-38 -218h-56l37 218h-165l-38 -218h-56l37 218h-161v46h169l30 175h-172v46h180l34 196h57l-34 -196h165l34 196h57l-34 -196h172v-46zM440 435h-165l-31 -175h166z" />
    <glyph glyph-name="dollar" unicode="$" 
d="M517 186q0 -82 -58.5 -137t-154.5 -58v-71h-35v70q-46 1 -90.5 13.5t-64 23t-28.5 17.5l-17 -44h-20q0 30 -3 80l-13 152h24l11 -48q17 -74 54 -111q19 -19 58.5 -34t88.5 -17v274l-6 3q-42 19 -62.5 29t-51 30t-45.5 37.5t-26.5 44t-11.5 58.5q0 81 56.5 130t146.5 50
v52h35v-52q30 -2 62 -9q21 -5 39.5 -12t26.5 -12l8 -5l16 33h20q0 -44 2 -71l7 -126h-24l-8 36q-16 71 -45.5 99.5t-103.5 35.5v-264l64.5 -27.5t50.5 -24t44 -27.5t28.5 -30.5t20.5 -39.5t5 -48zM269 398v250q-64 0 -98 -30.5t-34 -79.5q0 -50 28.5 -78t103.5 -62zM451 140
q0 20 -4 36.5t-16.5 30l-20.5 22t-32 20l-33.5 16t-40.5 17.5v-260q77 3 112 37t35 81z" />
    <glyph glyph-name="ampersand" unicode="&#x26;" horiz-adv-x="812" 
d="M799 13q-67 -24 -129 -24h-4q-65 1 -155 75q-88 -73 -207 -73q-105 0 -165 42q-74 52 -74 131q0 77 67 144q27 28 84 66q-74 92 -74 153q0 66 49.5 109.5t129.5 43.5q61 0 105 -32t44 -85q0 -27 -14 -52t-40.5 -46t-48.5 -35t-52 -30q35 -40 115 -125l63.5 -66.5
t42.5 -40.5l12 -11q14 24 24 54q15 43 15 87q0 54 -44 59l-55 4v20q76 -2 125 -2l124 2v-20h-5q-25 0 -50 -5q-14 -4 -27 -15q-14 -14 -33 -78q-5 -17 -23 -70l-26 -57q59 -51 109 -83q38 -24 90 -24l25 3zM402 561q0 47 -26 69.5t-64 22.5t-64 -22t-26 -59q0 -58 75 -150
q20 11 28 16q77 46 77 123zM487 84q-78 72 -163 167l-90 102q-79 -52 -79 -137q0 -90 55 -136.5t130 -46.5q89 0 147 51z" />
    <glyph glyph-name="quotesingle" unicode="'" horiz-adv-x="196" 
d="M146 713q-15 -106 -19 -130l-19 -106h-20q-15 80 -19 106l-19 130q23 10 48 10q11 0 23 -2.5t19 -4.5z" />
    <glyph glyph-name="parenleft" unicode="(" horiz-adv-x="336" 
d="M310 -271l-14 -13q-49 43 -96 105q-138 189 -138 402q0 170 95 335q58 99 139 172l14 -13q-53 -67 -86 -137q-69 -145 -69 -356q0 -223 77 -374q32 -64 78 -121z" />
    <glyph glyph-name="parenright" unicode=")" horiz-adv-x="336" 
d="M274 223q0 -213 -138 -402q-47 -62 -96 -105l-14 13q46 57 78 121q77 151 77 374q0 211 -69 356q-33 70 -86 137l14 13q81 -73 139 -172q95 -165 95 -335z" />
    <glyph glyph-name="asterisk" unicode="*" horiz-adv-x="434" 
d="M390 438l-10 -19l-132 53l-19 -143h-24l-19 143l-132 -53l-10 19l112 88l-112 88l10 17l133 -53l20 142h20l20 -142l133 53l10 -17l-113 -89z" />
    <glyph glyph-name="plus" unicode="+" horiz-adv-x="549" 
d="M482 312q-117 1 -180 1l1 -188h-61q1 127 1 188l-175 -1v57q115 -1 175 -1l-1 181h61q-1 -118 -1 -181l180 1v-57z" />
    <glyph glyph-name="comma" unicode="," horiz-adv-x="230" 
d="M178 23q0 -34 -12 -66t-29.5 -52.5t-34.5 -36.5t-29 -23l-12 -7l-14 17q35 20 56.5 51t21.5 59q0 17 -6 22t-19 7.5t-23 10.5q-21 18 -21 43t15 41.5t41 16.5q31 0 48.5 -26t17.5 -57z" />
    <glyph glyph-name="hyphen" unicode="-" horiz-adv-x="326" 
d="M275 191q-72 1 -112 1l-112 -1v69q72 -1 112 -1l112 1v-69z" />
    <glyph glyph-name="period" unicode="." horiz-adv-x="230" 
d="M171 53q0 -23 -16.5 -39.5t-39.5 -16.5t-39.5 16.5t-16.5 39.5t16.5 39.5t39.5 16.5t39.5 -16.5t16.5 -39.5z" />
    <glyph glyph-name="slash" unicode="/" horiz-adv-x="323" 
d="M275 720l-176 -1000h-51l176 1000h51z" />
    <glyph glyph-name="zero" unicode="0" 
d="M505 348q0 -91 -23 -170t-75.5 -134t-126.5 -55q-112 0 -173 99.5t-61 244.5q0 88 27.5 166t84 129.5t131.5 51.5q61 0 105 -29t67 -78.5t33.5 -105t10.5 -119.5zM416 323q0 330 -132 330q-42 0 -72.5 -30t-45 -79.5t-21 -99.5t-6.5 -104q0 -64 7.5 -119.5t23.5 -102.5
t44.5 -74.5t65.5 -27.5q136 0 136 307z" />
    <glyph glyph-name="one" unicode="1" 
d="M428 0q-103 2 -143 2l-149 -2v20l50 4q16 1 24.5 4t15.5 13t8 29q2 49 2 267v105q0 83 -2 112q-1 14 -2.5 21t-7.5 11.5t-18 4.5q-11 0 -31 -2.5t-34 -5.5l-14 -3l-3 22q55 16 106 36l102 42l-1 -70q-2 -98 -2 -274q0 -168 2 -266q1 -22 11.5 -32.5t32.5 -12.5l53 -5v-20
z" />
    <glyph glyph-name="two" unicode="2" 
d="M495 0q-136 1 -223 1l-220 -1q49 40 204 231q30 37 47.5 63t34.5 72t17 94q0 74 -39 110.5t-93 36.5q-107 0 -144 -123l-17 15q19 83 75 132t127 49q77 0 130 -48t53 -127q0 -33 -11 -66t-35.5 -71.5t-41 -60.5t-51.5 -65l-133 -161q89 -1 153 -1l167 1v-81z" />
    <glyph glyph-name="three" unicode="3" 
d="M494 191q0 -87 -65.5 -143t-166.5 -56q-89 0 -145.5 29.5t-56.5 64.5q0 37 35 37q16 0 25.5 -12t24.5 -33.5t39 -35.5q37 -22 81 -22q62 0 99.5 35.5t37.5 100.5q0 38 -18 70t-44 50.5t-52 32t-44 18.5l-18 5l43 33q43 33 61.5 64t18.5 79q0 54 -31 83.5t-84 29.5
q-85 0 -120 -89l-16 15q16 52 61.5 92.5t123.5 40.5q66 0 110 -36.5t44 -93.5q0 -20 -7 -40t-15 -34t-24 -32.5t-23.5 -26t-26 -23.5t-19.5 -17q64 -13 118 -64t54 -122z" />
    <glyph glyph-name="four" unicode="4" 
d="M536 281l-41 -76q-49 0 -96 1q0 -114 1 -136q1 -23 11.5 -33t32.5 -12l45 -5v-20q-89 2 -129 2l-143 -2v20l45 4q15 1 23.5 4t15.5 13t8 29q1 26 1 88v48l-297 -1q34 39 184 230l120 146.5t83 100.5q-1 -171 -1 -249v-152h64h73zM310 281v114v131l-101 -127l-93 -118h194
z" />
    <glyph glyph-name="five" unicode="5" 
d="M480 212q0 -85 -61.5 -151.5t-177.5 -66.5q-67 0 -122 24t-55 57q0 14 9.5 24t25.5 10q10 0 18.5 -7t20.5 -23t15 -19q34 -38 97 -38q72 0 108 45t36 107q0 180 -266 200q11 56 24 157l17 142q88 -1 144 -1l163 1v-78q-90 1 -147 1l-139 -1l-18 -138q30 -4 59 -10
t66.5 -17t68 -30t57.5 -44t42 -62t15 -82z" />
    <glyph glyph-name="six" unicode="6" 
d="M502 233q0 -95 -59 -166t-154 -71q-98 0 -162.5 71.5t-64.5 206.5q0 198 109 309q96 97 222 97q26 0 45 -2t26 -4l6 -2l-4 -22q-14 4 -41 4q-109 0 -174.5 -75.5t-85.5 -192.5q18 17 53.5 32.5t79.5 15.5q95 0 149.5 -60.5t54.5 -140.5zM411 201q0 83 -32.5 139.5
t-99.5 56.5q-73 0 -118 -45q-7 -40 -7 -111q0 -104 37 -161t102 -57q57 0 87.5 45.5t30.5 132.5z" />
    <glyph glyph-name="seven" unicode="7" 
d="M513 673l-161 -346l-154 -337l-39 11l159 342l111 244q-93 1 -167 1l-179 -1v86q119 -1 219 -1z" />
    <glyph glyph-name="eight" unicode="8" 
d="M500 176q0 -77 -61 -130t-158 -53q-63 0 -109 14.5t-70 38.5t-34.5 49t-10.5 51q0 102 157 191q-39 28 -61 47.5t-42 56t-20 79.5q0 70 57 115t140 45q82 0 137 -38.5t55 -100.5q0 -92 -151 -171q41 -25 65 -42t52 -42t41 -52t13 -58zM408 539q0 53 -35.5 82t-88.5 29
q-52 0 -85 -27t-33 -74q0 -42 32 -79.5t105 -81.5q105 45 105 151zM420 134q0 14 -2.5 27t-10.5 25.5t-13.5 22t-19.5 21.5t-21.5 19t-26.5 19.5l-26.5 17.5t-30 18.5l-29.5 17.5q-104 -52 -104 -166q0 -56 37.5 -95.5t108.5 -39.5q58 0 98 31t40 82z" />
    <glyph glyph-name="nine" unicode="9" 
d="M502 393q0 -99 -32 -185t-90 -138q-82 -75 -205 -75q-29 0 -53.5 2.5t-34.5 4.5l-10 3l4 22q27 -5 74 -5q30 0 57.5 5.5t59 22t56 43.5t44.5 74.5t29 110.5q-18 -15 -53 -28t-77 -13q-95 0 -151.5 59t-56.5 150q0 94 61 162.5t160 68.5q105 0 161.5 -78t56.5 -206z
M412 428q0 107 -36.5 165t-99.5 58q-56 0 -89.5 -50t-33.5 -138q0 -81 36 -136.5t103 -55.5q68 0 114 41q6 38 6 116z" />
    <glyph glyph-name="colon" unicode=":" horiz-adv-x="240" 
d="M176 384q0 -23 -16.5 -39.5t-39.5 -16.5t-39.5 16.5t-16.5 39.5t16.5 39.5t39.5 16.5t39.5 -16.5t16.5 -39.5zM176 53q0 -23 -16.5 -39.5t-39.5 -16.5t-39.5 16.5t-16.5 39.5t16.5 39.5t39.5 16.5t39.5 -16.5t16.5 -39.5z" />
    <glyph glyph-name="semicolon" unicode=";" horiz-adv-x="240" 
d="M173 384q0 -23 -16.5 -39.5t-39.5 -16.5t-39.5 16.5t-16.5 39.5t16.5 39.5t39.5 16.5t39.5 -16.5t16.5 -39.5zM183 23q0 -34 -12 -66t-29.5 -52.5t-34.5 -36.5t-29 -23l-12 -7l-14 17q35 20 56.5 51t21.5 59q0 17 -6 22t-19 7.5t-23 10.5q-21 18 -21 43t15 41.5t41 16.5
q31 0 48.5 -26t17.5 -57z" />
    <glyph glyph-name="less" unicode="&#x3c;" horiz-adv-x="549" 
d="M482 125l-414 187v57l414 187v-57l-351 -158l351 -159v-57z" />
    <glyph glyph-name="equal" unicode="=" horiz-adv-x="549" 
d="M482 399q-172 1 -212 1l-202 -1v57q162 -1 202 -1l212 1v-57zM482 224q-172 1 -212 1l-202 -1v57q162 -1 202 -1l212 1v-57z" />
    <glyph glyph-name="greater" unicode="&#x3e;" horiz-adv-x="549" 
d="M481 311l-414 -187v57l351 158l-351 159v57l414 -187v-57z" />
    <glyph glyph-name="question" unicode="?" horiz-adv-x="426" 
d="M382 484q0 -51 -32 -84t-80 -51q-7 -3 -25 -9t-28.5 -10t-25.5 -11.5t-23 -15t-14.5 -18.5t-6.5 -23q0 -15 6.5 -33.5t12.5 -30.5l6 -11l-26 -7q-44 80 -44 127q0 27 6.5 45t24 30.5t31.5 19t45 18.5q11 4 16 6q106 39 106 106q0 35 -24.5 58.5t-61.5 23.5
q-34 0 -68.5 -15t-57.5 -15q-60 0 -60 44q0 21 23.5 35t63.5 14q96 0 168 -53q68 -49 68 -140zM218 53q0 -23 -17 -39.5t-40 -16.5t-40 16.5t-17 39.5t17 40t40 17t40 -17t17 -40z" />
    <glyph glyph-name="at" unicode="@" horiz-adv-x="944" 
d="M898 366q0 -145 -94 -237.5t-262 -92.5q-34 0 -34 19q0 25 15 125q-40 -53 -100.5 -99t-106.5 -46q-18 0 -28 26t-10 62q0 61 31 139.5t75 120.5q63 62 141 62q16 0 34 -3.5t28 -6.5l10 -3l25 11l26 9q-20 -70 -45 -200q-21 -104 -21 -144v-3q0 -34 34 -34
q87 0 143.5 65.5t56.5 211.5q0 151 -87 227t-227 76q-95 0 -168.5 -37t-116 -99t-64 -135.5t-21.5 -155.5q0 -161 87 -265.5t240 -104.5q55 0 105.5 9.5t84 22.5t59 26t37.5 22l12 10l8 -24l-13.5 -10.5t-39.5 -24t-65.5 -30.5t-90 -23.5t-114.5 -10.5q-172 0 -285.5 113
t-113.5 296q0 199 128.5 324.5t335.5 125.5q183 0 287 -84.5t104 -229.5zM570 393q-3 3 -10.5 7.5t-26.5 10t-41 5.5q-30 0 -52 -22q-38 -35 -65 -109t-27 -137q0 -50 27 -50q31 0 65.5 28.5t88.5 94.5z" />
    <glyph glyph-name="A" unicode="A" horiz-adv-x="733" 
d="M720 0q-75 3 -123 3l-135 -3v20l21 2q28 2 40.5 8t12.5 19t-40 106l-49 119q-35 1 -115 1l-104 -1q-35 -82 -41 -97q-38 -97 -38 -118q0 -32 53 -37l23 -2v-20q-70 3 -112 3l-91 -3v20l21 3q40 6 62 56q15 32 98 232q153 368 156 377h23q7 -19 140 -341
q104 -253 127 -290q19 -29 43 -33q2 -1 5 -1l23 -3v-20zM435 304l-99 235l-95 -235h194z" />
    <glyph glyph-name="B" unicode="B" horiz-adv-x="640" 
d="M583 189q0 -87 -69 -139t-165 -52q-61 0 -124 1.5t-65 1.5l-131 -1v20l39 4q15 2 22.5 4.5t13.5 12.5t7 29q2 49 2 267q0 217 -2 266q-1 27 -15.5 36t-46.5 12l-28 2v20q99 -1 139 -1q2 0 41 0.5t80 0.5q134 0 187 -44q48 -39 48 -102q0 -34 -14 -63t-32 -46t-41 -30.5
t-34 -18t-17 -6.5q99 -20 146 -55q59 -45 59 -119zM415 505q0 55 -33 96q-36 43 -107 43l-68 -2l-1 -277q38 -2 63 -2q65 0 98 27q48 38 48 115zM475 176q0 87 -65 126q-55 32 -162 32h-42q0 -145 2 -238q1 -41 24.5 -54.5t82.5 -13.5q79 0 119.5 38.5t40.5 109.5z" />
    <glyph glyph-name="C" unicode="C" horiz-adv-x="760" 
d="M699 181q-17 -116 -20 -139l-5 -36q-101 -17 -213 -17q-190 0 -294.5 92.5t-104.5 249.5q0 146 95 241q105 106 298 106q59 0 107 -5t65 -5l47 5v-41l4 -143h-21q-9 81 -47 118q-40 39 -156 39q-132 0 -206 -74q-79 -79 -79 -228v-11q3 -139 76.5 -225t225.5 -86
q114 0 157 42q16 16 29 45t17 51l5 21h20z" />
    <glyph glyph-name="D" unicode="D" horiz-adv-x="805" 
d="M743 357q0 -76 -25.5 -145t-72.5 -115q-55 -54 -120.5 -75.5t-156.5 -21.5q-42 0 -116 1t-89 1l-134 -2v20l39 4q15 2 22.5 4.5t13.5 12.5t7 29q2 49 2 267q0 217 -2 266q-1 27 -15.5 36t-46.5 12l-28 2v20q93 -1 134 -1q17 0 78 1t94 1q133 0 204 -21t127 -75
q85 -82 85 -221zM637 338q0 81 -30 147.5t-85 104.5q-73 51 -208 51l-107 -4q-1 -170 -1 -279q0 -204 2 -265q1 -25 10.5 -37t39.5 -18.5t91 -6.5q139 0 209 69q79 77 79 238z" />
    <glyph glyph-name="E" unicode="E" horiz-adv-x="649" 
d="M607 176q-24 -108 -32 -150l-5 -28l-54 3h-353l-134 -1v20l39 4q15 2 22.5 4.5t13.5 12.5t7 29q2 49 2 267q0 217 -2 266q-1 27 -15.5 36t-46.5 12l-28 2v20q93 -1 134 -1h154q207 0 235 6q2 -59 3 -78l7 -90h-20q-15 82 -33.5 105t-78.5 23h-215q-1 -162 -1 -271h135
q75 0 95 13q32 20 34 95h20q-2 -54 -2 -117l2 -132h-20q0 83 -42 99q-22 9 -87 9h-135q0 -181 2 -237q2 -42 18 -51.5t87 -9.5h114q42 0 66 5t42 24t27 41t25 70h20z" />
    <glyph glyph-name="F" unicode="F" horiz-adv-x="554" 
d="M534 510h-20q-15 82 -33.5 105t-78.5 23h-195q-1 -162 -1 -271h115q75 0 95 13q32 20 34 95h20q-2 -54 -2 -117l2 -135h-20q0 32 -9.5 62.5t-32.5 39.5q-22 9 -87 9h-115q0 -161 2 -264q1 -25 14 -33t42 -12l44 -5v-20q-106 2 -146 2l-133 -2v20l39 4q15 2 22.5 4.5
t13.5 12.5t7 29q2 49 2 267q0 217 -2 266q-1 27 -15.5 36t-46.5 12l-28 2v20q93 -1 134 -1h134q207 0 235 6q2 -59 3 -78z" />
    <glyph glyph-name="G" unicode="G" horiz-adv-x="829" 
d="M707 489h-21l-3 17q-15 81 -60.5 109.5t-171.5 28.5q-143 0 -212.5 -85t-69.5 -217q0 -90 28 -160t95.5 -116t168.5 -46q103 0 130 27q10 9 12.5 25t2.5 58v44q0 75 -8.5 91.5t-47.5 20.5l-39 4v20q104 -2 144 -2l136 2v-20l-47 -5q-32 -4 -38.5 -24t-6.5 -106
q0 -116 1 -144q-24 0 -118 -11t-131 -11q-184 0 -274 74q-56 45 -85.5 110t-29.5 138q0 46 9 91t35.5 96.5t68 90t112.5 64t162 25.5q61 0 127 -6.5t78 -6.5q11 0 23.5 2t18.5 4l7 2v-38z" />
    <glyph glyph-name="H" unicode="H" horiz-adv-x="797" 
d="M776 0q-96 2 -136 2l-133 -2v20l39 4q15 2 22.5 4.5t13.5 12.5t7 29q2 48 2 263q-122 1 -192 1l-193 -1q0 -167 2 -263q1 -22 11 -32t32 -13l47 -5v-20q-96 2 -136 2l-133 -2v20l39 4q15 2 22.5 4.5t13.5 12.5t7 29q2 49 2 267q0 217 -2 266q-1 19 -7 29t-13.5 12.5
t-22.5 4.5l-39 4v20q93 -2 133 -2l136 2v-20l-47 -5q-22 -3 -32 -13t-11 -32q-2 -88 -2 -233q123 -1 193 -1l192 1q0 189 -2 233q-1 19 -7 29t-13.5 12.5t-22.5 4.5l-39 4v20q93 -2 133 -2l136 2v-20l-47 -5q-22 -3 -32 -13t-11 -32q-2 -98 -2 -267q0 -168 2 -266
q1 -22 11 -32t32 -13l47 -5v-20z" />
    <glyph glyph-name="I" unicode="I" horiz-adv-x="319" 
d="M298 0q-96 2 -136 2l-133 -2v20l39 4q15 2 22.5 4.5t13.5 12.5t7 29q2 49 2 267q0 217 -2 266q-1 19 -7 29t-13.5 12.5t-22.5 4.5l-39 4v20q93 -2 133 -2l136 2v-20l-47 -5q-22 -3 -32 -13t-11 -32q-2 -98 -2 -267q0 -168 2 -266q1 -22 11 -32t32 -13l47 -5v-20z" />
    <glyph glyph-name="J" unicode="J" horiz-adv-x="321" 
d="M308 653l-47 -5q-22 -3 -32 -13t-11 -32q-1 -31 -1 -267q0 -41 0.5 -107t0.5 -101v-58q-2 -158 -59 -242q-28 -40 -61.5 -69.5t-53.5 -38.5l-20 -10l-7 17q8 4 19.5 12.5t36 41.5t33.5 75q5 22 8 55.5t4.5 59t2.5 58t1 40.5q1 24 1 115v153q0 217 -2 266
q-1 27 -16.5 36.5t-45.5 11.5l-32 2v20q105 -2 145 -2l136 2v-20z" />
    <glyph glyph-name="K" unicode="K" horiz-adv-x="736" 
d="M736 0l-140 2l-164 -1v19l30 1q22 1 31 5t9 15q0 7 -16.5 25t-60.5 60q-34 31 -55 52l-154 142l-10 8q0 -162 2 -258q1 -22 11 -32t32 -13l47 -5v-20q-96 2 -136 2l-133 -2v20l39 4q15 2 22.5 4.5t13.5 12.5t7 29q2 49 2 267q0 217 -2 266q-1 19 -7 29t-13.5 12.5
t-22.5 4.5l-39 4v20q93 -2 133 -2l136 2v-20l-47 -5q-22 -3 -32 -13t-11 -32q-2 -98 -2 -269l14 10l132 134l32 33.5l28.5 29.5l22.5 24l19.5 21.5t13 16.5t9 14.5t2.5 10.5q0 22 -46 24l-24 1v20q85 -2 126 -2l107 2v-20l-11 -1q-51 -5 -69 -15q-10 -6 -21 -15
q-8 -6 -24.5 -24l-40.5 -44l-44 -46l-134 -138l177 -165l153 -142q44 -39 90 -42l18 -1v-20z" />
    <glyph glyph-name="L" unicode="L" horiz-adv-x="607" 
d="M569 176q-26 -117 -30 -138l-7 -40l-54 3h-315l-134 -1v20l39 4q15 2 22.5 4.5t13.5 12.5t7 29q2 49 2 267q0 217 -2 266q-1 19 -7 29t-13.5 12.5t-22.5 4.5l-39 4v20q93 -2 133 -2l140 2v-20l-45 -3q-16 -2 -24 -4.5t-16 -13t-9 -29.5q-2 -49 -2 -267q0 -58 1.5 -135
t1.5 -103q1 -39 14.5 -50t64.5 -11h96q77 0 107 24t58 115h20z" />
    <glyph glyph-name="M" unicode="M" horiz-adv-x="947" 
d="M926 0q-96 2 -136 2l-133 -2v20l39 4q15 2 22.5 4.5t13.5 12.5t7 29q2 49 2 267q0 203 -1 252l-134 -267q-139 -276 -159 -322h-8l-152 308l-135 275v-271q0 -144 2 -231q1 -34 21.5 -46t58.5 -14l19 -1v-20q-76 2 -116 2l-107 -2v20l23 1q56 2 58 58q2 51 2 131v132v202
v63q-1 41 -71 45q-13 1 -20 1v20h20q16 0 59 -0.5t55 -0.5l59 1l134 -279l126 -253l129 261l137 271q40 -1 63 -1q11 0 47 0.5t50 0.5h25v-20l-47 -4q-42 -3 -43 -46q-2 -98 -2 -267q0 -168 2 -266q1 -22 11 -32t32 -13l47 -5v-20z" />
    <glyph glyph-name="N" unicode="N" horiz-adv-x="783" 
d="M762 653l-33 -2q-46 -5 -48 -57q-3 -78 -3 -132q0 -19 0.5 -61.5t0.5 -69.5q0 -59 -0.5 -170.5t-0.5 -169.5h-16q-8 12 -307 359l-202 235v-273q0 -144 2 -231q1 -33 21.5 -45.5t57.5 -14.5l20 -1v-20q-76 2 -116 2l-108 -2v20l33 2q46 5 48 57q2 51 2 131v132
q0 38 0.5 105t0.5 92q0 51 -1 68q-1 41 -71 45q-13 1 -20 1v20h20q16 0 57.5 -0.5t53.5 -0.5l53 1l221 -259l215 -250v197q0 144 -2 231q-1 33 -20 45.5t-60 14.5l-19 1v20q76 -2 116 -2l105 2v-20z" />
    <glyph glyph-name="O" unicode="O" horiz-adv-x="806" 
d="M739 348q0 -146 -91.5 -251.5t-239.5 -105.5q-147 0 -246.5 98t-99.5 251q0 140 96.5 240t239.5 100q167 0 254 -93t87 -239zM633 335q0 33 -5 70t-21 82t-40.5 80t-68 59t-99.5 24q-112 0 -170.5 -80t-58.5 -228q0 -140 64 -229.5t179 -89.5q220 0 220 312z" />
    <glyph glyph-name="P" unicode="P" horiz-adv-x="564" 
d="M539 510q0 -75 -51 -132q-31 -35 -78.5 -55t-99.5 -20q-44 0 -104 8q0 -151 2 -241q1 -38 56 -45l44 -5v-20q-106 2 -146 2l-133 -2v20l39 4q15 2 22.5 4.5t13.5 12.5t7 29q2 49 2 267q0 217 -2 266q-1 27 -15.5 36t-46.5 12l-28 2v20q101 -1 141 -1q9 0 64.5 0.5
t69.5 0.5q130 0 192 -50q51 -41 51 -113zM439 493q0 77 -45.5 114.5t-119.5 37.5l-66 -2q-2 -98 -2 -301q45 -10 98 -10q64 0 99.5 44t35.5 117z" />
    <glyph glyph-name="Q" unicode="Q" horiz-adv-x="806" 
d="M806 -190l-4 -20q-7 -1 -13 -1q-132 0 -221 56q-99 63 -160 146q-147 0 -246.5 97.5t-99.5 251.5q0 140 96.5 240t239.5 100q167 0 254 -93t87 -239q0 -111 -56 -203t-152 -131q54 -77 104 -126q82 -78 171 -78zM633 335q0 33 -5 70t-21 82t-40.5 80t-68 59t-99.5 24
q-112 0 -170.5 -80t-58.5 -228q0 -140 64 -229.5t179 -89.5q220 0 220 312z" />
    <glyph glyph-name="R" unicode="R" horiz-adv-x="721" 
d="M721 0q-32 -4 -79 -4q-52 0 -70 4.5t-37 20.5l-20 18t-18.5 18.5t-14.5 15.5t-15 17.5t-13 16.5l-16.5 21l-16.5 21l-101 135q-9 11 -52 14l-62 4q0 -134 2 -232q1 -41 43 -45l47 -5v-20q-96 2 -136 2l-133 -2v20l39 4q15 2 22.5 4.5t13.5 12.5t7 29q2 49 2 267
q0 217 -2 266q-1 27 -15.5 36t-46.5 12l-28 2v20q101 -1 141 -1q19 0 73 0.5t78 0.5q111 0 162 -37q63 -46 63 -123q0 -42 -18 -78t-47 -61t-44 -35t-32 -19l104 -124q85 -97 128.5 -135.5t68.5 -40.5h23v-20zM435 494q0 22 -6.5 45.5t-22.5 48.5t-48.5 40.5t-77.5 15.5
l-73 -1l-1 -311q23 -3 58 -5q34 -2 57 -2h2q30 0 56.5 22.5t40.5 54.5q15 33 15 92z" />
    <glyph glyph-name="S" unicode="S" horiz-adv-x="584" 
d="M520 195q0 -98 -73 -151.5t-172 -53.5q-42 0 -88 7t-51 7l-59 -2l-8 53l-24 135h20q12 -38 22 -60.5t32.5 -51t61 -42.5t93.5 -14q82 0 122 34.5t40 90.5q0 26 -8 45.5t-29 36.5t-35 25t-50 25t-49 24q-9 5 -32 16t-32 16l-27.5 15.5t-26.5 17.5l-21.5 18.5t-19.5 22.5
l-13 25t-9.5 31t-2.5 36q0 27 11 55t34.5 57t70 47t107.5 18q32 0 83.5 -6.5t63.5 -6.5l31 3q-1 -27 -1 -50l4 -120h-20l-3 17q-5 29 -12 48t-23 40.5t-46.5 32.5t-75.5 11q-77 0 -110.5 -32.5t-33.5 -75.5q0 -66 61 -106q21 -13 94 -48q112 -52 144 -76q60 -45 60 -114z
" />
    <glyph glyph-name="T" unicode="T" horiz-adv-x="639" 
d="M629 510h-20q-6 74 -26 99q-17 20 -38 24t-98 4l-80 -1q-2 -100 -2 -300q0 -168 2 -266q1 -24 12 -33t35 -12l47 -5v-20q-100 2 -140 2l-145 -2v20l47 5q17 2 25 4t14.5 12t7.5 29q2 49 2 267q0 193 -2 299q-37 1 -78 1h-29q-52 0 -72 -4.5t-35 -23.5q-9 -11 -15.5 -36
t-8.5 -44l-2 -19h-20q8 126 8 157v29h10q4 -14 21.5 -18.5t62.5 -4.5q1 0 70.5 -0.5t135.5 -0.5q80 0 135.5 0.5t71.5 0.5q53 0 67 4.5t19 18.5h10v-35z" />
    <glyph glyph-name="U" unicode="U" horiz-adv-x="764" 
d="M748 653l-33 -2q-46 -5 -48 -57q-2 -45 -2 -124v-139v-68q0 -57 -2 -79q-4 -55 -30.5 -96t-66.5 -62.5t-81 -31t-83 -9.5q-148 0 -224.5 55.5t-78.5 178.5v53v155q0 151 -1 176q-1 19 -7 29t-13.5 12.5t-22.5 4.5l-39 4v20q93 -2 133 -2l136 2v-20l-47 -5q-22 -3 -32 -13
t-11 -32q-3 -147 -3 -177q0 -160 2 -204q4 -99 59.5 -148.5t147.5 -49.5q220 0 223 191v39v107q0 144 -2 231q-1 33 -19.5 45.5t-59.5 14.5l-20 1v20q80 -2 120 -2l105 2v-20z" />
    <glyph glyph-name="V" unicode="V" horiz-adv-x="668" 
d="M663 653l-23 -2q-21 -2 -33.5 -17t-25.5 -48l-95 -235q-142 -357 -150 -380l-156 391l-99 245q-9 23 -21.5 33.5t-38.5 11.5l-16 1v20q78 -2 128 -2l134 2v-20l-33 -3q-26 -3 -37 -9t-11 -25q0 -4 0.5 -8.5t2 -10.5t3.5 -12t6 -16.5l8 -20.5l11 -28l14 -35l18 -44.5
l22 -54.5l98 -241l104 264q61 154 65 181q2 9 2 16q0 41 -53 45l-31 2v20q76 -2 110 -2l97 2v-20z" />
    <glyph glyph-name="W" unicode="W" horiz-adv-x="1003" 
d="M998 653l-21 -2q-22 -2 -35 -17t-26 -48l-95 -235q-135 -337 -150 -380l-11 29l-35.5 88.5l-45.5 114.5l-76 189l-69 -172q-84 -210 -98 -249l-156 391l-99 245q-9 23 -21 33.5t-39 11.5l-16 1v20q78 -2 128 -2l134 2v-20l-33 -3q-26 -3 -37 -9t-11 -25q0 -5 1 -11.5
t4.5 -16.5l7 -20t11.5 -29.5l15.5 -38l20.5 -51l25 -63.5l100 -242l115 290l-70 173q-17 44 -55 45l-21 1v20q78 -2 128 -2l134 2v-20l-33 -3q-26 -3 -37 -9t-11 -25q0 -8 2 -17t9 -28t15 -38l25.5 -62l33.5 -85l98 -241l104 264q61 156 65 178q2 10 2 19q0 17 -12.5 30
t-40.5 15l-31 2v20q76 -2 110 -2l97 2v-20z" />
    <glyph glyph-name="X" unicode="X" horiz-adv-x="731" 
d="M721 1q-79 2 -129 2l-143 -2v20l31 2q38 2 38 23q0 11 -13.5 31.5t-76.5 108.5l-83 117l-90 -118q-84 -109 -84 -134q0 -27 45 -30l26 -1v-20q-72 2 -115 2l-107 -2v20l22 1q39 2 78 46q11 12 104 133l100 131l-101 144q-89 127 -105 145q-14 16 -24 22.5t-30 8.5l-20 2
v20q74 -2 124 -2l141 2v-20l-31 -2q-38 -4 -38 -23q0 -4 4.5 -13t13.5 -22.5l16.5 -24.5l19.5 -27.5l17 -23.5l74 -105l71 93q72 96 72 118q0 26 -45 29l-26 1v20q71 -2 114 -2l107 2v-20l-22 -1q-26 -1 -48 -17q-8 -6 -17 -15t-20.5 -23l-20 -24.5l-24.5 -31.5l-25 -32
l-96 -126l111 -155q117 -163 127 -174q24 -27 54 -31l24 -2v-20z" />
    <glyph glyph-name="Y" unicode="Y" horiz-adv-x="687" 
d="M682 653l-16 -1q-27 -2 -48 -17q-6 -4 -12 -9.5t-14 -14t-14.5 -16.5l-18.5 -23.5l-21 -27l-27 -34.5l-32 -41l-92 -120q0 -177 2 -279q1 -24 12 -33t35 -12l47 -5v-20q-100 2 -140 2l-145 -2v20l47 5q17 2 25 4t14.5 12t7.5 29q2 46 2 250q-75 108 -93 132
q-120 164 -124 168q-22 26 -54 31l-18 2v20q73 -2 123 -2l143 2v-20l-26 -2q-43 -4 -43 -23q0 -14 13 -34t69 -99l85 -118l80 105l35.5 47t26 36t20 33.5t5.5 21.5q0 30 -45 32l-26 1v20q73 -2 116 -2l101 2v-20z" />
    <glyph glyph-name="Z" unicode="Z" horiz-adv-x="719" 
d="M666 178q-27 -113 -32 -148l-5 -33q-28 3 -45 3h-212q-51 0 -131 0.5t-131 0.5q-11 0 -33.5 -0.5t-33.5 -0.5q15 17 245 350l197 283q-82 2 -200 2q-52 0 -74.5 -1t-49.5 -6t-37.5 -17t-19.5 -31t-15 -52l-4 -22h-20q7 80 9 139l1 34q26 -7 62 -7h414l73 1l-232 -337
l-203 -298q65 -1 136 -1h106q58 0 86.5 3t55.5 17.5t42 42t31 78.5h20z" />
    <glyph glyph-name="bracketleft" unicode="[" horiz-adv-x="364" 
d="M337 -280q-64 1 -114 1l-114 -1q1 260 1 500l-1 500q64 -1 114 -1l114 1v-36h-141q-1 -278 -1 -464l1 -464h141v-36z" />
    <glyph glyph-name="backslash" unicode="\" horiz-adv-x="323" 
d="M275 -280h-51l-176 1000h51z" />
    <glyph glyph-name="bracketright" unicode="]" horiz-adv-x="364" 
d="M255 -280q-64 1 -114 1l-114 -1v36h141q1 256 1 464l-1 464h-141v36q64 -1 114 -1l114 1q-1 -260 -1 -500z" />
    <glyph glyph-name="asciicircum" unicode="^" horiz-adv-x="294" 
d="M291 437h-66l-79 178l-80 -178h-63l106 236h76z" />
    <glyph glyph-name="underscore" unicode="_" horiz-adv-x="500" 
d="M500 -181h-500v48h500v-48z" />
    <glyph glyph-name="grave" unicode="`" horiz-adv-x="500" 
d="M329 503l-16 -12l-142 161l53 20z" />
    <glyph glyph-name="a" unicode="a" horiz-adv-x="457" 
d="M460 56q-7 -7 -19.5 -17.5t-43.5 -28t-53 -17.5q-20 0 -36 13.5t-22 27.5l-6 14q-7 -6 -20 -15.5t-46.5 -25.5t-60.5 -16q-41 0 -76 32.5t-35 75.5q0 46 38 78.5t91 48.5q24 7 50.5 11.5t40.5 4.5l15 1q2 57 2 93q0 41 -19.5 63t-48.5 22q-41 0 -63 -41
q-14 -27 -26.5 -37.5t-31.5 -10.5q-15 0 -22.5 10.5t-7.5 23.5q0 24 41 48q54 31 127 31q133 0 133 -93q0 -23 -2 -90t-2 -158q0 -55 41 -55q11 0 24 5.5t21 10.5l8 5zM277 220q-45 -2 -85 -14q-29 -8 -50 -26.5t-21 -43.5q0 -45 28.5 -68.5t64.5 -23.5q35 0 62 25z" />
    <glyph glyph-name="b" unicode="b" horiz-adv-x="545" 
d="M495 242q0 -110 -75 -185q-68 -66 -153 -66q-48 0 -94.5 12.5t-68.5 24.5l-23 12q3 121 3 305q0 238 -1 260q-1 33 -11.5 46.5t-37.5 15.5l-25 2v18q56 9 88 16l73 17q-2 -171 -2 -332q95 58 155 58q75 0 123.5 -55.5t48.5 -148.5zM405 205q0 83 -35.5 136.5t-95.5 53.5
q-29 0 -55.5 -7.5t-38.5 -15.5l-12 -7v-302q4 -5 11.5 -12.5t32.5 -20t52 -12.5q65 0 103 49.5t38 137.5z" />
    <glyph glyph-name="c" unicode="c" horiz-adv-x="438" 
d="M428 87q-103 -96 -205 -96q-65 0 -124 58t-59 156q0 110 63.5 175.5t179.5 65.5q57 0 96 -15.5t39 -36.5q0 -14 -15 -24.5t-37 -10.5q-21 0 -75 33q-33 21 -61 21q-10 0 -15 -1q-47 -7 -70.5 -52t-23.5 -107q0 -96 46.5 -149.5t109.5 -53.5q36 0 71 14t52 28l17 13z" />
    <glyph glyph-name="d" unicode="d" horiz-adv-x="536" 
d="M525 10q-50 -7 -83 -10l-79 -9v56q-80 -56 -145 -56q-76 0 -127 58t-51 153q0 109 66 178q63 66 158 66q28 0 53 -4t36 -8l11 -5q0 127 -1 176q-1 33 -11.5 46.5t-37.5 15.5l-25 2v18q55 9 87 16l74 17q-1 -207 -1 -367q0 -215 1 -264q1 -39 12 -50.5t38 -11.5l25 1v-18z
M364 379q-3 4 -10.5 10.5t-33 17.5t-56.5 11q-65 0 -101.5 -48.5t-36.5 -137.5q0 -98 44 -143.5t96 -45.5q54 0 97 30z" />
    <glyph glyph-name="e" unicode="e" horiz-adv-x="459" 
d="M432 87q-105 -96 -202 -96q-73 0 -131.5 59.5t-58.5 154.5q0 114 59 177.5t137 63.5q94 0 138 -53t50 -133q-126 2 -208 2l-95 -1v-8q0 -94 47.5 -148.5t120.5 -54.5q69 0 132 55zM332 290q0 51 -25.5 90t-78.5 39q-38 0 -63.5 -27.5t-33 -54t-8.5 -47.5h209z" />
    <glyph glyph-name="f" unicode="f" horiz-adv-x="337" 
d="M436 690q0 -19 -19 -34t-46 -15q-30 0 -53 17q-25 19 -49 19q-30 0 -49 -29q-30 -48 -30 -222h129v-43h-129v-124q0 -153 1 -188q1 -27 14.5 -35t56.5 -12l39 -4v-20q-113 2 -153 2l-116 -2v20l34 4q23 3 30 11.5t8 35.5q1 51 1 130l-1 181h-66q10 15 17 24l18 21h31
q0 60 26 136t77 115q59 45 149 45q34 0 57 -8.5t23 -24.5z" />
    <glyph glyph-name="g" unicode="g" horiz-adv-x="500" 
d="M472 -90q0 -81 -78.5 -138.5t-182.5 -57.5q-70 0 -122 29t-52 84q0 29 28 59.5t56 46.5l28 16q-22 1 -56 20t-34 51q0 25 37.5 48.5t72.5 34.5q-52 19 -87 63t-35 100q0 72 53.5 126t131.5 54q25 0 47 -5t31 -10l9 -5h151v-43h-100q5 -5 13 -14t21 -39t13 -62
q0 -80 -55 -128t-128 -48l-33 3q-61 -17 -61 -44q0 -28 109 -35q7 -1 43 -3q101 -6 140.5 -28.5t39.5 -74.5zM332 241q0 75 -27.5 128t-77.5 53q-42 0 -67.5 -34t-25.5 -96q0 -67 27.5 -120t80.5 -53q46 0 68 34.5t22 87.5zM408 -138q0 69 -126 74l-112 8q-20 -16 -30.5 -26
t-19 -27.5t-8.5 -37.5q0 -45 38.5 -72.5t93.5 -27.5q71 0 117.5 31t46.5 78z" />
    <glyph glyph-name="h" unicode="h" horiz-adv-x="549" 
d="M542 0q-83 2 -123 2l-116 -2v20l34 4q23 3 30 11t8 36q2 37 2 106q0 85 -3 127q-2 40 -27.5 63.5t-63.5 23.5q-62 0 -107 -38q0 -247 1 -282q1 -25 9 -35t32 -12l39 -4v-20q-83 2 -123 2l-116 -2v20l34 4q23 3 30 11.5t8 35.5q1 51 1 274q0 235 -1 260q-1 32 -11 45.5
t-38 16.5l-25 2v18q56 9 88 16l73 17q-1 -188 -1 -344q94 70 168 70q48 0 83 -34.5t35 -101.5v-75.5t-0.5 -43.5t-0.5 -16q0 -73 1 -104q1 -24 9.5 -34.5t31.5 -12.5l39 -4v-20z" />
    <glyph glyph-name="i" unicode="i" horiz-adv-x="268" 
d="M195 617q0 -23 -16.5 -39.5t-39.5 -16.5t-39.5 16.5t-16.5 39.5t16.5 39.5t39.5 16.5t39.5 -16.5t16.5 -39.5zM263 0q-83 2 -123 2l-116 -2v20l34 4q23 3 30 11.5t8 35.5q1 51 1 130q0 81 -1 130q-1 33 -11.5 46.5t-37.5 15.5l-25 2v18q56 9 88 16l73 17q-1 -127 -1 -187
q0 -153 1 -188q1 -25 9 -35t32 -12l39 -4v-20z" />
    <glyph glyph-name="j" unicode="j" horiz-adv-x="258" 
d="M190 611q0 -23 -16.5 -39.5t-39.5 -16.5t-39.5 16.5t-16.5 39.5t16.5 39.5t39.5 16.5t39.5 -16.5t16.5 -39.5zM178 446q-1 -187 -1 -247q0 -56 -0.5 -116.5t-0.5 -98.5q0 -184 -161 -276l-10 16q40 31 61 73.5t24 137.5q2 52 2 150v76q0 121 -1 170q-1 33 -11.5 46.5
t-37.5 15.5l-25 2v18q56 9 88 16z" />
    <glyph glyph-name="k" unicode="k" horiz-adv-x="507" 
d="M507 0q-62 2 -106 2l-108 -2v20l17 2q17 2 17 15q0 10 -73 93q-70 81 -78 89q0 -125 1 -148q1 -25 9 -34.5t32 -12.5l33 -4v-20q-77 2 -117 2l-116 -2v20l34 4q23 3 30 11.5t8 35.5q1 51 1 274q0 235 -1 260q-1 33 -11.5 46.5t-37.5 15.5l-25 2v18q56 9 88 16l73 17
q-1 -207 -1 -367v-125l100 95q63 59 63 75q0 14 -27 17l-23 2v20q60 -1 98 -1l94 1v-20q-66 -4 -96 -32l-68 -65l-64 -62l84 -97q85 -96 95 -106q32 -32 64 -34l11 -1v-20z" />
    <glyph glyph-name="l" unicode="l" horiz-adv-x="262" 
d="M257 0q-83 2 -123 2l-116 -2v20l34 4q23 3 30 11.5t8 35.5q1 51 1 274q0 235 -1 260q-1 33 -11.5 46.5t-37.5 15.5l-25 2v18q56 9 88 16l73 17q-1 -207 -1 -367q0 -247 1 -282q1 -25 9 -34.5t32 -12.5l39 -4v-20z" />
    <glyph glyph-name="m" unicode="m" horiz-adv-x="836" 
d="M829 0q-83 2 -123 2l-116 -2v20l34 4q23 3 30 11t8 36q2 37 2 106q0 85 -3 127q-2 40 -27.5 63.5t-63.5 23.5q-47 0 -107 -37q4 -16 4 -52q0 -45 -0.5 -73.5t-0.5 -39.5v-14q0 -65 1 -104q1 -24 9.5 -34.5t31.5 -12.5l39 -4v-20q-83 2 -123 2l-116 -2v20l34 4q23 3 30 11
t8 36q2 37 2 106q0 85 -3 127q-2 41 -27 64t-63 23q-62 0 -106 -37q-1 -59 -1 -108v-34q0 -106 1 -141q1 -25 9 -34.5t32 -12.5l39 -4v-20q-83 2 -123 2l-116 -2v20l34 4q23 3 30 11.5t8 35.5q1 51 1 130q0 81 -1 130q-1 33 -11.5 46.5t-37.5 15.5l-25 2v18q56 9 88 16
l73 17l-1 -70q94 70 168 70q37 0 65.5 -20t41.5 -54q32 23 48 33.5t54 25.5t72 15q48 0 83 -34.5t35 -101.5q0 -45 -0.5 -75.5t-0.5 -43.5v-16q0 -73 1 -104q1 -24 9.5 -34.5t31.5 -12.5l39 -4v-20z" />
    <glyph glyph-name="n" unicode="n" horiz-adv-x="555" 
d="M548 0q-83 2 -123 2l-116 -2v20l34 4q23 3 30 11t8 36q2 37 2 106q0 85 -3 127q-2 40 -27.5 63.5t-63.5 23.5q-62 0 -106 -37q-1 -36 -1 -142t1 -141q1 -25 9.5 -35t31.5 -12l39 -4v-20q-83 2 -123 2l-116 -2v20l34 4q23 3 30 11.5t8 35.5q1 51 1 130q0 81 -1 130
q-1 33 -11.5 46.5t-37.5 15.5l-25 2v18q56 9 88 16l73 17l-1 -70q94 70 168 70q48 0 83 -34.5t35 -101.5v-75.5t-0.5 -43.5t-0.5 -16q0 -73 1 -104q1 -24 9.5 -34.5t31.5 -12.5l39 -4v-20z" />
    <glyph glyph-name="o" unicode="o" horiz-adv-x="547" 
d="M507 219q0 -93 -63.5 -160.5t-164.5 -67.5q-105 0 -172 63t-67 155q0 102 62.5 169.5t173.5 67.5q100 0 165.5 -65t65.5 -162zM414 195q0 13 -1.5 31t-9.5 55t-22 65.5t-43.5 51t-69.5 22.5q-135 0 -135 -172q0 -103 38.5 -167.5t109.5 -64.5q65 0 99 40t34 139z" />
    <glyph glyph-name="p" unicode="p" horiz-adv-x="553" 
d="M508 235q0 -106 -60 -175t-154 -69q-34 0 -62 6.5t-39 12.5l-11 7q0 -185 1 -220q1 -25 9 -35t32 -12l43 -4v-20q-87 2 -127 2l-116 -2v20l34 4q23 3 30 11.5t8 35.5q1 51 1 274q0 241 -1 260q-1 33 -11 46.5t-38 15.5l-25 2v18q56 9 88 16l73 17l-1 -57q79 57 146 57
q76 0 128 -58t52 -153zM422 197q-1 84 -41 141t-102 57q-29 0 -53.5 -7.5t-33.5 -15.5l-10 -8v-286q8 -21 38 -41t75 -20q127 0 127 176v4z" />
    <glyph glyph-name="q" unicode="q" horiz-adv-x="528" 
d="M520 -274q-76 2 -116 2l-127 -2v20l43 4q24 2 32 12t9 35v252q-7 -6 -20.5 -16t-51 -26t-71.5 -16q-75 0 -124 57.5t-49 153.5q0 108 62 176t156 68q29 0 55.5 -5t39.5 -9l12 -5q22 11 36 19l42 21q-1 -213 -1 -366q0 -253 1 -304q1 -27 8 -35.5t30 -11.5l34 -4v-20z
M362 72v307q-3 4 -10 11t-32.5 18t-56.5 11q-64 0 -98.5 -49t-34.5 -138q0 -91 37.5 -140.5t97.5 -49.5q29 0 53.5 7.5t33.5 14.5z" />
    <glyph glyph-name="r" unicode="r" horiz-adv-x="390" 
d="M369 402q0 -20 -21 -46.5t-43 -26.5q-8 0 -13.5 5t-10 13.5t-8.5 12.5q-11 9 -22 9q-33 0 -69 -108q0 -154 1 -190q1 -27 14.5 -35t56.5 -12l39 -4v-20q-113 2 -153 2l-116 -2v20l34 4q23 3 30 11.5t8 35.5q1 51 1 130q0 81 -1 130q-1 33 -11.5 46.5t-37.5 15.5l-25 2v18
q56 9 88 16l73 17q-1 -71 -1 -130q19 61 60 100q30 30 72 30q23 0 39 -14.5t16 -29.5z" />
    <glyph glyph-name="s" unicode="s" horiz-adv-x="402" 
d="M360 130q0 -67 -52 -102.5t-118 -35.5q-30 0 -62 6.5t-37 6.5l-37 -3l-5 69l-5 74h20l3 -21q14 -105 126 -105q41 0 66.5 20.5t25.5 54.5q0 29 -18 45.5t-87 44.5q-29 12 -47 21t-38 25t-30 38t-10 51q0 57 46.5 91t112.5 34q30 0 60 -5t36 -5l26 5v-24l4 -113h-20l-2 14
q-14 100 -104 100q-88 0 -88 -62q0 -33 22 -52.5t84 -47.5q5 -2 21 -9.5t21 -9.5t18 -9t17.5 -10l14 -9.5t13 -11.5t9.5 -12.5t8 -15t4 -17t2 -20.5z" />
    <glyph glyph-name="t" unicode="t" horiz-adv-x="326" 
d="M308 62q-69 -67 -136 -67q-48 0 -76 34q-14 17 -18 37t-4 69l4 248h-62q49 45 77 74l72 79l-2 -110h144v-42h-144q-4 -172 -4 -210q0 -73 7 -91q14 -36 59 -36q35 0 73 33z" />
    <glyph glyph-name="u" unicode="u" horiz-adv-x="532" 
d="M521 10q-50 -7 -83 -10l-79 -9v67q-86 -67 -166 -67q-54 0 -83 37q-17 22 -22.5 44t-5.5 65q0 2 0.5 29.5t0.5 54.5v71v39q-1 33 -11.5 46.5t-37.5 15.5l-25 2v18q56 9 88 16l73 17q-2 -127 -2 -187q0 -87 1 -126q1 -44 24.5 -65.5t62.5 -21.5q49 0 103 34v121
q0 81 -1 130q-1 33 -11.5 46.5t-37.5 15.5l-25 2v18q56 9 88 16l73 17q-1 -157 -1 -217q0 -8 2 -140q1 -35 10 -48.5t40 -13.5l25 1v-18z" />
    <glyph glyph-name="v" unicode="v" horiz-adv-x="486" 
d="M468 417l-16 -3q-29 -7 -44 -36q-13 -23 -70 -160q-67 -156 -93 -227h-21l-86 208l-72 165q-7 16 -10.5 22.5t-13.5 17t-22 11.5l-20 2v20q61 -2 99 -2l109 2v-20l-21 -1q-38 -2 -38 -19q0 -10 53 -140l61 -143l58 140q43 104 43 134q0 11 -6.5 17t-26.5 9l-20 3v20
q49 -2 79 -2l78 2v-20z" />
    <glyph glyph-name="w" unicode="w" horiz-adv-x="750" 
d="M732 417l-16 -3q-29 -7 -44 -36q-13 -23 -70 -160q-74 -173 -93 -227h-21l-86 208l-37 84l-47 -114q-59 -139 -73 -178h-21l-86 208l-72 165q-7 16 -10.5 22.5t-13.5 17t-22 11.5l-20 2v20q61 -2 99 -2l109 2v-20l-21 -1q-38 -2 -38 -19q0 -10 53 -140l62 -145l48 114
l37 94l-19 44q-7 16 -10.5 22.5t-13.5 17t-22 11.5l-20 2v20q61 -2 99 -2l109 2v-20l-21 -1q-38 -2 -38 -19q0 -10 53 -140l61 -143l58 140q43 104 43 134q0 11 -6.5 17t-26.5 9l-20 3v20q49 -2 79 -2l78 2v-20z" />
    <glyph glyph-name="x" unicode="x" horiz-adv-x="490" 
d="M490 0q-62 2 -105 2l-109 -2v20l30 2q17 1 17 14q0 12 -48 77l-50 68l-60 -80q-39 -53 -39 -63q0 -14 21 -16l22 -2v-20l-86 1l-76 -1v20q44 1 68 23q18 15 77 91l55 72l-68 92l-65 88q-19 26 -46 29l-18 2v20q61 -2 105 -2l100 2v-20l-14 -1q-28 -2 -28 -15q0 -12 6 -22
t34 -48l43 -59l59 78q26 37 26 48q0 16 -23 18l-21 1v20q58 -2 90 -2l74 2v-20l-18 -1q-14 -1 -26 -5.5t-23.5 -15t-17.5 -16.5t-18.5 -23t-16.5 -21l-66 -88l70 -94l71 -95q26 -35 60 -37l14 -1v-20z" />
    <glyph glyph-name="y" unicode="y" horiz-adv-x="486" 
d="M468 417l-16 -3q-29 -7 -44 -36q-13 -23 -70 -160l-70 -169q-67 -171 -86 -214q-54 -120 -124 -120q-20 0 -34 13.5t-14 31.5q0 36 63 38q41 1 57.5 15.5t41.5 71.5l48 117l-82 197l-72 165q-7 16 -10.5 22.5t-13.5 17t-22 11.5l-20 2v20q61 -2 99 -2l109 2v-20l-21 -1
q-38 -2 -38 -19q0 -10 53 -140l61 -143l58 140q43 104 43 134q0 11 -6 17t-27 9l-20 3v20q49 -2 79 -2l78 2v-20z" />
    <glyph glyph-name="z" unicode="z" horiz-adv-x="478" 
d="M438 155q-6 -57 -9 -98l-4 -60q-15 3 -27 3q-37 0 -111 0.5t-112 0.5l-144 -1l141 212l128 196q-47 1 -77 1h-6q-40 0 -58 -1t-39 -6t-29.5 -17t-16 -31.5t-11.5 -52.5h-20q4 60 4 98l-2 47q10 -6 29 -8t196 -2l147 1l-148 -222l-120 -184q46 -1 76 -1h59q73 0 98 24
t36 101h20z" />
    <glyph glyph-name="braceleft" unicode="{" horiz-adv-x="352" 
d="M336 -280q-123 0 -170 47q-21 21 -27 48t-6 74q0 13 0.5 45.5t0.5 52.5q0 136 -17.5 178.5t-70.5 42.5v25q53 0 70.5 42.5t17.5 178.5v96q0 47 6 74t27 48q49 49 169 49v-22q-39 0 -63 -8t-39 -34q-17 -29 -17 -100q0 -13 1 -54.5t1 -70.5q0 -50 -12.5 -90t-30.5 -62
t-36 -36t-30 -18l-13 -5q3 -1 7 -2.5t17 -8.5t24.5 -16t25.5 -26.5t24 -38t17 -52t7 -68.5q0 -29 -1 -70.5t-1 -54.5q0 -71 17 -100q15 -26 39 -34t63 -8v-22z" />
    <glyph glyph-name="bar" unicode="|" horiz-adv-x="294" 
d="M185 -280h-76q1 260 1 500l-1 453h76q-1 -213 -1 -453z" />
    <glyph glyph-name="braceright" unicode="}" horiz-adv-x="352" 
d="M305 208q-53 0 -70.5 -42.5t-17.5 -178.5v-96q0 -47 -6 -74t-27 -48q-49 -49 -169 -49v22q39 0 63 8t39 34q17 29 17 100q0 13 -1 54.5t-1 70.5q0 50 12.5 90t30.5 62t36 36t31 19l12 4q-3 1 -7 2.5t-17 8.5t-24.5 16t-25.5 26.5t-24 38t-17 52t-7 68.5q0 29 1 70.5
t1 54.5q0 71 -17 100q-15 26 -39 34t-63 8v22q123 0 170 -47q21 -21 27 -48t6 -74q0 -13 -0.5 -45.5t-0.5 -52.5q0 -136 17.5 -178.5t70.5 -42.5v-25z" />
    <glyph glyph-name="asciitilde" unicode="~" horiz-adv-x="549" 
d="M483 367q-14 -22 -47 -45t-68 -23q-41 0 -100 13q-68 16 -100 16q-25 0 -44 -5.5t-25 -9t-23 -14.5l-9 16q14 20 51.5 44.5t72.5 24.5q30 0 113 -17q57 -12 97 -12q46 0 73 29z" />
    <glyph glyph-name="nbspace" unicode="&#xa0;" horiz-adv-x="200" 
 />
    <glyph glyph-name="exclamdown" unicode="&#xa1;" horiz-adv-x="285" 
d="M200 384q0 -23 -17 -40t-40 -17t-40 17t-17 40t17 39.5t40 16.5t40 -16.5t17 -39.5zM197 -174q0 -28 -15.5 -45.5t-40.5 -17.5t-40.5 17.5t-15.5 45.5q0 29 30 304l12 110q1 11 14 11t14 -11q7 -76 11 -110q1 -6 10 -82.5t15 -135.5t6 -86z" />
    <glyph glyph-name="cent" unicode="&#xa2;" 
d="M470 204q-74 -77 -167 -95v-85h-33v84q-69 0 -129 55t-60 159q0 97 50 160.5t139 77.5v71h33v-69h22q57 0 96 -15t39 -36q0 -14 -15 -24.5t-37 -10.5q-17 0 -54 26t-51 26v-361h7q75 0 149 55zM270 171v359q-42 -1 -75.5 -42t-33.5 -119q0 -50 11 -89t27.5 -58.5
t32.5 -32t27 -15.5z" />
    <glyph glyph-name="sterling" unicode="&#xa3;" horiz-adv-x="674" 
d="M632 202q0 -41 -19.5 -83t-41.5 -65q-61 -63 -112 -63q-61 0 -173 64l-14 8q-53 -73 -134 -73q-44 0 -73.5 19.5t-29.5 59.5t39 66t98 26q41 0 90 -17q0 21 -6 45q-5 17 -64 153h-99v33h86q-21 57 -21 105q0 86 62.5 141t143.5 55q89 0 145.5 -28t56.5 -58
q0 -15 -15 -26.5t-34 -11.5q-17 0 -31.5 10t-32.5 29.5t-23 23.5q-36 33 -77 33q-59 0 -85 -39.5t-26 -89.5q0 -18 2 -35t7 -34t8.5 -26.5t10.5 -27t9 -21.5h154v-33h-141q35 -79 35 -123q0 -47 -20 -93q15 -6 48.5 -21.5t51.5 -23t43.5 -14.5t45.5 -7q77 0 77 56
q0 10 -12.5 40t-12.5 45q0 22 14.5 37.5t35.5 15.5q16 0 25 -15t9 -37zM246 78q-79 43 -119 43q-27 0 -42.5 -15.5t-15.5 -35.5q0 -21 17.5 -37.5t50.5 -16.5q76 0 109 62z" />
    <glyph glyph-name="currency" unicode="&#xa4;" 
d="M521 135l-39 -40l-77 76q-6 -5 -16.5 -12.5t-44.5 -20t-70 -12.5q-40 0 -74 11t-48 22l-15 11l-71 -71l-34 36l71 71q-4 5 -11 15t-18 43.5t-11 70.5q0 36 11.5 69t23.5 48l11 15l-79 79l40 39l80 -79q6 5 16 11.5t43 18t67 11.5q37 0 69 -10t46 -20l14 -10l76 76l35 -35
l-75 -75q5 -5 12.5 -15.5t20 -46t12.5 -75.5q0 -33 -10 -64t-20 -46l-11 -14zM423 336q0 78 -43.5 120.5t-105.5 42.5q-64 0 -106 -43.5t-42 -117.5t42.5 -119t106.5 -45q65 0 106.5 42.5t41.5 119.5z" />
    <glyph glyph-name="yen" unicode="&#xa5;" 
d="M555 653l-17 -1q-29 -2 -46 -19q-10 -9 -96 -146l-76 -120v-63l140 1v-37q-25 1 -140 1v-67l140 1v-37q-24 1 -140 1q0 -26 0.5 -59.5t0.5 -36.5q1 -25 9 -35t32 -12l39 -4v-20q-86 2 -126 2l-117 -2v20l34 4q23 3 30 11.5t8 35.5q0 7 0.5 40t0.5 56l-131 -1v37
q23 -1 131 -1v67l-131 -1v37q23 -1 131 -1v47q-42 72 -78 128q-9 13 -27 43l-32.5 54t-26.5 39q-15 19 -25 27t-26 9l-21 2v20q72 -2 116 -2l121 2v-20l-20 -1q-35 -2 -35 -26q0 -15 13.5 -42t42.5 -75q6 -9 9 -14l61 -100l71 113q40 65 52 88t12 37q0 17 -27 18l-29 2v20
l98 -1l75 1v-20z" />
    <glyph glyph-name="section" unicode="&#xa7;" 
d="M493 186q0 -97 -99 -161q47 -53 47 -125q0 -77 -57 -129.5t-143 -52.5q-74 0 -122.5 22.5t-48.5 49.5q0 14 13 23.5t29 9.5q22 0 41 -19.5t42.5 -39t57.5 -19.5q59 0 90 33.5t31 88.5q0 20 -8.5 40.5t-18 34.5t-30.5 34t-31 28l-36 27.5l-30 22.5q-41 31 -61.5 49
t-47.5 45.5t-38.5 54.5t-11.5 57q0 19 4 36.5t9.5 30.5t14.5 25.5t16.5 20.5t18.5 16.5t16.5 12l13.5 8.5l9 5q-50 58 -50 126q0 76 55.5 128.5t142.5 52.5q71 0 121.5 -23t50.5 -50q0 -14 -12.5 -24.5t-27.5 -10.5q-18 0 -35 12.5t-28.5 27.5t-34.5 27.5t-53 12.5
q-46 0 -77 -29.5t-31 -86.5q0 -22 8 -43.5t16 -35.5t29 -34.5t29 -27.5t35.5 -28t30.5 -23q88 -68 113 -96q48 -52 48 -104zM425 133q0 14 -3.5 27t-7.5 23t-14 23t-16.5 20.5t-23 22l-25 21.5l-30.5 24.5l-32 25.5q-6 5 -28.5 22t-38.5 30.5t-30 27.5q-49 -40 -49 -93
q0 -43 32.5 -80t112.5 -101q6 -5 47 -36.5t58 -48.5q48 38 48 92z" />
    <glyph glyph-name="dieresis" unicode="&#xa8;" horiz-adv-x="500" 
d="M375 544q0 -18 -12.5 -30t-30.5 -12t-31 12t-13 30t13 30.5t31 12.5t30.5 -12.5t12.5 -30.5zM212 544q0 -18 -13 -30t-31 -12t-30.5 12t-12.5 30t12.5 30.5t30.5 12.5t31 -12.5t13 -30.5z" />
    <glyph glyph-name="copyright" unicode="&#xa9;" horiz-adv-x="814" 
d="M752 335q0 -146 -98.5 -245t-246.5 -99q-145 0 -245 100t-100 244q0 147 100 246t245 99q147 0 246 -100.5t99 -244.5zM715 336q0 129 -90 222t-217 93q-132 0 -219.5 -89.5t-87.5 -225.5q0 -129 90 -222t217 -93q132 0 219.5 89.5t87.5 225.5zM562 269q-10 -74 -12 -91
l-1 -11q-6 0 -44 -5t-86 -5q-101 0 -159.5 49.5t-58.5 131.5q0 73 54 129q53 54 159 54q32 0 68 -2.5t42 -2.5l25 3v-29l2 -79h-19l-2 16q-5 45 -32 58.5t-76 13.5q-150 0 -150 -156q0 -74 40.5 -119t122.5 -45q59 0 77 15.5t29 65.5q2 7 2 9h19z" />
    <glyph glyph-name="ordfeminine" unicode="&#xaa;" horiz-adv-x="266" 
d="M275 442q-44 -44 -75 -44q-8 0 -14 3t-10.5 8.5t-7 9.5t-5.5 10.5t-3 7.5q-11 -12 -32.5 -25t-41.5 -13q-27 0 -49 20.5t-22 47.5q0 29 23 50t58 31q21 6 60 10q1 8 1 47q0 56 -36 56q-21 0 -34 -27q-16 -31 -40 -31q-10 0 -15.5 7t-5.5 15q0 18 30.5 36t74.5 18
q84 0 84 -60q0 -3 -1.5 -54.5t-1.5 -98.5q0 -10 6.5 -18.5t14.5 -8.5t16.5 3.5t12.5 7.5l5 4zM156 453v88q-85 -7 -85 -51q0 -28 16.5 -40.5t35.5 -12.5q15 0 33 16z" />
    <glyph glyph-name="guillemotleft" unicode="&#xab;" horiz-adv-x="380" 
d="M318 67l-14 -11l-117 163v20l117 163l14 -11q-58 -125 -58 -165q0 -18 14.5 -57.5t29.5 -70.5zM178 67l-14 -11l-117 163v20l117 163l14 -11q-58 -125 -58 -165q0 -18 14.5 -57.5t29.5 -70.5z" />
    <glyph glyph-name="logicalnot" unicode="&#xac;" horiz-adv-x="549" 
d="M482 224h-61q1 59 1 120v55q-62 1 -152 1l-202 -1v57q162 -1 202 -1l212 1q-1 -49 -1 -112z" />
    <glyph glyph-name="registered" unicode="&#xae;" horiz-adv-x="814" 
d="M752 335q0 -146 -98.5 -245t-246.5 -99q-145 0 -245 100t-100 244q0 147 100 246t245 99q147 0 246 -100.5t99 -244.5zM715 336q0 129 -90 222t-217 93q-132 0 -219.5 -89.5t-87.5 -225.5q0 -129 90 -222t217 -93q132 0 219.5 89.5t87.5 225.5zM632 160q-28 -2 -53 -2
q-34 0 -50.5 7.5t-32.5 23.5q-13 14 -34 41.5l-36.5 49t-16.5 22.5q-3 4 -28 6l-35 2q0 -71 1 -93q1 -18 7 -25.5t24 -9.5l29 -3v-19q-64 2 -94 2l-88 -2v19l25 3q18 2 23 8.5t6 26.5q1 39 1 122q0 82 -1 120q-1 20 -7 26.5t-24 8.5l-29 3v19q63 -1 93 -1q10 0 45 0.5
t48 0.5q80 0 110 -26q27 -24 27 -57q0 -70 -80 -104q37 -44 59 -68q43 -48 63.5 -64t35.5 -18h12v-19zM470 410q0 84 -81 84l-41 -2q0 -8 -1 -33q-1 -26 -1 -127q36 -3 63 -3q32 0 46.5 27t14.5 54z" />
    <glyph glyph-name="macron" unicode="&#xaf;" horiz-adv-x="500" 
d="M392 533q-87 1 -137 1l-137 -1v48q87 -1 137 -1l137 1v-48z" />
    <glyph glyph-name="degree" unicode="&#xb0;" horiz-adv-x="310" 
d="M276 580q0 -50 -35 -82.5t-88 -32.5q-57 0 -88 32t-31 83q0 47 35.5 81t86.5 34q53 0 86.5 -32.5t33.5 -82.5zM226 580q0 31 -20 51.5t-51 20.5t-51.5 -21t-20.5 -51q0 -33 20 -53t52 -20t51.5 20.5t19.5 52.5z" />
    <glyph glyph-name="plusminus" unicode="&#xb1;" horiz-adv-x="549" 
d="M467 263h-167v-166h-55v166h-165v55h165v166h55v-166h167v-55zM470 0h-391v55h391v-55z" />
    <glyph glyph-name="acute" unicode="&#xb4;" horiz-adv-x="500" 
d="M345 650l-178 -159l-11 14l133 167z" />
    <glyph glyph-name="mu" unicode="&#xb5;" horiz-adv-x="541" 
d="M531 68q-21 -89 -110 -89q-33 0 -48.5 20.5t-24.5 55.5q-21 -21 -61 -43t-85 -22q-57 0 -84 30v-28q0 -29 14 -74t14 -60q0 -61 -44 -61q-40 0 -40 61q0 15 12 60t12 74v327q0 54 -9.5 69t-43.5 15h-7v22h12q12 0 29 -1t29 -1q10 0 25 1t25 1h13v-286q0 -46 21 -67.5
t69 -21.5q54 0 99 28v241q0 55 -9 69.5t-43 14.5h-9v22h14q11 0 28 -1t28 -1q10 0 25 1t25 1h14v-289q0 -58 9.5 -78t32.5 -20q7 0 13 1t9.5 2.5t8 5t6 5t6.5 8t7 8.5h18z" />
    <glyph glyph-name="paragraph" unicode="&#xb6;" horiz-adv-x="749" 
d="M708 18l-4 -31q-40 13 -101 13v-280h-37q0 132 1 280h-38v-280h-37q0 132 1 280h-88q-47 0 -71 1.5t-59.5 11t-66.5 29.5q-146 92 -146 297q0 84 30 154.5t79 113.5q35 30 78.5 45.5t74.5 18t81 2.5q15 0 62 -0.5t60 -0.5q48 0 71 1q77 3 106 13l4 -31q-35 -10 -105 -12
v-613q70 -2 105 -12zM493 31v166l-1 446h-75v-613zM567 31v166l-1 445h-37v-611h38z" />
    <glyph glyph-name="periodcentered" unicode="&#xb7;" horiz-adv-x="230" 
d="M171 339q0 -23 -16.5 -39.5t-39.5 -16.5t-39.5 16.5t-16.5 39.5t16.5 39.5t39.5 16.5t39.5 -16.5t16.5 -39.5z" />
    <glyph glyph-name="cedilla" unicode="&#xb8;" horiz-adv-x="500" 
d="M360 -153q0 -38 -31 -66.5t-84 -28.5q-34 0 -61.5 14t-27.5 31q0 27 28 27q11 0 32.5 -24.5t43.5 -24.5q28 0 41 16.5t13 38.5q0 31 -32 46t-95 24l55 110l25 -2l-30 -62q123 -17 123 -99z" />
    <glyph glyph-name="ordmasculine" unicode="&#xba;" horiz-adv-x="328" 
d="M308 539q0 -59 -40 -99.5t-102 -40.5q-63 0 -104.5 39t-41.5 95q0 66 39.5 106.5t106.5 40.5q61 0 101.5 -40.5t40.5 -100.5zM244 525q0 12 -2 27t-8.5 43t-25.5 46.5t-47 18.5q-77 0 -77 -103q0 -61 21.5 -100t63.5 -39q75 0 75 107z" />
    <glyph glyph-name="guillemotright" unicode="&#xbb;" horiz-adv-x="380" 
d="M334 219l-117 -163l-14 11q58 119 58 159q0 18 -14.5 59t-28.5 73l-15 33l14 11l117 -163v-20zM194 219l-117 -163l-14 11q58 119 58 159q0 18 -14.5 59t-28.5 73l-15 33l14 11l117 -163v-20z" />
    <glyph glyph-name="questiondown" unicode="&#xbf;" horiz-adv-x="426" 
d="M335 384q0 -23 -17 -40t-40 -17t-40 17t-17 40t17 39.5t40 16.5t40 -16.5t17 -39.5zM380 -191q0 -21 -23.5 -35t-63.5 -14q-96 0 -168 53q-68 49 -68 140q0 51 32 84t80 51q7 3 25 9t28.5 10t25.5 11.5t23 15t14.5 18.5t6.5 23q0 15 -6 33.5t-12 29.5l-7 12l26 7
q44 -80 44 -127q0 -27 -6.5 -45t-24 -30.5t-31.5 -19t-45 -18.5q-11 -4 -16 -6q-106 -39 -106 -106q0 -35 24.5 -58.5t61.5 -23.5q34 0 68.5 15t57.5 15q60 0 60 -44z" />
    <glyph glyph-name="Agrave" unicode="&#xc0;" horiz-adv-x="733" 
d="M400 753l-17 -13l-143 163l54 21zM720 0q-75 3 -123 3l-135 -3v20l21 2q28 2 40.5 8t12.5 19t-40 106l-49 119q-35 1 -115 1l-104 -1q-35 -82 -41 -97q-38 -97 -38 -118q0 -32 53 -37l23 -2v-20q-70 3 -112 3l-91 -3v20l21 3q40 6 62 56q15 32 98 232q153 368 156 377h23
q7 -19 140 -341q104 -253 127 -290q19 -29 43 -33q2 -1 5 -1l23 -3v-20zM435 304l-99 235l-95 -235h194z" />
    <glyph glyph-name="Aacute" unicode="&#xc1;" horiz-adv-x="733" 
d="M534 901l-180 -161l-12 15l134 169zM720 0q-75 3 -123 3l-135 -3v20l21 2q28 2 40.5 8t12.5 19t-40 106l-49 119q-35 1 -115 1l-104 -1q-35 -82 -41 -97q-38 -97 -38 -118q0 -32 53 -37l23 -2v-20q-70 3 -112 3l-91 -3v20l21 3q40 6 62 56q15 32 98 232q153 368 156 377
h23q7 -19 140 -341q104 -253 127 -290q19 -29 43 -33q2 -1 5 -1l23 -3v-20zM435 304l-99 235l-95 -235h194z" />
    <glyph glyph-name="Acircumflex" unicode="&#xc2;" horiz-adv-x="733" 
d="M507 746l-13 -15l-125 117l-120 -117l-12 15l124 169h22zM720 0q-75 3 -123 3l-135 -3v20l21 2q28 2 40.5 8t12.5 19t-40 106l-49 119q-35 1 -115 1l-104 -1q-35 -82 -41 -97q-38 -97 -38 -118q0 -32 53 -37l23 -2v-20q-70 3 -112 3l-91 -3v20l21 3q40 6 62 56
q15 32 98 232q153 368 156 377h23q7 -19 140 -341q104 -253 127 -290q19 -29 43 -33q2 -1 5 -1l23 -3v-20zM435 304l-99 235l-95 -235h194z" />
    <glyph glyph-name="Atilde" unicode="&#xc3;" horiz-adv-x="733" 
d="M533 823q-17 -26 -43.5 -45.5t-54.5 -19.5t-79 15q-54 14 -75 14q-34 0 -62 -34l-7 18q47 66 98 66q17 0 79 -16q52 -13 79 -13q28 0 57 31zM720 0q-75 3 -123 3l-135 -3v20l21 2q28 2 40.5 8t12.5 19t-40 106l-49 119q-35 1 -115 1l-104 -1q-35 -82 -41 -97
q-38 -97 -38 -118q0 -32 53 -37l23 -2v-20q-70 3 -112 3l-91 -3v20l21 3q40 6 62 56q15 32 98 232q153 368 156 377h23q7 -19 140 -341q104 -253 127 -290q19 -29 43 -33q2 -1 5 -1l23 -3v-20zM435 304l-99 235l-95 -235h194z" />
    <glyph glyph-name="Adieresis" unicode="&#xc4;" horiz-adv-x="733" 
d="M504 794q0 -19 -13 -31.5t-32 -12.5t-32.5 12.5t-13.5 31.5t13.5 32t32.5 13t32 -13t13 -32zM321 794q0 -19 -13.5 -31.5t-32.5 -12.5t-32 12.5t-13 31.5t13 32t32 13t32.5 -13t13.5 -32zM720 0q-75 3 -123 3l-135 -3v20l21 2q28 2 40.5 8t12.5 19t-40 106l-49 119
q-35 1 -115 1l-104 -1q-35 -82 -41 -97q-38 -97 -38 -118q0 -32 53 -37l23 -2v-20q-70 3 -112 3l-91 -3v20l21 3q40 6 62 56q15 32 98 232q153 368 156 377h23q7 -19 140 -341q104 -253 127 -290q19 -29 43 -33q2 -1 5 -1l23 -3v-20zM435 304l-99 235l-95 -235h194z" />
    <glyph glyph-name="Aring" unicode="&#xc5;" horiz-adv-x="733" 
d="M455 828q0 -35 -25 -60t-60 -25t-60 25t-25 60t25 60t60 25t60 -25t25 -60zM720 0q-75 3 -123 3l-135 -3v20l21 2q28 2 40.5 8t12.5 19t-40 106l-49 119q-35 1 -115 1l-104 -1q-35 -82 -41 -97q-38 -97 -38 -118q0 -32 53 -37l23 -2v-20q-70 3 -112 3l-91 -3v20l21 3
q40 6 62 56q15 32 98 232q153 368 156 377h23q7 -19 140 -341q104 -253 127 -290q19 -29 43 -33q2 -1 5 -1l23 -3v-20zM422 827q0 22 -15 38t-37 16q-23 0 -37.5 -14.5t-14.5 -39.5q0 -22 15 -38t37 -16q26 0 39 15.5t13 38.5zM435 304l-99 235l-95 -235h194z" />
    <glyph glyph-name="AE" unicode="&#xc6;" horiz-adv-x="1040" 
d="M998 176q-24 -108 -32 -150l-5 -28l-54 3h-353l-134 -1v20l39 4q15 2 22.5 4.5t13.5 12.5t7 29q2 48 2 264h-179q-92 -143 -126 -204q-25 -44 -25 -69q0 -34 58 -39l22 -2v-20q-78 3 -120 3l-113 -3v20l22 2q21 2 37 15t38 42t172 265l190 295q-18 8 -51 11l-37 3v20
q113 -1 154 -1h154q206 0 235 6q2 -59 3 -78l7 -90h-20q-15 82 -33.5 105t-78.5 23h-215q-1 -163 -1 -272h135q75 0 95 13q32 20 34 95h20q-2 -53 -2 -116l2 -132h-20q0 83 -42 99q-23 9 -87 9h-135q0 -181 2 -237q2 -42 18 -51.5t87 -9.5h114q42 0 66 5t42 24t27 41t25 70
h20zM504 366v248l-158 -248h158z" />
    <glyph glyph-name="Ccedilla" unicode="&#xc7;" horiz-adv-x="760" 
d="M699 181q-17 -116 -20 -139l-5 -36q-101 -17 -213 -17q-21 0 -57 2l-22 -45q123 -17 123 -99q0 -38 -31 -66.5t-84 -28.5q-34 0 -61.5 14t-27.5 31q0 27 28 27q11 0 32.5 -24.5t43.5 -24.5q28 0 41 16.5t13 38.5q0 31 -32 46t-95 24q16 23 47 94q-152 19 -234.5 108.5
t-82.5 228.5q0 146 95 241q105 106 298 106q59 0 107 -5t65 -5l47 5v-41l4 -143h-21q-9 81 -47 118q-40 39 -156 39q-132 0 -206 -74q-79 -79 -79 -228v-11q3 -139 76.5 -225t225.5 -86q114 0 157 42q16 16 29 45t17 51l5 21h20z" />
    <glyph glyph-name="Egrave" unicode="&#xc8;" horiz-adv-x="649" 
d="M369 753l-17 -13l-143 163l54 21zM607 176q-24 -108 -32 -150l-5 -28l-54 3h-353l-134 -1v20l39 4q15 2 22.5 4.5t13.5 12.5t7 29q2 49 2 267q0 217 -2 266q-1 27 -15.5 36t-46.5 12l-28 2v20q93 -1 134 -1h154q207 0 235 6q2 -59 3 -78l7 -90h-20q-15 82 -33.5 105
t-78.5 23h-215q-1 -162 -1 -271h135q75 0 95 13q32 20 34 95h20q-2 -54 -2 -117l2 -132h-20q0 83 -42 99q-22 9 -87 9h-135q0 -181 2 -237q2 -42 18 -51.5t87 -9.5h114q42 0 66 5t42 24t27 41t25 70h20z" />
    <glyph glyph-name="Eacute" unicode="&#xc9;" horiz-adv-x="649" 
d="M428 901l-180 -161l-12 15l134 169zM607 176q-24 -108 -32 -150l-5 -28l-54 3h-353l-134 -1v20l39 4q15 2 22.5 4.5t13.5 12.5t7 29q2 49 2 267q0 217 -2 266q-1 27 -15.5 36t-46.5 12l-28 2v20q93 -1 134 -1h154q207 0 235 6q2 -59 3 -78l7 -90h-20q-15 82 -33.5 105
t-78.5 23h-215q-1 -162 -1 -271h135q75 0 95 13q32 20 34 95h20q-2 -54 -2 -117l2 -132h-20q0 83 -42 99q-22 9 -87 9h-135q0 -181 2 -237q2 -42 18 -51.5t87 -9.5h114q42 0 66 5t42 24t27 41t25 70h20z" />
    <glyph glyph-name="Ecircumflex" unicode="&#xca;" horiz-adv-x="649" 
d="M455 746l-13 -15l-125 117l-120 -117l-12 15l124 169h22zM607 176q-24 -108 -32 -150l-5 -28l-54 3h-353l-134 -1v20l39 4q15 2 22.5 4.5t13.5 12.5t7 29q2 49 2 267q0 217 -2 266q-1 27 -15.5 36t-46.5 12l-28 2v20q93 -1 134 -1h154q207 0 235 6q2 -59 3 -78l7 -90h-20
q-15 82 -33.5 105t-78.5 23h-215q-1 -162 -1 -271h135q75 0 95 13q32 20 34 95h20q-2 -54 -2 -117l2 -132h-20q0 83 -42 99q-22 9 -87 9h-135q0 -181 2 -237q2 -42 18 -51.5t87 -9.5h114q42 0 66 5t42 24t27 41t25 70h20z" />
    <glyph glyph-name="Edieresis" unicode="&#xcb;" horiz-adv-x="649" 
d="M456 794q0 -19 -13 -31.5t-32 -12.5t-32.5 12.5t-13.5 31.5t13.5 32t32.5 13t32 -13t13 -32zM273 794q0 -19 -13.5 -31.5t-32.5 -12.5t-32 12.5t-13 31.5t13 32t32 13t32.5 -13t13.5 -32zM607 176q-24 -108 -32 -150l-5 -28l-54 3h-353l-134 -1v20l39 4q15 2 22.5 4.5
t13.5 12.5t7 29q2 49 2 267q0 217 -2 266q-1 27 -15.5 36t-46.5 12l-28 2v20q93 -1 134 -1h154q207 0 235 6q2 -59 3 -78l7 -90h-20q-15 82 -33.5 105t-78.5 23h-215q-1 -162 -1 -271h135q75 0 95 13q32 20 34 95h20q-2 -54 -2 -117l2 -132h-20q0 83 -42 99q-22 9 -87 9
h-135q0 -181 2 -237q2 -42 18 -51.5t87 -9.5h114q42 0 66 5t42 24t27 41t25 70h20z" />
    <glyph glyph-name="Igrave" unicode="&#xcc;" horiz-adv-x="319" 
d="M220 753l-17 -13l-143 163l54 21zM298 0q-96 2 -136 2l-133 -2v20l39 4q15 2 22.5 4.5t13.5 12.5t7 29q2 49 2 267q0 217 -2 266q-1 19 -7 29t-13.5 12.5t-22.5 4.5l-39 4v20q93 -2 133 -2l136 2v-20l-47 -5q-22 -3 -32 -13t-11 -32q-2 -98 -2 -267q0 -168 2 -266
q1 -22 11 -32t32 -13l47 -5v-20z" />
    <glyph glyph-name="Iacute" unicode="&#xcd;" horiz-adv-x="319" 
d="M307 901l-180 -161l-12 15l134 169zM298 0q-96 2 -136 2l-133 -2v20l39 4q15 2 22.5 4.5t13.5 12.5t7 29q2 49 2 267q0 217 -2 266q-1 19 -7 29t-13.5 12.5t-22.5 4.5l-39 4v20q93 -2 133 -2l136 2v-20l-47 -5q-22 -3 -32 -13t-11 -32q-2 -98 -2 -267q0 -168 2 -266
q1 -22 11 -32t32 -13l47 -5v-20z" />
    <glyph glyph-name="Icircumflex" unicode="&#xce;" horiz-adv-x="319" 
d="M299 746l-13 -15l-125 117l-120 -117l-12 15l124 169h22zM298 0q-96 2 -136 2l-133 -2v20l39 4q15 2 22.5 4.5t13.5 12.5t7 29q2 49 2 267q0 217 -2 266q-1 19 -7 29t-13.5 12.5t-22.5 4.5l-39 4v20q93 -2 133 -2l136 2v-20l-47 -5q-22 -3 -32 -13t-11 -32
q-2 -98 -2 -267q0 -168 2 -266q1 -22 11 -32t32 -13l47 -5v-20z" />
    <glyph glyph-name="Idieresis" unicode="&#xcf;" horiz-adv-x="319" 
d="M299 794q0 -19 -13 -31.5t-32 -12.5t-32.5 12.5t-13.5 31.5t13.5 32t32.5 13t32 -13t13 -32zM116 794q0 -19 -13.5 -31.5t-32.5 -12.5t-32 12.5t-13 31.5t13 32t32 13t32.5 -13t13.5 -32zM298 0q-96 2 -136 2l-133 -2v20l39 4q15 2 22.5 4.5t13.5 12.5t7 29q2 49 2 267
q0 217 -2 266q-1 19 -7 29t-13.5 12.5t-22.5 4.5l-39 4v20q93 -2 133 -2l136 2v-20l-47 -5q-22 -3 -32 -13t-11 -32q-2 -98 -2 -267q0 -168 2 -266q1 -22 11 -32t32 -13l47 -5v-20z" />
    <glyph glyph-name="Ntilde" unicode="&#xd1;" horiz-adv-x="783" 
d="M582 823q-17 -26 -43.5 -45.5t-54.5 -19.5t-79 15q-54 14 -75 14q-34 0 -62 -34l-7 18q47 66 98 66q17 0 79 -16q52 -13 79 -13q28 0 57 31zM762 653l-33 -2q-46 -5 -48 -57q-3 -78 -3 -132q0 -19 0.5 -61.5t0.5 -69.5q0 -59 -0.5 -170.5t-0.5 -169.5h-16q-8 12 -307 359
l-202 235v-273q0 -144 2 -231q1 -33 21.5 -45.5t57.5 -14.5l20 -1v-20q-76 2 -116 2l-108 -2v20l33 2q46 5 48 57q2 51 2 131v132q0 38 0.5 105t0.5 92q0 51 -1 68q-1 41 -71 45q-13 1 -20 1v20h20q16 0 57.5 -0.5t53.5 -0.5l53 1l221 -259l215 -250v197q0 144 -2 231
q-1 33 -20 45.5t-60 14.5l-19 1v20q76 -2 116 -2l105 2v-20z" />
    <glyph glyph-name="Ograve" unicode="&#xd2;" horiz-adv-x="806" 
d="M461 753l-17 -13l-143 163l54 21zM739 348q0 -146 -91.5 -251.5t-239.5 -105.5q-147 0 -246.5 98t-99.5 251q0 140 96.5 240t239.5 100q167 0 254 -93t87 -239zM633 335q0 33 -5 70t-21 82t-40.5 80t-68 59t-99.5 24q-112 0 -170.5 -80t-58.5 -228q0 -140 64 -229.5
t179 -89.5q220 0 220 312z" />
    <glyph glyph-name="Oacute" unicode="&#xd3;" horiz-adv-x="806" 
d="M529 901l-180 -161l-12 15l134 169zM739 348q0 -146 -91.5 -251.5t-239.5 -105.5q-147 0 -246.5 98t-99.5 251q0 140 96.5 240t239.5 100q167 0 254 -93t87 -239zM633 335q0 33 -5 70t-21 82t-40.5 80t-68 59t-99.5 24q-112 0 -170.5 -80t-58.5 -228q0 -140 64 -229.5
t179 -89.5q220 0 220 312z" />
    <glyph glyph-name="Ocircumflex" unicode="&#xd4;" horiz-adv-x="806" 
d="M538 746l-13 -15l-125 117l-120 -117l-12 15l124 169h22zM739 348q0 -146 -91.5 -251.5t-239.5 -105.5q-147 0 -246.5 98t-99.5 251q0 140 96.5 240t239.5 100q167 0 254 -93t87 -239zM633 335q0 33 -5 70t-21 82t-40.5 80t-68 59t-99.5 24q-112 0 -170.5 -80t-58.5 -228
q0 -140 64 -229.5t179 -89.5q220 0 220 312z" />
    <glyph glyph-name="Otilde" unicode="&#xd5;" horiz-adv-x="806" 
d="M569 823q-17 -26 -43.5 -45.5t-54.5 -19.5t-79 15q-54 14 -75 14q-34 0 -62 -34l-7 18q47 66 98 66q17 0 79 -16q52 -13 79 -13q28 0 57 31zM739 348q0 -146 -91.5 -251.5t-239.5 -105.5q-147 0 -246.5 98t-99.5 251q0 140 96.5 240t239.5 100q167 0 254 -93t87 -239z
M633 335q0 33 -5 70t-21 82t-40.5 80t-68 59t-99.5 24q-112 0 -170.5 -80t-58.5 -228q0 -140 64 -229.5t179 -89.5q220 0 220 312z" />
    <glyph glyph-name="Odieresis" unicode="&#xd6;" horiz-adv-x="806" 
d="M529 794q0 -19 -13 -31.5t-32 -12.5t-32.5 12.5t-13.5 31.5t13.5 32t32.5 13t32 -13t13 -32zM346 794q0 -19 -13.5 -31.5t-32.5 -12.5t-32 12.5t-13 31.5t13 32t32 13t32.5 -13t13.5 -32zM739 348q0 -146 -91.5 -251.5t-239.5 -105.5q-147 0 -246.5 98t-99.5 251
q0 140 96.5 240t239.5 100q167 0 254 -93t87 -239zM633 335q0 33 -5 70t-21 82t-40.5 80t-68 59t-99.5 24q-112 0 -170.5 -80t-58.5 -228q0 -140 64 -229.5t179 -89.5q220 0 220 312z" />
    <glyph glyph-name="Oslash" unicode="&#xd8;" horiz-adv-x="806" 
d="M739 348q0 -146 -91.5 -251.5t-241.5 -105.5q-35 0 -68.5 6.5t-49.5 12.5l-16 6l-38 -73l-33 16l38 72q-7 3 -19 10t-42.5 33.5t-54 58.5t-42.5 87.5t-19 119.5q0 89 40.5 166t119.5 125.5t179 48.5q43 0 82.5 -8t58.5 -16l18 -7l38 73l33 -16l-38 -74q6 -3 16 -9
t35 -29.5t44 -52.5t35 -81t16 -112zM535 601q-5 5 -15.5 13.5t-45.5 22t-75 13.5q-112 0 -170.5 -80t-58.5 -228q0 -53 9.5 -100t23.5 -75.5t28 -49.5t23 -29l10 -9zM633 335q0 57 -16.5 123t-54.5 115l-269 -517q45 -33 120 -33q220 0 220 312z" />
    <glyph glyph-name="Ugrave" unicode="&#xd9;" horiz-adv-x="764" 
d="M451 753l-17 -13l-143 163l54 21zM748 653l-33 -2q-46 -5 -48 -57q-2 -45 -2 -124v-139v-68q0 -57 -2 -79q-4 -55 -30.5 -96t-66.5 -62.5t-81 -31t-83 -9.5q-148 0 -224.5 55.5t-78.5 178.5v53v155q0 151 -1 176q-1 19 -7 29t-13.5 12.5t-22.5 4.5l-39 4v20q93 -2 133 -2
l136 2v-20l-47 -5q-22 -3 -32 -13t-11 -32q-3 -147 -3 -177q0 -160 2 -204q4 -99 59.5 -148.5t147.5 -49.5q220 0 223 191v39v107q0 144 -2 231q-1 33 -19.5 45.5t-59.5 14.5l-20 1v20q80 -2 120 -2l105 2v-20z" />
    <glyph glyph-name="Uacute" unicode="&#xda;" horiz-adv-x="764" 
d="M559 901l-180 -161l-12 15l134 169zM748 653l-33 -2q-46 -5 -48 -57q-2 -45 -2 -124v-139v-68q0 -57 -2 -79q-4 -55 -30.5 -96t-66.5 -62.5t-81 -31t-83 -9.5q-148 0 -224.5 55.5t-78.5 178.5v53v155q0 151 -1 176q-1 19 -7 29t-13.5 12.5t-22.5 4.5l-39 4v20
q93 -2 133 -2l136 2v-20l-47 -5q-22 -3 -32 -13t-11 -32q-3 -147 -3 -177q0 -160 2 -204q4 -99 59.5 -148.5t147.5 -49.5q220 0 223 191v39v107q0 144 -2 231q-1 33 -19.5 45.5t-59.5 14.5l-20 1v20q80 -2 120 -2l105 2v-20z" />
    <glyph glyph-name="Ucircumflex" unicode="&#xdb;" horiz-adv-x="764" 
d="M553 746l-13 -15l-125 117l-120 -117l-12 15l124 169h22zM748 653l-33 -2q-46 -5 -48 -57q-2 -45 -2 -124v-139v-68q0 -57 -2 -79q-4 -55 -30.5 -96t-66.5 -62.5t-81 -31t-83 -9.5q-148 0 -224.5 55.5t-78.5 178.5v53v155q0 151 -1 176q-1 19 -7 29t-13.5 12.5t-22.5 4.5
l-39 4v20q93 -2 133 -2l136 2v-20l-47 -5q-22 -3 -32 -13t-11 -32q-3 -147 -3 -177q0 -160 2 -204q4 -99 59.5 -148.5t147.5 -49.5q220 0 223 191v39v107q0 144 -2 231q-1 33 -19.5 45.5t-59.5 14.5l-20 1v20q80 -2 120 -2l105 2v-20z" />
    <glyph glyph-name="Udieresis" unicode="&#xdc;" horiz-adv-x="764" 
d="M543 794q0 -19 -13 -31.5t-32 -12.5t-32.5 12.5t-13.5 31.5t13.5 32t32.5 13t32 -13t13 -32zM360 794q0 -19 -13.5 -31.5t-32.5 -12.5t-32 12.5t-13 31.5t13 32t32 13t32.5 -13t13.5 -32zM748 653l-33 -2q-46 -5 -48 -57q-2 -45 -2 -124v-139v-68q0 -57 -2 -79
q-4 -55 -30.5 -96t-66.5 -62.5t-81 -31t-83 -9.5q-148 0 -224.5 55.5t-78.5 178.5v53v155q0 151 -1 176q-1 19 -7 29t-13.5 12.5t-22.5 4.5l-39 4v20q93 -2 133 -2l136 2v-20l-47 -5q-22 -3 -32 -13t-11 -32q-3 -147 -3 -177q0 -160 2 -204q4 -99 59.5 -148.5t147.5 -49.5
q220 0 223 191v39v107q0 144 -2 231q-1 33 -19.5 45.5t-59.5 14.5l-20 1v20q80 -2 120 -2l105 2v-20z" />
    <glyph glyph-name="germandbls" unicode="&#xdf;" horiz-adv-x="636" 
d="M613 123q0 -64 -50.5 -97.5t-112.5 -33.5q-30 0 -60 6.5t-36 6.5q-12 0 -21.5 -1.5t-12.5 -3.5l-3 -1q0 21 -2 48l-8 85h20l3 -18q16 -95 121 -95q90 0 90 72q0 29 -23 47t-85 48q-26 13 -42 22.5t-35 24.5t-28 34t-9 42q0 27 13.5 52t25.5 37.5t39 37.5q24 23 37.5 39
t26 44t12.5 59q0 49 -28 83t-86 34q-100 0 -142 -95q-17 -40 -22 -105t-5 -236q0 -153 1 -188q1 -27 14 -36t53 -13l19 -2v-20q-89 2 -129 2l-116 -2v20l34 4q23 3 30 11.5t8 35.5q1 51 1 130l-1 181h-66q10 15 17 24l18 21h31q2 76 26 135.5t62.5 93t82.5 50.5t91 17
q79 0 131 -38.5t52 -96.5q0 -14 -3 -27t-6.5 -23t-12.5 -22t-14 -18t-17.5 -17l-16.5 -14.5t-18.5 -14t-16.5 -12.5q-58 -45 -58 -87q0 -34 24 -54.5t86 -50.5q31 -15 47 -24.5t35 -24.5t27 -33.5t8 -42.5z" />
    <glyph glyph-name="agrave" unicode="&#xe0;" horiz-adv-x="457" 
d="M281 503l-16 -12l-142 161l53 20zM460 56q-7 -7 -19.5 -17.5t-43.5 -28t-53 -17.5q-20 0 -36 13.5t-22 27.5l-6 14q-7 -6 -20 -15.5t-46.5 -25.5t-60.5 -16q-41 0 -76 32.5t-35 75.5q0 46 38 78.5t91 48.5q24 7 50.5 11.5t40.5 4.5l15 1q2 57 2 93q0 41 -19.5 63
t-48.5 22q-41 0 -63 -41q-14 -27 -26.5 -37.5t-31.5 -10.5q-15 0 -22.5 10.5t-7.5 23.5q0 24 41 48q54 31 127 31q133 0 133 -93q0 -23 -2 -90t-2 -158q0 -55 41 -55q11 0 24 5.5t21 10.5l8 5zM277 220q-45 -2 -85 -14q-29 -8 -50 -26.5t-21 -43.5q0 -45 28.5 -68.5
t64.5 -23.5q35 0 62 25z" />
    <glyph glyph-name="aacute" unicode="&#xe1;" horiz-adv-x="457" 
d="M355 650l-178 -159l-11 14l133 167zM460 56q-7 -7 -19.5 -17.5t-43.5 -28t-53 -17.5q-20 0 -36 13.5t-22 27.5l-6 14q-7 -6 -20 -15.5t-46.5 -25.5t-60.5 -16q-41 0 -76 32.5t-35 75.5q0 46 38 78.5t91 48.5q24 7 50.5 11.5t40.5 4.5l15 1q2 57 2 93q0 41 -19.5 63
t-48.5 22q-41 0 -63 -41q-14 -27 -26.5 -37.5t-31.5 -10.5q-15 0 -22.5 10.5t-7.5 23.5q0 24 41 48q54 31 127 31q133 0 133 -93q0 -23 -2 -90t-2 -158q0 -55 41 -55q11 0 24 5.5t21 10.5l8 5zM277 220q-45 -2 -85 -14q-29 -8 -50 -26.5t-21 -43.5q0 -45 28.5 -68.5
t64.5 -23.5q35 0 62 25z" />
    <glyph glyph-name="acircumflex" unicode="&#xe2;" horiz-adv-x="457" 
d="M345 496l-11 -14l-125 118l-119 -118l-11 14l123 167h20zM460 56q-7 -7 -19.5 -17.5t-43.5 -28t-53 -17.5q-20 0 -36 13.5t-22 27.5l-6 14q-7 -6 -20 -15.5t-46.5 -25.5t-60.5 -16q-41 0 -76 32.5t-35 75.5q0 46 38 78.5t91 48.5q24 7 50.5 11.5t40.5 4.5l15 1q2 57 2 93
q0 41 -19.5 63t-48.5 22q-41 0 -63 -41q-14 -27 -26.5 -37.5t-31.5 -10.5q-15 0 -22.5 10.5t-7.5 23.5q0 24 41 48q54 31 127 31q133 0 133 -93q0 -23 -2 -90t-2 -158q0 -55 41 -55q11 0 24 5.5t21 10.5l8 5zM277 220q-45 -2 -85 -14q-29 -8 -50 -26.5t-21 -43.5
q0 -45 28.5 -68.5t64.5 -23.5q35 0 62 25z" />
    <glyph glyph-name="atilde" unicode="&#xe3;" horiz-adv-x="457" 
d="M378 583q-14 -22 -43 -43.5t-55 -21.5q-28 0 -72.5 15t-59.5 15q-34 0 -62 -33l-9 16q16 22 43.5 44t54.5 22q19 0 68.5 -15t67.5 -15q27 0 58 33zM460 56q-7 -7 -19.5 -17.5t-43.5 -28t-53 -17.5q-20 0 -36 13.5t-22 27.5l-6 14q-7 -6 -20 -15.5t-46.5 -25.5t-60.5 -16
q-41 0 -76 32.5t-35 75.5q0 46 38 78.5t91 48.5q24 7 50.5 11.5t40.5 4.5l15 1q2 57 2 93q0 41 -19.5 63t-48.5 22q-41 0 -63 -41q-14 -27 -26.5 -37.5t-31.5 -10.5q-15 0 -22.5 10.5t-7.5 23.5q0 24 41 48q54 31 127 31q133 0 133 -93q0 -23 -2 -90t-2 -158q0 -55 41 -55
q11 0 24 5.5t21 10.5l8 5zM277 220q-45 -2 -85 -14q-29 -8 -50 -26.5t-21 -43.5q0 -45 28.5 -68.5t64.5 -23.5q35 0 62 25z" />
    <glyph glyph-name="adieresis" unicode="&#xe4;" horiz-adv-x="457" 
d="M337 544q0 -18 -12.5 -30t-30.5 -12t-31 12t-13 30t13 30.5t31 12.5t30.5 -12.5t12.5 -30.5zM174 544q0 -18 -13 -30t-31 -12t-30.5 12t-12.5 30t12.5 30.5t30.5 12.5t31 -12.5t13 -30.5zM460 56q-7 -7 -19.5 -17.5t-43.5 -28t-53 -17.5q-20 0 -36 13.5t-22 27.5l-6 14
q-7 -6 -20 -15.5t-46.5 -25.5t-60.5 -16q-41 0 -76 32.5t-35 75.5q0 46 38 78.5t91 48.5q24 7 50.5 11.5t40.5 4.5l15 1q2 57 2 93q0 41 -19.5 63t-48.5 22q-41 0 -63 -41q-14 -27 -26.5 -37.5t-31.5 -10.5q-15 0 -22.5 10.5t-7.5 23.5q0 24 41 48q54 31 127 31
q133 0 133 -93q0 -23 -2 -90t-2 -158q0 -55 41 -55q11 0 24 5.5t21 10.5l8 5zM277 220q-45 -2 -85 -14q-29 -8 -50 -26.5t-21 -43.5q0 -45 28.5 -68.5t64.5 -23.5q35 0 62 25z" />
    <glyph glyph-name="aring" unicode="&#xe5;" horiz-adv-x="457" 
d="M297 578q0 -34 -24.5 -58.5t-58.5 -24.5t-58.5 24.5t-24.5 58.5t24.5 58.5t58.5 24.5t58.5 -24.5t24.5 -58.5zM460 56q-7 -7 -19.5 -17.5t-43.5 -28t-53 -17.5q-20 0 -36 13.5t-22 27.5l-6 14q-7 -6 -20 -15.5t-46.5 -25.5t-60.5 -16q-41 0 -76 32.5t-35 75.5
q0 46 38 78.5t91 48.5q24 7 50.5 11.5t40.5 4.5l15 1q2 57 2 93q0 41 -19.5 63t-48.5 22q-41 0 -63 -41q-14 -27 -26.5 -37.5t-31.5 -10.5q-15 0 -22.5 10.5t-7.5 23.5q0 24 41 48q54 31 127 31q133 0 133 -93q0 -23 -2 -90t-2 -158q0 -55 41 -55q11 0 24 5.5t21 10.5l8 5z
M268 577q0 23 -16 39.5t-38 16.5q-24 0 -39 -15.5t-15 -40.5q0 -23 16 -39.5t38 -16.5q25 0 39.5 16.5t14.5 39.5zM277 220q-45 -2 -85 -14q-29 -8 -50 -26.5t-21 -43.5q0 -45 28.5 -68.5t64.5 -23.5q35 0 62 25z" />
    <glyph glyph-name="ae" unicode="&#xe6;" horiz-adv-x="690" 
d="M663 87q-105 -96 -202 -96q-52 0 -94 26.5t-57 54.5q-90 -81 -154 -81q-44 0 -79 31.5t-35 76.5q0 86 137 128l93 22q2 78 2 91q0 32 -17.5 56.5t-50.5 24.5q-41 0 -63 -41q-14 -27 -26.5 -37.5t-31.5 -10.5q-30 0 -30 36q0 26 51 51.5t115 25.5q28 0 50.5 -6t34.5 -14
t20.5 -16t11.5 -14l2 -6q4 6 13.5 15.5t44 25.5t75.5 16q80 0 126.5 -50.5t53.5 -145.5q-119 2 -201 2l-98 -1v-8q0 -91 45 -142t121 -51q69 0 132 55zM563 278q0 142 -100 142q-37 0 -62 -26.5t-34 -56t-11 -59.5h207zM300 91q-27 47 -27 135q-27 -3 -66 -15
q-91 -26 -91 -79q0 -36 26 -60t64 -24q44 0 94 43z" />
    <glyph glyph-name="ccedilla" unicode="&#xe7;" horiz-adv-x="438" 
d="M428 87q-99 -93 -198 -96l-22 -45q123 -17 123 -99q0 -38 -31 -66.5t-84 -28.5q-34 0 -61.5 14t-27.5 31q0 27 28 27q11 0 32.5 -24.5t43.5 -24.5q28 0 41 16.5t13 38.5q0 31 -32 46t-95 24q20 33 46 92q-62 9 -113 66t-51 147q0 110 63.5 175.5t179.5 65.5
q57 0 96 -15.5t39 -36.5q0 -14 -15 -24.5t-37 -10.5q-21 0 -75 33q-33 21 -61 21q-10 0 -15 -1q-47 -7 -70.5 -52t-23.5 -107q0 -96 46.5 -149.5t109.5 -53.5q36 0 71 14t52 28l17 13z" />
    <glyph glyph-name="egrave" unicode="&#xe8;" horiz-adv-x="459" 
d="M289 503l-16 -12l-142 161l53 20zM432 87q-105 -96 -202 -96q-73 0 -131.5 59.5t-58.5 154.5q0 114 59 177.5t137 63.5q94 0 138 -53t50 -133q-126 2 -208 2l-95 -1v-8q0 -94 47.5 -148.5t120.5 -54.5q69 0 132 55zM332 290q0 51 -25.5 90t-78.5 39q-38 0 -63.5 -27.5
t-33 -54t-8.5 -47.5h209z" />
    <glyph glyph-name="eacute" unicode="&#xe9;" horiz-adv-x="459" 
d="M365 650l-178 -159l-11 14l133 167zM432 87q-105 -96 -202 -96q-73 0 -131.5 59.5t-58.5 154.5q0 114 59 177.5t137 63.5q94 0 138 -53t50 -133q-126 2 -208 2l-95 -1v-8q0 -94 47.5 -148.5t120.5 -54.5q69 0 132 55zM332 290q0 51 -25.5 90t-78.5 39q-38 0 -63.5 -27.5
t-33 -54t-8.5 -47.5h209z" />
    <glyph glyph-name="ecircumflex" unicode="&#xea;" horiz-adv-x="459" 
d="M373 496l-11 -14l-125 118l-119 -118l-11 14l123 167h20zM432 87q-105 -96 -202 -96q-73 0 -131.5 59.5t-58.5 154.5q0 114 59 177.5t137 63.5q94 0 138 -53t50 -133q-126 2 -208 2l-95 -1v-8q0 -94 47.5 -148.5t120.5 -54.5q69 0 132 55zM332 290q0 51 -25.5 90
t-78.5 39q-38 0 -63.5 -27.5t-33 -54t-8.5 -47.5h209z" />
    <glyph glyph-name="edieresis" unicode="&#xeb;" horiz-adv-x="459" 
d="M365 544q0 -18 -12.5 -30t-30.5 -12t-31 12t-13 30t13 30.5t31 12.5t30.5 -12.5t12.5 -30.5zM202 544q0 -18 -13 -30t-31 -12t-30.5 12t-12.5 30t12.5 30.5t30.5 12.5t31 -12.5t13 -30.5zM432 87q-105 -96 -202 -96q-73 0 -131.5 59.5t-58.5 154.5q0 114 59 177.5
t137 63.5q94 0 138 -53t50 -133q-126 2 -208 2l-95 -1v-8q0 -94 47.5 -148.5t120.5 -54.5q69 0 132 55zM332 290q0 51 -25.5 90t-78.5 39q-38 0 -63.5 -27.5t-33 -54t-8.5 -47.5h209z" />
    <glyph glyph-name="igrave" unicode="&#xec;" horiz-adv-x="268" 
d="M185 503l-16 -12l-142 161l53 20zM263 0q-83 2 -123 2l-116 -2v20l34 4q23 3 30 11.5t8 35.5q1 51 1 130q0 81 -1 130q-1 33 -11.5 46.5t-37.5 15.5l-25 2v18q56 9 88 16l73 17q-1 -127 -1 -187q0 -153 1 -188q1 -25 9 -35t32 -12l39 -4v-20z" />
    <glyph glyph-name="iacute" unicode="&#xed;" horiz-adv-x="268" 
d="M265 650l-178 -159l-11 14l133 167zM263 0q-83 2 -123 2l-116 -2v20l34 4q23 3 30 11.5t8 35.5q1 51 1 130q0 81 -1 130q-1 33 -11.5 46.5t-37.5 15.5l-25 2v18q56 9 88 16l73 17q-1 -127 -1 -187q0 -153 1 -188q1 -25 9 -35t32 -12l39 -4v-20z" />
    <glyph glyph-name="icircumflex" unicode="&#xee;" horiz-adv-x="268" 
d="M266 496l-11 -14l-125 118l-119 -118l-11 14l123 167h20zM263 0q-83 2 -123 2l-116 -2v20l34 4q23 3 30 11.5t8 35.5q1 51 1 130q0 81 -1 130q-1 33 -11.5 46.5t-37.5 15.5l-25 2v18q56 9 88 16l73 17q-1 -127 -1 -187q0 -153 1 -188q1 -25 9 -35t32 -12l39 -4v-20z" />
    <glyph glyph-name="idieresis" unicode="&#xef;" horiz-adv-x="268" 
d="M251 544q0 -18 -12.5 -30t-30.5 -12t-31 12t-13 30t13 30.5t31 12.5t30.5 -12.5t12.5 -30.5zM98 544q0 -18 -13 -30t-31 -12t-30.5 12t-12.5 30t12.5 30.5t30.5 12.5t31 -12.5t13 -30.5zM263 0q-83 2 -123 2l-116 -2v20l34 4q23 3 30 11.5t8 35.5q1 51 1 130q0 81 -1 130
q-1 33 -11.5 46.5t-37.5 15.5l-25 2v18q56 9 88 16l73 17q-1 -127 -1 -187q0 -153 1 -188q1 -25 9 -35t32 -12l39 -4v-20z" />
    <glyph glyph-name="ntilde" unicode="&#xf1;" horiz-adv-x="555" 
d="M429 583q-14 -22 -43 -43.5t-55 -21.5q-27 0 -72 15t-60 15q-34 0 -62 -33l-9 16q16 22 43.5 44t54.5 22q19 0 68.5 -15t67.5 -15q27 0 58 33zM548 0q-83 2 -123 2l-116 -2v20l34 4q23 3 30 11t8 36q2 37 2 106q0 85 -3 127q-2 40 -27.5 63.5t-63.5 23.5q-62 0 -106 -37
q-1 -36 -1 -142t1 -141q1 -25 9.5 -35t31.5 -12l39 -4v-20q-83 2 -123 2l-116 -2v20l34 4q23 3 30 11.5t8 35.5q1 51 1 130q0 81 -1 130q-1 33 -11.5 46.5t-37.5 15.5l-25 2v18q56 9 88 16l73 17l-1 -70q94 70 168 70q48 0 83 -34.5t35 -101.5v-75.5t-0.5 -43.5t-0.5 -16
q0 -73 1 -104q1 -24 9.5 -34.5t31.5 -12.5l39 -4v-20z" />
    <glyph glyph-name="ograve" unicode="&#xf2;" horiz-adv-x="547" 
d="M312 503l-16 -12l-142 161l53 20zM507 219q0 -93 -63.5 -160.5t-164.5 -67.5q-105 0 -172 63t-67 155q0 102 62.5 169.5t173.5 67.5q100 0 165.5 -65t65.5 -162zM414 195q0 13 -1.5 31t-9.5 55t-22 65.5t-43.5 51t-69.5 22.5q-135 0 -135 -172q0 -103 38.5 -167.5
t109.5 -64.5q65 0 99 40t34 139z" />
    <glyph glyph-name="oacute" unicode="&#xf3;" horiz-adv-x="547" 
d="M385 650l-178 -159l-11 14l133 167zM507 219q0 -93 -63.5 -160.5t-164.5 -67.5q-105 0 -172 63t-67 155q0 102 62.5 169.5t173.5 67.5q100 0 165.5 -65t65.5 -162zM414 195q0 13 -1.5 31t-9.5 55t-22 65.5t-43.5 51t-69.5 22.5q-135 0 -135 -172q0 -103 38.5 -167.5
t109.5 -64.5q65 0 99 40t34 139z" />
    <glyph glyph-name="ocircumflex" unicode="&#xf4;" horiz-adv-x="547" 
d="M399 496l-11 -14l-125 118l-119 -118l-11 14l123 167h20zM507 219q0 -93 -63.5 -160.5t-164.5 -67.5q-105 0 -172 63t-67 155q0 102 62.5 169.5t173.5 67.5q100 0 165.5 -65t65.5 -162zM414 195q0 13 -1.5 31t-9.5 55t-22 65.5t-43.5 51t-69.5 22.5q-135 0 -135 -172
q0 -103 38.5 -167.5t109.5 -64.5q65 0 99 40t34 139z" />
    <glyph glyph-name="otilde" unicode="&#xf5;" horiz-adv-x="547" 
d="M425 583q-14 -22 -43 -43.5t-55 -21.5q-27 0 -72 15t-60 15q-34 0 -62 -33l-9 16q16 22 43.5 44t54.5 22q19 0 68.5 -15t67.5 -15q27 0 58 33zM507 219q0 -93 -63.5 -160.5t-164.5 -67.5q-105 0 -172 63t-67 155q0 102 62.5 169.5t173.5 67.5q100 0 165.5 -65t65.5 -162z
M414 195q0 13 -1.5 31t-9.5 55t-22 65.5t-43.5 51t-69.5 22.5q-135 0 -135 -172q0 -103 38.5 -167.5t109.5 -64.5q65 0 99 40t34 139z" />
    <glyph glyph-name="odieresis" unicode="&#xf6;" horiz-adv-x="547" 
d="M393 544q0 -18 -12.5 -30t-30.5 -12t-31 12t-13 30t13 30.5t31 12.5t30.5 -12.5t12.5 -30.5zM230 544q0 -18 -13 -30t-31 -12t-30.5 12t-12.5 30t12.5 30.5t30.5 12.5t31 -12.5t13 -30.5zM507 219q0 -93 -63.5 -160.5t-164.5 -67.5q-105 0 -172 63t-67 155
q0 102 62.5 169.5t173.5 67.5q100 0 165.5 -65t65.5 -162zM414 195q0 13 -1.5 31t-9.5 55t-22 65.5t-43.5 51t-69.5 22.5q-135 0 -135 -172q0 -103 38.5 -167.5t109.5 -64.5q65 0 99 40t34 139z" />
    <glyph glyph-name="divide" unicode="&#xf7;" 
d="M328 371q0 -24 -16.5 -40t-41.5 -16q-22 0 -37.5 16.5t-15.5 39.5t16.5 39.5t39.5 16.5t39 -16t16 -40zM464 198h-379v55h379v-55zM328 81q0 -24 -16.5 -40t-41.5 -16q-22 0 -37.5 16.5t-15.5 39.5t16.5 39.5t39.5 16.5t39 -16t16 -40z" />
    <glyph glyph-name="oslash" unicode="&#xf8;" horiz-adv-x="551" 
d="M509 219q0 -97 -65.5 -162.5t-160.5 -65.5q-26 0 -49.5 3.5t-33.5 7.5l-11 3l-27 -53l-29 14l26 52q-5 2 -13 6.5t-28 21t-35.5 36.5t-28 54t-12.5 73q0 105 64 171t172 66q26 0 49 -4t33 -8l9 -5l29 56l29 -15l-28 -54q4 -2 11.5 -7t26.5 -22.5t33.5 -38t26.5 -55.5
t12 -74zM349 390q-27 30 -79 30q-135 0 -135 -172q0 -55 12 -101t24 -64l12 -18zM416 195q0 48 -11 90t-22 60l-11 18l-165 -322q27 -25 82 -25q59 0 93 39.5t34 139.5z" />
    <glyph glyph-name="ugrave" unicode="&#xf9;" horiz-adv-x="532" 
d="M299 503l-16 -12l-142 161l53 20zM521 10q-50 -7 -83 -10l-79 -9v67q-86 -67 -166 -67q-54 0 -83 37q-17 22 -22.5 44t-5.5 65q0 2 0.5 29.5t0.5 54.5v71v39q-1 33 -11.5 46.5t-37.5 15.5l-25 2v18q56 9 88 16l73 17q-2 -127 -2 -187q0 -87 1 -126q1 -44 24.5 -65.5
t62.5 -21.5q49 0 103 34v121q0 81 -1 130q-1 33 -11.5 46.5t-37.5 15.5l-25 2v18q56 9 88 16l73 17q-1 -157 -1 -217q0 -8 2 -140q1 -35 10 -48.5t40 -13.5l25 1v-18z" />
    <glyph glyph-name="uacute" unicode="&#xfa;" horiz-adv-x="532" 
d="M405 650l-178 -159l-11 14l133 167zM521 10q-50 -7 -83 -10l-79 -9v67q-86 -67 -166 -67q-54 0 -83 37q-17 22 -22.5 44t-5.5 65q0 2 0.5 29.5t0.5 54.5v71v39q-1 33 -11.5 46.5t-37.5 15.5l-25 2v18q56 9 88 16l73 17q-2 -127 -2 -187q0 -87 1 -126q1 -44 24.5 -65.5
t62.5 -21.5q49 0 103 34v121q0 81 -1 130q-1 33 -11.5 46.5t-37.5 15.5l-25 2v18q56 9 88 16l73 17q-1 -157 -1 -217q0 -8 2 -140q1 -35 10 -48.5t40 -13.5l25 1v-18z" />
    <glyph glyph-name="ucircumflex" unicode="&#xfb;" horiz-adv-x="532" 
d="M390 496l-11 -14l-125 118l-119 -118l-11 14l123 167h20zM521 10q-50 -7 -83 -10l-79 -9v67q-86 -67 -166 -67q-54 0 -83 37q-17 22 -22.5 44t-5.5 65q0 2 0.5 29.5t0.5 54.5v71v39q-1 33 -11.5 46.5t-37.5 15.5l-25 2v18q56 9 88 16l73 17q-2 -127 -2 -187q0 -87 1 -126
q1 -44 24.5 -65.5t62.5 -21.5q49 0 103 34v121q0 81 -1 130q-1 33 -11.5 46.5t-37.5 15.5l-25 2v18q56 9 88 16l73 17q-1 -157 -1 -217q0 -8 2 -140q1 -35 10 -48.5t40 -13.5l25 1v-18z" />
    <glyph glyph-name="udieresis" unicode="&#xfc;" horiz-adv-x="532" 
d="M385 544q0 -18 -12.5 -30t-30.5 -12t-31 12t-13 30t13 30.5t31 12.5t30.5 -12.5t12.5 -30.5zM222 544q0 -18 -13 -30t-31 -12t-30.5 12t-12.5 30t12.5 30.5t30.5 12.5t31 -12.5t13 -30.5zM521 10q-50 -7 -83 -10l-79 -9v67q-86 -67 -166 -67q-54 0 -83 37
q-17 22 -22.5 44t-5.5 65q0 2 0.5 29.5t0.5 54.5v71v39q-1 33 -11.5 46.5t-37.5 15.5l-25 2v18q56 9 88 16l73 17q-2 -127 -2 -187q0 -87 1 -126q1 -44 24.5 -65.5t62.5 -21.5q49 0 103 34v121q0 81 -1 130q-1 33 -11.5 46.5t-37.5 15.5l-25 2v18q56 9 88 16l73 17
q-1 -157 -1 -217q0 -8 2 -140q1 -35 10 -48.5t40 -13.5l25 1v-18z" />
    <glyph glyph-name="ydieresis" unicode="&#xff;" horiz-adv-x="460" 
d="M368 544q0 -18 -12.5 -30t-30.5 -12t-31 12t-13 30t13 30.5t31 12.5t30.5 -12.5t12.5 -30.5zM205 544q0 -18 -13 -30t-31 -12t-30.5 12t-12.5 30t12.5 30.5t30.5 12.5t31 -12.5t13 -30.5zM468 417l-16 -3q-29 -7 -44 -36q-13 -23 -70 -160l-70 -169q-67 -171 -86 -214
q-54 -120 -124 -120q-20 0 -34 13.5t-14 31.5q0 36 63 38q41 1 57.5 15.5t41.5 71.5l48 117l-82 197l-72 165q-7 16 -10.5 22.5t-13.5 17t-22 11.5l-20 2v20q61 -2 99 -2l109 2v-20l-21 -1q-38 -2 -38 -19q0 -10 53 -140l61 -143l58 140q43 104 43 134q0 11 -6 17t-27 9
l-20 3v20q49 -2 79 -2l78 2v-20z" />
    <glyph glyph-name="dotlessi" unicode="&#x131;" horiz-adv-x="268" 
d="M263 0q-83 2 -123 2l-116 -2v20l34 4q23 3 30 11.5t8 35.5q1 51 1 130q0 81 -1 130q-1 33 -11.5 46.5t-37.5 15.5l-25 2v18q56 9 88 16l73 17q-1 -127 -1 -187q0 -153 1 -188q1 -25 9 -35t32 -12l39 -4v-20z" />
    <glyph glyph-name="OE" unicode="&#x152;" horiz-adv-x="1019" 
d="M977 176q-24 -108 -32 -150l-5 -28l-54 3h-353q-12 0 -62.5 -1.5t-85.5 -1.5q-141 0 -232 85t-91 250q0 44 10 88.5t35 91t61.5 82t95.5 58t132 22.5q39 0 83.5 -1t45.5 -1l154 -1h67q134 0 168 6q2 -59 3 -78l7 -90h-20q-15 82 -33.5 105t-78.5 23h-215q-1 -162 -1 -271
h135q75 0 95 13q32 20 34 95h20q-2 -54 -2 -117l2 -132h-20q0 83 -42 99q-22 9 -87 9h-135q0 -181 2 -237q2 -42 18 -51.5t87 -9.5h114q42 0 66 5t42 24t27 41t25 70h20zM483 337q0 211 -2 260q-1 48 -81 48q-85 0 -140 -46t-76 -114t-21 -157q0 -138 58 -218t163 -80
q52 0 74 8.5t23 36.5q2 49 2 262z" />
    <glyph glyph-name="oe" unicode="&#x153;" horiz-adv-x="833" 
d="M807 87q-105 -96 -202 -96q-44 0 -82 22.5t-54 44.5l-16 22q-2 -4 -6 -10t-19.5 -21t-34.5 -27t-50.5 -21.5t-67.5 -9.5q-105 0 -170 63t-65 157q0 104 62.5 169.5t168.5 65.5q38 0 71 -9t52.5 -22t33.5 -26.5t20 -22.5l5 -9q2 4 5.5 10t17.5 21t30.5 27t45 21.5
t60.5 9.5q91 0 136.5 -53t50.5 -133q-126 2 -208 2l-95 -1v-8q0 -95 47.5 -149t120.5 -54q69 0 132 55zM707 290q0 52 -26 90.5t-78 38.5q-29 0 -50.5 -15t-32.5 -37.5t-16 -41.5t-6 -35h209zM409 195q0 14 -1 30.5t-8.5 55t-21 66.5t-42.5 50.5t-69 22.5q-135 0 -135 -172
v-3q0 -12 1 -27.5t5 -44.5t14.5 -54.5t25.5 -50t41.5 -39t60.5 -14.5q65 0 97 40t32 140z" />
    <glyph glyph-name="Ydieresis" unicode="&#x178;" horiz-adv-x="687" 
d="M504 794q0 -19 -13 -31.5t-32 -12.5t-32.5 12.5t-13.5 31.5t13.5 32t32.5 13t32 -13t13 -32zM321 794q0 -19 -13.5 -31.5t-32.5 -12.5t-32 12.5t-13 31.5t13 32t32 13t32.5 -13t13.5 -32zM682 653l-16 -1q-27 -2 -48 -17q-6 -4 -12 -9.5t-14 -14t-14.5 -16.5l-18.5 -23.5
l-21 -27l-27 -34.5l-32 -41l-92 -120q0 -177 2 -279q1 -24 12 -33t35 -12l47 -5v-20q-100 2 -140 2l-145 -2v20l47 5q17 2 25 4t14.5 12t7.5 29q2 46 2 250q-75 108 -93 132q-120 164 -124 168q-22 26 -54 31l-18 2v20q73 -2 123 -2l143 2v-20l-26 -2q-43 -4 -43 -23
q0 -14 13 -34t69 -99l85 -118l80 105l35.5 47t26 36t20 33.5t5.5 21.5q0 30 -45 32l-26 1v20q73 -2 116 -2l101 2v-20z" />
    <glyph glyph-name="florin" unicode="&#x192;" 
d="M586 675q0 -18 -13 -29.5t-34 -11.5q-22 0 -48.5 30t-50.5 30q-34 0 -55 -28q-39 -48 -57 -233h116v-34h-119q-27 -305 -61 -440q-31 -125 -92 -181q-66 -60 -152 -60q-34 0 -61 13t-27 33q0 17 11 28.5t29 11.5q21 0 46 -26t48 -26q61 0 89 72q26 63 49 264
q3 28 11.5 99.5l15 129.5t8.5 82h-95v34h99q4 53 18 101t40 92.5t70 71t101 26.5q49 0 81.5 -14.5t32.5 -34.5z" />
    <glyph glyph-name="circumflex" unicode="&#x2c6;" horiz-adv-x="500" 
d="M383 496l-11 -14l-125 118l-119 -118l-11 14l123 167h20z" />
    <glyph glyph-name="caron" unicode="&#x2c7;" horiz-adv-x="500" 
d="M381 660l-123 -167h-20l-123 167l11 14l126 -118l118 118z" />
    <glyph glyph-name="breve" unicode="&#x2d8;" horiz-adv-x="500" 
d="M381 660q-9 -33 -29 -70q-21 -40 -48.5 -68.5t-55.5 -28.5t-55.5 28.5t-48.5 68.5q-9 16 -16 33.5t-10 26.5l-3 10l13 14q2 -5 6.5 -13t17.5 -28.5t27 -36.5t33.5 -29t38.5 -13q29 0 58 30t44 60l15 30z" />
    <glyph glyph-name="dotaccent" unicode="&#x2d9;" horiz-adv-x="500" 
d="M306 617q0 -23 -16.5 -39.5t-39.5 -16.5t-39.5 16.5t-16.5 39.5t16.5 39.5t39.5 16.5t39.5 -16.5t16.5 -39.5z" />
    <glyph glyph-name="ring" unicode="&#x2da;" horiz-adv-x="500" 
d="M333 578q0 -34 -24.5 -58.5t-58.5 -24.5t-58.5 24.5t-24.5 58.5t24.5 58.5t58.5 24.5t58.5 -24.5t24.5 -58.5zM304 577q0 23 -16 39.5t-38 16.5q-24 0 -39 -15.5t-15 -40.5q0 -23 16 -39.5t38 -16.5q25 0 39.5 16.5t14.5 39.5z" />
    <glyph glyph-name="ogonek" unicode="&#x2db;" horiz-adv-x="500" 
d="M351 -193q-48 -45 -101 -45q-41 0 -71 24t-30 70q0 60 44 97.5t88 46.5l12 -10q-32 -8 -62 -41t-30 -77q0 -34 21.5 -54t51.5 -20q20 0 38 7.5t26 14.5l8 8z" />
    <glyph glyph-name="tilde" unicode="&#x2dc;" horiz-adv-x="500" 
d="M401 583q-14 -22 -43 -43.5t-55 -21.5q-27 0 -71.5 15t-60.5 15q-34 0 -62 -33l-9 16q16 22 43.5 44t54.5 22q19 0 68.5 -15t67.5 -15q27 0 58 33z" />
    <glyph glyph-name="hungarumlaut" unicode="&#x2dd;" horiz-adv-x="500" 
d="M420 650l-178 -159l-11 14l133 167zM270 650l-178 -159l-11 14l133 167z" />
    <glyph glyph-name="pi" unicode="&#x3c0;" horiz-adv-x="549" 
d="M506 136q0 -65 -31 -106t-73 -41q-35 0 -54.5 28t-19.5 76l18 257h-131l-22 -174q-16 -127 -30 -157q-15 -32 -44 -32q-25 0 -38.5 12t-13.5 31q0 17 10.5 32t23.5 25.5t26.5 34t18.5 54.5l27 174h-54q-22 0 -44 -14t-33 -42h-15l3 10q2 9 4.5 15l7 17.5t10 20.5t13 20
t17 19t21 15.5t26.5 11t32 3.5h338v-76h-111q-12 -142 -12 -174q0 -50 12 -78t48 -28q20 0 36 21t16 45h18z" />
    <glyph glyph-name="endash" unicode="&#x2013;" horiz-adv-x="500" 
d="M500 212q-100 1 -250 1l-250 -1v48q100 -1 250 -1l250 1v-48z" />
    <glyph glyph-name="emdash" unicode="&#x2014;" horiz-adv-x="1000" 
d="M1000 212q-250 1 -500 1l-500 -1v48q250 -1 500 -1l500 1v-48z" />
    <glyph glyph-name="quoteleft" unicode="&#x2018;" horiz-adv-x="230" 
d="M186 663q-78 -44 -78 -100q0 -17 6 -22t19 -7.5t23 -10.5q21 -18 21 -43t-15 -41.5t-41 -16.5q-31 0 -48.5 26t-17.5 57q0 34 12 65t29 50t34.5 33.5t29.5 20.5l12 6z" />
    <glyph glyph-name="quoteright" unicode="&#x2019;" horiz-adv-x="230" 
d="M175 597q0 -34 -12 -65t-29.5 -50t-34.5 -33.5t-29 -20.5l-12 -6l-14 17q78 44 78 100q0 17 -6 22t-19 7.5t-23 10.5q-21 18 -21 43t15 41.5t41 16.5q31 0 48.5 -26t17.5 -57z" />
    <glyph glyph-name="quotesinglbase" unicode="&#x201a;" horiz-adv-x="230" 
d="M178 23q0 -34 -12 -65t-29.5 -50t-34.5 -33.5t-29 -20.5l-12 -6l-14 17q78 44 78 100q0 17 -6 22t-19 7.5t-23 10.5q-21 18 -21 43t15 41.5t41 16.5q31 0 48.5 -26t17.5 -57z" />
    <glyph glyph-name="quotedblleft" unicode="&#x201c;" horiz-adv-x="410" 
d="M366 663q-78 -44 -78 -100q0 -17 6 -22t19 -7.5t23 -10.5q21 -18 21 -43t-15 -41.5t-41 -16.5q-31 0 -48.5 26t-17.5 57q0 34 12 65t29.5 50t34.5 33.5t29 20.5l12 6zM186 663q-78 -44 -78 -100q0 -17 6 -22t19 -7.5t23 -10.5q21 -18 21 -43t-15 -41.5t-41 -16.5
q-31 0 -48.5 26t-17.5 57q0 34 12 65t29 50t34.5 33.5t29.5 20.5l12 6z" />
    <glyph glyph-name="quotedblright" unicode="&#x201d;" horiz-adv-x="410" 
d="M355 597q0 -34 -12 -65t-29.5 -50t-34.5 -33.5t-29 -20.5l-12 -6l-14 17q78 44 78 100q0 17 -6 22t-19 7.5t-23 10.5q-21 18 -21 43t15 41.5t41 16.5q31 0 48.5 -26t17.5 -57zM175 597q0 -34 -12 -65t-29.5 -50t-34.5 -33.5t-29 -20.5l-12 -6l-14 17q78 44 78 100
q0 17 -6 22t-19 7.5t-23 10.5q-21 18 -21 43t15 41.5t41 16.5q31 0 48.5 -26t17.5 -57z" />
    <glyph glyph-name="quotedblbase" unicode="&#x201e;" horiz-adv-x="410" 
d="M358 23q0 -34 -12 -65t-29 -50t-34.5 -33.5t-29.5 -20.5l-12 -6l-14 17q78 44 78 100q0 17 -6 22t-19 7.5t-23 10.5q-21 18 -21 43t15 41.5t41 16.5q31 0 48.5 -26t17.5 -57zM178 23q0 -34 -12 -65t-29.5 -50t-34.5 -33.5t-29 -20.5l-12 -6l-14 17q78 44 78 100
q0 17 -6 22t-19 7.5t-23 10.5q-21 18 -21 43t15 41.5t41 16.5q31 0 48.5 -26t17.5 -57z" />
    <glyph glyph-name="dagger" unicode="&#x2020;" 
d="M511 496q0 -14 -5 -26.5t-10 -17.5l-5 -6l-93 20l-113 20q12 -62 21 -102l20 -94q-13 -197 -19 -233q-3 -19 -8.5 -103t-9.5 -159l-4 -75h-20q-14 294 -21 336l-20 234q11 57 19 93l22 103q-72 -9 -112 -18l-94 -21q-20 21 -20 50q0 14 5 26.5t10 18.5l5 5l93 -20
l113 -20l-21 101l-21 94q23 20 52 20q14 0 27 -5t19 -10l6 -5l-20 -93l-22 -103q72 10 112 19l94 21q20 -21 20 -50z" />
    <glyph glyph-name="daggerdbl" unicode="&#x2021;" 
d="M511 -56q0 -13 -5 -25.5t-10 -18.5l-5 -6l-94 21l-112 19q13 -63 22 -103l20 -93q-21 -20 -52 -20q-13 0 -26 5t-19 10l-7 5l21 94l21 101q-73 -11 -113 -20l-93 -20q-20 19 -20 50q0 13 5 25.5t10 18.5l5 6l94 -21l112 -18q-13 113 -22 153l-19 113q11 77 19 113l22 153
q-72 -9 -112 -18l-94 -21q-20 21 -20 50q0 14 5 26.5t10 18.5l5 5l93 -20l113 -20l-21 101l-21 94q23 20 52 20q14 0 27 -5t19 -10l6 -5l-20 -93l-22 -103q72 10 112 19l94 21q20 -21 20 -50q0 -14 -5 -26.5t-10 -17.5l-5 -6l-93 20l-113 20q12 -112 21 -152l20 -114
q-12 -78 -20 -114q-4 -18 -9 -56l-9 -67l-3 -29q73 11 113 20l93 20q20 -19 20 -50z" />
    <glyph glyph-name="bullet" unicode="&#x2022;" 
d="M412 340q0 -56 -40.5 -96t-96.5 -40t-96.5 40t-40.5 96t40.5 96.5t96.5 40.5t96.5 -40.5t40.5 -96.5z" />
    <glyph glyph-name="ellipsis" unicode="&#x2026;" horiz-adv-x="1000" 
d="M889 53q0 -23 -16.5 -39.5t-39.5 -16.5t-39.5 16.5t-16.5 39.5t16.5 39.5t39.5 16.5t39.5 -16.5t16.5 -39.5zM556 53q0 -23 -16.5 -39.5t-39.5 -16.5t-39.5 16.5t-16.5 39.5t16.5 39.5t39.5 16.5t39.5 -16.5t16.5 -39.5zM223 53q0 -23 -16.5 -39.5t-39.5 -16.5
t-39.5 16.5t-16.5 39.5t16.5 39.5t39.5 16.5t39.5 -16.5t16.5 -39.5z" />
    <glyph glyph-name="perthousand" unicode="&#x2030;" horiz-adv-x="1186" 
d="M647 705l-473 -914l-33 16l441 851q-58 -51 -145 -51q-77 0 -111 15q52 -48 52 -119q0 -66 -49 -112.5t-118 -46.5q-73 0 -120 45t-47 112q0 66 48.5 115.5t123.5 49.5q29 0 96 -16.5t110 -16.5q64 0 107.5 21.5t87.5 67.5zM1161 79q0 -64 -48 -114q-46 -48 -121 -48
q-72 0 -119.5 45t-47.5 111q0 64 46 114q49 52 129 52q70 0 115.5 -45.5t45.5 -114.5zM761 79q0 -64 -48 -114q-46 -48 -121 -48q-72 0 -119.5 45t-47.5 111q0 64 46 114q49 52 129 52q70 0 115.5 -45.5t45.5 -114.5zM309 502q0 32 -7 61t-29.5 53.5t-57.5 24.5
q-55 0 -78.5 -39.5t-23.5 -99.5q0 -56 25.5 -94.5t73.5 -38.5q50 0 73.5 36.5t23.5 96.5zM1093 81q0 32 -7.5 60t-30.5 50.5t-59 22.5q-54 0 -76.5 -41t-22.5 -102q0 -54 25 -91.5t74 -37.5t73 39t24 100zM693 81q0 32 -7.5 60t-30.5 50.5t-59 22.5q-54 0 -76.5 -41
t-22.5 -102q0 -54 25 -91.5t74 -37.5t73 39t24 100z" />
    <glyph glyph-name="guilsinglleft" unicode="&#x2039;" horiz-adv-x="240" 
d="M178 67l-14 -11l-117 163v20l117 163l14 -11q-58 -125 -58 -165q0 -18 14.5 -57.5t29.5 -70.5z" />
    <glyph glyph-name="guilsinglright" unicode="&#x203a;" horiz-adv-x="240" 
d="M194 219l-117 -163l-14 11q58 119 58 159q0 18 -14.5 59t-28.5 73l-15 33l14 11l117 -163v-20z" />
    <glyph glyph-name="fraction" unicode="&#x2044;" horiz-adv-x="0" 
d="M253 705l-473 -914l-33 16l476 915z" />
    <glyph glyph-name="trademark" unicode="&#x2122;" horiz-adv-x="809" 
d="M301 588h-17q-6 43 -15.5 53t-38.5 10h-15h-31q-1 -20 -1 -132t1 -119q1 -17 28 -20l13 -1v-15q-48 1 -66 1l-69 -1v15l11 1q11 1 16.5 2.5t9.5 5.5t4 12q1 21 1 119l-1 132h-30q-43 0 -53 -8.5t-15 -54.5h-17q3 39 3 60v34h12q5 -7 14 -8q13 -2 112 -2q86 0 113 2
q5 0 8.5 2t4.5 4l1 2h13q1 -27 1 -34zM749 657l-14 -1q-18 -1 -23 -5.5t-5 -14.5q0 -8 -0.5 -51t-0.5 -68q0 -111 1 -118q1 -17 26 -19l14 -1v-15q-47 1 -65 1l-65 -1v14l14 1q23 1 24 20q1 11 1 51v67q0 18 0.5 56.5t0.5 49.5l-26 -54.5l-29 -60.5q-67 -141 -68 -144h-13
q-7 16 -68 138l-51 104v-99q0 -96 1 -104q1 -13 7.5 -17.5t21.5 -5.5l14 -1v-15q-38 1 -56 1l-56 -1v15l15 1q16 1 22 5.5t7 17.5q2 46 2 117v87v30q0 17 -30 19l-18 1v16q53 -1 66 -1l30 1l58 -124l57 -119l56 118l58 125q21 -1 32 -1l60 1v-16z" />
    <glyph glyph-name="Omega" unicode="&#x2126;" horiz-adv-x="768" 
d="M736 0h-295l16 140q62 24 107 86.5t45 177.5t-56.5 191t-167.5 76q-113 0 -168.5 -73.5t-55.5 -193.5q0 -116 46 -180t106 -84l16 -140h-295v150h25q9 -37 22 -49t44 -12h148l-2 28q-102 23 -158 106.5t-56 180.5q0 136 92 217.5t236 81.5q149 0 238.5 -81t89.5 -218
q0 -64 -20 -120.5t-70 -103.5t-124 -63l-3 -28h149q31 0 44 12t22 49h25v-150z" />
    <glyph glyph-name="partialdiff" unicode="&#x2202;" horiz-adv-x="494" 
d="M462 393q0 -107 -25.5 -196.5t-85 -150.5t-144.5 -61q-76 0 -121 47t-45 143q0 132 58.5 197.5t141.5 65.5q51 0 80 -14t61 -49q3 36 3 75q0 104 -39.5 156t-129.5 52q-17 0 -31.5 -1.5t-23.5 -3.5t-19.5 -6t-14 -6l-13 -7.5t-10.5 -6.5l-39 50q56 28 134 28
q125 0 194 -89.5t69 -222.5zM377 335q-16 18 -25.5 27t-34 20t-52.5 11q-70 0 -105.5 -58t-35.5 -160q0 -87 22.5 -122.5t69.5 -35.5q136 0 161 318z" />
    <glyph glyph-name="Delta" unicode="&#x2206;" horiz-adv-x="612" 
d="M608 0h-602l320 688zM484 49l-194 468l-218 -468h412z" />
    <glyph glyph-name="product" unicode="&#x220f;" horiz-adv-x="823" 
d="M803 -101h-306v23q49 0 72.5 16t23.5 65v693h-358v-693q0 -49 23.5 -65t73.5 -16v-23h-307v23q50 0 73.5 16t23.5 65v626q0 99 -95 99v23h773v-23q-94 0 -94 -99v-626q0 -49 23.5 -65t73.5 -16v-23z" />
    <glyph glyph-name="summation" unicode="&#x2211;" horiz-adv-x="713" 
d="M695 122q-30 -123 -43 -224q-72 11 -77 11h-503q-10 0 -29 -1.5t-29 -1.5l349 398l-347 454q8 0 46 -3.5t58 -3.5h497l6 -159h-20q-1 5 -4 13q-8 28 -14 41.5t-21.5 30t-43 23t-70.5 6.5h-263l273 -358l-294 -339h371q51 0 80 24t55 89h23z" />
    <glyph glyph-name="radical" unicode="&#x221a;" horiz-adv-x="549" 
d="M515 912l-150 -950l-243 502l-96 -47l-16 33l146 72l197 -403l127 798z" />
    <glyph glyph-name="infinity" unicode="&#x221e;" horiz-adv-x="713" 
d="M687 269q0 -62 -39 -103.5t-96 -41.5q-48 0 -86.5 22t-108.5 85q-62 -59 -104 -82.5t-99 -23.5q-58 0 -92.5 35.5t-34.5 98.5q0 62 39 103.5t96 41.5q48 0 86.5 -22t108.5 -85q63 59 104.5 82.5t98.5 23.5q58 0 92.5 -35.5t34.5 -98.5zM633 268q0 44 -26 65.5t-65 21.5
q-35 0 -67.5 -20t-84.5 -71q59 -50 93 -69t63 -19q87 0 87 92zM324 264q-59 50 -93 69t-63 19q-87 0 -87 -92q0 -44 26 -65.5t65 -21.5q35 0 67.5 20t84.5 71z" />
    <glyph glyph-name="integral" unicode="&#x222b;" horiz-adv-x="274" 
d="M291 822q0 -20 -15 -33t-37 -13q-14 0 -29.5 13t-20.5 13q-18 0 -18 -24v-6q0 -12 9.5 -130t9.5 -194l-1 -216q-1 -201 -38 -295q-32 -84 -93 -84q-26 0 -42 15t-16 34q0 18 12 34t34 16q23 0 36.5 -12t22.5 -12q8 0 14.5 27.5t6.5 65.5v13q-6 201 -6 272v42v144
q0 222 26 310q8 27 31 50.5t52 23.5q62 0 62 -54z" />
    <glyph glyph-name="approxequal" unicode="&#x2248;" horiz-adv-x="549" 
d="M479 310q-18 -34 -49 -53t-63 -19q-16 0 -33 5l-120 39q-19 4 -34 6h-2q-14 0 -26.5 -4t-21.5 -12t-14 -13.5t-11 -14.5t-6 -10l-36 37q49 71 117 71q24 0 42 -6l121 -38q7 -2 24 -2q19 0 43 11.5t39 36.5zM479 180q-18 -34 -49 -52.5t-63 -18.5q-20 0 -33 4l-120 39
q-19 4 -34 6h-2q-14 0 -26.5 -4t-21.5 -12t-14 -13.5t-11 -14.5t-6 -10l-36 37q49 71 117 71q24 0 42 -6l121 -38q14 -2 24 -2q19 0 43 11.5t39 36.5z" />
    <glyph glyph-name="notequal" unicode="&#x2260;" horiz-adv-x="549" 
d="M464 129h-202l-42 -107h-49l42 107h-128v55h149l30 82h-179v55h198l37 104h49l-36 -104h131v-55h-151l-30 -82h181v-55z" />
    <glyph glyph-name="lessequal" unicode="&#x2264;" horiz-adv-x="549" 
d="M455 101l-391 163v56l391 174v-57l-321 -143l321 -130v-63zM456 0h-391v55h391v-55z" />
    <glyph glyph-name="greaterequal" unicode="&#x2265;" horiz-adv-x="549" 
d="M482 265l-391 -164v57l321 133l-321 140v63l391 -173v-56zM484 0h-391v55h391v-55z" />
    <glyph glyph-name="lozenge" unicode="&#x25ca;" horiz-adv-x="494" 
d="M466 377l-194 -377h-60l-194 377l194 368h60zM406 377l-164 314l-164 -314l164 -323z" />
    <glyph glyph-name="fi" unicode="&#xfb01;" horiz-adv-x="561" 
d="M556 0q-83 2 -123 2l-116 -2v20l34 4q23 3 30 11.5t8 35.5q1 51 1 130q0 81 -1 130q-1 31 -11 42.5t-46 11.5h-142v-126q0 -153 1 -188q1 -28 8.5 -36.5t32.5 -10.5l39 -4v-20q-81 2 -123 2l-116 -2v20l34 4q23 3 30 11.5t8 35.5q1 51 1 130l-1 183h-66l17 22l18 21h31
q0 162 103 245q63 51 158 51q38 0 64.5 -10t26.5 -28q0 -22 -19 -34t-46 -12q-30 0 -53 17q-28 21 -59 21t-52 -32q-37 -57 -37 -219h168q26 0 55.5 5t46.5 11l16 5q-1 -128 -1 -188q0 -153 1 -188q1 -25 9 -34.5t32 -12.5l39 -4v-20z" />
    <glyph glyph-name="fl" unicode="&#xfb02;" horiz-adv-x="562" 
d="M557 0q-83 2 -123 2l-116 -2v20l34 4q23 3 30 11.5t8 35.5q1 51 1 274q0 220 -1 250q-1 46 -25 70t-63 24t-65 -26q-47 -47 -47 -222v-15h129v-43h-129v-124q0 -153 1 -188q1 -27 9 -36t33 -11l39 -4v-20q-83 2 -123 2l-117 -2v20l34 4q23 3 30 11.5t8 35.5q1 51 1 130
l-1 181h-66q10 15 17 24l18 21h31v14q0 146 77 223q59 59 144 59q53 0 99 -21l29 10l25 8q-2 -207 -2 -367q0 -247 1 -282q1 -25 9 -34.5t32 -12.5l39 -4v-20z" />
    <glyph glyph-name="percent" horiz-adv-x="786" 
d="M647 705l-473 -914l-33 16l441 851q-58 -51 -145 -51q-77 0 -111 15q52 -48 52 -119q0 -66 -49 -112.5t-118 -46.5q-73 0 -120 45t-47 112q0 66 48.5 115.5t123.5 49.5q29 0 96 -16.5t110 -16.5q64 0 107.5 21.5t87.5 67.5zM761 79q0 -64 -48 -114q-46 -48 -121 -48
q-72 0 -119.5 45t-47.5 111q0 64 46 114q49 52 129 52q70 0 115.5 -45.5t45.5 -114.5zM309 502q0 32 -7 61t-29.5 53.5t-57.5 24.5q-55 0 -78.5 -39.5t-23.5 -99.5q0 -56 25.5 -94.5t73.5 -38.5q50 0 73.5 36.5t23.5 96.5zM693 81q0 32 -7.5 60t-30.5 50.5t-59 22.5
q-54 0 -76.5 -41t-22.5 -102q0 -54 25 -91.5t74 -37.5t73 39t24 100z" />
    <glyph glyph-name="apple" horiz-adv-x="804" 
d="M672 272q0 -118 -64 -199.5t-139 -81.5q-29 0 -41.5 8.5t-18.5 8.5q-5 0 -19.5 -8.5t-48.5 -8.5q-23 0 -55 14.5t-68.5 45t-62 90.5t-25.5 138q0 164 135 164q44 0 71 -13t33 -13q19 0 19 34q0 12 -2.5 37.5t-2.5 35.5v6q0 101 54 140q15 11 43.5 19.5t50 13t38.5 19
t17 38.5h3q11 -30 11 -74q0 -31 -7 -60q-8 -36 -39 -59.5t-62.5 -32.5t-56.5 -24t-25 -37q0 -59 29 -59q6 0 15.5 7t31.5 14.5t59 7.5q42 0 69.5 -14.5t39 -42.5t15 -52.5t3.5 -61.5zM582 709q-7 -16 -20 -30.5t-21 -21t-32 -22t-29 -19.5q-57 -39 -80 -104q13 25 27.5 42
t24 24t29 19.5l31.5 20.5q66 48 70 91zM312 137q-25 53 -25 89q0 21 11 49.5t11 45.5q0 41 -30 41q-28 0 -40 -18.5t-12 -43.5q0 -55 85 -163z" />
    </font>
</defs>
</svg>
