<?xml version="1.0" standalone="no"?>
<!DOCTYPE svg PUBLIC "-//W3C//DTD SVG 1.1//EN" "http://www.w3.org/Graphics/SVG/1.1/DTD/svg11.dtd" >
<svg>
<metadata>
Created by FontForge 20090622 at Wed Dec  7 19:28:29 2016
 By deploy user
Copyright (c) Frantisek Storm, www.stormtype.com, 2002. All rights reserved.
</metadata>
<defs>
<font id="WalbaumTextPro" horiz-adv-x="730" >
  <font-face 
    font-family="Walbaum Text Pro"
    font-weight="400"
    font-stretch="normal"
    units-per-em="1000"
    panose-1="2 0 5 5 8 0 0 2 0 3"
    ascent="800"
    descent="-200"
    x-height="435"
    cap-height="733"
    bbox="-207 -343 1369 977"
    underline-thickness="50"
    underline-position="-75"
    unicode-range="U+0020-U+FB06"
  />
<missing-glyph horiz-adv-x="500" 
 />
    <glyph glyph-name="ellipsis" unicode="&#x2e;&#x2e;&#x2e;" horiz-adv-x="930" 
d="M139 121q27 0 46 -19.5t19 -46.5t-19 -46.5t-46 -19.5t-46 19.5t-19 46.5t19 46.5t46 19.5zM791 121q27 0 46 -19.5t19 -46.5t-19 -46.5t-46 -19.5t-46 19.5t-19 46.5t19 46.5t46 19.5zM465 121q27 0 46 -19.5t19 -46.5t-19 -46.5t-46 -19.5t-46 19.5t-19 46.5t19 46.5
t46 19.5z" />
    <glyph glyph-name="ff" unicode="ff" horiz-adv-x="680" 
d="M455 656q43 86 148 86q64 0 92.5 -30t28.5 -71q0 -45 -41 -45q-23 0 -33.5 10.5t-10.5 36.5q0 27 -9.5 42t-39.5 15q-36 0 -52 -26t-17 -88q0 -22 -1 -73.5t-1 -78.5q16 0 39 1t39 1.5t22 0.5q12 0 12 -21t-12 -21q-70 0 -100 1q-2 -269 0 -358q16 0 50.5 1t39.5 1
q9 0 9 -21t-9 -21q-5 0 -57 2.5t-82 2.5q-29 0 -72.5 -2.5t-49.5 -2.5q-12 0 -12 22q0 20 12 20q10 0 35.5 -1t39.5 -1q5 80 3 358q-51 -3 -107 -3q-15 0 -105 3q-2 -269 0 -358q12 0 35 1t29 1q9 0 9 -21t-9 -21q-5 0 -44 2.5t-69 2.5q-29 0 -74.5 -2.5t-51.5 -2.5
q-12 0 -12 22q0 20 12 20q11 0 40 -1t39 -1q5 80 3 358q-23 0 -52 -0.5t-33 -0.5q-8 0 -8 22q0 20 8 20q7 0 35.5 -1t49.5 -2q0 16 -0.5 45.5t-0.5 45.5q0 85 56 145.5t148 60.5q87 0 131 -75zM427 570q0 60 -20 89.5t-84 29.5q-58 0 -81.5 -36.5t-24.5 -110.5
q-3 -93 -3 -108h212q0 13 0.5 64.5t0.5 71.5z" />
    <glyph glyph-name="fi" unicode="fi" horiz-adv-x="617" 
d="M214 434q112 0 200 1t95 1q11 0 14 -3t3 -14q0 -14 -4 -102.5t-4 -157.5q0 -93 2 -121q18 0 40 1t26 1q9 0 9 -21t-9 -21q-5 0 -46.5 2.5t-71.5 2.5t-71.5 -2.5t-47.5 -2.5q-12 0 -12 22q0 20 12 20q9 0 32.5 -1t43.5 -1v358q-48 -3 -106 -3q-15 0 -105 3q-2 -269 0 -358
q5 0 34.5 1t36.5 1q9 0 9 -21t-9 -21q-5 0 -47.5 2.5t-72.5 2.5q-29 0 -74.5 -2.5t-51.5 -2.5q-12 0 -12 22q0 20 12 20t44.5 -1t34.5 -1q5 80 3 358q-23 0 -52 -0.5t-33 -0.5q-8 0 -8 22q0 20 8 20q7 0 35.5 -1t49.5 -2q0 16 -0.5 45.5t-0.5 45.5q0 86 59.5 146t165.5 60
q54 0 92.5 -14t55 -36t23 -39t6.5 -31q0 -65 -59 -65q-26 0 -41 15t-15 37q0 50 -13.5 70.5t-55.5 20.5q-68 0 -94 -39.5t-27 -107.5q-3 -93 -3 -108z" />
    <glyph glyph-name="fl" unicode="fl" horiz-adv-x="622" 
d="M345 731q46 0 84.5 0.5t60.5 1t27 0.5q10 0 13.5 -5t3.5 -18q0 -4 -4 -60.5t-8.5 -166.5t-4.5 -243q0 -157 3 -202q18 0 43 1t30 1q9 0 9 -21t-9 -21q-5 0 -50 2.5t-74 2.5q-30 0 -74 -2.5t-50 -2.5q-12 0 -12 22q0 20 12 20q9 0 35 -1t44 -1v637q0 11 -7 11t-34.5 1.5
t-44.5 1.5q-68 0 -94 -39.5t-27 -107.5q-3 -93 -3 -108q17 0 40 1t39 1.5t22 0.5q12 0 12 -21t-12 -21q-70 0 -101 1q-2 -269 0 -358q5 0 34.5 1t36.5 1q9 0 9 -21t-9 -21q-5 0 -47.5 2.5t-72.5 2.5q-29 0 -74.5 -2.5t-51.5 -2.5q-12 0 -12 22q0 20 12 20t44.5 -1t34.5 -1
q5 80 3 358q-22 0 -51 -0.5t-34 -0.5q-8 0 -8 22q0 20 8 20q7 0 35.5 -1t49.5 -2q0 16 -0.5 45.5t-0.5 45.5q0 86 59.5 146t165.5 60z" />
    <glyph glyph-name="ffi" unicode="ffi" horiz-adv-x="920" 
d="M463 644q21 37 69.5 62t117.5 25q54 0 92.5 -14t55 -36t23 -39t6.5 -31q0 -65 -59 -65q-26 0 -41 15t-15 37q0 50 -13.5 70.5t-55.5 20.5q-68 0 -94 -39.5t-27 -107.5q-3 -93 -3 -108q113 0 200 1t95 1q11 0 14 -3t3 -14q0 -14 -4 -102.5t-4 -157.5q0 -93 2 -121
q18 0 40 1t26 1q9 0 9 -21t-9 -21q-5 0 -46.5 2.5t-71.5 2.5t-71.5 -2.5t-47.5 -2.5q-12 0 -12 22q0 20 12 20q9 0 32.5 -1t43.5 -1v358q-48 -3 -106 -3q-15 0 -105 3q-2 -269 0 -358q5 0 34.5 1t36.5 1q9 0 9 -21t-9 -21q-5 0 -47.5 2.5t-72.5 2.5q-29 0 -72.5 -2.5
t-49.5 -2.5q-12 0 -12 22q0 20 12 20t42.5 -1t32.5 -1q5 80 3 358q-51 -3 -107 -3q-15 0 -105 3q-2 -269 0 -358q5 0 31 1t33 1q9 0 9 -21t-9 -21q-5 0 -44 2.5t-69 2.5q-29 0 -74.5 -2.5t-51.5 -2.5q-12 0 -12 22q0 20 12 20t44.5 -1t34.5 -1q5 80 3 358q-23 0 -52 -0.5
t-33 -0.5q-8 0 -8 22q0 20 8 20q7 0 35.5 -1t49.5 -2q0 16 -0.5 45.5t-0.5 45.5q0 85 56 145.5t148 60.5q32 0 57 -7.5t41 -23.5t23.5 -26.5t17.5 -29.5zM429 570q-1 59 -21.5 89t-84.5 30q-58 0 -81.5 -36.5t-24.5 -110.5q-3 -93 -3 -108h212q0 15 1.5 67t1.5 69z" />
    <glyph glyph-name="ffl" unicode="ffl" horiz-adv-x="927" 
d="M470 3q-29 0 -72.5 -2.5t-49.5 -2.5q-12 0 -12 22q0 20 12 20t42.5 -1t32.5 -1q5 80 3 358q-51 -3 -107 -3q-15 0 -105 3q-2 -269 0 -358q5 0 31 1t33 1q9 0 9 -21t-9 -21q-5 0 -44 2.5t-69 2.5q-29 0 -74.5 -2.5t-51.5 -2.5q-12 0 -12 22q0 20 12 20t44.5 -1t34.5 -1
q5 80 3 358q-23 0 -52 -0.5t-33 -0.5q-8 0 -8 22q0 20 8 20q7 0 35.5 -1t49.5 -2q0 16 -0.5 45.5t-0.5 45.5q0 85 56 145.5t148 60.5q32 0 56.5 -7.5t40.5 -23t24 -26.5t18 -29q61 86 188 86q46 0 84.5 0.5t60.5 1t27 0.5q10 0 13.5 -5t3.5 -18q0 -4 -4 -60.5t-8.5 -166.5
t-4.5 -243q0 -157 3 -202q18 0 43 1t30 1q9 0 9 -21t-9 -21q-5 0 -49.5 2.5t-74.5 2.5t-74 -2.5t-50 -2.5q-12 0 -12 22q0 20 12 20q9 0 35 -1t44 -1v637q0 11 -7 11t-34.5 1.5t-44.5 1.5q-68 0 -94 -39.5t-27 -107.5q-3 -93 -3 -108q17 0 40 1t39 1.5t22 0.5q12 0 12 -21
t-12 -21q-70 0 -101 1q-2 -269 0 -358q5 0 34.5 1t36.5 1q9 0 9 -21t-9 -21q-5 0 -47.5 2.5t-73.5 2.5zM429 570q0 59 -20.5 89t-85.5 30q-58 0 -81.5 -36.5t-24.5 -110.5q-3 -93 -3 -108h212q0 13 1.5 64.5t1.5 71.5z" />
    <glyph glyph-name="ft" unicode="ft" horiz-adv-x="687" 
d="M440 525q16 5 28 11t17 10t9.5 6.5t8.5 2.5q16 0 16 -18q0 -11 -1.5 -46t-1.5 -57q117 3 137 3q12 0 12 -21t-12 -21q-6 0 -63.5 1t-73.5 1q0 -58 -1 -158t-1 -130q0 -49 11.5 -66.5t42.5 -17.5q68 0 68 95q0 8 14 8q21 0 21 -19q0 -44 -30.5 -85.5t-91.5 -41.5
q-75 0 -101.5 25t-26.5 88q0 24 1 116.5t1 132.5v52q-12 0 -45 -0.5t-58 -0.5q-76 0 -106 1q-2 -269 0 -358q5 0 44 1t46 1q9 0 9 -21t-9 -21q-5 0 -57 2.5t-82 2.5q-29 0 -75 -2.5t-52 -2.5q-12 0 -12 22q0 20 12 20t45 -1t35 -1q5 80 3 358q-23 0 -52 -0.5t-34 -0.5
q-8 0 -8 22q0 20 8 20q7 0 36 -1t50 -2q0 14 -0.5 46t-0.5 53q0 107 50 158t128 51q64 0 92.5 -30t28.5 -71q0 -45 -41 -45q-23 0 -33.5 10.5t-10.5 36.5q0 27 -9.5 42t-39.5 15q-36 0 -52 -26t-17 -88q0 -22 -1 -73.5t-1 -78.5h209q0 15 -0.5 39.5t-0.5 34.5q0 7 4 10.5
t14 6.5z" />
    <glyph glyph-name="fk" unicode="fk" horiz-adv-x="894" 
d="M514 733q10 0 13.5 -5t3.5 -18q0 -6 -3.5 -74t-7 -175.5t-3.5 -208.5h54q59 59 126 144q-7 0 -40 -1t-38 -1q-11 0 -11 22q0 19 12 19q1 0 39.5 -0.5t65.5 -0.5h50t45.5 0.5t20.5 0.5q11 0 11 -19q0 -24 -11 -24q-4 0 -36 1t-40 1l-124 -124q20 -27 96 -119.5t95 -112.5
q4 0 28.5 1t32.5 1q9 0 9 -21t-9 -21q-5 0 -47 2.5t-72 2.5t-74 -2.5t-50 -2.5q-11 0 -11 22q0 20 11 20q6 0 29 -0.5t29 -0.5q-9 16 -64 88.5t-70 87.5h-57q0 -141 3 -177q18 0 33.5 1t20.5 1q9 0 9 -21t-9 -21q-6 0 -41 2.5t-64 2.5q-30 0 -74 -2.5t-50 -2.5q-12 0 -12 22
q0 20 12 20q9 0 35 -1t44 -1v637q0 11 -7 11t-34.5 1.5t-44.5 1.5q-68 0 -94 -39.5t-27 -107.5q-3 -93 -3 -108q17 0 40 1t39 1.5t22 0.5q12 0 12 -21t-12 -21q-70 0 -101 1q-2 -269 0 -358q5 0 34.5 1t36.5 1q9 0 9 -21t-9 -21q-5 0 -47.5 2.5t-72.5 2.5q-29 0 -74.5 -2.5
t-51.5 -2.5q-12 0 -12 22q0 20 12 20t44.5 -1t34.5 -1q5 80 3 358q-22 0 -51 -0.5t-34 -0.5q-8 0 -8 22q0 20 8 20q7 0 35.5 -1t49.5 -2q0 16 -0.5 45.5t-0.5 45.5q0 86 59.5 146t165.5 60q46 0 84.5 0.5t60 1t24.5 0.5z" />
    <glyph glyph-name="ffk" unicode="ffk" horiz-adv-x="1200" 
d="M820 733q10 0 13.5 -5t3.5 -18q0 -6 -3.5 -74t-7 -175.5t-3.5 -208.5h54q59 59 126 144q-7 0 -40 -1t-38 -1q-11 0 -11 22q0 19 12 19q1 0 39.5 -0.5t65.5 -0.5h50t45.5 0.5t20.5 0.5q11 0 11 -19q0 -24 -11 -24q-4 0 -36 1t-40 1l-124 -124q20 -27 96 -119.5t95 -112.5
q4 0 28.5 1t32.5 1q9 0 9 -21t-9 -21q-5 0 -47 2.5t-72 2.5t-74 -2.5t-50 -2.5q-11 0 -11 22q0 20 11 20q6 0 29.5 -0.5t28.5 -0.5q-9 16 -64 88.5t-70 87.5h-57q0 -141 3 -177q18 0 33.5 1t20.5 1q9 0 9 -21t-9 -21q-6 0 -41 2.5t-64 2.5q-30 0 -74 -2.5t-50 -2.5
q-12 0 -12 22q0 20 12 20q9 0 35 -1t44 -1v637q0 11 -7 11t-34.5 1.5t-44.5 1.5q-68 0 -94 -39.5t-27 -107.5q-3 -93 -3 -108q17 0 40 1t39 1.5t22 0.5q12 0 12 -21t-12 -21q-70 0 -101 1q-2 -269 0 -358q5 0 34.5 1t36.5 1q9 0 9 -21t-9 -21q-5 0 -47.5 2.5t-73.5 2.5
q-29 0 -72.5 -2.5t-49.5 -2.5q-12 0 -12 22q0 20 12 20t42.5 -1t32.5 -1q5 80 3 358q-51 -3 -107 -3q-15 0 -105 3q-2 -269 0 -358q5 0 31 1t33 1q9 0 9 -21t-9 -21q-5 0 -44 2.5t-69 2.5q-29 0 -74.5 -2.5t-51.5 -2.5q-12 0 -12 22q0 20 12 20t44.5 -1t34.5 -1q5 80 3 358
q-23 0 -52 -0.5t-33 -0.5q-8 0 -8 22q0 20 8 20q7 0 35.5 -1t49.5 -2q0 16 -0.5 45.5t-0.5 45.5q0 85 56 145.5t148 60.5q32 0 56.5 -7.5t40.5 -23t24 -26.5t18 -29q61 86 188 86q46 0 84.5 0.5t60 1t24.5 0.5zM429 570q0 59 -20.5 89t-85.5 30q-58 0 -81.5 -36.5
t-24.5 -110.5q-3 -93 -3 -108h212q0 13 1.5 64.5t1.5 71.5z" />
    <glyph glyph-name="ffj" unicode="ffj" horiz-adv-x="908" 
d="M822 -4q0 -76 -11.5 -114.5t-51.5 -79.5q-33 -32 -78 -58t-60 -26t-15 22q0 15 6 17q42 22 63.5 40.5t37.5 57.5t16 99v440q-17 -1 -105 -1q-15 0 -105 3q-2 -269 0 -358q5 0 34.5 1t36.5 1q9 0 9 -21t-9 -21q-5 0 -47.5 2.5t-72.5 2.5q-29 0 -74.5 -2.5t-51.5 -2.5
q-12 0 -12 22q0 20 12 20t44.5 -1t34.5 -1q6 94 4 358q-51 -3 -108 -3q-15 0 -105 3q-2 -269 0 -358q12 0 35 1t29 1q9 0 9 -21t-9 -21q-5 0 -44 2.5t-69 2.5q-29 0 -74.5 -2.5t-51.5 -2.5q-12 0 -12 22q0 20 12 20q11 0 40 -1t39 -1q5 80 3 358q-23 0 -52 -0.5t-33 -0.5
q-8 0 -8 22q0 20 8 20q7 0 35.5 -1t49.5 -2q0 16 -0.5 45.5t-0.5 45.5q0 85 56 145.5t148 60.5q54 0 98.5 -25t52.5 -53q62 78 175 78q54 0 92.5 -14t55 -36t23 -39t6.5 -31q0 -65 -59 -65q-26 0 -41 15t-15 37q0 50 -13.5 70.5t-55.5 20.5q-68 0 -94 -39.5t-27 -107.5
q-3 -93 -3 -108q69 0 143 -0.5t87 -0.5q20 1 64 1q11 0 14 -3t3 -14q0 -14 -4 -183t-4 -238zM427 570q0 60 -20 89.5t-84 29.5q-58 0 -81.5 -36.5t-24.5 -110.5q-3 -93 -3 -108h213v136z" />
    <glyph glyph-name="fj" unicode="fj" horiz-adv-x="617" 
d="M517 -4q0 -76 -11.5 -114.5t-51.5 -79.5q-33 -32 -78 -58t-60 -26t-15 22q0 15 6 17q42 22 63.5 40.5t37.5 57.5t16 99v440q-17 -1 -105 -1q-15 0 -105 3q-2 -269 0 -358q5 0 34.5 1t36.5 1q9 0 9 -21t-9 -21q-5 0 -47.5 2.5t-72.5 2.5q-29 0 -74.5 -2.5t-51.5 -2.5
q-12 0 -12 22q0 20 12 20t44.5 -1t34.5 -1q5 80 3 358q-23 0 -52 -0.5t-33 -0.5q-8 0 -8 22q0 20 8 20q7 0 35.5 -1t49.5 -2q0 16 -0.5 45.5t-0.5 45.5q0 86 59.5 146t165.5 60q54 0 92.5 -14t55 -36t23 -39t6.5 -31q0 -65 -59 -65q-26 0 -41 15t-15 37q0 50 -13.5 70.5
t-55.5 20.5q-68 0 -94 -39.5t-27 -107.5q-3 -93 -3 -108q69 0 143 -0.5t87 -0.5q20 1 65 1q11 0 14 -3t3 -14q0 -14 -4.5 -183t-4.5 -238z" />
    <glyph glyph-name="ffb" unicode="ffb" horiz-adv-x="1195" 
d="M720 687q-7 0 -33 1t-43 1q-68 0 -94 -39.5t-27 -107.5q-3 -93 -3 -108q17 0 40 1t39 1.5t22 0.5q12 0 12 -21t-12 -21q-70 0 -101 1q-2 -269 0 -358q5 0 34.5 1t36.5 1q9 0 9 -21t-9 -21q-5 0 -47.5 2.5t-73.5 2.5q-29 0 -72.5 -2.5t-49.5 -2.5q-12 0 -12 22q0 20 12 20
t42.5 -1t32.5 -1q5 80 3 358q-51 -3 -107 -3q-15 0 -105 3q-2 -269 0 -358q5 0 31 1t33 1q9 0 9 -21t-9 -21q-5 0 -44 2.5t-69 2.5q-29 0 -74.5 -2.5t-51.5 -2.5q-12 0 -12 22q0 20 12 20t44.5 -1t34.5 -1q5 80 3 358q-23 0 -52 -0.5t-33 -0.5q-8 0 -8 22q0 20 8 20
q7 0 35.5 -1t49.5 -2q0 16 -0.5 45.5t-0.5 45.5q0 85 56 145.5t148 60.5q32 0 56.5 -7.5t40.5 -23t24 -26.5t18 -29q61 86 188 86q46 0 84.5 0.5t60 1t24.5 0.5q11 0 14 -4t3 -19q0 -6 -3.5 -64t-7.5 -136.5t-5 -130.5q39 75 145 75q84 0 137 -65t53 -168q0 -102 -56 -169
t-142 -67q-104 0 -141 85q-4 -40 -7 -58q-2 -10 -6 -13.5t-14 -2.5l-55 4q-8 0 -12 3.5t-3 10.5t3.5 48t4.5 106.5t2 120.5v385q0 8 -1.5 10.5t-8.5 2.5zM429 570q0 59 -20.5 89t-85.5 30q-58 0 -81.5 -36.5t-24.5 -110.5q-3 -93 -3 -108h212q0 13 1.5 64.5t1.5 71.5z
M932 409q-45 0 -77.5 -32.5t-32.5 -70.5v-158q0 -53 34 -85.5t78 -32.5q113 0 113 188q0 98 -27 144.5t-88 46.5z" />
    <glyph glyph-name="fb" unicode="fb" horiz-adv-x="889" 
d="M414 687q-7 0 -33 1t-43 1q-68 0 -94 -39.5t-27 -107.5q-3 -93 -3 -108q17 0 40 1t39 1.5t22 0.5q12 0 12 -21t-12 -21q-70 0 -101 1q-2 -269 0 -358q5 0 34.5 1t36.5 1q9 0 9 -21t-9 -21q-5 0 -47.5 2.5t-72.5 2.5q-29 0 -74.5 -2.5t-51.5 -2.5q-12 0 -12 22q0 20 12 20
t44.5 -1t34.5 -1q5 80 3 358q-22 0 -51 -0.5t-34 -0.5q-8 0 -8 22q0 20 8 20q7 0 35.5 -1t49.5 -2q0 16 -0.5 45.5t-0.5 45.5q0 86 59.5 146t165.5 60q46 0 84.5 0.5t60 1t24.5 0.5q11 0 14 -4t3 -19q0 -6 -3.5 -64t-7.5 -136.5t-5 -130.5q39 75 145 75q84 0 137 -65
t53 -168q0 -102 -56 -169t-142 -67q-104 0 -141 85q-4 -40 -7 -58q-2 -10 -6 -13.5t-14 -2.5l-55 4q-8 0 -12 3.5t-3 10.5t3.5 48t4.5 106.5t2 120.5v385q0 8 -1.5 10.5t-8.5 2.5zM626 409q-45 0 -77.5 -32.5t-32.5 -70.5v-158q0 -53 34 -85.5t78 -32.5q113 0 113 188
q0 98 -27 144.5t-88 46.5z" />
    <glyph glyph-name="Th" unicode="Th" horiz-adv-x="1226" 
d="M733 593q0 39 -20 56.5t-77.5 26t-182.5 9.5q-10 -157 -10 -445q0 -162 2 -191q27 0 75 1t52 1q8 0 8 -28q0 -25 -8 -25q-6 0 -77.5 2.5t-100.5 2.5q-30 0 -108.5 -2.5t-83.5 -2.5q-14 0 -14 26q0 9 4 18t10 9q8 0 60 -1t70 -1v633q-53 -1 -81 -2.5t-57 -9t-41.5 -16.5
t-29.5 -32.5t-27 -48.5t-27 -73q-5 -14 -21 -14q-18 0 -18 15q0 36 3 120.5t3 86.5q0 24 13 24q1 0 24 -0.5t60 -1t79.5 -1.5t92 -1.5t88.5 -0.5q80 0 252 3t178 3q10 0 13.5 -5t3.5 -18q0 -10 -3.5 -83l-8 -167t-6.5 -140q59 134 188 134q60 0 91.5 -37.5t31.5 -101.5
q0 -54 -1 -144t-1 -133q18 0 43 1t30 1q9 0 9 -21t-9 -21q-6 0 -50 2.5t-74 2.5t-70 -2.5t-46 -2.5q-13 0 -13 22q0 20 13 20q9 0 31.5 -1t41.5 -1v275q0 46 -13.5 70t-47.5 24q-60 0 -105 -63.5t-45 -120.5q0 -42 0.5 -84.5t1 -69.5t0.5 -31q18 0 40.5 1t27.5 1q7 0 7 -21
t-7 -21t-48 2.5t-70 2.5q-30 0 -74 -2.5t-50 -2.5q-12 0 -12 22q0 20 12 20q9 0 35 -1t44 -1v555z" />
    <glyph glyph-name=".notdef" horiz-adv-x="500" 
 />
    <glyph glyph-name=".null" horiz-adv-x="0" 
 />
    <glyph glyph-name="nonmarkingreturn" horiz-adv-x="333" 
 />
    <glyph glyph-name="space" unicode=" " horiz-adv-x="287" 
 />
    <glyph glyph-name="exclam" unicode="!" horiz-adv-x="312" 
d="M136 222q0 32 -14 245.5t-14 243.5q0 18 12 26t46 8t45 -7t11 -26q0 -34 -22.5 -253.5t-22.5 -233.5t-21 -14q-20 0 -20 11zM155 121q28 0 47 -19.5t19 -46.5t-19 -46.5t-47 -19.5q-27 0 -46 19.5t-19 46.5t19 46.5t46 19.5z" />
    <glyph glyph-name="quotedbl" unicode="&#x22;" horiz-adv-x="328" 
d="M129 651q-21 -76 -27 -148q-1 -9 -16 -9t-16 9q-6 58 -28 142q-12 45 -12 61q0 20 10.5 27t46.5 7q34 0 43.5 -5.5t9.5 -25.5q0 -19 -11 -58zM287 651q-21 -76 -27 -148q-1 -9 -16 -9t-16 9q-6 58 -28 142q-12 45 -12 61q0 20 10.5 27t46.5 7q34 0 43.5 -5.5t9.5 -25.5
q0 -19 -11 -58z" />
    <glyph glyph-name="numbersign" unicode="#" horiz-adv-x="675" 
d="M444 434l26 218q2 12 27 12q31 0 31 -24l-25 -205q25 0 57.5 0.5t49 1t21.5 0.5q14 0 19 -5.5t5 -22.5q0 -30 -23 -30q-3 0 -23.5 0.5t-51.5 0.5h-60l-28 -240q26 0 60 0.5t51.5 1t22.5 0.5q14 0 19 -5.5t5 -22.5q0 -30 -23 -30h-24.5t-54 0.5t-62.5 0.5l-22 -199
q-2 -12 -27 -12q-31 0 -31 24l21 188h-178l-22 -200q-2 -12 -27 -12q-31 0 -31 24l21 187q-31 0 -62.5 -0.5t-51 -0.5h-22.5q-11 0 -11 31q0 24 11 24q73 0 142 -1l28 242h-65.5t-53 -0.5t-23.5 -0.5q-11 0 -11 31q0 24 11 24q77 0 148 -1l26 219q2 12 27 12q31 0 31 -24
l-25 -207h70q73 0 108 1zM410 139l28 242h-178l-28 -243h76q68 0 102 1z" />
    <glyph glyph-name="dollar" unicode="$" horiz-adv-x="630" 
d="M284 18q-108 5 -169 43.5t-61 101.5q0 27 14.5 43.5t36.5 16.5q53 0 53 -59q0 -42 26 -66.5t101 -32.5q0 42 0.5 133.5t0.5 141.5q-99 27 -141.5 69.5t-42.5 116.5q0 73 47.5 125t134.5 61q0 23 -0.5 49t-1.5 58t-1 51q0 14 29 14t29 -14q-2 -104 -2 -158q90 -2 141 -40
t51 -88q0 -27 -14 -40.5t-37 -13.5q-20 0 -33 13.5t-13 39.5q0 41 -20 62t-77 25l-1 -224q118 -30 171.5 -84t53.5 -139q0 -81 -60 -138t-163 -67q0 -9 1 -77.5t2 -106.5q0 -15 -30 -15q-28 0 -28 15zM334 330q0 -165 1 -265q65 7 99 40t34 80q0 53 -26.5 86t-107.5 59z
M284 670q-51 -6 -78 -33t-27 -65q0 -42 22.5 -68.5t84.5 -46.5q0 75 -2 213z" />
    <glyph glyph-name="percent" unicode="%" horiz-adv-x="770" 
d="M207 747q82 0 131.5 -52t49.5 -131q0 -76 -53.5 -129.5t-127.5 -53.5q-77 0 -129 50t-52 133q0 75 53.5 129t127.5 54zM563 351q82 0 131.5 -52t49.5 -131q0 -76 -53.5 -129.5t-127.5 -53.5q-77 0 -129 50t-52 133q0 75 53.5 129t127.5 54zM627 735q3 9 21 9
q14 0 30 -5.5t11 -12.5l-550 -732q-4 -9 -22 -9q-14 0 -29.5 5.5t-10.5 12.5zM207 707q-54 0 -74 -32t-20 -112q0 -82 21 -111.5t73 -29.5q56 0 75 32t19 109q0 82 -21 113t-73 31zM563 311q-54 0 -74 -32t-20 -112q0 -82 21 -111.5t73 -29.5q56 0 75 32t19 109
q0 82 -21 113t-73 31z" />
    <glyph glyph-name="ampersand" unicode="&#x26;" horiz-adv-x="819" 
d="M627 394q-11 0 -50 -1.5t-48 -1.5t-9 23q0 22 9 22q7 0 45.5 -1.5t74.5 -1.5q37 0 74.5 1.5t43.5 1.5q14 0 14 -23q0 -22 -15 -22q-7 0 -36.5 1.5t-47.5 1.5q-43 -181 -134 -271q76 -76 131 -76q32 0 47.5 22.5t15.5 59.5v26q0 14 24 14q19 0 19 -14q0 -86 -35 -126
t-113 -40q-97 0 -162 69q-76 -71 -201 -71q-106 0 -165 52.5t-59 136.5q0 69 46.5 130.5t124.5 104.5q-36 76 -36 141q0 92 51.5 141t115.5 49q60 0 98.5 -33t38.5 -86q0 -64 -34 -109t-122 -90q24 -46 84 -134q56 -85 109 -144q32 44 65 120.5t36 127.5zM236 381
q-50 -27 -68.5 -59.5t-18.5 -82.5q0 -90 45 -149t110 -59q94 0 148 50q-44 39 -128 158q-59 89 -88 142zM318 454q63 32 81 64.5t18 100.5q0 84 -73 84q-36 0 -55 -23.5t-19 -67.5q0 -71 48 -158z" />
    <glyph glyph-name="quotesingle" unicode="'" horiz-adv-x="170" 
d="M129 651q-21 -76 -27 -148q-1 -9 -16 -9t-16 9q-6 58 -28 142q-12 45 -12 61q0 20 10.5 27t46.5 7q34 0 43.5 -5.5t9.5 -25.5q0 -19 -11 -58z" />
    <glyph glyph-name="parenleft" unicode="(" horiz-adv-x="408" 
d="M432 -263q-98 0 -180.5 68t-130.5 185.5t-48 256.5q0 138 48 255.5t130.5 185.5t180.5 68q12 0 12 -23t-11 -23q-247 0 -247 -471q0 -220 67.5 -338t179.5 -118q9 0 9 -21q0 -25 -10 -25z" />
    <glyph glyph-name="parenright" unicode=")" horiz-adv-x="408" 
d="M-24 756q98 0 181 -68t131 -185.5t48 -255.5q0 -211 -105.5 -360.5t-254.5 -149.5q-12 0 -12 23t11 23q248 0 248 471q0 220 -68 338t-180 118q-9 0 -9 21q0 25 10 25z" />
    <glyph glyph-name="asterisk" unicode="*" horiz-adv-x="401" 
d="M223 572q25 -24 65 -56q24 -20 33 -31t5.5 -21t-24.5 -25q-20 -14 -28.5 -14.5t-16.5 10.5q-9 14 -18 40q-1 2 -14 34t-22 49q-9 -18 -31 -80q-11 -31 -20 -42q-7 -12 -17 -11.5t-31 15.5q-21 16 -24 23t6 19q7 9 31 30q51 42 66 57q-38 5 -84 7q-34 2 -46 6
q-14 4 -16.5 12.5t5.5 34.5q8 24 14 29.5t20 0.5q12 -3 38 -20q44 -30 77 -46q-6 32 -21 83q-9 34 -9 45q0 15 8 20t34 5q25 0 32 -4.5t7 -18.5q0 -13 -8 -42q-13 -45 -18 -88q9 5 71 46q26 18 40 22q14 5 21.5 -1t15.5 -31q7 -24 5.5 -31.5t-15.5 -12.5q-17 -5 -43 -5
q-6 -1 -23 -1.5t-33.5 -2t-31.5 -4.5z" />
    <glyph glyph-name="plus" unicode="+" horiz-adv-x="572" 
d="M527 224h-208v-209q0 -17 -32 -17q-33 0 -33 17v209h-208q-15 0 -15 30q0 31 15 31h208v207q0 16 32 16q33 0 33 -16v-207h208q15 0 15 -30q0 -31 -15 -31z" />
    <glyph glyph-name="comma" unicode="," horiz-adv-x="285" 
d="M49 77q0 34 22 53.5t55 19.5q46 0 80 -35t34 -111q0 -54 -20 -98t-47 -66.5t-49 -34.5t-31 -12q-6 0 -10 9.5t-4 19.5q0 9 4 10q43 15 74.5 54.5t31.5 102.5q0 33 -7 48t-28 15q-7 0 -20.5 -15.5t-33.5 -15.5q-51 0 -51 56z" />
    <glyph glyph-name="hyphen" unicode="-" horiz-adv-x="303" 
d="M134 286q17 0 58 2.5t48 2.5q14 0 18 -6.5t4 -30.5q0 -38 -21 -38q-7 0 -48 1t-59 1t-46.5 -1t-34.5 -1q-12 0 -12 40q0 31 12 31q8 0 34 -0.5t47 -0.5z" />
    <glyph glyph-name="hyphen" unicode="&#xad;" horiz-adv-x="303" 
d="M134 286q17 0 58 2.5t48 2.5q14 0 18 -6.5t4 -30.5q0 -38 -21 -38q-7 0 -48 1t-59 1t-46.5 -1t-34.5 -1q-12 0 -12 40q0 31 12 31q8 0 34 -0.5t47 -0.5z" />
    <glyph glyph-name="period" unicode="." horiz-adv-x="253" 
d="M126 126q29 0 48.5 -20t19.5 -49q0 -28 -19.5 -48t-48.5 -20q-28 0 -47.5 20t-19.5 48q0 29 19.5 49t47.5 20z" />
    <glyph glyph-name="slash" unicode="/" horiz-adv-x="423" 
d="M424 733q4 11 27 11q16 0 28.5 -6t12.5 -17l-459 -923q-4 -11 -27 -11q-16 0 -28.5 6t-12.5 17z" />
    <glyph glyph-name="zero" unicode="0" horiz-adv-x="561" 
d="M280 490q106 0 167.5 -69.5t61.5 -184.5q0 -111 -66 -182.5t-163 -71.5q-100 0 -164 65.5t-64 188.5q0 107 65 180.5t163 73.5zM280 435q-67 0 -101.5 -47t-34.5 -153q0 -109 34 -153.5t102 -44.5q137 0 137 198q0 106 -35 153t-102 47z" />
    <glyph glyph-name="one" unicode="1" horiz-adv-x="402" 
d="M258 38q22 0 62 1t44 1q7 0 7 -21t-7 -21t-67.5 2.5t-90.5 2.5t-89 -2.5t-65 -2.5q-13 0 -13 22q0 20 13 20q7 0 45 -1t66 -1q0 4 -0.5 189.5t-0.5 196.5q-19 0 -62.5 -1.5t-46.5 -1.5q-13 0 -13 33q0 23 14 23q4 0 67.5 -2t125.5 -2q10 0 13 -3.5t3 -13.5
q0 -5 -3.5 -125.5t-3.5 -192.5q0 -30 1 -64t1 -36z" />
    <glyph glyph-name="two" unicode="2" horiz-adv-x="548" 
d="M162 79q198 6 240 6q24 0 52 53q4 7 14 7q8 0 16.5 -4t8.5 -11q0 -2 -2 -8q-41 -67 -58 -104q-8 -21 -27 -21q-17 0 -159 2t-169 2q-18 0 -18 24q0 10 7 16q51 45 154 111q77 50 106.5 87.5t29.5 90.5q0 112 -110 112q-51 0 -83 -32.5t-32 -79.5q0 -49 26 -72
q0 -10 -8.5 -17.5t-17.5 -7.5q-5 0 -8 3q-40 37 -40 97q0 63 53 110t141 47q86 0 131.5 -41.5t45.5 -106.5q0 -45 -27 -80t-76 -72q-96 -68 -190 -111z" />
    <glyph glyph-name="three" unicode="3" horiz-adv-x="568" 
d="M84 321q11 15 36 61t33 68q4 13 8.5 17t19.5 4q78 0 178.5 1t122.5 1q9 0 11.5 -5.5t2.5 -20.5q0 -22 -82.5 -111.5t-145.5 -146.5q107 0 174.5 -55.5t67.5 -169.5q0 -107 -70 -173.5t-185 -66.5q-89 0 -139.5 49.5t-50.5 127.5q0 8 9 13.5t21 5.5q18 0 18 -11
q0 -64 38.5 -101.5t104.5 -37.5q76 0 111.5 42.5t35.5 138.5q0 194 -127 194q-43 0 -69 -17.5t-46 -53.5q-6 -10 -18 -10t-21 10t-9 21q0 7 6 12q37 25 89.5 76.5l119 121.5l81.5 85q-150 -6 -241 -6q-20 -43 -41 -76q-7 -13 -17 -13q-11 0 -19 6.5t-8 14.5q0 4 1 5z" />
    <glyph glyph-name="four" unicode="4" horiz-adv-x="592" 
d="M497 0q-48 0 -97 3q-2 -168 -2 -253q0 -13 -21 -13h-57q-17 0 -17 14q0 143 7 252q-117 -3 -245 -3q-23 0 -23 17q0 9 7 19q2 2 49.5 71.5l100 145.5l100 147.5t54.5 85.5q1 10 25 10q27 0 27 -15q0 -146 -5 -437q48 4 99 4q10 18 10 83q0 11 23 11q19 0 19 -13
q0 -11 -3.5 -39t-3.5 -58q0 -32 3.5 -69.5t3.5 -41.5q0 -13 -21 -13q-20 0 -20 13q0 59 -13 79zM322 362q-15 -17 -97.5 -141l-115.5 -177q19 0 66 0.5t82.5 0.5t52.5 -1q0 192 12 318z" />
    <glyph glyph-name="five" unicode="5" horiz-adv-x="527" 
d="M125 159q52 57 154 57q97 0 154 -58.5t57 -173.5q0 -121 -63 -190.5t-184 -69.5q-42 0 -76.5 12.5t-55.5 30t-35.5 38.5t-20 36.5t-5.5 25.5q0 22 31 22q14 0 15 -7q11 -54 52 -84t95 -30q70 0 105 49t35 168q0 99 -32 142t-94 43q-64 0 -99.5 -30t-43.5 -67
q-2 -12 -20 -12q-11 0 -20 5t-7 13q61 207 83 370q3 22 24 22q5 0 76.5 -0.5t113.5 -0.5q75 0 85 66q1 8 13 8q21 0 21 -14q0 -26 -25.5 -85.5t-52.5 -59.5q-21 0 -116 0.5t-110 0.5q-18 -126 -54 -227z" />
    <glyph glyph-name="six" unicode="6" horiz-adv-x="591" 
d="M302 -18q-100 0 -164.5 83.5t-64.5 247.5q0 118 38.5 216t109.5 157t160 59q71 0 108.5 -25.5t37.5 -70.5q0 -29 -16 -43.5t-39 -14.5q-19 0 -31.5 11.5t-12.5 33.5q0 37 -9.5 54.5t-42.5 17.5q-81 0 -138 -87t-64 -239q17 53 59.5 77.5t94.5 24.5q102 0 152 -66t50 -173
q0 -121 -68.5 -192t-159.5 -71zM306 22q63 0 90 49t27 180q0 109 -24.5 151.5t-88.5 42.5q-65 0 -100.5 -55.5t-35.5 -142.5q0 -128 30.5 -176.5t101.5 -48.5z" />
    <glyph glyph-name="seven" unicode="7" horiz-adv-x="525" 
d="M155 -178q0 -19 13 -31q7 57 56 57q54 0 54 -57q0 -32 -23.5 -50t-55.5 -18q-37 0 -62.5 26t-25.5 74q0 40 22 87.5t81 138.5l229 343q-152 -8 -313 -8q-14 -29 -50 -90q-7 -12 -17 -12t-17.5 6.5t-7.5 14.5q0 2 2 6q11 17 40.5 69t36.5 73q5 11 11 15.5t20 4.5
q81 0 211 1t140 1q11 0 15.5 -6t4.5 -23q0 -16 -76 -140.5l-174 -272.5q-114 -170 -114 -209z" />
    <glyph glyph-name="eight" unicode="8" horiz-adv-x="588" 
d="M372 422q81 -45 117.5 -90.5t36.5 -123.5q0 -101 -60.5 -163.5t-171.5 -62.5q-100 0 -166 53t-66 142q0 144 158 209q-126 72 -126 181q0 73 57 126.5t152 53.5q89 0 141 -51t52 -120q0 -47 -30.5 -89t-93.5 -65zM247 372q-48 -25 -74 -77.5t-26 -116.5q0 -158 147 -158
q78 0 118 40t40 108q0 19 -3 35.5t-12 31.5l-15.5 26t-22.5 23.5l-25 20t-30.5 19l-30 16t-34 16.5t-32.5 16zM345 436q73 36 73 142q0 129 -119 129q-62 0 -96.5 -33t-34.5 -75q0 -18 4 -33t14.5 -28t19.5 -22t28.5 -21t31.5 -18.5t39 -20t40 -20.5z" />
    <glyph glyph-name="nine" unicode="9" horiz-adv-x="593" 
d="M291 490q102 0 167 -82.5t65 -247.5q0 -183 -81 -309.5t-214 -126.5q-71 0 -108.5 25.5t-37.5 70.5q0 29 16 43.5t39 14.5q19 0 31.5 -11.5t12.5 -33.5q0 -37 9.5 -54.5t42.5 -17.5q79 0 130.5 88t58.5 242q-17 -53 -59.5 -77.5t-94.5 -24.5q-102 0 -152 66.5t-50 176.5
q0 116 63 187t162 71zM294 450q-65 0 -93 -45t-28 -163q0 -123 24 -168.5t89 -45.5t100.5 55.5t35.5 142.5q0 128 -29.5 176t-98.5 48z" />
    <glyph glyph-name="colon" unicode=":" horiz-adv-x="248" 
d="M124 121q27 0 46 -19.5t19 -46.5t-19 -46.5t-46 -19.5t-46 19.5t-19 46.5t19 46.5t46 19.5zM124 454q27 0 46 -19.5t19 -46.5t-19 -46.5t-46 -19.5t-46 19.5t-19 46.5t19 46.5t46 19.5z" />
    <glyph glyph-name="semicolon" unicode=";" horiz-adv-x="285" 
d="M49 77q0 34 22 53.5t55 19.5q46 0 80 -35t34 -111q0 -54 -20 -98t-47 -66.5t-49 -34.5t-31 -12q-6 0 -10 9.5t-4 19.5q0 9 4 10q43 15 74.5 54.5t31.5 102.5q0 33 -7 48t-28 15q-7 0 -20.5 -15.5t-33.5 -15.5q-51 0 -51 56zM138 454q28 0 47 -19.5t19 -46.5t-19 -46.5
t-47 -19.5q-26 0 -45 19.5t-19 46.5t19 46.5t45 19.5z" />
    <glyph glyph-name="semicolon" unicode="&#x37e;" horiz-adv-x="285" 
d="M49 77q0 34 22 53.5t55 19.5q46 0 80 -35t34 -111q0 -54 -20 -98t-47 -66.5t-49 -34.5t-31 -12q-6 0 -10 9.5t-4 19.5q0 9 4 10q43 15 74.5 54.5t31.5 102.5q0 33 -7 48t-28 15q-7 0 -20.5 -15.5t-33.5 -15.5q-51 0 -51 56zM138 454q28 0 47 -19.5t19 -46.5t-19 -46.5
t-47 -19.5q-26 0 -45 19.5t-19 46.5t19 46.5t45 19.5z" />
    <glyph glyph-name="less" unicode="&#x3c;" horiz-adv-x="572" 
d="M519 94q8 -3 8 -16q0 -14 -8.5 -26.5t-19.5 -12.5l-431 207q-23 12 -23 30q0 21 23 31l433 195q10 0 16 -9.5t6 -21.5q0 -17 -10 -21l-371 -168z" />
    <glyph glyph-name="equal" unicode="=" horiz-adv-x="572" 
d="M527 163h-481q-15 0 -15 30q0 31 15 31h481q15 0 15 -30q0 -31 -15 -31zM527 334h-481q-15 0 -15 30q0 31 15 31h481q15 0 15 -30q0 -31 -15 -31z" />
    <glyph glyph-name="greater" unicode="&#x3e;" horiz-adv-x="572" 
d="M53 448q-8 3 -8 16q0 14 8.5 26.5t19.5 12.5l431 -207q23 -12 23 -30q0 -21 -23 -31l-433 -195q-10 0 -16 9.5t-6 21.5q0 17 10 21l371 168z" />
    <glyph glyph-name="question" unicode="?" horiz-adv-x="437" 
d="M198 209h-17q-13 0 -13 11v130q0 16 4.5 22.5t18.5 8.5q70 10 90.5 42t20.5 131q0 93 -18.5 123.5t-68.5 30.5q-52 0 -72.5 -29t-20.5 -93q0 -46 -56 -46q-19 0 -32.5 11.5t-13.5 33.5q0 29 9 55t29.5 51t61 40t95.5 15q102 0 152.5 -52t50.5 -140t-54.5 -144.5
t-153.5 -69.5v-118q0 -13 -12 -13zM187 121q28 0 47 -19.5t19 -46.5t-19 -46.5t-47 -19.5q-27 0 -46 19.5t-19 46.5t19 46.5t46 19.5z" />
    <glyph glyph-name="at" unicode="@" horiz-adv-x="986" 
d="M673 133q0 -10 -24.5 -31t-71.5 -40.5t-95 -19.5q-75 0 -125 36.5t-50 108.5q0 135 126 160q34 6 147 14v66q0 61 -25 84t-96 23q-137 0 -210 -88.5t-73 -259.5q0 -275 283 -275q171 0 276.5 92.5t105.5 238.5q0 136 -82 234q-2 1 -2 6q0 8 7.5 14.5t18.5 6.5
q15 0 25 -11q88 -114 88 -251q0 -164 -122 -269.5t-315 -105.5q-186 0 -284 87t-98 233q0 96 35.5 173t93 122.5t124 69t134.5 23.5q112 0 162 -54.5t50 -129.5q0 -30 -1.5 -119t-1.5 -138zM581 332q-16 -3 -48.5 -7t-55.5 -9q-43 -9 -57 -36t-14 -88q0 -112 79 -112
q44 0 71 23t27 71q0 98 -2 158z" />
    <glyph glyph-name="A" unicode="A" horiz-adv-x="751" 
d="M655 47q18 0 48 1.5t37 1.5q4 0 7.5 -9t3.5 -18q0 -25 -11 -25q-7 0 -73 3t-102 3t-89.5 -3t-60.5 -3q-15 0 -15 26t15 26q11 0 45 -1.5t55 -1.5q-7 26 -37 112t-38 112h-213q-39 -115 -89 -222q7 0 54.5 0.5t56.5 0.5q11 0 11 -27q0 -25 -11 -25q-7 0 -45 3t-75 3
t-72 -3t-41 -3q-7 0 -11.5 8t-4.5 18q0 26 16 26q14 0 35.5 -1.5t24.5 -1.5q30 50 111.5 267.5l150.5 416.5q3 11 9.5 14t20.5 3q19 0 23 -15q13 -49 117.5 -327.5t146.5 -358.5zM335 567q-56 -167 -94 -259h186q-22 51 -52 135.5t-40 123.5z" />
    <glyph glyph-name="B" unicode="B" horiz-adv-x="749" 
d="M153 49v633q-10 0 -48 -1.5t-44 -1.5q-12 0 -12 26q0 28 13 28l58 -3q59 -3 97 -3q33 0 103 0.5t105 0.5q108 0 159 -49.5t51 -123.5q0 -59 -37.5 -102t-99.5 -48q97 -14 145 -69.5t48 -136.5q0 -96 -60.5 -148.5t-208.5 -52.5q-28 0 -107.5 2t-117.5 2q-42 0 -87.5 -2
t-49.5 -2q-12 0 -12 26q0 27 12 27q9 0 42 -1t51 -1zM266 48q4 0 30.5 -1t63 -1.5t63.5 -0.5q72 0 107.5 45.5t35.5 120.5q0 54 -25 96.5t-79 58.5q-51 15 -197 15q-1 -46 -1 -131q0 -45 0.5 -92.5t1 -77.5t0.5 -32zM276 685q-11 -86 -11 -266h73q61 0 99 6q77 13 77 129
q0 99 -75 122q-30 9 -163 9z" />
    <glyph glyph-name="C" unicode="C" horiz-adv-x="771" 
d="M425 26q74 0 138 56t101 168q5 8 15 8q18 0 18 -10q0 -9 -3 -86.5t-3 -90.5q0 -31 -79 -60t-191 -29q-166 0 -267.5 106t-101.5 277q0 78 23.5 146t69 121.5t119.5 84t168 30.5q116 0 183.5 -26.5t67.5 -57.5q0 -13 1.5 -77t1.5 -73t-18 -9q-16 0 -20 7
q-48 114 -95.5 153t-122.5 39q-246 0 -246 -342q0 -335 241 -335z" />
    <glyph glyph-name="D" unicode="D" horiz-adv-x="855" 
d="M197 2q-42 0 -87.5 -2t-49.5 -2q-12 0 -12 26q0 27 12 27q9 0 42 -1t51 -1v633q-10 0 -48 -1.5t-44 -1.5q-12 0 -12 26q0 28 13 28l58 -3q59 -3 97 -3h199q195 0 289 -93.5t94 -258.5q0 -184 -110.5 -280.5t-316.5 -96.5q-41 0 -97 2t-78 2zM667 378q0 92 -20.5 154
t-61 94.5t-89 45t-116.5 12.5q-46 0 -104 -5q-12 -93 -12 -439q0 -46 0.5 -87.5t1 -65t0.5 -26.5q0 -19 94 -19q75 0 128.5 15t95.5 51.5t62.5 103.5t20.5 166z" />
    <glyph glyph-name="E" unicode="E" horiz-adv-x="788" 
d="M266 46q12 0 58.5 -0.5t85.5 -1t105 0.5q84 1 124.5 47.5t51.5 149.5q1 15 19 15q7 0 14.5 -3.5t7.5 -6.5q0 -23 -1 -77.5t-1.5 -101t-0.5 -49.5q0 -26 -42 -26q-11 0 -212.5 5t-256.5 5q-41 0 -97.5 -2.5t-60.5 -2.5q-12 0 -12 26q0 27 12 27q9 0 42 -1t51 -1v633
q-10 0 -48 -1.5t-44 -1.5q-12 0 -12 26q0 28 13 28l58 -3q59 -3 97 -3q29 0 141.5 1.5t213.5 2.5t103 1q14 0 14 -24q0 -2 -0.5 -77.5t-0.5 -111.5q0 -13 -19 -13q-18 0 -21 12q-9 52 -45.5 104.5t-75.5 55.5q-51 7 -251 7q-9 -92 -11 -284q103 0 136 3q29 19 48 61t19 75
q0 15 18 15q24 0 24 -18q0 -11 -3.5 -69.5t-3.5 -91.5q0 -30 3.5 -86t3.5 -80q0 -13 -24 -13q-18 0 -18 10q0 23 -21.5 78.5t-43.5 73.5q-31 4 -138 4q-1 -39 -1 -123q0 -46 0.5 -91t1 -72.5t0.5 -30.5z" />
    <glyph glyph-name="F" unicode="F" horiz-adv-x="706" 
d="M265 376q119 2 136 4q29 19 48 61t19 75q0 8 3.5 10.5t14.5 2.5q24 0 24 -16q0 -11 -3.5 -69.5t-3.5 -91.5q0 -30 3.5 -86t3.5 -80q0 -13 -24 -13q-18 0 -18 10q0 23 -21.5 78.5t-43.5 73.5q-31 4 -138 4q-1 -38 -1 -122q0 -46 0.5 -85t1 -60t0.5 -23q34 0 87 1t55 1
q8 0 8 -28q0 -25 -8 -25q-6 0 -83 2.5t-107 2.5q-41 0 -97.5 -2.5t-60.5 -2.5q-12 0 -12 26q0 27 12 27q9 0 42 -1t51 -1v633q-10 0 -48 -1.5t-44 -1.5q-12 0 -12 26q0 28 13 28l58 -3q59 -3 97 -3q29 0 139 1.5t208.5 2.5t100.5 1q13 0 13 -24q0 -2 2.5 -83.5t2.5 -117.5
q0 -14 -17 -14q-20 0 -22 13q-4 22 -13 47.5t-23.5 53.5t-37.5 47.5t-49 23.5q-59 8 -244 8q-11 -80 -12 -310z" />
    <glyph glyph-name="G" unicode="G" horiz-adv-x="845" 
d="M725 318v-245q-68 -43 -152.5 -67t-156.5 -24q-160 0 -262 106.5t-102 276.5q0 78 24 146t70.5 121t121 84t168.5 31q117 0 189.5 -26.5t72.5 -57.5q0 -13 1.5 -76.5t1.5 -72.5q0 -11 -18 -11q-16 0 -20 8q-48 112 -100 152t-129 40q-119 0 -184.5 -84t-65.5 -258
q0 -166 61 -252t171 -86q83 0 131.5 32.5t54.5 82.5q4 34 4 180q-26 0 -87.5 -0.5t-63.5 -0.5q-13 0 -13 24q0 23 14 23q4 0 78.5 -4t122.5 -4q40 0 94.5 2t55.5 2q13 0 13 -22q0 -23 -12 -23q-6 0 -40 1.5t-43 1.5z" />
    <glyph glyph-name="H" unicode="H" horiz-adv-x="909" 
d="M632 362q-90 -3 -181 -3t-186 3q-1 -39 -1 -122q0 -46 0.5 -90.5t1 -71.5t0.5 -29q3 0 39 1t44 1q9 0 9 -28q0 -25 -9 -25q-6 0 -57.5 2.5t-81.5 2.5q-41 0 -93.5 -2.5t-56.5 -2.5q-12 0 -12 26q0 27 12 27q9 0 42 -1t51 -1v633q-10 0 -48 -1.5t-44 -1.5q-12 0 -12 26
q0 28 13 28l56 -3q57 -3 95 -3q35 0 70 1.5t56.5 3t22.5 1.5q14 0 14 -28q0 -26 -12 -26q-6 0 -42 1.5t-47 1.5q-9 -46 -10 -277q94 3 186 3q91 0 181 -3v277q-10 0 -47.5 -1.5t-43.5 -1.5q-12 0 -12 26q0 28 13 28q1 0 56.5 -3t93.5 -3q35 0 70.5 1.5t57.5 3t23 1.5
q12 0 12 -28q0 -26 -11 -26q-6 0 -42 1.5t-46 1.5q-2 -11 -5 -71.5t-5.5 -163.5t-2.5 -207q0 -46 0.5 -90.5t1 -71.5t0.5 -29q4 0 40 1t45 1q7 0 7 -28q0 -25 -7 -25t-59 2.5t-81 2.5q-41 0 -93.5 -2.5t-56.5 -2.5q-12 0 -12 26q0 27 12 27q9 0 42 -1t50 -1v313z" />
    <glyph glyph-name="I" unicode="I" horiz-adv-x="425" 
d="M275 682q-11 -58 -11 -442q0 -46 0.5 -90.5t1 -71.5t0.5 -29q3 0 39 1t44 1q9 0 9 -28q0 -25 -9 -25q-6 0 -57.5 2.5t-81.5 2.5q-41 0 -93.5 -2.5t-56.5 -2.5q-12 0 -12 26q0 27 12 27q9 0 42 -1t51 -1v633q-10 0 -48 -1.5t-44 -1.5q-12 0 -12 26q0 28 13 28l56 -3
q57 -3 95 -3q29 0 64.5 1.5t59.5 3t25 1.5q14 0 14 -28q0 -26 -12 -26q-6 0 -42 1.5t-47 1.5z" />
    <glyph glyph-name="J" unicode="J" horiz-adv-x="496" 
d="M356 117q0 -59 -52.5 -97t-139.5 -38q-76 0 -113 32.5t-37 89.5q0 74 69 74q28 0 43 -17t15 -44q0 -38 -34 -70q20 -18 54 -18q38 0 61 33t23 92v528q-10 0 -48 -1.5t-44 -1.5q-12 0 -12 26q0 28 13 28q1 0 59 -3t96 -3q29 0 63.5 1.5t57.5 3t25 1.5q13 0 13 -28
q0 -26 -13 -26q-5 0 -41 1.5t-47 1.5q-3 -18 -7 -213.5t-4 -351.5z" />
    <glyph glyph-name="K" unicode="K" horiz-adv-x="799" 
d="M265 382q-1 -44 -1 -142q0 -46 0.5 -90.5t1 -71.5t0.5 -29q3 0 39 1t44 1q9 0 9 -28q0 -25 -9 -25q-6 0 -55.5 2.5t-79.5 2.5q-41 0 -95.5 -2.5t-58.5 -2.5q-12 0 -12 26q0 27 12 27q9 0 42 -1t51 -1v633q-10 0 -48 -1.5t-44 -1.5q-12 0 -12 26q0 28 13 28l58 -3
q59 -3 97 -3q29 0 63.5 1.5t57.5 3t24 1.5q14 0 14 -28q0 -26 -12 -26q-6 0 -42 1.5t-47 1.5q-9 -48 -9 -259q31 2 57 5q121 114 228 254q-10 0 -48.5 -2t-43.5 -2t-8.5 9t-3.5 17q0 29 13 29l53 -3q53 -3 91 -3q29 0 60 1.5t51 3t22 1.5q13 0 13 -23q0 -12 -4 -22t-9 -10
q-6 0 -48 2t-52 2q-122 -134 -257 -256q87 -8 133.5 -29t74.5 -62q7 -10 12.5 -20.5t11 -24t9 -23.5t8.5 -28t7 -27.5t8 -32t8 -32.5q13 -50 33 -73t57 -23q8 0 25.5 1.5t27.5 1.5q16 0 16 -26q0 -28 -20 -28q-19 0 -68.5 -1t-69.5 -1q-62 0 -90 28.5t-38 96.5
q-12 75 -20.5 113.5t-22.5 74t-35.5 49.5t-51.5 21.5t-79 7.5q-26 0 -51 -7z" />
    <glyph glyph-name="L" unicode="L" horiz-adv-x="747" 
d="M266 49q85 0 221 6q81 4 113.5 48t62.5 167q3 13 19 13q22 0 22 -10q0 -22 -1 -82.5t-1.5 -112.5t-0.5 -55q0 -26 -42 -26q-16 0 -217.5 3t-231.5 3q-41 0 -93.5 -2.5t-56.5 -2.5q-12 0 -12 26q0 27 12 27q9 0 42 -1t51 -1v633q-10 0 -48 -1.5t-44 -1.5q-12 0 -12 26
q0 28 13 28l56 -3q57 -3 95 -3q29 0 64.5 1.5t59.5 3t25 1.5q14 0 14 -28q0 -26 -12 -26q-6 0 -42 1.5t-47 1.5q-11 -58 -11 -442q0 -46 0.5 -90.5t1 -71.5t0.5 -29z" />
    <glyph glyph-name="M" unicode="M" horiz-adv-x="1085" 
d="M876 727q28 0 62 1.5t57.5 3t25.5 1.5q14 0 14 -28q0 -26 -13 -26q-5 0 -41 1.5t-46 1.5q-4 -17 -8 -150.5t-4 -291.5q0 -46 0.5 -90.5t1 -71.5t0.5 -29q18 0 48 1t35 1q9 0 9 -28q0 -25 -9 -25q-5 0 -57.5 2.5t-82.5 2.5q-40 0 -100 -2.5t-64 -2.5q-12 0 -12 26
q0 27 12 27q8 0 48.5 -1t58.5 -1v627q-16 -43 -83 -202.5l-129.5 -305l-65.5 -152.5q-7 -15 -23 -15t-24 15q-11 22 -133 308.5t-147 353.5q-3 -124 -3 -438q0 -46 0.5 -90.5t1.5 -71.5t1 -29q13 0 62 1t54 1q9 0 9 -28q0 -25 -9 -25q-8 0 -62 2.5t-84 2.5q-25 0 -64.5 -2.5
t-51.5 -2.5t-12 26q0 27 12 27q9 0 42 -1t51 -1v633q-10 0 -48 -1.5t-44 -1.5q-12 0 -12 26q0 28 13 28q1 0 45.5 -3t80.5 -3q23 0 63.5 1.5t42.5 1.5q18 0 24 -20q33 -97 221 -551q37 81 119 279t108 272q8 20 24 20q6 0 38 -1.5t48 -1.5z" />
    <glyph glyph-name="N" unicode="N" horiz-adv-x="893" 
d="M754 682q-7 -347 -7 -440q0 -80 1 -154v-74q0 -13 -5.5 -18t-25.5 -5q-18 0 -49 38l-229.5 291.5t-228.5 300.5q-3 -35 -3 -136q0 -364 3 -436q19 0 61 1t53 1q13 0 13 -28q0 -25 -12 -25q-11 0 -63 2.5t-81 2.5q-23 0 -63.5 -2.5t-55.5 -2.5q-14 0 -14 26q0 27 12 27
q8 0 38.5 -1t54.5 -1v633q-10 0 -48 -1.5t-44 -1.5q-12 0 -12 31q0 23 13 23q19 0 55 -3t56 -3q18 0 35.5 0.5t28.5 1.5t13 1q13 0 19 -4t13 -16q53 -77 190.5 -254.5l221.5 -279.5v506q-10 0 -50 -1t-46 -1q-12 0 -12 28q0 25 14 25l43 -3q43 -3 81 -3q40 0 76 3t40 3
q15 0 15 -23q0 -29 -14 -29q-5 0 -41.5 0.5t-45.5 0.5z" />
    <glyph glyph-name="O" unicode="O" horiz-adv-x="855" 
d="M429 747q155 0 262.5 -113.5t107.5 -272.5q0 -158 -107.5 -268.5t-262.5 -110.5q-156 0 -264.5 110.5t-108.5 268.5q0 159 108.5 272.5t264.5 113.5zM429 702q-129 0 -185 -83t-56 -262q0 -332 241 -332q125 0 181.5 79t56.5 253q0 161 -59.5 253t-178.5 92z" />
    <glyph glyph-name="P" unicode="P" horiz-adv-x="686" 
d="M266 49q30 0 68 1t40 1q15 0 15 -28q0 -25 -10 -25q-25 0 -85 2.5t-93 2.5q-37 0 -86.5 -2.5t-54.5 -2.5q-12 0 -12 26q0 27 12 27q10 0 44.5 -1t48.5 -1v633q-10 0 -48 -1.5t-44 -1.5q-12 0 -12 27t13 27l56 -3q57 -3 95 -3q33 0 92.5 2t94.5 2q64 0 113 -18.5
t76.5 -50.5t41 -70t13.5 -81q0 -214 -287 -214q-53 0 -93 5q0 -8 1 -127.5t1 -125.5zM275 686q-9 -52 -10 -348h59q88 0 121 18q71 36 71 158q0 58 -21 100t-63 57q-42 17 -157 15z" />
    <glyph glyph-name="Q" unicode="Q" horiz-adv-x="855" 
d="M490 -5q67 -13 101 -74q7 -11 21.5 -46.5t24.5 -49.5q15 -21 31.5 -31.5t26.5 -12.5t26 -2q18 0 34.5 5t17.5 5q6 0 10.5 -6.5t4.5 -13.5q0 -13 -5.5 -20.5t-32.5 -14t-78 -6.5q-109 0 -138 49q-19 32 -30 85.5t-26 84.5t-54 38q-155 2 -261.5 110.5t-106.5 265.5
q0 159 108.5 272.5t264.5 113.5q155 0 262.5 -113.5t107.5 -272.5q0 -139 -88 -241t-221 -125zM429 702q-129 0 -185 -83t-56 -262q0 -332 241 -332q125 0 181.5 79t56.5 253q0 161 -59.5 253t-178.5 92z" />
    <glyph glyph-name="R" unicode="R" horiz-adv-x="799" 
d="M266 47q23 0 63 2t43 2q9 0 9 -28q0 -25 -9 -25q-11 0 -67.5 2.5t-103.5 2.5q-37 0 -86.5 -2.5t-54.5 -2.5q-12 0 -12 26q0 27 12 27q10 0 46 -1t47 -1v633q-10 0 -48 -1.5t-44 -1.5q-12 0 -12 26q0 28 13 28l56 -3q57 -3 95 -3q33 0 94 1.5t96 1.5q110 0 161 -49.5
t51 -126.5q0 -71 -46 -109t-125 -45q80 -14 116 -33.5t62 -65.5q19 -32 34 -148q9 -64 26.5 -86t67.5 -22q8 0 26 2t26 2q16 0 16 -26q0 -29 -18 -29t-70 3t-80 3q-56 0 -84.5 24t-35.5 81q-4 32 -8.5 80t-7.5 69q-15 92 -101 112q-62 14 -148 14q-1 -50 -1 -134
q0 -46 0.5 -92.5t1 -75.5t0.5 -31zM275 688q-8 -59 -10 -271h59q57 0 99 10q71 19 71 126q0 101 -71 123q-39 12 -148 12z" />
    <glyph glyph-name="S" unicode="S" horiz-adv-x="636" 
d="M312 747q69 0 121 -12.5t73.5 -26.5t21.5 -25q0 -32 3 -79t3 -63q0 -14 -22 -14q-17 0 -22 13q-41 92 -76.5 127.5t-104.5 35.5q-60 0 -96 -31t-36 -80q0 -55 37 -86t150 -62q114 -32 166 -86.5t52 -145.5q0 -100 -74 -165t-209 -65q-54 0 -101 8t-76 20t-45.5 25
t-16.5 24q0 44 -1 97.5t-1 68.5q0 18 27 18q15 0 19 -11q38 -114 87 -160t118 -46q85 0 128.5 44.5t43.5 102.5q0 64 -35.5 100.5t-143.5 67.5q-114 32 -161 75t-47 126q0 95 60 150t158 55z" />
    <glyph glyph-name="T" unicode="T" horiz-adv-x="772" 
d="M445 49q27 0 75 1t52 1q8 0 8 -28q0 -25 -8 -25q-6 0 -77.5 2.5t-100.5 2.5q-30 0 -108.5 -2.5t-83.5 -2.5q-14 0 -14 26q0 9 4 18t10 9q8 0 60 -1t70 -1v637q-53 -1 -81 -2.5t-57 -9t-41.5 -16.5t-29.5 -32.5t-27 -48.5t-27 -73q-5 -14 -21 -14q-18 0 -18 15
q0 36 3 118.5t3 84.5q0 24 13 24q1 0 24 -0.5t60 -1t79.5 -1.5t92 -1.5t88.5 -0.5q38 0 85 0.5t88.5 1.5t76.5 1.5t57 1t23 0.5q14 0 14 -17q0 -2 2.5 -79t2.5 -113q0 -13 -17 -13q-16 0 -21 11q-16 43 -25.5 65t-24.5 44.5t-28 30.5t-40 16t-55.5 9.5t-77.5 2.5
q-10 -157 -10 -449q0 -162 2 -191z" />
    <glyph glyph-name="U" unicode="U" horiz-adv-x="853" 
d="M732 682q-9 -229 -9 -446q0 -140 -64 -196t-218 -56q-172 0 -235 55.5t-63 200.5v442q-11 0 -48.5 -1.5t-42.5 -1.5q-13 0 -13 26q0 28 14 28l58 -3q58 -3 96 -3q30 0 63.5 1.5t56.5 3t25 1.5q12 0 12 -27t-11 -27q-5 0 -41 1.5t-48 1.5q-9 -111 -11 -277q-1 -134 8 -210
q6 -79 54.5 -116.5t148.5 -37.5q103 0 151 40t51 134q3 87 3 248v219q-9 0 -46 -1.5t-44 -1.5q-12 0 -12 27t14 27q1 0 38.5 -3t75.5 -3q29 0 58 1.5t46.5 3t19.5 1.5q13 0 13 -23q0 -31 -12 -31q-6 0 -43 1.5t-45 1.5z" />
    <glyph glyph-name="V" unicode="V" horiz-adv-x="751" 
d="M417 180l49.5 135l87.5 242t43 128q-5 0 -49.5 -1.5t-53.5 -1.5q-11 0 -11 28q0 24 11 24q7 0 44.5 -3.5t73.5 -3.5q38 0 78 3.5t47 3.5q14 0 14 -26t-14 -26q-13 0 -39 1.5t-35 1.5q-13 -22 -110 -277t-142 -392q-4 -16 -10 -20.5t-20 -4.5q-10 0 -14.5 4.5t-8.5 17.5
q-6 38 -114 313t-154 359q-18 0 -45 -1.5t-34 -1.5q-11 0 -11 28q0 24 11 24q7 0 72 -3.5t101 -3.5q37 0 87.5 3.5t57.5 3.5q15 0 15 -26t-15 -26q-4 0 -48 1.5t-58 1.5q2 -10 96.5 -252t97.5 -253z" />
    <glyph glyph-name="W" unicode="W" horiz-adv-x="1161" 
d="M1013 685q-24 0 -62.5 -1.5t-43.5 -1.5q-10 0 -10 28q0 24 10 24q8 0 54.5 -3.5t78.5 -3.5q35 0 70 3.5t37 3.5q15 0 15 -26t-15 -26q-5 0 -31 1.5t-40 1.5q-85 -211 -226 -669q-7 -25 -31 -25q-16 0 -24 22q-2 26 -76 234.5l-130 354.5q-105 -299 -192 -586
q-8 -25 -31 -25q-17 0 -23 22q-4 41 -104 315t-147 357q-18 0 -46 -1.5t-35 -1.5q-11 0 -11 28q0 24 11 24q7 0 65 -3.5t95 -3.5q36 0 92.5 3.5t63.5 3.5q15 0 15 -26t-15 -26q-11 0 -48 1.5t-59 1.5q2 -5 85 -228.5t98 -274.5l148 469q9 34 -22 34q-27 0 -49 -1.5t-27 -1.5
q-10 0 -10 28q0 24 10 24q7 0 73 -3.5t102 -3.5t89.5 3.5t60.5 3.5q17 0 17 -26t-17 -26q-11 0 -47 1.5t-57 1.5q8 -31 87 -241t93 -262q11 36 77.5 241.5t81.5 261.5z" />
    <glyph glyph-name="X" unicode="X" horiz-adv-x="781" 
d="M690 47q19 0 46.5 1.5t34.5 1.5q10 0 10 -27q0 -25 -10 -25q-7 0 -61.5 3t-90.5 3t-100 -3t-71 -3q-14 0 -14 26t14 26q12 0 49.5 -1.5t59.5 -1.5q-14 18 -82.5 114l-107.5 148l-94.5 -116.5l-85.5 -104t-30 -40.5q12 0 55.5 1t50.5 1q10 0 10 -27q0 -25 -10 -25
q-7 0 -45 3t-74 3q-38 0 -80 -3t-50 -3q-14 0 -14 26t14 26q15 0 35.5 -1.5t22.5 -1.5q9 6 47 51l101.5 115.5t121.5 127.5q-217 288 -251 344q-19 0 -47 -1.5t-34 -1.5q-10 0 -10 28q0 24 10 24q7 0 66 -3.5t95 -3.5t95 3.5t67 3.5q14 0 14 -26t-14 -26q-13 0 -52.5 1.5
t-57.5 1.5l190 -257l86.5 107l83.5 101t38 49q-5 0 -47 -1.5t-51 -1.5q-11 0 -11 28q0 24 11 24q6 0 39.5 -3.5t70.5 -3.5q36 0 80.5 3.5t51.5 3.5q16 0 16 -26t-16 -26q-7 0 -33 1.5t-35 1.5q-18 -25 -99.5 -116.5t-161.5 -171.5z" />
    <glyph glyph-name="Y" unicode="Y" horiz-adv-x="785" 
d="M615 684q-5 0 -46.5 -1.5t-51.5 -1.5t-10 27q0 25 10 25q8 0 46 -3.5t75 -3.5t81.5 3.5t51.5 3.5q15 0 15 -26t-15 -26q-7 0 -30.5 1.5t-31.5 1.5q-16 -20 -112 -153t-150 -199q6 -160 6 -284q4 0 53 1t57 1t8 -28q0 -25 -8 -25q-5 0 -68.5 2.5t-93.5 2.5t-106 -2.5
t-81 -2.5q-14 0 -14 26q0 9 4 18t10 9t49.5 -1t74.5 -1q0 1 -0.5 22t-1 48.5t-0.5 60t1.5 64.5t3.5 53q-246 384 -249 388q-18 0 -46 -1.5t-35 -1.5q-11 0 -11 27q0 25 11 25q6 0 68.5 -3.5t98.5 -3.5t91 3.5t61 3.5q15 0 15 -26t-15 -26t-58 1.5t-47 1.5q89 -128 198 -311
q51 70 115 172.5t77 138.5z" />
    <glyph glyph-name="Z" unicode="Z" horiz-adv-x="803" 
d="M561 687q-35 2 -142 2q-52 0 -85 -2t-61.5 -12t-43.5 -19t-34.5 -35.5t-30.5 -48.5l-34 -70q-8 -14 -25 -14q-11 0 -16 3.5t-4 13.5q17 116 17 204q0 13 5 18t21 5q1 0 207.5 -1t347.5 -1q22 0 22 -24q0 -17 -11 -31l-494 -630h48.5h73h70.5q136 0 197 40.5t101 156.5
q6 16 25 16q12 0 17.5 -4t4.5 -15q-3 -23 -9.5 -101.5t-6.5 -110.5q0 -18 -6 -23t-29 -5q-22 0 -295.5 0.5t-306.5 0.5q-31 0 -31 24q0 18 18 36q16 16 194 244.5z" />
    <glyph glyph-name="bracketleft" unicode="[" horiz-adv-x="415" 
d="M102 235q0 133 -3 249.5t-6 179.5t-3 67q0 13 3.5 18t13.5 5q7 0 123.5 1.5t131.5 1.5q13 0 13 -25q0 -23 -12 -23q-3 0 -68.5 1.5t-85.5 1.5q-7 0 -7 -11v-906q0 -11 7 -11q20 0 85.5 1.5t68.5 1.5q12 0 12 -23q0 -25 -13 -25q-15 0 -131.5 1.5t-123.5 1.5
q-10 0 -13.5 5t-3.5 18q0 4 3 60.5t6 166.5t3 243z" />
    <glyph glyph-name="backslash" unicode="\" horiz-adv-x="423" 
d="M1 733l459 -923q0 -11 -12.5 -17t-28.5 -6q-23 0 -27 11l-459 923q0 11 12.5 17t28.5 6q23 0 27 -11z" />
    <glyph glyph-name="bracketright" unicode="]" horiz-adv-x="415" 
d="M313 235q0 -133 3 -243t6 -166.5t3 -60.5q0 -13 -3.5 -18t-13.5 -5q-7 0 -123.5 -1.5t-131.5 -1.5q-13 0 -13 25q0 23 12 23q3 0 68.5 -1.5t85.5 -1.5q7 0 7 11v906q0 11 -7 11q-20 0 -85.5 -1.5t-68.5 -1.5q-12 0 -12 23q0 25 13 25q15 0 131.5 -1.5t123.5 -1.5
q10 0 13.5 -5t3.5 -18q0 -4 -3 -67t-6 -179.5t-3 -249.5z" />
    <glyph glyph-name="asciicircum" unicode="^" horiz-adv-x="522" 
d="M440 310l-188 377l-168 -371q-4 -10 -21 -10q-12 0 -21.5 6t-9.5 16l195 433q10 23 31 23q18 0 30 -23l207 -431q0 -11 -12.5 -19.5t-26.5 -8.5q-13 0 -16 8z" />
    <glyph glyph-name="underscore" unicode="_" horiz-adv-x="663" 
d="M318 -86q51 0 115 1t108 2t49 1q13 0 17.5 -6t4.5 -27q0 -34 -21 -34q-6 0 -54 0.5t-112 1t-107 0.5q-53 0 -113 -0.5t-99.5 -1t-42.5 -0.5q-11 0 -11 36q0 28 11 28l99 -1h156z" />
    <glyph glyph-name="grave" unicode="`" horiz-adv-x="379" 
d="M185 681q15 0 20 -19q4 -14 38 -66t51 -73q5 -6 -0.5 -14.5t-15.5 -8.5q-18 0 -90.5 64.5t-89.5 88.5q-20 28 7 28h80z" />
    <glyph glyph-name="a" unicode="a" horiz-adv-x="517" 
d="M79 346q0 45 45.5 76.5t123.5 31.5q172 0 172 -175q0 -22 -1.5 -88.5t-1.5 -102.5q0 -51 36 -51q12 0 25.5 1.5t17.5 1.5q9 0 9 -21t-11 -21q-6 0 -32.5 -2.5t-39.5 -2.5q-47 0 -65 17.5t-30 59.5q-17 -35 -58.5 -58.5t-93.5 -23.5q-56 0 -90 32t-34 97q0 95 114 122
q56 14 160 21q0 90 -13 122.5t-66 32.5q-43 0 -61.5 -17.5t-18.5 -52.5q0 -20 -12.5 -30.5t-31.5 -10.5q-43 0 -43 42zM325 231q-16 -3 -48.5 -8t-55.5 -10q-40 -8 -55.5 -28t-15.5 -63q0 -46 16 -64.5t46 -18.5q42 0 78.5 32t36.5 81q0 47 -2 79z" />
    <glyph glyph-name="b" unicode="b" horiz-adv-x="565" 
d="M179 71q-4 -43 -7 -59q-2 -10 -6 -13.5t-14 -2.5l-52 4q-8 0 -12 3.5t-3 10.5t3.5 48t4.5 106.5t2 120.5v385q0 8 -1.5 10.5t-8.5 2.5q-18 0 -41 -1.5t-27 -1.5q-11 0 -11 26t13 26q14 0 85.5 -1.5t78.5 -1.5q11 0 14 -4t3 -19q0 -5 -3.5 -60t-7 -133.5t-3.5 -137.5
q16 31 55 53t95 22q84 0 137 -65t53 -168q0 -102 -56 -169t-142 -67q-59 0 -96 24.5t-53 61.5zM302 409q-45 0 -80 -32.5t-35 -70.5v-158q0 -53 36 -85.5t81 -32.5q113 0 113 188q0 98 -27 144.5t-88 46.5z" />
    <glyph glyph-name="c" unicode="c" horiz-adv-x="476" 
d="M437 127q0 -49 -47 -97t-124 -48q-105 0 -165 63t-60 175q0 98 62 166t168 68q74 0 121.5 -37t47.5 -85q0 -26 -16 -39t-40 -13q-41 0 -41 51q0 80 -80 80q-58 0 -87 -42.5t-29 -152.5q0 -108 34.5 -149t94.5 -41q46 0 80.5 30t42.5 76q1 8 12 8q26 0 26 -13z" />
    <glyph glyph-name="d" unicode="d" horiz-adv-x="567" 
d="M468 38q7 0 35.5 1t35.5 1q12 0 12 -22q0 -20 -10 -20q-5 0 -51 2.5t-79 2.5q-31 0 -31 33v34q-51 -85 -149 -85q-88 0 -140 66t-52 170q0 100 54.5 166.5t145.5 66.5q48 0 78 -17.5t56 -54.5v292q0 13 -8 13q-9 0 -54 -1.5t-50 -1.5q-13 0 -13 26t14 26q15 0 104.5 -1.5
t96.5 -1.5q10 0 13 -4t3 -19q0 -3 -3.5 -72t-6.5 -180.5t-3 -215.5q0 -153 2 -204zM257 30q53 0 85 36t32 77q0 12 -0.5 70t-0.5 86q0 48 -33 79t-77 31q-59 0 -87.5 -45t-28.5 -145q0 -102 28 -145.5t82 -43.5z" />
    <glyph glyph-name="e" unicode="e" horiz-adv-x="492" 
d="M146 230q0 -105 29 -154.5t91 -49.5q56 0 91.5 26t43.5 73q1 8 11 8q28 0 28 -11q0 -48 -47 -94t-138 -46t-152.5 62.5t-61.5 173.5q0 97 59.5 166.5t154.5 69.5q92 0 142 -54t50 -142q0 -18 -35 -23t-163 -5h-103zM148 266h97q76 0 101 5q0 79 -19.5 111t-72.5 32
q-50 0 -74.5 -33.5t-31.5 -114.5z" />
    <glyph glyph-name="f" unicode="f" horiz-adv-x="375" 
d="M214 38q5 0 44 1t46 1q9 0 9 -21t-9 -21q-5 0 -57 2.5t-82 2.5q-29 0 -75 -2.5t-52 -2.5q-12 0 -12 22q0 20 12 20t45 -1t35 -1q5 80 3 358q-23 0 -52 -0.5t-34 -0.5q-8 0 -8 22q0 20 8 20q7 0 36 -1t50 -2q0 14 -0.5 46t-0.5 53q0 107 50 158t128 51q64 0 92.5 -30
t28.5 -71q0 -45 -41 -45q-23 0 -33.5 10.5t-10.5 36.5q0 27 -9.5 42t-39.5 15q-36 0 -52 -26t-17 -88q0 -22 -1 -73.5t-1 -78.5q16 0 39 1t39 1.5t22 0.5q12 0 12 -21t-12 -21q-70 0 -100 1q-2 -269 0 -358z" />
    <glyph glyph-name="g" unicode="g" horiz-adv-x="563" 
d="M139 211q-38 40 -38 95q0 64 51.5 106t125.5 42q98 0 148 -71q26 48 80 48q23 0 39 -15.5t16 -41.5q0 -18 -11.5 -28t-25.5 -10q-22 0 -25 17q-2 10 -8.5 17t-14.5 7q-18 0 -25.5 -13t-3.5 -27q8 -19 8 -44q0 -65 -52 -110t-125 -45q-44 0 -79 19.5t-41 19.5
q-36 0 -56.5 -20.5t-20.5 -47.5q0 -23 14.5 -37t43.5 -14q31 0 92.5 4t111.5 4q169 0 169 -154q0 -81 -68 -134.5t-184 -53.5q-91 0 -148.5 32t-57.5 94q0 37 23 68.5t62 49.5q-44 11 -73 45.5t-29 77.5q0 44 25.5 76t76.5 44zM181 -35q-53 -30 -53 -97q0 -51 35.5 -79.5
t101.5 -28.5q80 0 134.5 35.5t54.5 84.5q0 54 -29 72t-106 18q-75 0 -138 -5zM279 413q-46 0 -64.5 -26t-18.5 -89q0 -125 83 -125q80 0 80 118q0 64 -19.5 93t-60.5 29z" />
    <glyph glyph-name="h" unicode="h" horiz-adv-x="600" 
d="M505 38q18 0 43 1t30 1q9 0 9 -21t-9 -21q-6 0 -50 2.5t-74 2.5t-70 -2.5t-46 -2.5q-13 0 -13 22q0 20 13 20q9 0 31.5 -1t41.5 -1v275q0 46 -13.5 70t-47.5 24q-60 0 -105 -63.5t-45 -120.5q0 -42 0.5 -84.5t1 -69.5t0.5 -31q18 0 40.5 1t27.5 1q7 0 7 -21t-7 -21
t-48 2.5t-70 2.5q-30 0 -74 -2.5t-50 -2.5q-12 0 -12 22q0 20 12 20q9 0 35 -1t44 -1v638q0 11 -7 11q-20 0 -43.5 -1.5t-26.5 -1.5q-12 0 -12 26t13 26q15 0 87 -1.5t79 -1.5q10 0 13.5 -5t3.5 -18q0 -10 -3.5 -83l-8 -167t-6.5 -140q59 134 188 134q60 0 91.5 -37.5
t31.5 -101.5q0 -54 -1 -144t-1 -133z" />
    <glyph glyph-name="i" unicode="i" horiz-adv-x="310" 
d="M213 159q0 -93 2 -121q18 0 40 1t26 1q9 0 9 -21t-9 -21q-5 0 -46.5 2.5t-71.5 2.5t-74 -2.5t-50 -2.5q-12 0 -12 22q0 20 12 20q9 0 35 -1t46 -1v356q-8 0 -41.5 -1t-39.5 -1q-12 0 -12 23q0 20 13 20q8 0 65 -0.5t99 -0.5q11 0 14 -3t3 -14q0 -14 -4 -101.5t-4 -156.5z
M162 683q26 0 44 -18t18 -44t-18 -45t-44 -19t-44.5 19t-18.5 45q0 25 18.5 43.5t44.5 18.5z" />
    <glyph glyph-name="j" unicode="j" horiz-adv-x="302" 
d="M204 -4q0 -76 -11.5 -114.5t-51.5 -79.5q-33 -32 -78 -58t-60 -26t-15 22q0 15 6 17q42 22 63.5 40.5t37.5 57.5t16 99v440q-9 0 -41.5 -1t-38.5 -1q-12 0 -12 23q0 20 13 20q8 0 65 -0.5t99 -0.5q11 0 14 -3t3 -14q0 -14 -4.5 -183t-4.5 -238zM162 683q26 0 44 -18
t18 -44t-18 -45t-44 -19t-44.5 19t-18.5 45q0 25 18.5 43.5t44.5 18.5z" />
    <glyph glyph-name="k" unicode="k" horiz-adv-x="577" 
d="M200 215q0 -141 3 -177q18 0 33.5 1t20.5 1q9 0 9 -21t-9 -21q-6 0 -41 2.5t-64 2.5q-30 0 -74 -2.5t-50 -2.5q-12 0 -12 22q0 20 12 20q9 0 35 -1t44 -1v638q0 11 -7 11q-20 0 -43.5 -1.5t-26.5 -1.5q-12 0 -12 26t13 26q15 0 86 -1.5t78 -1.5q10 0 13.5 -5t3.5 -18
q0 -3 -3 -55.5t-6 -159.5t-3 -243h54q59 59 126 144q-7 0 -40 -1t-38 -1q-11 0 -11 22q0 19 12 19q1 0 39.5 -0.5t65.5 -0.5h50t45.5 0.5t20.5 0.5q11 0 11 -19q0 -24 -11 -24q-4 0 -36 1t-40 1l-124 -124q20 -27 96 -119.5t95 -112.5q4 0 28.5 1t32.5 1q9 0 9 -21t-9 -21
q-5 0 -47 2.5t-72 2.5t-74 -2.5t-50 -2.5q-11 0 -11 22q0 20 11 20q5 0 29 -0.5t29 -0.5q-9 16 -64 88.5t-70 87.5h-57z" />
    <glyph glyph-name="l" unicode="l" horiz-adv-x="304" 
d="M203 38q18 0 43 1t30 1q9 0 9 -21t-9 -21q-6 0 -50 2.5t-74 2.5t-74 -2.5t-50 -2.5q-12 0 -12 22q0 20 12 20q9 0 35 -1t44 -1v638q0 11 -7 11q-20 0 -43.5 -1.5t-26.5 -1.5q-12 0 -12 26t13 26q15 0 87 -1.5t79 -1.5q10 0 13.5 -5t3.5 -18q0 -4 -3.5 -60.5t-7 -166.5
t-3.5 -243q0 -157 3 -202z" />
    <glyph glyph-name="m" unicode="m" horiz-adv-x="901" 
d="M507 323q56 131 177 131q60 0 92.5 -39t32.5 -103q0 -54 -1.5 -142.5t-1.5 -131.5q17 0 42.5 1t31.5 1q8 0 8 -21t-8 -21q-7 0 -51 2.5t-74 2.5t-67.5 -2.5t-42.5 -2.5q-13 0 -13 22q0 20 13 20q8 0 28 -1t39 -1v275q0 94 -62 94q-56 0 -98.5 -61t-42.5 -111v-197
q18 0 38.5 1t25.5 1q8 0 8 -21t-8 -21q-5 0 -45 2.5t-70 2.5t-68 -2.5t-43 -2.5q-13 0 -13 22q0 20 13 20q9 0 29 -1t39 -1v275q0 94 -62 94q-56 0 -98 -61.5t-42 -122.5q0 -157 2 -185q18 0 36.5 1t23.5 1q8 0 8 -21t-8 -21q-5 0 -43.5 2.5t-68.5 2.5t-74 -2.5t-50 -2.5
q-12 0 -12 22q0 20 12 20q9 0 35 -1t46 -1v356q-8 0 -41.5 -1t-39.5 -1q-12 0 -12 23q0 20 13 20q8 0 59 -0.5t93 -0.5q11 0 14 -3t3 -14v-100q55 137 178 137q57 0 86 -36.5t34 -94.5z" />
    <glyph glyph-name="n" unicode="n" horiz-adv-x="612" 
d="M120 38v356q-8 0 -41.5 -1t-39.5 -1q-12 0 -12 23q0 20 13 20q8 0 59 -0.5t93 -0.5q11 0 14 -3t3 -14v-100q29 72 80 104.5t106 32.5q61 0 92.5 -37.5t31.5 -101.5q0 -54 -1 -144t-1 -133q19 0 44 1t30 1q9 0 9 -21t-9 -21q-6 0 -51 2.5t-74 2.5q-30 0 -70.5 -2.5
t-45.5 -2.5q-12 0 -12 22q0 20 12 20q8 0 31 -1t42 -1v275q0 46 -13.5 70t-47.5 24q-61 0 -105 -63t-44 -121q0 -157 2 -185q18 0 40 1t26 1q9 0 9 -21t-9 -21q-5 0 -46.5 2.5t-71.5 2.5t-74 -2.5t-50 -2.5q-12 0 -12 22q0 20 12 20q9 0 35 -1t46 -1z" />
    <glyph glyph-name="o" unicode="o" horiz-adv-x="540" 
d="M270 454q105 0 167 -66.5t62 -169.5q0 -99 -67 -167.5t-162 -68.5q-99 0 -164 64t-65 172q0 97 67 166.5t162 69.5zM270 414q-58 0 -90 -43t-32 -154t32 -154.5t90 -43.5q59 0 90.5 43t31.5 155q0 111 -31.5 154t-90.5 43z" />
    <glyph glyph-name="p" unicode="p" horiz-adv-x="582" 
d="M200 -223q18 0 57 1t44 1q8 0 8 -21t-8 -21q-6 0 -64.5 2t-88.5 2q-29 0 -73 -2t-50 -2q-12 0 -12 22q0 20 12 20q9 0 34.5 -1t43.5 -1q6 130 6 302q0 74 -0.5 149.5t-1 120.5t-0.5 46q-10 0 -43 -1.5t-38 -1.5q-12 0 -12 22q0 23 13 23q15 0 81.5 -1.5t73.5 -1.5
q11 0 14 -4t3 -19v-45q47 88 149 88q88 0 140 -66t52 -165q0 -102 -55 -170t-141 -68q-94 0 -144 77v-285zM320 409q-53 0 -86.5 -38.5t-33.5 -80.5q0 -11 1 -62.5t1 -79.5q0 -53 39 -85.5t85 -32.5q50 0 77.5 51t27.5 140q0 98 -27 143t-84 45z" />
    <glyph glyph-name="q" unicode="q" horiz-adv-x="562" 
d="M480 424q-10 -105 -10 -327q0 -104 4 -320q18 0 44 1t35 1q12 0 12 -20q0 -22 -12 -22q-6 0 -49 2t-73 2t-88 -2t-65 -2t-7 21t7 21q6 0 45 -1t56 -1v284q-14 -32 -51.5 -54t-94.5 -22q-82 0 -136 66.5t-54 163.5q0 105 55 172t141 67q100 0 147 -79q2 22 7 51
q2 10 6 13.5t14 2.5l52 -4q8 0 12 -3.5t3 -10.5zM261 32q54 0 85.5 29.5t31.5 68.5q0 11 1.5 76t1.5 93q0 48 -36.5 79.5t-81.5 31.5q-111 0 -111 -185q0 -105 28 -149t81 -44z" />
    <glyph glyph-name="r" unicode="r" horiz-adv-x="452" 
d="M338 400q-36 -3 -80.5 -66.5t-44.5 -138.5q0 -129 2 -157q18 0 57 1t45 1t6 -21t-6 -21q-7 0 -65.5 2.5t-88.5 2.5t-74 -2.5t-50 -2.5q-12 0 -12 22q0 20 12 20q9 0 35 -1t46 -1v356q-8 0 -41.5 -1t-39.5 -1q-12 0 -12 23q0 20 13 20q8 0 59 -0.5t93 -0.5q11 0 14 -3
t3 -14v-110q18 56 61 98t92 42q75 0 75 -66q0 -65 -54 -65q-22 0 -36 13t-14 39q0 12 5 32z" />
    <glyph glyph-name="s" unicode="s" horiz-adv-x="416" 
d="M212 454q53 0 90.5 -14.5t37.5 -34.5q0 -15 0.5 -42.5t0.5 -35.5q0 -13 -18 -13q-10 0 -13 7q-21 53 -43 74.5t-64 21.5q-33 0 -53 -17.5t-20 -44.5q0 -26 22 -44t82 -36q73 -21 105.5 -57t32.5 -91q0 -64 -46 -104.5t-122 -40.5q-65 0 -107.5 18.5t-42.5 39.5
q0 17 -0.5 58t-0.5 53t20 12q11 0 13 -9q22 -76 51 -105t72 -29q44 0 69 21.5t25 52.5q0 32 -21 54t-79 38q-75 23 -107.5 53.5t-32.5 81.5t40 92t109 41z" />
    <glyph glyph-name="t" unicode="t" horiz-adv-x="371" 
d="M200 434q117 3 137 3q12 0 12 -21t-12 -21q-6 0 -63.5 1t-73.5 1q0 -58 -1 -158t-1 -130q0 -49 11.5 -66.5t42.5 -17.5q68 0 68 95q0 8 14 8q21 0 21 -19q0 -44 -30.5 -85.5t-91.5 -41.5q-75 0 -101.5 25t-26.5 88q0 24 1 116.5t1 132.5v52q-20 0 -56 -0.5t-40 -0.5
q-9 0 -9 22q0 20 9 20q7 0 41.5 -1.5t54.5 -1.5q0 14 -0.5 56t-0.5 61q0 17 18 17q4 0 14.5 -1t19.5 -1q6 0 15 1t15 1q16 0 16 -18q0 -11 -2 -52.5t-2 -63.5z" />
    <glyph glyph-name="u" unicode="u" horiz-adv-x="583" 
d="M486 38q10 0 36 1t32 1q12 0 12 -20q0 -24 -13 -24q-9 0 -51 2t-77 2q-15 0 -20.5 4.5t-5.5 18.5v93q-30 -71 -79.5 -102t-102.5 -31q-121 0 -121 140v271q-13 0 -39 -1t-32 -1q-8 0 -8 22q0 21 8 21q2 0 51.5 -0.5t96.5 -0.5q17 0 17 -14q0 -9 -2 -142t-2 -160
q0 -88 64 -88q57 0 101 60t44 129v176h-69q-8 0 -8 19q0 21 8 21q2 0 52 -0.5t98 -0.5q16 0 16 -15q0 -7 -1.5 -69t-3 -150.5t-1.5 -161.5z" />
    <glyph glyph-name="v" unicode="v" horiz-adv-x="478" 
d="M360 394q-8 0 -33 -1t-29 -1q-8 0 -8 23q0 20 8 20q5 0 32.5 -0.5t49.5 -0.5q21 0 49.5 0.5t33.5 0.5q12 0 12 -22q0 -21 -12 -21q-2 0 -19.5 1t-30.5 1q-26 -52 -86 -202t-68 -189q-3 -15 -33 -15q-20 0 -24 14q-13 45 -68 190.5t-81 201.5q-6 0 -21 -1t-23 -1
q-9 0 -9 21q0 22 9 22q6 0 34 -0.5t62 -0.5h77l34 1q13 0 13 -23q0 -20 -13 -20q-3 0 -25.5 1t-36.5 1q46 -106 104 -282q41 124 102 282z" />
    <glyph glyph-name="w" unicode="w" horiz-adv-x="767" 
d="M379 329q-32 -74 -71 -182t-49 -144q-3 -15 -33 -15q-20 0 -24 14q-13 45 -68 190.5t-81 201.5q-6 0 -21 -1t-23 -1q-9 0 -9 21q0 22 9 22q4 0 15 -0.5t35 -0.5h61q33 0 60.5 0.5t29.5 0.5q13 0 13 -23q0 -20 -13 -20q-3 0 -22.5 1t-33.5 1q46 -106 104 -282
q11 34 105 282q-11 0 -33 -1t-30 -1t-8 21q0 22 8 22l29 -1h76q36 0 66 0.5t31 0.5q13 0 13 -23q0 -20 -13 -20q-2 0 -21 1t-37 1q31 -63 105 -279q45 138 100 279q-7 0 -31 -1t-29 -1q-9 0 -9 23q0 20 9 20q4 0 31.5 -0.5t49.5 -0.5q21 0 49.5 0.5t33.5 0.5q11 0 11 -22
q0 -21 -11 -21q-3 0 -20.5 1t-29.5 1q-25 -48 -85 -199t-69 -192q-3 -15 -33 -15q-20 0 -24 14q-55 183 -113 327z" />
    <glyph glyph-name="x" unicode="x" horiz-adv-x="567" 
d="M373 40q-63 68 -108 136l-62.5 -70t-58.5 -66q8 0 33 0.5t28 0.5q8 0 8 -21t-8 -21q-5 0 -36 1.5t-53 1.5q-21 0 -46 -1.5t-30 -1.5q-12 0 -12 22q0 20 12 20q2 0 19.5 -0.5t26.5 -0.5q138 141 160 160q-34 40 -147 194q-19 0 -40.5 -0.5t-23.5 -0.5q-8 0 -8 22
q0 20 8 20l37 -1h81q40 0 70.5 0.5t31.5 0.5q11 0 11 -21t-11 -21q-4 0 -23 0.5t-29 0.5q63 -76 99 -134l113 134q-9 0 -32.5 -0.5t-26.5 -0.5q-8 0 -8 22q0 20 8 20q5 0 38.5 -0.5t55.5 -0.5q21 0 44.5 1t28.5 1q12 0 12 -21t-12 -21q-2 0 -19 0.5t-30 0.5
q-69 -80 -152 -159q77 -87 157 -197q20 0 38 0.5t19 0.5q8 0 8 -21t-8 -21q-1 0 -34.5 2t-75.5 2q-40 0 -72.5 -1.5t-33.5 -1.5q-12 0 -12 22q0 20 12 20q4 0 24.5 -0.5t28.5 -0.5z" />
    <glyph glyph-name="y" unicode="y" horiz-adv-x="467" 
d="M255 3q-65 -155 -105.5 -214.5t-96.5 -59.5q-23 0 -37.5 13.5t-14.5 38.5q0 23 13 37t35 14q19 0 31 -13t12 -33q21 1 62 83t52 123q-13 44 -69.5 194t-83.5 208q-6 0 -21 -1t-23 -1q-9 0 -9 21q0 22 9 22l28 -1h69h76l34 1q13 0 13 -23q0 -20 -13 -20q-3 0 -25.5 1
t-36.5 1q46 -106 104 -282q41 124 102 282q-8 0 -33 -1t-29 -1q-8 0 -8 23q0 20 8 20q5 0 32.5 -0.5t49.5 -0.5q21 0 49.5 0.5t33.5 0.5q12 0 12 -22q0 -21 -12 -21q-2 0 -19.5 1t-30.5 1q-14 -27 -45.5 -105.5l-67.5 -170.5z" />
    <glyph glyph-name="z" unicode="z" horiz-adv-x="466" 
d="M313 399q-17 1 -100 1q-36 0 -69.5 -30.5t-59.5 -84.5q-4 -14 -15 -14q-8 0 -14.5 3.5t-5.5 8.5q20 75 20 132q0 20 19 20q15 0 155.5 -1.5t164.5 -1.5q14 0 14 -17q0 -9 -7 -20l-272 -356q2 0 11.5 -0.5t34 -0.5h62.5q67 0 100.5 32.5t58.5 105.5q3 12 15 12
q8 0 13.5 -3.5t4.5 -10.5q-16 -106 -16 -157q0 -18 -14 -18q-21 0 -179.5 1.5t-178.5 1.5q-21 0 -21 19q0 10 10 22q9 9 62 80.5l116.5 156.5z" />
    <glyph glyph-name="braceleft" unicode="{" horiz-adv-x="397" 
d="M-4 241q0 30 20 30q59 0 90.5 39.5t31.5 108.5q0 40 -2.5 95t-2.5 85q0 67 47.5 109.5t116.5 42.5q16 0 41.5 0.5t41.5 0.5q9 0 12.5 -4t3.5 -15q0 -24 -13 -24q-5 0 -24.5 0.5t-38.5 0.5q-39 0 -64.5 -32.5t-25.5 -89.5q0 -21 1.5 -85t1.5 -96q0 -78 -41.5 -118.5
t-141.5 -46.5q100 -6 141.5 -46.5t41.5 -118.5q0 -32 -1.5 -96t-1.5 -85q0 -57 25.5 -89.5t64.5 -32.5q19 0 38.5 0.5t24.5 0.5q13 0 13 -24q0 -11 -3.5 -15t-12.5 -4q-16 0 -41.5 0.5t-41.5 0.5q-69 0 -116.5 42.5t-47.5 109.5q0 30 2.5 85t2.5 95q0 69 -31.5 108.5
t-90.5 39.5q-9 0 -14.5 8.5t-5.5 19.5z" />
    <glyph glyph-name="bar" unicode="|" horiz-adv-x="268" 
d="M100 727q0 18 36 18q32 0 32 -18v-929q0 -15 -33 -15q-35 0 -35 14v930z" />
    <glyph glyph-name="braceright" unicode="}" horiz-adv-x="397" 
d="M400 243q0 -30 -20 -30q-59 0 -90.5 -39.5t-31.5 -108.5q0 -40 2.5 -95t2.5 -85q0 -67 -47.5 -109.5t-116.5 -42.5q-16 0 -41.5 -0.5t-41.5 -0.5q-9 0 -12.5 4t-3.5 15q0 24 13 24q5 0 24.5 -0.5t38.5 -0.5q39 0 64.5 32.5t25.5 89.5q0 21 -1.5 85t-1.5 96
q0 78 41.5 118.5t141.5 46.5q-100 6 -141.5 46.5t-41.5 118.5q0 32 1.5 96t1.5 85q0 57 -25.5 89.5t-64.5 32.5q-19 0 -38.5 -0.5t-24.5 -0.5q-13 0 -13 24q0 11 3.5 15t12.5 4q16 0 41.5 -0.5t41.5 -0.5q69 0 116.5 -42.5t47.5 -109.5q0 -30 -2.5 -85t-2.5 -95
q0 -69 31.5 -108.5t90.5 -39.5q9 0 14.5 -8.5t5.5 -19.5z" />
    <glyph glyph-name="asciitilde" unicode="~" horiz-adv-x="615" 
d="M565 456q-48 -109 -148 -109q-27 0 -54 11.5t-42.5 23t-41.5 33.5q-62 54 -100 54q-34 0 -54.5 -16.5t-36.5 -49.5q-6 -6 -14 -6q-10 0 -17 12.5t-7 23.5q52 101 155 101q28 0 56 -12t43.5 -23.5t40.5 -33.5q54 -48 86 -48q39 0 59.5 16.5t39.5 51.5q1 7 13 7
q22 0 22 -36z" />
    <glyph glyph-name="nbspace" unicode="&#xa0;" horiz-adv-x="287" 
 />
    <glyph glyph-name="exclamdown" unicode="&#xa1;" horiz-adv-x="312" 
d="M176 221q0 -32 14 -245.5t14 -243.5q0 -18 -12 -26t-46 -8t-45 7t-11 26q0 34 22.5 253.5t22.5 233.5t21 14q20 0 20 -11zM157 322q-28 0 -47 19.5t-19 46.5t19 46.5t47 19.5q27 0 46 -19.5t19 -46.5t-19 -46.5t-46 -19.5z" />
    <glyph glyph-name="cent" unicode="&#xa2;" horiz-adv-x="476" 
d="M280 572v-384q44 2 78 31.5t41 74.5q1 8 12 8q26 0 26 -13q0 -46 -43 -92.5t-114 -51.5v-136q0 -12 -22 -12t-22 11v137q-92 9 -143.5 71t-51.5 166q0 89 52 154.5t143 77.5v120q0 14 23 14q21 0 21 -14v-118q71 -3 115.5 -39.5t44.5 -82.5q0 -26 -16 -39t-40 -13
q-41 0 -41 51q0 72 -63 79zM236 193v378q-44 -9 -66.5 -53t-22.5 -140q0 -162 89 -185z" />
    <glyph glyph-name="sterling" unicode="&#xa3;" horiz-adv-x="729" 
d="M187 232l-100 -64q-5 -3 -7 -3q-6 0 -16.5 14.5t-10.5 22.5q0 6 7 9q6 4 22 13.5l43.5 26l53.5 33.5q-2 15 -12 67t-14.5 88.5t-4.5 76.5q0 85 59.5 145t170.5 60q42 0 78 -5.5t58.5 -13.5t39 -17t23 -16.5t6.5 -11.5q0 -32 3 -79t3 -63q0 -14 -22 -14q-17 0 -22 13
q-42 93 -76 128t-102 35q-122 0 -122 -129q0 -45 27 -207l125 80q12 7 16 7q6 0 15.5 -11.5t9.5 -20.5q0 -10 -13 -19q-7 -5 -24.5 -15.5l-52 -31l-68.5 -41.5q10 -73 10 -168q0 -22 -2 -72q26 0 73 3t55 3q84 4 111.5 36t55.5 149q3 13 19 13q22 0 22 -10q0 -22 -1 -75
t-1.5 -97.5t-0.5 -47.5q0 -26 -42 -26q-16 0 -163 3t-177 3q-41 0 -95.5 -2.5t-58.5 -2.5q-12 0 -12 26q0 27 12 27q9 0 42 -1t51 -1q12 59 12 120q0 33 -3 63z" />
    <glyph glyph-name="currency" unicode="&#xa4;" horiz-adv-x="609" 
d="M479 223l78 -78l-52 -52l-78 78q-54 -40 -122 -40q-63 0 -122 37l-78 -76l-53 53l77 77q-39 55 -39 122t39 125l-77 77l53 51l77 -77q53 38 123 38t122 -38l77 77l53 -53l-77 -77q39 -53 39 -123q0 -67 -40 -121zM305 489q-60 0 -101 -42.5t-41 -102.5t41 -101.5
t101 -41.5q59 0 100 42t41 101q0 60 -41 102.5t-100 42.5z" />
    <glyph glyph-name="yen" unicode="&#xa5;" horiz-adv-x="688" 
d="M394 168q1 -37 1 -120q3 0 45 1t49 1t7 -28q0 -25 -7 -25q-5 0 -59 2.5t-79 2.5q-26 0 -92 -2.5t-70 -2.5q-12 0 -12 26q0 27 12 27q5 0 42.5 -1t63.5 -1q0 1 -0.5 18.5t-0.5 46v55.5h-158q-13 0 -13 25q0 26 13 26h158q2 55 4 77q-1 3 -4.5 9.5t-5.5 9.5h-152
q-13 0 -13 25q0 26 13 26h124l-175 318q-16 0 -40 -1.5t-30 -1.5q-9 0 -9 27q0 25 9 25q6 0 63.5 -3.5t88.5 -3.5t77.5 3.5t52.5 3.5q13 0 13 -26t-13 -26t-50 1.5t-40 1.5q16 -33 76 -144.5l87 -163.5q45 72 99 172t65 136q-4 0 -40 -1.5t-44 -1.5q-3 0 -6 8.5t-3 18.5
q0 9 3 17t6 8q6 0 39 -3.5t64 -3.5q32 0 70 3.5t44 3.5q13 0 13 -26t-13 -26q-6 0 -26 1.5t-27 1.5q-17 -25 -88 -141t-112 -177h133q13 0 13 -25q0 -26 -13 -26h-157q1 -42 3 -96h154q13 0 13 -25q0 -26 -13 -26h-153z" />
    <glyph glyph-name="brokenbar" unicode="&#xa6;" horiz-adv-x="268" 
d="M100 141h68v-343q0 -15 -33 -15q-35 0 -35 14v344zM168 439h-68v288q0 18 36 18q32 0 32 -18v-288z" />
    <glyph glyph-name="section" unicode="&#xa7;" horiz-adv-x="648" 
d="M365 -236q9 25 9 48q0 76 -87 191l-191 255q-54 72 -54 180q0 130 90 219.5t241 89.5q89 0 139.5 -37.5t50.5 -85.5q0 -25 -17 -40.5t-41 -15.5q-25 0 -40.5 15t-15.5 40q0 31 23 53q-38 35 -106 35q-46 0 -80 -10q-10 -20 -10 -48q0 -77 87 -191l194 -255
q51 -66 51 -180q0 -131 -87 -220t-238 -89q-90 0 -143 38t-53 85q0 25 17 40.5t41 15.5q25 0 40.5 -15t15.5 -40q0 -31 -23 -53q38 -35 106 -35q41 0 81 10zM396 -226q68 27 101 82t33 117q0 89 -56 163l-196 264q-64 86 -64 181q0 63 38 110q-66 -27 -99 -82.5t-33 -116.5
q0 -88 56 -163l196 -264q61 -82 61 -181q0 -62 -37 -110z" />
    <glyph glyph-name="dieresis" unicode="&#xa8;" horiz-adv-x="478" 
d="M142 664q22 0 37 -16t15 -39t-15 -39t-37 -16t-37 16t-15 39t15 39t37 16zM336 664q22 0 37 -16t15 -39t-15 -39t-37 -16t-37 16t-15 39t15 39t37 16z" />
    <glyph glyph-name="copyright" unicode="&#xa9;" horiz-adv-x="872" 
d="M436 748q170 0 277 -108.5t107 -275.5q0 -170 -108 -277t-276 -107q-167 0 -275.5 108.5t-108.5 275.5q0 166 110 275t274 109zM436 707q-144 0 -239.5 -98t-95.5 -246q0 -149 94 -246.5t241 -97.5q146 0 241 97.5t95 246.5t-93.5 246.5t-242.5 97.5zM617 274
q0 -49 -47 -97t-124 -48q-105 0 -165 64.5t-60 176.5q0 99 62 168t168 69q74 0 121.5 -37t47.5 -85q0 -26 -16 -39t-40 -13q-41 0 -41 51q0 79 -80 79q-57 0 -86.5 -43.5t-29.5 -153.5q0 -108 34.5 -150.5t94.5 -42.5q46 0 80.5 30t42.5 76q1 8 12 8q26 0 26 -13z" />
    <glyph glyph-name="ordfeminine" unicode="&#xaa;" horiz-adv-x="476" 
d="M90 661q0 38 38.5 62t95.5 24q66 0 102.5 -37.5t36.5 -102.5q0 -17 -1 -70.5t-1 -82.5q0 -40 28 -40q9 0 20 1t15 1q7 0 7 -17t-9 -17q-5 0 -26 -2t-31 -2q-38 0 -52.5 14t-23.5 48q-14 -28 -47 -47t-75 -19q-44 0 -71.5 25.5t-27.5 78.5q0 76 91 97q49 12 127 17
q0 71 -11.5 97.5t-53.5 26.5q-34 0 -47.5 -13.5t-13.5 -42.5q0 -32 -35 -32t-35 33zM287 569q-12 -3 -38 -7t-45 -8q-32 -6 -44.5 -22t-12.5 -50q0 -37 12.5 -52t37.5 -15q33 0 62.5 26t29.5 65q0 43 -2 63zM227 44q37 0 78.5 1t69.5 1.5t31 0.5q9 0 12.5 -4.5t3.5 -19.5
q0 -24 -15 -24q-4 0 -34.5 0.5t-72.5 1t-73 0.5q-38 0 -78.5 -0.5t-67 -1t-28.5 -0.5q-8 0 -8 26q0 20 8 20q4 0 34 -0.5t70.5 -0.5h69.5z" />
    <glyph glyph-name="guillemotleft" unicode="&#xab;" horiz-adv-x="618" 
d="M325 89q4 -4 4 -20q0 -39 -16 -39q-2 0 -8 4l-237 203q-23 21 -23 34q0 16 23 35l239 191q3 3 6 3q13 0 13 -30q0 -18 -7 -25l-157 -168zM553 89q4 -4 4 -20q0 -39 -16 -39q-2 0 -8 4l-237 203q-23 21 -23 34q0 16 23 35l239 191q3 3 6 3q13 0 13 -30q0 -18 -7 -25
l-157 -168z" />
    <glyph glyph-name="logicalnot" unicode="&#xac;" horiz-adv-x="590" 
d="M418 317h-372q-15 0 -15 30q0 31 15 31h468q15 0 15 -30q0 -62 6 -195.5t6 -139.5q0 -13 -15 -13h-106q-12 0 -12 14q0 8 4.5 130.5t5.5 172.5z" />
    <glyph glyph-name="registered" unicode="&#xae;" horiz-adv-x="572" 
d="M286 748q103 0 168 -66t65 -167q0 -103 -65.5 -167.5t-167.5 -64.5q-101 0 -167 65.5t-66 166.5t66.5 167t166.5 66zM286 712q-87 0 -137 -53.5t-50 -143.5q0 -91 49 -143t138 -52q88 0 137 52t49 143t-48 144t-138 53zM250 417q8 0 22.5 0.5t15.5 0.5q5 0 5 -14
q0 -18 -5 -18q-9 0 -31.5 1t-34.5 1q-13 0 -35 -1t-24 -1q-4 0 -4 18q0 14 4 14t17 -0.5t17 -0.5v214q-4 0 -17.5 -0.5t-15.5 -0.5q-5 0 -5 13q0 17 5 17q1 0 12 -0.5t26 -1t25 -0.5q12 0 35.5 1t36.5 1q43 0 65 -18.5t22 -46.5q0 -25 -19.5 -41t-47.5 -18q31 -6 45 -13
t23 -23q2 -4 10 -66q3 -21 14 -21q3 0 7.5 0.5t7.5 0.5q6 0 6 -13q0 -16 -6 -16q-8 0 -24.5 1t-22.5 1q-19 0 -27 8.5t-12 33.5q-2 12 -3.5 30t-2.5 24q-2 16 -8.5 23.5t-23.5 11.5q-27 6 -52 6q-1 -18 -1 -49q0 -53 1 -58zM253 632q-3 -23 -3 -90h21q19 0 35 4q25 6 25 45
q0 17 -5 25t-20 12t-53 4z" />
    <glyph glyph-name="macron" unicode="&#xaf;" horiz-adv-x="436" 
d="M198 617q20 0 67.5 2.5t54.5 2.5q16 0 21 -6.5t5 -30.5q0 -38 -24 -38q-8 0 -55.5 1t-68.5 1q-20 0 -54 -1t-40 -1q-14 0 -14 40q0 31 14 31q9 0 39.5 -0.5t54.5 -0.5z" />
    <glyph glyph-name="macron" unicode="&#x2c9;" horiz-adv-x="436" 
d="M198 617q20 0 67.5 2.5t54.5 2.5q16 0 21 -6.5t5 -30.5q0 -38 -24 -38q-8 0 -55.5 1t-68.5 1q-20 0 -54 -1t-40 -1q-14 0 -14 40q0 31 14 31q9 0 39.5 -0.5t54.5 -0.5z" />
    <glyph glyph-name="degree" unicode="&#xb0;" horiz-adv-x="474" 
d="M237 747q83 0 136 -58t53 -145q0 -83 -57 -143t-132 -60q-78 0 -133.5 56t-55.5 147q0 83 57 143t132 60zM237 703q-54 0 -75 -36t-21 -124q0 -90 22 -123t74 -33q56 0 76 35.5t20 120.5q0 91 -22 125.5t-74 34.5z" />
    <glyph glyph-name="plusminus" unicode="&#xb1;" horiz-adv-x="572" 
d="M527 364h-208v-209q0 -17 -32 -17q-33 0 -33 17v209h-208q-15 0 -15 30q0 31 15 31h208v207q0 16 32 16q33 0 33 -16v-207h208q15 0 15 -30q0 -31 -15 -31zM527 0h-481q-15 0 -15 30q0 31 15 31h481q15 0 15 -30q0 -31 -15 -31z" />
    <glyph glyph-name="twosuperior" unicode="&#xb2;" horiz-adv-x="375" 
d="M121 491q17 0 56 1t68.5 2t35.5 1q17 0 34 45q1 4 10 4q8 0 14.5 -5t6.5 -9q0 -3 -3 -9l-41 -80q-6 -13 -18 -13t-121 1.5t-126 1.5q-12 0 -12 18q0 9 5 13q144 101 188 169q21 33 28 56.5t7 56.5q0 49 -18.5 70.5t-64.5 21.5q-43 0 -65.5 -21t-22.5 -55q0 -28 18 -46
q0 -6 -9 -13.5t-15 -7.5q-4 0 -5 2q-27 21 -27 67q0 43 38.5 79.5t106.5 36.5q72 0 109 -32.5t37 -90.5q0 -60 -77 -141q-88 -92 -137 -123z" />
    <glyph glyph-name="threesuperior" unicode="&#xb3;" horiz-adv-x="395" 
d="M42 768q22 31 46 86q3 8 6.5 10t13.5 2q52 0 127 1t85 1q16 0 16 -16q0 -12 -53.5 -63t-100.5 -91q63 0 110 -34t47 -101q0 -68 -50.5 -106t-127.5 -38q-58 0 -92 32t-34 80q0 4 8.5 7.5t17.5 3.5q12 0 12 -6q0 -35 21.5 -56.5t61.5 -21.5q49 0 72 22t23 75
q0 59 -17.5 82.5t-58.5 23.5q-49 0 -76 -42q-3 -6 -12 -6q-8 0 -15 9.5t-7 16.5q0 6 4 9q33 21 107 87.5t78 69.5q-144 -3 -151 -3q-9 -19 -28 -52q-3 -7 -12 -7q-7 0 -15 6.5t-8 11.5q0 4 2 7z" />
    <glyph glyph-name="acute" unicode="&#xb4;" horiz-adv-x="374" 
d="M201 681h80q27 0 7 -28q-17 -24 -89.5 -88.5t-90.5 -64.5q-10 0 -15.5 8.5t-0.5 14.5q17 21 51 73t38 66q5 19 20 19z" />
    <glyph glyph-name="mu" unicode="&#xb5;" horiz-adv-x="589" 
d="M145 17q1 -57 10.5 -156.5t9.5 -110.5q0 -13 -15 -13h-59q-12 0 -12 14q0 5 13.5 157.5t13.5 210.5v275q-13 0 -39 -1t-32 -1q-8 0 -8 22q0 21 8 21q2 0 51.5 -0.5t96.5 -0.5q17 0 17 -14q0 -9 -2 -140.5t-2 -158.5q0 -88 64 -88t104.5 61.5t40.5 124.5v176h-69
q-8 0 -8 19q0 21 8 21q2 0 52 -0.5t98 -0.5q16 0 16 -15q0 -7 -1.5 -69t-3 -150.5t-1.5 -161.5q10 0 36 1t32 1q12 0 12 -20q0 -24 -13 -24q-8 0 -53.5 2t-86.5 2q-11 0 -14 3.5t-3 14.5v88q-56 -123 -172 -123q-60 0 -89 34z" />
    <glyph glyph-name="mu" unicode="&#x3bc;" horiz-adv-x="589" 
d="M145 17q1 -57 10.5 -156.5t9.5 -110.5q0 -13 -15 -13h-59q-12 0 -12 14q0 5 13.5 157.5t13.5 210.5v275q-13 0 -39 -1t-32 -1q-8 0 -8 22q0 21 8 21q2 0 51.5 -0.5t96.5 -0.5q17 0 17 -14q0 -9 -2 -140.5t-2 -158.5q0 -88 64 -88t104.5 61.5t40.5 124.5v176h-69
q-8 0 -8 19q0 21 8 21q2 0 52 -0.5t98 -0.5q16 0 16 -15q0 -7 -1.5 -69t-3 -150.5t-1.5 -161.5q10 0 36 1t32 1q12 0 12 -20q0 -24 -13 -24q-8 0 -53.5 2t-86.5 2q-11 0 -14 3.5t-3 14.5v88q-56 -123 -172 -123q-60 0 -89 34z" />
    <glyph glyph-name="paragraph" unicode="&#xb6;" horiz-adv-x="666" 
d="M513 0q0 -75 -12.5 -116t-53.5 -82q-33 -32 -78 -58t-60 -26t-15 22q0 15 6 17q41 22 63 40.5t39 57.5t21 99q5 84 5 348q-40 -5 -93 -5q-287 0 -287 214q0 43 13.5 81t41 70t76.5 50.5t113 18.5q35 0 94.5 -2t92.5 -2q38 0 81 3l44 3q13 0 13 -27t-12 -27q-6 0 -44 1.5
t-48 1.5v-682z" />
    <glyph glyph-name="periodcentered" unicode="&#xb7;" horiz-adv-x="264" 
d="M133 316q30 0 51 -21t21 -51t-21 -51.5t-51 -21.5q-29 0 -50 21.5t-21 51.5q0 29 21 50.5t50 21.5z" />
    <glyph glyph-name="periodcentered" unicode="&#x2219;" horiz-adv-x="264" 
d="M133 316q30 0 51 -21t21 -51t-21 -51.5t-51 -21.5q-29 0 -50 21.5t-21 51.5q0 29 21 50.5t50 21.5z" />
    <glyph glyph-name="cedilla" unicode="&#xb8;" horiz-adv-x="406" 
d="M235 0q-11 -13 -27 -37.5t-23 -33.5q17 4 36 4q45 0 70 -27.5t25 -75.5q0 -47 -34 -79.5t-92 -32.5q-52 0 -76 20t-24 51q0 18 22 18t22 -16q0 -17 14 -27.5t38 -10.5q35 0 50 15.5t15 58.5q0 41 -11 58t-37 17q-25 0 -44 -13q-2 -2 -8 -2q-19 0 -19 20q0 12 13 20
q12 8 28.5 32.5t20.5 40.5h41z" />
    <glyph glyph-name="onesuperior" unicode="&#xb9;" horiz-adv-x="395" 
d="M173 809q-32 -20 -73.5 -42t-45.5 -22q-5 0 -10 11.5t-5 18.5q0 5 3 6q34 9 169 92q12 7 20 7q22 0 22 -10q0 -3 -2.5 -152.5t-2.5 -192.5q0 -18 1 -38.5t1 -21.5q14 0 40 0.5t29 0.5q5 0 5 -19q0 -18 -5 -18q-4 0 -51 1.5t-67 1.5t-58.5 -1.5t-42.5 -1.5q-9 0 -9 19
q0 18 9 18q5 0 30 -0.5t44 -0.5q0 10 -0.5 129t-0.5 215z" />
    <glyph glyph-name="ordmasculine" unicode="&#xba;" horiz-adv-x="488" 
d="M243 747q84 0 133.5 -53t49.5 -136q0 -79 -53.5 -133.5t-129.5 -54.5q-79 0 -131 51t-52 137q0 78 53.5 133.5t129.5 55.5zM243 715q-47 0 -72.5 -34t-25.5 -123q0 -90 25.5 -124.5t72.5 -34.5t72.5 34.5t25.5 124.5q0 89 -25.5 123t-72.5 34zM234 44q37 0 82 1t76.5 1.5
t34.5 0.5q9 0 12.5 -4.5t3.5 -19.5q0 -24 -15 -24q-4 0 -38 0.5t-79.5 1t-76.5 0.5q-38 0 -80.5 -0.5t-70 -1t-30.5 -0.5q-8 0 -8 26q0 20 8 20q4 0 35.5 -0.5t74 -0.5h71.5z" />
    <glyph glyph-name="guillemotright" unicode="&#xbb;" horiz-adv-x="617" 
d="M293 441q-4 4 -4 20q0 39 16 39q2 0 8 -4l237 -203q23 -21 23 -34q0 -16 -23 -35l-239 -191q-3 -3 -6 -3q-13 0 -13 30q0 18 7 25l157 168zM65 441q-4 4 -4 20q0 39 16 39q2 0 8 -4l237 -203q23 -21 23 -34q0 -16 -23 -35l-239 -191q-3 -3 -6 -3q-13 0 -13 30q0 18 7 25
l157 168z" />
    <glyph glyph-name="onequarter" unicode="&#xbc;" horiz-adv-x="864" 
d="M173 674q-32 -20 -73.5 -42t-45.5 -22q-5 0 -10 11.5t-5 18.5q0 5 3 6q34 9 169 92q12 7 20 7q22 0 22 -10q0 -3 -2.5 -150t-2.5 -190q0 -18 1 -38.5t1 -21.5q14 0 40 0.5t29 0.5q5 0 5 -19q0 -18 -5 -18q-4 0 -51 1.5t-67 1.5t-58.5 -1.5t-42.5 -1.5q-9 0 -9 19
q0 18 9 18q5 0 30 -0.5t44 -0.5q0 10 -0.5 128t-0.5 211zM643 735q5 9 21 9q14 0 26.5 -5.5t8.5 -12.5l-474 -732q-6 -9 -22 -9q-14 0 -26 5.5t-8 12.5zM769 144q-43 0 -64 2q-2 -90 -2 -138q0 -8 -13 -8h-54q-11 0 -11 8q0 96 6 138q-78 -3 -163 -3q-16 0 -16 12q0 11 4 17
l103.5 131t108.5 139q2 6 22 6q19 0 19 -9q0 -78 -4 -257q36 3 65 3q7 8 7 54q0 6 20 6q15 0 15 -8q0 -7 -2 -28t-2 -40t2 -44.5t2 -27.5q0 -9 -16 -9q-18 0 -18 9q0 35 -9 47zM637 352q-6 -7 -61.5 -80.5t-68.5 -89.5q13 0 41.5 0.5t49 0.5t32.5 -1q3 134 7 170z" />
    <glyph glyph-name="onehalf" unicode="&#xbd;" horiz-adv-x="864" 
d="M173 674q-32 -20 -73.5 -42t-45.5 -22q-5 0 -10 11.5t-5 18.5q0 5 3 6q34 9 169 92q12 7 20 7q22 0 22 -10q0 -3 -2.5 -150t-2.5 -190q0 -18 1 -38.5t1 -21.5q14 0 40 0.5t29 0.5q5 0 5 -19q0 -18 -5 -18q-4 0 -51 1.5t-67 1.5t-58.5 -1.5t-42.5 -1.5q-9 0 -9 19
q0 18 9 18q5 0 30 -0.5t44 -0.5q0 10 -0.5 128t-0.5 211zM643 735q5 9 21 9q14 0 26.5 -5.5t8.5 -12.5l-474 -732q-6 -9 -22 -9q-14 0 -26 5.5t-8 12.5zM589 63q17 0 56 1t68.5 2t35.5 1q17 0 34 45q1 4 10 4q8 0 14.5 -5t6.5 -9q0 -3 -3 -9l-41 -80q-6 -13 -18 -13
t-121 1.5t-126 1.5q-12 0 -12 18q0 9 5 13q144 101 188 169q21 33 28 56.5t7 56.5q0 49 -18.5 70.5t-64.5 21.5q-43 0 -65.5 -21t-22.5 -55q0 -28 18 -46q0 -6 -9 -13.5t-15 -7.5q-4 0 -5 2q-27 21 -27 67q0 43 38.5 79.5t106.5 36.5q72 0 109 -32.5t37 -90.5
q0 -60 -77 -141q-88 -92 -137 -123z" />
    <glyph glyph-name="threequarters" unicode="&#xbe;" horiz-adv-x="864" 
d="M643 735q5 9 21 9q14 0 26.5 -5.5t8.5 -12.5l-474 -732q-6 -9 -22 -9q-14 0 -26 5.5t-8 12.5zM769 144q-43 0 -64 2q-2 -90 -2 -138q0 -8 -13 -8h-54q-11 0 -11 8q0 96 6 138q-78 -3 -163 -3q-16 0 -16 12q0 11 4 17l103.5 131t108.5 139q2 6 22 6q19 0 19 -9
q0 -78 -4 -257q36 3 65 3q7 8 7 54q0 6 20 6q15 0 15 -8q0 -7 -2 -28t-2 -40t2 -44.5t2 -27.5q0 -9 -16 -9q-18 0 -18 9q0 35 -9 47zM637 352q-6 -7 -61.5 -80.5t-68.5 -89.5q13 0 41.5 0.5t49 0.5t32.5 -1q3 134 7 170zM42 638q22 31 46 86q3 8 6.5 10t13.5 2q52 0 127 1
t85 1q16 0 16 -16q0 -12 -53.5 -63t-100.5 -91q63 0 110 -34t47 -101q0 -68 -50.5 -106t-127.5 -38q-58 0 -92 32t-34 80q0 4 8.5 7.5t17.5 3.5q12 0 12 -6q0 -35 21.5 -56.5t61.5 -21.5q49 0 72 22t23 75q0 59 -17.5 82.5t-58.5 23.5q-49 0 -76 -42q-3 -6 -12 -6
q-8 0 -15 9.5t-7 16.5q0 6 4 9q33 21 107 87.5t78 69.5q-144 -3 -151 -3q-9 -19 -28 -52q-3 -7 -12 -7q-7 0 -15 6.5t-8 11.5q0 4 2 7z" />
    <glyph glyph-name="questiondown" unicode="&#xbf;" horiz-adv-x="437" 
d="M240 234h17q13 0 13 -11v-130q0 -16 -4.5 -22.5t-18.5 -8.5q-70 -10 -90.5 -42t-20.5 -131q0 -93 18.5 -123.5t68.5 -30.5q52 0 72.5 29t20.5 93q0 46 56 46q19 0 32.5 -11.5t13.5 -33.5q0 -29 -9 -55t-29.5 -51t-61 -40t-95.5 -15q-102 0 -152.5 52t-50.5 140
t54.5 144.5t153.5 69.5v118q0 13 12 13zM251 322q-28 0 -47 19.5t-19 46.5t19 46.5t47 19.5q27 0 46 -19.5t19 -46.5t-19 -46.5t-46 -19.5z" />
    <glyph glyph-name="Agrave" unicode="&#xc0;" horiz-adv-x="751" 
d="M655 47q18 0 48 1.5t37 1.5q4 0 7.5 -9t3.5 -18q0 -25 -11 -25q-7 0 -73 3t-102 3t-89.5 -3t-60.5 -3q-15 0 -15 26t15 26q11 0 45 -1.5t55 -1.5q-7 26 -37 112t-38 112h-213q-39 -115 -89 -222q7 0 54.5 0.5t56.5 0.5q11 0 11 -27q0 -25 -11 -25q-7 0 -45 3t-75 3
t-72 -3t-41 -3q-7 0 -11.5 8t-4.5 18q0 26 16 26q14 0 35.5 -1.5t24.5 -1.5q30 50 111.5 267.5l150.5 416.5q3 11 9.5 14t20.5 3q19 0 23 -15q13 -49 117.5 -327.5t146.5 -358.5zM335 567q-56 -167 -94 -259h186q-22 51 -52 135.5t-40 123.5zM312 938q17 0 22 -18
q5 -13 40.5 -61.5t52.5 -65.5q5 -6 -1 -14t-17 -8q-19 0 -94.5 59t-95.5 82q-21 26 8 26h85z" />
    <glyph glyph-name="Aacute" unicode="&#xc1;" horiz-adv-x="751" 
d="M655 47q18 0 48 1.5t37 1.5q4 0 7.5 -9t3.5 -18q0 -25 -11 -25q-7 0 -73 3t-102 3t-89.5 -3t-60.5 -3q-15 0 -15 26t15 26q11 0 45 -1.5t55 -1.5q-7 26 -37 112t-38 112h-213q-39 -115 -89 -222q7 0 54.5 0.5t56.5 0.5q11 0 11 -27q0 -25 -11 -25q-7 0 -45 3t-75 3
t-72 -3t-41 -3q-7 0 -11.5 8t-4.5 18q0 26 16 26q14 0 35.5 -1.5t24.5 -1.5q30 50 111.5 267.5l150.5 416.5q3 11 9.5 14t20.5 3q19 0 23 -15q13 -49 117.5 -327.5t146.5 -358.5zM335 567q-56 -167 -94 -259h186q-22 51 -52 135.5t-40 123.5zM425 938h75q29 0 8 -26
q-21 -24 -93.5 -82.5t-91.5 -58.5q-11 0 -17 8t-1 14q19 20 56.5 67.5t41.5 59.5q5 18 22 18z" />
    <glyph glyph-name="Acircumflex" unicode="&#xc2;" horiz-adv-x="751" 
d="M655 47q18 0 48 1.5t37 1.5q4 0 7.5 -9t3.5 -18q0 -25 -11 -25q-7 0 -73 3t-102 3t-89.5 -3t-60.5 -3q-15 0 -15 26t15 26q11 0 45 -1.5t55 -1.5q-7 26 -37 112t-38 112h-213q-39 -115 -89 -222q7 0 54.5 0.5t56.5 0.5q11 0 11 -27q0 -25 -11 -25q-7 0 -45 3t-75 3
t-72 -3t-41 -3q-7 0 -11.5 8t-4.5 18q0 26 16 26q14 0 35.5 -1.5t24.5 -1.5q30 50 111.5 267.5l150.5 416.5q3 11 9.5 14t20.5 3q19 0 23 -15q13 -49 117.5 -327.5t146.5 -358.5zM335 567q-56 -167 -94 -259h186q-22 51 -52 135.5t-40 123.5zM359 884q-73 -83 -76 -92
q-5 -18 -22 -18h-27q-14 0 -16.5 7.5t8.5 18.5l125 131q9 10 26 10q16 0 25 -10l123 -131q10 -11 8 -18.5t-16 -7.5h-73q-3 0 -5.5 0.5t-4.5 1.5t-3.5 1.5t-3 3t-1.5 3.5t-2 4t-2 4q-36 62 -63 92z" />
    <glyph glyph-name="Atilde" unicode="&#xc3;" horiz-adv-x="751" 
d="M655 47q18 0 48 1.5t37 1.5q4 0 7.5 -9t3.5 -18q0 -25 -11 -25q-7 0 -73 3t-102 3t-89.5 -3t-60.5 -3q-15 0 -15 26t15 26q11 0 45 -1.5t55 -1.5q-7 26 -37 112t-38 112h-213q-39 -115 -89 -222q7 0 54.5 0.5t56.5 0.5q11 0 11 -27q0 -25 -11 -25q-7 0 -45 3t-75 3
t-72 -3t-41 -3q-7 0 -11.5 8t-4.5 18q0 26 16 26q14 0 35.5 -1.5t24.5 -1.5q30 50 111.5 267.5l150.5 416.5q3 11 9.5 14t20.5 3q19 0 23 -15q13 -49 117.5 -327.5t146.5 -358.5zM535 916q-35 -109 -120 -109q-27 0 -48.5 10.5t-32.5 23t-26.5 23t-32.5 10.5q-47 0 -66 -56
q-7 -5 -13 -5q-9 0 -18.5 9t-6.5 16q38 97 118 97q33 0 58.5 -16.5t45 -33t38.5 -16.5q47 0 69 63q1 7 11 7q8 0 17.5 -7.5t6.5 -15.5zM335 567q-56 -167 -94 -259h186q-22 51 -52 135.5t-40 123.5z" />
    <glyph glyph-name="Adieresis" unicode="&#xc4;" horiz-adv-x="751" 
d="M655 47q18 0 48 1.5t37 1.5q4 0 7.5 -9t3.5 -18q0 -25 -11 -25q-7 0 -73 3t-102 3t-89.5 -3t-60.5 -3q-15 0 -15 26t15 26q11 0 45 -1.5t55 -1.5q-7 26 -37 112t-38 112h-213q-39 -115 -89 -222q7 0 54.5 0.5t56.5 0.5q11 0 11 -27q0 -25 -11 -25q-7 0 -45 3t-75 3
t-72 -3t-41 -3q-7 0 -11.5 8t-4.5 18q0 26 16 26q14 0 35.5 -1.5t24.5 -1.5q30 50 111.5 267.5l150.5 416.5q3 11 9.5 14t20.5 3q19 0 23 -15q13 -49 117.5 -327.5t146.5 -358.5zM335 567q-56 -167 -94 -259h186q-22 51 -52 135.5t-40 123.5zM482 883q24 0 40.5 -14.5
t16.5 -35.5t-16.5 -36t-40.5 -15q-25 0 -41.5 15t-16.5 36t17 35.5t41 14.5zM268 883q24 0 40.5 -14.5t16.5 -35.5t-16.5 -36t-40.5 -15t-40.5 15t-16.5 36t16.5 35.5t40.5 14.5z" />
    <glyph glyph-name="Aring" unicode="&#xc5;" horiz-adv-x="751" 
d="M359 941q55 0 91.5 -28.5t36.5 -69.5q0 -37 -31 -64.5t-80 -31.5q10 -1 15 -14q13 -49 117.5 -327.5t146.5 -358.5q18 0 48 1.5t37 1.5q4 0 7.5 -9t3.5 -18q0 -25 -11 -25q-7 0 -73 3t-102 3t-89.5 -3t-60.5 -3q-15 0 -15 26t15 26q11 0 45 -1.5t55 -1.5q-7 26 -37 112
t-38 112h-213q-39 -115 -89 -222q7 0 54.5 0.5t56.5 0.5q11 0 11 -27q0 -25 -11 -25q-7 0 -45 3t-75 3t-72 -3t-41 -3q-7 0 -11.5 8t-4.5 18q0 26 16 26q14 0 35.5 -1.5t24.5 -1.5q30 50 111.5 267.5l150.5 416.5q4 13 14 16q-52 1 -86.5 29t-34.5 67q0 41 36.5 69.5
t91.5 28.5zM335 567q-56 -167 -94 -259h186q-22 51 -52 135.5t-40 123.5zM360 905q-28 0 -45.5 -18t-17.5 -45t17.5 -44t45.5 -17t45.5 17.5t17.5 43.5q0 27 -18 45t-45 18z" />
    <glyph glyph-name="AE" unicode="&#xc6;" horiz-adv-x="1109" 
d="M474 271h-240q-67 -96 -170 -222q6 0 53 0.5t57 0.5q11 0 11 -27q0 -25 -11 -25q-7 0 -45 3t-75 3t-74.5 -3t-43.5 -3q-7 0 -11.5 8t-4.5 18q0 26 16 26q14 0 35.5 -1.5t24.5 -1.5q46 48 195.5 248.5l282.5 386.5q-10 0 -48 -1.5t-44 -1.5q-12 0 -12 26q0 28 13 28
q1 0 58 -3t93 -3q29 0 142.5 1.5t215.5 2.5t104 1q14 0 14 -24q0 -2 -0.5 -77.5t-0.5 -111.5q0 -13 -19 -13q-18 0 -21 12q-9 52 -45.5 103.5t-75.5 54.5q-65 9 -251 9q-9 -92 -11 -284q103 0 136 3q29 19 48 61t19 75q0 15 18 15q24 0 24 -18q0 -11 -3.5 -69.5t-3.5 -91.5
q0 -30 3.5 -86t3.5 -80q0 -13 -24 -13q-18 0 -18 10q0 23 -21.5 78.5t-43.5 73.5q-31 4 -138 4q-1 -39 -1 -123q0 -46 0.5 -91t1 -72.5t0.5 -30.5q12 0 58.5 -0.5t85.5 -1t105 0.5q84 1 124.5 47.5t51.5 149.5q2 15 19 15q7 0 14.5 -3.5t7.5 -6.5q0 -23 -0.5 -77.5
t-1.5 -101t-1 -49.5q0 -26 -42 -26q-16 0 -229 5t-244 5q-38 0 -94 -2.5t-60 -2.5q-12 0 -12 26q0 27 12 27q9 0 42 -1t51 -1v222zM474 308v301q-132 -197 -213 -301h213z" />
    <glyph glyph-name="Ccedilla" unicode="&#xc7;" horiz-adv-x="771" 
d="M425 26q74 0 138 56t101 168q5 8 15 8q18 0 18 -10q0 -9 -3 -86.5t-3 -90.5q0 -29 -73 -57.5t-180 -31.5q-5 -7 -12 -18t-13 -19.5l-11 -15.5q17 4 36 4q45 0 70 -27.5t25 -75.5q0 -47 -34 -79.5t-92 -32.5q-52 0 -76 20t-24 51q0 18 22 18t22 -16q0 -17 14 -27.5
t38 -10.5q35 0 50 15.5t15 58.5q0 41 -11 58t-37 17q-24 0 -44 -13q-2 -2 -8 -2q-19 0 -19 20q0 12 13 20q25 19 42 56q-159 5 -255.5 110t-96.5 272q0 78 23.5 146t69 121.5t119.5 84t168 30.5q116 0 183.5 -26.5t67.5 -57.5q0 -13 1.5 -77t1.5 -73t-18 -9q-16 0 -20 7
q-48 114 -95.5 153t-122.5 39q-246 0 -246 -342q0 -335 241 -335z" />
    <glyph glyph-name="Egrave" unicode="&#xc8;" horiz-adv-x="788" 
d="M266 46q12 0 58.5 -0.5t85.5 -1t105 0.5q84 1 124.5 47.5t51.5 149.5q1 15 19 15q7 0 14.5 -3.5t7.5 -6.5q0 -23 -1 -77.5t-1.5 -101t-0.5 -49.5q0 -26 -42 -26q-11 0 -212.5 5t-256.5 5q-41 0 -97.5 -2.5t-60.5 -2.5q-12 0 -12 26q0 27 12 27q9 0 42 -1t51 -1v633
q-10 0 -48 -1.5t-44 -1.5q-12 0 -12 26q0 28 13 28l58 -3q59 -3 97 -3q29 0 141.5 1.5t213.5 2.5t103 1q14 0 14 -24q0 -2 -0.5 -77.5t-0.5 -111.5q0 -13 -19 -13q-18 0 -21 12q-9 52 -45.5 104.5t-75.5 55.5q-51 7 -251 7q-9 -92 -11 -284q103 0 136 3q29 19 48 61t19 75
q0 15 18 15q24 0 24 -18q0 -11 -3.5 -69.5t-3.5 -91.5q0 -30 3.5 -86t3.5 -80q0 -13 -24 -13q-18 0 -18 10q0 23 -21.5 78.5t-43.5 73.5q-31 4 -138 4q-1 -39 -1 -123q0 -46 0.5 -91t1 -72.5t0.5 -30.5zM370 938q17 0 22 -18q5 -13 40.5 -61.5t52.5 -65.5q5 -6 -1 -14
t-17 -8q-19 0 -94.5 59t-95.5 82q-21 26 8 26h85z" />
    <glyph glyph-name="Eacute" unicode="&#xc9;" horiz-adv-x="788" 
d="M266 46q12 0 58.5 -0.5t85.5 -1t105 0.5q84 1 124.5 47.5t51.5 149.5q1 15 19 15q7 0 14.5 -3.5t7.5 -6.5q0 -23 -1 -77.5t-1.5 -101t-0.5 -49.5q0 -26 -42 -26q-11 0 -212.5 5t-256.5 5q-41 0 -97.5 -2.5t-60.5 -2.5q-12 0 -12 26q0 27 12 27q9 0 42 -1t51 -1v633
q-10 0 -48 -1.5t-44 -1.5q-12 0 -12 26q0 28 13 28l58 -3q59 -3 97 -3q29 0 141.5 1.5t213.5 2.5t103 1q14 0 14 -24q0 -2 -0.5 -77.5t-0.5 -111.5q0 -13 -19 -13q-18 0 -21 12q-9 52 -45.5 104.5t-75.5 55.5q-51 7 -251 7q-9 -92 -11 -284q103 0 136 3q29 19 48 61t19 75
q0 15 18 15q24 0 24 -18q0 -11 -3.5 -69.5t-3.5 -91.5q0 -30 3.5 -86t3.5 -80q0 -13 -24 -13q-18 0 -18 10q0 23 -21.5 78.5t-43.5 73.5q-31 4 -138 4q-1 -39 -1 -123q0 -46 0.5 -91t1 -72.5t0.5 -30.5zM462 938h75q29 0 8 -26q-21 -24 -93.5 -82.5t-91.5 -58.5q-11 0 -17 8
t-1 14q19 20 56.5 67.5t41.5 59.5q5 18 22 18z" />
    <glyph glyph-name="Ecircumflex" unicode="&#xca;" horiz-adv-x="788" 
d="M266 46q12 0 58.5 -0.5t85.5 -1t105 0.5q84 1 124.5 47.5t51.5 149.5q1 15 19 15q7 0 14.5 -3.5t7.5 -6.5q0 -23 -1 -77.5t-1.5 -101t-0.5 -49.5q0 -26 -42 -26q-11 0 -212.5 5t-256.5 5q-41 0 -97.5 -2.5t-60.5 -2.5q-12 0 -12 26q0 27 12 27q9 0 42 -1t51 -1v633
q-10 0 -48 -1.5t-44 -1.5q-12 0 -12 26q0 28 13 28l58 -3q59 -3 97 -3q29 0 141.5 1.5t213.5 2.5t103 1q14 0 14 -24q0 -2 -0.5 -77.5t-0.5 -111.5q0 -13 -19 -13q-18 0 -21 12q-9 52 -45.5 104.5t-75.5 55.5q-51 7 -251 7q-9 -92 -11 -284q103 0 136 3q29 19 48 61t19 75
q0 15 18 15q24 0 24 -18q0 -11 -3.5 -69.5t-3.5 -91.5q0 -30 3.5 -86t3.5 -80q0 -13 -24 -13q-18 0 -18 10q0 23 -21.5 78.5t-43.5 73.5q-31 4 -138 4q-1 -39 -1 -123q0 -46 0.5 -91t1 -72.5t0.5 -30.5zM395 884q-73 -83 -76 -92q-5 -18 -22 -18h-27q-14 0 -16.5 7.5
t8.5 18.5l125 131q9 10 26 10q16 0 25 -10l123 -131q10 -11 8 -18.5t-16 -7.5h-73q-3 0 -5.5 0.5t-4.5 1.5t-3.5 1.5t-3 3t-1.5 3.5t-2 4t-2 4q-36 62 -63 92z" />
    <glyph glyph-name="Edieresis" unicode="&#xcb;" horiz-adv-x="788" 
d="M266 46q12 0 58.5 -0.5t85.5 -1t105 0.5q84 1 124.5 47.5t51.5 149.5q1 15 19 15q7 0 14.5 -3.5t7.5 -6.5q0 -23 -1 -77.5t-1.5 -101t-0.5 -49.5q0 -26 -42 -26q-11 0 -212.5 5t-256.5 5q-41 0 -97.5 -2.5t-60.5 -2.5q-12 0 -12 26q0 27 12 27q9 0 42 -1t51 -1v633
q-10 0 -48 -1.5t-44 -1.5q-12 0 -12 26q0 28 13 28l58 -3q59 -3 97 -3q29 0 141.5 1.5t213.5 2.5t103 1q14 0 14 -24q0 -2 -0.5 -77.5t-0.5 -111.5q0 -13 -19 -13q-18 0 -21 12q-9 52 -45.5 104.5t-75.5 55.5q-51 7 -251 7q-9 -92 -11 -284q103 0 136 3q29 19 48 61t19 75
q0 15 18 15q24 0 24 -18q0 -11 -3.5 -69.5t-3.5 -91.5q0 -30 3.5 -86t3.5 -80q0 -13 -24 -13q-18 0 -18 10q0 23 -21.5 78.5t-43.5 73.5q-31 4 -138 4q-1 -39 -1 -123q0 -46 0.5 -91t1 -72.5t0.5 -30.5zM506 883q24 0 40.5 -14.5t16.5 -35.5t-16.5 -36t-40.5 -15
q-25 0 -41.5 15t-16.5 36t17 35.5t41 14.5zM292 883q24 0 40.5 -14.5t16.5 -35.5t-16.5 -36t-40.5 -15t-40.5 15t-16.5 36t16.5 35.5t40.5 14.5z" />
    <glyph glyph-name="Igrave" unicode="&#xcc;" horiz-adv-x="425" 
d="M275 682q-11 -58 -11 -442q0 -46 0.5 -90.5t1 -71.5t0.5 -29q3 0 39 1t44 1q9 0 9 -28q0 -25 -9 -25q-6 0 -57.5 2.5t-81.5 2.5q-41 0 -93.5 -2.5t-56.5 -2.5q-12 0 -12 26q0 27 12 27q9 0 42 -1t51 -1v633q-10 0 -48 -1.5t-44 -1.5q-12 0 -12 26q0 28 13 28l56 -3
q57 -3 95 -3q29 0 64.5 1.5t59.5 3t25 1.5q14 0 14 -28q0 -26 -12 -26q-6 0 -42 1.5t-47 1.5zM174 938q17 0 22 -18q5 -13 40.5 -61.5t52.5 -65.5q5 -6 -1 -14t-17 -8q-19 0 -94.5 59t-95.5 82q-21 26 8 26h85z" />
    <glyph glyph-name="Iacute" unicode="&#xcd;" horiz-adv-x="425" 
d="M275 682q-11 -58 -11 -442q0 -46 0.5 -90.5t1 -71.5t0.5 -29q3 0 39 1t44 1q9 0 9 -28q0 -25 -9 -25q-6 0 -57.5 2.5t-81.5 2.5q-41 0 -93.5 -2.5t-56.5 -2.5q-12 0 -12 26q0 27 12 27q9 0 42 -1t51 -1v633q-10 0 -48 -1.5t-44 -1.5q-12 0 -12 26q0 28 13 28l56 -3
q57 -3 95 -3q29 0 64.5 1.5t59.5 3t25 1.5q14 0 14 -28q0 -26 -12 -26q-6 0 -42 1.5t-47 1.5zM242 938h75q29 0 8 -26q-21 -24 -93.5 -82.5t-91.5 -58.5q-11 0 -17 8t-1 14q19 20 56.5 67.5t41.5 59.5q5 18 22 18z" />
    <glyph glyph-name="Icircumflex" unicode="&#xce;" horiz-adv-x="425" 
d="M275 682q-11 -58 -11 -442q0 -46 0.5 -90.5t1 -71.5t0.5 -29q3 0 39 1t44 1q9 0 9 -28q0 -25 -9 -25q-6 0 -57.5 2.5t-81.5 2.5q-41 0 -93.5 -2.5t-56.5 -2.5q-12 0 -12 26q0 27 12 27q9 0 42 -1t51 -1v633q-10 0 -48 -1.5t-44 -1.5q-12 0 -12 26q0 28 13 28l56 -3
q57 -3 95 -3q29 0 64.5 1.5t59.5 3t25 1.5q14 0 14 -28q0 -26 -12 -26q-6 0 -42 1.5t-47 1.5zM187 884q-73 -83 -76 -92q-5 -18 -22 -18h-27q-14 0 -16.5 7.5t8.5 18.5l125 131q9 10 26 10q16 0 25 -10l123 -131q10 -11 8 -18.5t-16 -7.5h-73q-3 0 -5.5 0.5t-4.5 1.5
t-3.5 1.5t-3 3t-1.5 3.5t-2 4t-2 4q-36 62 -63 92z" />
    <glyph glyph-name="Idieresis" unicode="&#xcf;" horiz-adv-x="425" 
d="M275 682q-11 -58 -11 -442q0 -46 0.5 -90.5t1 -71.5t0.5 -29q3 0 39 1t44 1q9 0 9 -28q0 -25 -9 -25q-6 0 -57.5 2.5t-81.5 2.5q-41 0 -93.5 -2.5t-56.5 -2.5q-12 0 -12 26q0 27 12 27q9 0 42 -1t51 -1v633q-10 0 -48 -1.5t-44 -1.5q-12 0 -12 26q0 28 13 28l56 -3
q57 -3 95 -3q29 0 64.5 1.5t59.5 3t25 1.5q14 0 14 -28q0 -26 -12 -26q-6 0 -42 1.5t-47 1.5zM316 883q24 0 40.5 -14.5t16.5 -35.5t-16.5 -36t-40.5 -15q-25 0 -41.5 15t-16.5 36t17 35.5t41 14.5zM102 883q24 0 40.5 -14.5t16.5 -35.5t-16.5 -36t-40.5 -15t-40.5 15
t-16.5 36t16.5 35.5t40.5 14.5z" />
    <glyph glyph-name="Eth" unicode="&#xd0;" horiz-adv-x="855" 
d="M153 343q-25 0 -45.5 -0.5t-32 -1t-14.5 -0.5q-11 0 -11 30q0 28 11 28q2 0 33 -0.5t59 -0.5v284q-10 0 -48 -1.5t-44 -1.5q-12 0 -12 26q0 28 13 28l58 -3q59 -3 97 -3h199q195 0 289 -93.5t94 -258.5q0 -184 -110.5 -280.5t-316.5 -96.5q-41 0 -97 2t-78 2
q-42 0 -87.5 -2t-49.5 -2q-12 0 -12 26q0 27 12 27q9 0 42 -1t51 -1v294zM265 343q-1 -31 -1 -103q0 -46 0.5 -87.5t1 -65t0.5 -26.5q0 -19 94 -19q75 0 128.5 15t95.5 51.5t62.5 103.5t20.5 166q0 92 -20.5 154t-61 94.5t-89 45t-116.5 12.5q-46 0 -104 -5q-8 -62 -11 -281
q41 0 71.5 1t46 2t20.5 1q13 0 17 -6t4 -27q0 -16 -4 -22t-16 -6q-1 0 -46.5 1t-92.5 1z" />
    <glyph glyph-name="Ntilde" unicode="&#xd1;" horiz-adv-x="893" 
d="M754 682q-7 -347 -7 -440q0 -80 1 -154v-74q0 -13 -5.5 -18t-25.5 -5q-18 0 -49 38l-229.5 291.5t-228.5 300.5q-3 -35 -3 -136q0 -364 3 -436q19 0 61 1t53 1q13 0 13 -28q0 -25 -12 -25q-11 0 -63 2.5t-81 2.5q-23 0 -63.5 -2.5t-55.5 -2.5q-14 0 -14 26q0 27 12 27
q8 0 38.5 -1t54.5 -1v633q-10 0 -48 -1.5t-44 -1.5q-12 0 -12 31q0 23 13 23q19 0 55 -3t56 -3q18 0 35.5 0.5t28.5 1.5t13 1q13 0 19 -4t13 -16q53 -77 190.5 -254.5l221.5 -279.5v506q-10 0 -50 -1t-46 -1q-12 0 -12 28q0 25 14 25l43 -3q43 -3 81 -3q40 0 76 3t40 3
q15 0 15 -23q0 -29 -14 -29q-5 0 -41.5 0.5t-45.5 0.5zM638 916q-35 -109 -120 -109q-27 0 -48.5 10.5t-32.5 23t-26.5 23t-32.5 10.5q-47 0 -66 -56q-7 -5 -13 -5q-9 0 -18.5 9t-6.5 16q38 97 118 97q33 0 58.5 -16.5t45 -33t38.5 -16.5q47 0 69 63q1 7 11 7q8 0 17.5 -7.5
t6.5 -15.5z" />
    <glyph glyph-name="Ograve" unicode="&#xd2;" horiz-adv-x="855" 
d="M429 747q155 0 262.5 -113.5t107.5 -272.5q0 -158 -107.5 -268.5t-262.5 -110.5q-156 0 -264.5 110.5t-108.5 268.5q0 159 108.5 272.5t264.5 113.5zM429 702q-129 0 -185 -83t-56 -262q0 -332 241 -332q125 0 181.5 79t56.5 253q0 161 -59.5 253t-178.5 92zM410 938
q17 0 22 -18q5 -13 40.5 -61.5t52.5 -65.5q5 -6 -1 -14t-17 -8q-19 0 -94.5 59t-95.5 82q-21 26 8 26h85z" />
    <glyph glyph-name="Oacute" unicode="&#xd3;" horiz-adv-x="855" 
d="M429 747q155 0 262.5 -113.5t107.5 -272.5q0 -158 -107.5 -268.5t-262.5 -110.5q-156 0 -264.5 110.5t-108.5 268.5q0 159 108.5 272.5t264.5 113.5zM429 702q-129 0 -185 -83t-56 -262q0 -332 241 -332q125 0 181.5 79t56.5 253q0 161 -59.5 253t-178.5 92zM459 938h75
q29 0 8 -26q-21 -24 -93.5 -82.5t-91.5 -58.5q-11 0 -17 8t-1 14q19 20 56.5 67.5t41.5 59.5q5 18 22 18z" />
    <glyph glyph-name="Ocircumflex" unicode="&#xd4;" horiz-adv-x="855" 
d="M429 747q155 0 262.5 -113.5t107.5 -272.5q0 -158 -107.5 -268.5t-262.5 -110.5q-156 0 -264.5 110.5t-108.5 268.5q0 159 108.5 272.5t264.5 113.5zM429 702q-129 0 -185 -83t-56 -262q0 -332 241 -332q125 0 181.5 79t56.5 253q0 161 -59.5 253t-178.5 92zM429 884
q-73 -83 -76 -92q-5 -18 -22 -18h-27q-14 0 -16.5 7.5t8.5 18.5l125 131q9 10 26 10q16 0 25 -10l123 -131q10 -11 8 -18.5t-16 -7.5h-73q-3 0 -5.5 0.5t-4.5 1.5t-3.5 1.5t-3 3t-1.5 3.5t-2 4t-2 4q-36 62 -63 92z" />
    <glyph glyph-name="Otilde" unicode="&#xd5;" horiz-adv-x="855" 
d="M429 747q155 0 262.5 -113.5t107.5 -272.5q0 -158 -107.5 -268.5t-262.5 -110.5q-156 0 -264.5 110.5t-108.5 268.5q0 159 108.5 272.5t264.5 113.5zM429 702q-129 0 -185 -83t-56 -262q0 -332 241 -332q125 0 181.5 79t56.5 253q0 161 -59.5 253t-178.5 92zM609 916
q-35 -109 -120 -109q-27 0 -48.5 10.5t-32.5 23t-26.5 23t-32.5 10.5q-47 0 -66 -56q-7 -5 -13 -5q-9 0 -18.5 9t-6.5 16q38 97 118 97q33 0 58.5 -16.5t45 -33t38.5 -16.5q47 0 69 63q1 7 11 7q8 0 17.5 -7.5t6.5 -15.5z" />
    <glyph glyph-name="Odieresis" unicode="&#xd6;" horiz-adv-x="855" 
d="M429 747q155 0 262.5 -113.5t107.5 -272.5q0 -158 -107.5 -268.5t-262.5 -110.5q-156 0 -264.5 110.5t-108.5 268.5q0 159 108.5 272.5t264.5 113.5zM429 702q-129 0 -185 -83t-56 -262q0 -332 241 -332q125 0 181.5 79t56.5 253q0 161 -59.5 253t-178.5 92zM534 883
q24 0 40.5 -14.5t16.5 -35.5t-16.5 -36t-40.5 -15q-25 0 -41.5 15t-16.5 36t17 35.5t41 14.5zM320 883q24 0 40.5 -14.5t16.5 -35.5t-16.5 -36t-40.5 -15t-40.5 15t-16.5 36t16.5 35.5t40.5 14.5z" />
    <glyph glyph-name="multiply" unicode="&#xd7;" horiz-adv-x="572" 
d="M477 402l-147 -147l148 -148q13 -12 -11 -34q-23 -23 -35 -12l-148 148l-147 -147q-11 -10 -32 11t-11 32l147 147l-146 147q-11 10 11 34q23 23 35 12l146 -147l147 147q10 10 32 -10q21 -23 11 -33z" />
    <glyph glyph-name="Oslash" unicode="&#xd8;" horiz-adv-x="821" 
d="M175 75l-73 -77q-7 -8 -28 -8q-15 0 -24 5t-6 13l97 103q-85 102 -85 250q0 159 104 272.5t252 113.5q131 0 232 -93l71 77q7 9 27 9q14 0 24 -5t7 -13l-99 -103q91 -112 91 -258q0 -158 -102.5 -268.5t-250.5 -110.5q-135 0 -237 93zM608 543l-378 -408
q54 -110 182 -110q116 0 168.5 79t52.5 253q0 110 -25 186zM209 185l379 408q-57 109 -176 109q-120 0 -172 -83t-52 -262q0 -100 21 -172z" />
    <glyph glyph-name="Ugrave" unicode="&#xd9;" horiz-adv-x="853" 
d="M732 682q-9 -229 -9 -446q0 -140 -64 -196t-218 -56q-172 0 -235 55.5t-63 200.5v442q-11 0 -48.5 -1.5t-42.5 -1.5q-13 0 -13 26q0 28 14 28l58 -3q58 -3 96 -3q30 0 63.5 1.5t56.5 3t25 1.5q12 0 12 -27t-11 -27q-5 0 -41 1.5t-48 1.5q-9 -111 -11 -277q-1 -134 8 -210
q6 -79 54.5 -116.5t148.5 -37.5q103 0 151 40t51 134q3 87 3 248v219q-9 0 -46 -1.5t-44 -1.5q-12 0 -12 27t14 27q1 0 38.5 -3t75.5 -3q29 0 58 1.5t46.5 3t19.5 1.5q13 0 13 -23q0 -31 -12 -31q-6 0 -43 1.5t-45 1.5zM406 938q17 0 22 -18q5 -13 40.5 -61.5t52.5 -65.5
q5 -6 -1 -14t-17 -8q-19 0 -94.5 59t-95.5 82q-21 26 8 26h85z" />
    <glyph glyph-name="Uacute" unicode="&#xda;" horiz-adv-x="853" 
d="M732 682q-9 -229 -9 -446q0 -140 -64 -196t-218 -56q-172 0 -235 55.5t-63 200.5v442q-11 0 -48.5 -1.5t-42.5 -1.5q-13 0 -13 26q0 28 14 28l58 -3q58 -3 96 -3q30 0 63.5 1.5t56.5 3t25 1.5q12 0 12 -27t-11 -27q-5 0 -41 1.5t-48 1.5q-9 -111 -11 -277q-1 -134 8 -210
q6 -79 54.5 -116.5t148.5 -37.5q103 0 151 40t51 134q3 87 3 248v219q-9 0 -46 -1.5t-44 -1.5q-12 0 -12 27t14 27q1 0 38.5 -3t75.5 -3q29 0 58 1.5t46.5 3t19.5 1.5q13 0 13 -23q0 -31 -12 -31q-6 0 -43 1.5t-45 1.5zM500 938h75q29 0 8 -26q-21 -24 -93.5 -82.5
t-91.5 -58.5q-11 0 -17 8t-1 14q19 20 56.5 67.5t41.5 59.5q5 18 22 18z" />
    <glyph glyph-name="Ucircumflex" unicode="&#xdb;" horiz-adv-x="853" 
d="M732 682q-9 -229 -9 -446q0 -140 -64 -196t-218 -56q-172 0 -235 55.5t-63 200.5v442q-11 0 -48.5 -1.5t-42.5 -1.5q-13 0 -13 26q0 28 14 28l58 -3q58 -3 96 -3q30 0 63.5 1.5t56.5 3t25 1.5q12 0 12 -27t-11 -27q-5 0 -41 1.5t-48 1.5q-9 -111 -11 -277q-1 -134 8 -210
q6 -79 54.5 -116.5t148.5 -37.5q103 0 151 40t51 134q3 87 3 248v219q-9 0 -46 -1.5t-44 -1.5q-12 0 -12 27t14 27q1 0 38.5 -3t75.5 -3q29 0 58 1.5t46.5 3t19.5 1.5q13 0 13 -23q0 -31 -12 -31q-6 0 -43 1.5t-45 1.5zM439 884q-73 -83 -76 -92q-5 -18 -22 -18h-27
q-14 0 -16.5 7.5t8.5 18.5l125 131q9 10 26 10q16 0 25 -10l123 -131q10 -11 8 -18.5t-16 -7.5h-73q-3 0 -5.5 0.5t-4.5 1.5t-3.5 1.5t-3 3t-1.5 3.5t-2 4t-2 4q-36 62 -63 92z" />
    <glyph glyph-name="Udieresis" unicode="&#xdc;" horiz-adv-x="853" 
d="M732 682q-9 -229 -9 -446q0 -140 -64 -196t-218 -56q-172 0 -235 55.5t-63 200.5v442q-11 0 -48.5 -1.5t-42.5 -1.5q-13 0 -13 26q0 28 14 28l58 -3q58 -3 96 -3q30 0 63.5 1.5t56.5 3t25 1.5q12 0 12 -27t-11 -27q-5 0 -41 1.5t-48 1.5q-9 -111 -11 -277q-1 -134 8 -210
q6 -79 54.5 -116.5t148.5 -37.5q103 0 151 40t51 134q3 87 3 248v219q-9 0 -46 -1.5t-44 -1.5q-12 0 -12 27t14 27q1 0 38.5 -3t75.5 -3q29 0 58 1.5t46.5 3t19.5 1.5q13 0 13 -23q0 -31 -12 -31q-6 0 -43 1.5t-45 1.5zM555 883q24 0 40.5 -14.5t16.5 -35.5t-16.5 -36
t-40.5 -15q-25 0 -41.5 15t-16.5 36t17 35.5t41 14.5zM341 883q24 0 40.5 -14.5t16.5 -35.5t-16.5 -36t-40.5 -15t-40.5 15t-16.5 36t16.5 35.5t40.5 14.5z" />
    <glyph glyph-name="Yacute" unicode="&#xdd;" horiz-adv-x="785" 
d="M615 684q-5 0 -46.5 -1.5t-51.5 -1.5t-10 27q0 25 10 25q8 0 46 -3.5t75 -3.5t81.5 3.5t51.5 3.5q15 0 15 -26t-15 -26q-7 0 -30.5 1.5t-31.5 1.5q-16 -20 -112 -153t-150 -199q6 -160 6 -284q4 0 53 1t57 1t8 -28q0 -25 -8 -25q-5 0 -68.5 2.5t-93.5 2.5t-106 -2.5
t-81 -2.5q-14 0 -14 26q0 9 4 18t10 9t49.5 -1t74.5 -1q0 1 -0.5 22t-1 48.5t-0.5 60t1.5 64.5t3.5 53q-246 384 -249 388q-18 0 -46 -1.5t-35 -1.5q-11 0 -11 27q0 25 11 25q6 0 68.5 -3.5t98.5 -3.5t91 3.5t61 3.5q15 0 15 -26t-15 -26t-58 1.5t-47 1.5q89 -128 198 -311
q51 70 115 172.5t77 138.5zM479 938h75q29 0 8 -26q-21 -24 -93.5 -82.5t-91.5 -58.5q-11 0 -17 8t-1 14q19 20 56.5 67.5t41.5 59.5q5 18 22 18z" />
    <glyph glyph-name="Thorn" unicode="&#xde;" horiz-adv-x="686" 
d="M270 597q123 3 127 3q64 0 113 -18.5t76.5 -50.5t41 -70t13.5 -81q0 -214 -287 -214q-51 0 -90 5q0 -28 0.5 -58t1 -45t0.5 -19q3 0 39 1t44 1q9 0 9 -28q0 -25 -9 -25q-6 0 -57.5 2.5t-81.5 2.5q-41 0 -93.5 -2.5t-56.5 -2.5q-12 0 -12 26q0 27 12 27q9 0 42 -1t51 -1
v633q-10 0 -48 -1.5t-44 -1.5q-12 0 -12 26q0 28 13 28q5 0 29 -1.5t59 -3t63 -1.5q29 0 64.5 1.5t59.5 3t25 1.5q14 0 14 -28q0 -26 -12 -26q-6 0 -42 1.5t-47 1.5q-2 -6 -5 -85zM269 561q-7 -191 -7 -354h59q88 0 121 18q71 35 71 158q0 58 -21 100t-63 57q-53 21 -160 21
z" />
    <glyph glyph-name="germandbls" unicode="&#xdf;" horiz-adv-x="607" 
d="M107 37v54v102v98v245q0 109 58 159t153 50q100 0 156 -52t56 -133q0 -124 -115 -167q69 -17 106.5 -73.5t37.5 -130.5q0 -94 -54 -150.5t-133 -56.5q-56 0 -90.5 36.5t-34.5 90.5q0 14 31 14q9 0 9 -9q2 -46 23 -70.5t55 -24.5q46 0 66.5 37.5t20.5 122.5q0 108 -21 150
t-73 42q-10 0 -19 -3.5t-15 -3.5q-24 0 -24 26q0 9 6.5 16.5t16.5 7.5q7 0 16 -1.5t15 -1.5q78 0 78 132q0 86 -26.5 125.5t-89.5 39.5q-57 0 -82.5 -37t-29.5 -147q-3 -78 -3 -219q0 -74 0.5 -169.5t0.5 -111.5q0 -24 -14 -24q-1 0 -16.5 0.5t-29.5 0.5q-39 0 -75 -1.5
t-40 -1.5q-11 0 -11 22q0 20 11 20q12 0 44.5 -1.5t35.5 -1.5z" />
    <glyph glyph-name="agrave" unicode="&#xe0;" horiz-adv-x="517" 
d="M79 346q0 45 45.5 76.5t123.5 31.5q172 0 172 -175q0 -22 -1.5 -88.5t-1.5 -102.5q0 -51 36 -51q12 0 25.5 1.5t17.5 1.5q9 0 9 -21t-11 -21q-6 0 -32.5 -2.5t-39.5 -2.5q-47 0 -65 17.5t-30 59.5q-17 -35 -58.5 -58.5t-93.5 -23.5q-56 0 -90 32t-34 97q0 95 114 122
q56 14 160 21q0 90 -13 122.5t-66 32.5q-43 0 -61.5 -17.5t-18.5 -52.5q0 -20 -12.5 -30.5t-31.5 -10.5q-43 0 -43 42zM325 231q-16 -3 -48.5 -8t-55.5 -10q-40 -8 -55.5 -28t-15.5 -63q0 -46 16 -64.5t46 -18.5q42 0 78.5 32t36.5 81q0 47 -2 79zM209 681q15 0 20 -19
q4 -14 38 -66t51 -73q5 -6 -0.5 -14.5t-15.5 -8.5q-18 0 -90.5 64.5t-89.5 88.5q-20 28 7 28h80z" />
    <glyph glyph-name="aacute" unicode="&#xe1;" horiz-adv-x="517" 
d="M79 346q0 45 45.5 76.5t123.5 31.5q172 0 172 -175q0 -22 -1.5 -88.5t-1.5 -102.5q0 -51 36 -51q12 0 25.5 1.5t17.5 1.5q9 0 9 -21t-11 -21q-6 0 -32.5 -2.5t-39.5 -2.5q-47 0 -65 17.5t-30 59.5q-17 -35 -58.5 -58.5t-93.5 -23.5q-56 0 -90 32t-34 97q0 95 114 122
q56 14 160 21q0 90 -13 122.5t-66 32.5q-43 0 -61.5 -17.5t-18.5 -52.5q0 -20 -12.5 -30.5t-31.5 -10.5q-43 0 -43 42zM325 231q-16 -3 -48.5 -8t-55.5 -10q-40 -8 -55.5 -28t-15.5 -63q0 -46 16 -64.5t46 -18.5q42 0 78.5 32t36.5 81q0 47 -2 79zM288 681h80q27 0 7 -28
q-17 -24 -89.5 -88.5t-90.5 -64.5q-10 0 -15.5 8.5t-0.5 14.5q17 21 51 73t38 66q5 19 20 19z" />
    <glyph glyph-name="acircumflex" unicode="&#xe2;" horiz-adv-x="517" 
d="M79 346q0 45 45.5 76.5t123.5 31.5q172 0 172 -175q0 -22 -1.5 -88.5t-1.5 -102.5q0 -51 36 -51q12 0 25.5 1.5t17.5 1.5q9 0 9 -21t-11 -21q-6 0 -32.5 -2.5t-39.5 -2.5q-47 0 -65 17.5t-30 59.5q-17 -35 -58.5 -58.5t-93.5 -23.5q-56 0 -90 32t-34 97q0 95 114 122
q56 14 160 21q0 90 -13 122.5t-66 32.5q-43 0 -61.5 -17.5t-18.5 -52.5q0 -20 -12.5 -30.5t-31.5 -10.5q-43 0 -43 42zM325 231q-16 -3 -48.5 -8t-55.5 -10q-40 -8 -55.5 -28t-15.5 -63q0 -46 16 -64.5t46 -18.5q42 0 78.5 32t36.5 81q0 47 -2 79zM232 622q-66 -90 -69 -100
q-5 -19 -20 -19h-25q-13 0 -15 8t8 20l114 143q8 10 23 10t23 -10l112 -143q9 -12 7.5 -20t-14.5 -8h-67q-12 0 -19 16q0 2 -1 3q-28 62 -57 100z" />
    <glyph glyph-name="atilde" unicode="&#xe3;" horiz-adv-x="517" 
d="M79 346q0 45 45.5 76.5t123.5 31.5q172 0 172 -175q0 -22 -1.5 -88.5t-1.5 -102.5q0 -51 36 -51q12 0 25.5 1.5t17.5 1.5q9 0 9 -21t-11 -21q-6 0 -32.5 -2.5t-39.5 -2.5q-47 0 -65 17.5t-30 59.5q-17 -35 -58.5 -58.5t-93.5 -23.5q-56 0 -90 32t-34 97q0 95 114 122
q56 14 160 21q0 90 -13 122.5t-66 32.5q-43 0 -61.5 -17.5t-18.5 -52.5q0 -20 -12.5 -30.5t-31.5 -10.5q-43 0 -43 42zM325 231q-16 -3 -48.5 -8t-55.5 -10q-40 -8 -55.5 -28t-15.5 -63q0 -46 16 -64.5t46 -18.5q42 0 78.5 32t36.5 81q0 47 -2 79zM418 657
q-32 -118 -109 -118q-25 0 -44.5 11.5t-29.5 24.5t-24.5 24.5t-29.5 11.5q-42 0 -60 -60q-4 -6 -11 -6q-8 0 -17 9.5t-6 17.5q34 106 107 106q24 0 44 -11t31 -25t25.5 -25t28.5 -11q44 0 63 69q1 7 10 7q8 0 16 -8.5t6 -16.5z" />
    <glyph glyph-name="adieresis" unicode="&#xe4;" horiz-adv-x="517" 
d="M79 346q0 45 45.5 76.5t123.5 31.5q172 0 172 -175q0 -22 -1.5 -88.5t-1.5 -102.5q0 -51 36 -51q12 0 25.5 1.5t17.5 1.5q9 0 9 -21t-11 -21q-6 0 -32.5 -2.5t-39.5 -2.5q-47 0 -65 17.5t-30 59.5q-17 -35 -58.5 -58.5t-93.5 -23.5q-56 0 -90 32t-34 97q0 95 114 122
q56 14 160 21q0 90 -13 122.5t-66 32.5q-43 0 -61.5 -17.5t-18.5 -52.5q0 -20 -12.5 -30.5t-31.5 -10.5q-43 0 -43 42zM325 231q-16 -3 -48.5 -8t-55.5 -10q-40 -8 -55.5 -28t-15.5 -63q0 -46 16 -64.5t46 -18.5q42 0 78.5 32t36.5 81q0 47 -2 79zM158 664q22 0 37 -16
t15 -39t-15 -39t-37 -16t-37 16t-15 39t15 39t37 16zM352 664q22 0 37 -16t15 -39t-15 -39t-37 -16t-37 16t-15 39t15 39t37 16z" />
    <glyph glyph-name="aring" unicode="&#xe5;" horiz-adv-x="517" 
d="M79 346q0 45 45.5 76.5t123.5 31.5q172 0 172 -175q0 -22 -1.5 -88.5t-1.5 -102.5q0 -51 36 -51q12 0 25.5 1.5t17.5 1.5q9 0 9 -21t-11 -21q-6 0 -32.5 -2.5t-39.5 -2.5q-47 0 -65 17.5t-30 59.5q-17 -35 -58.5 -58.5t-93.5 -23.5q-56 0 -90 32t-34 97q0 95 114 122
q56 14 160 21q0 90 -13 122.5t-66 32.5q-43 0 -61.5 -17.5t-18.5 -52.5q0 -20 -12.5 -30.5t-31.5 -10.5q-43 0 -43 42zM247 684q46 0 76 -28.5t30 -68.5q0 -39 -30 -67t-76 -28t-76 28t-30 67q0 41 30 69t76 28zM325 231q-16 -3 -48.5 -8t-55.5 -10q-40 -8 -55.5 -28
t-15.5 -63q0 -46 16 -64.5t46 -18.5q42 0 78.5 32t36.5 81q0 47 -2 79zM248 648q-23 0 -38 -18t-15 -44t15 -43t38 -17q22 0 36.5 17t14.5 43q0 27 -14.5 44.5t-36.5 17.5z" />
    <glyph glyph-name="ae" unicode="&#xe6;" horiz-adv-x="760" 
d="M346 96q-26 -51 -72 -79.5t-99 -28.5q-56 0 -90 32t-34 97q0 95 114 122q57 14 159 21q0 88 -14.5 121.5t-67.5 33.5q-42 0 -59 -17t-17 -53q0 -40 -43 -40q-44 0 -44 41q0 48 48 78t119 30q94 0 136 -64q53 64 141 64q92 0 142 -53.5t50 -141.5q0 -19 -34.5 -24
t-155.5 -5h-111q0 -105 29 -154.5t91 -49.5q56 0 91.5 26t43.5 73q1 8 11 8q28 0 28 -11q0 -48 -47 -94t-138 -46q-139 0 -177 114zM325 231q-16 -3 -48.5 -8t-55.5 -10q-40 -8 -55.5 -28t-15.5 -63q0 -46 16 -64.5t46 -18.5q42 0 78.5 32t36.5 81q0 54 -2 79zM416 266h94
q79 0 104 5q0 76 -20.5 109.5t-71.5 33.5q-50 0 -74.5 -33.5t-31.5 -114.5z" />
    <glyph glyph-name="ccedilla" unicode="&#xe7;" horiz-adv-x="476" 
d="M437 127q0 -48 -45 -95t-119 -50q-5 -7 -12 -18t-13 -19.5l-11 -15.5q17 4 36 4q45 0 70 -27.5t25 -75.5q0 -47 -34 -79.5t-92 -32.5q-52 0 -76 20t-24 51q0 18 22 18t22 -16q0 -17 14 -27.5t38 -10.5q35 0 50 15.5t15 58.5q0 41 -11 58t-37 17q-25 0 -44 -13
q-2 -2 -8 -2q-19 0 -19 20q0 12 13 20q24 18 42 56q-94 8 -146 70t-52 167q0 98 62 166t168 68q74 0 121.5 -37t47.5 -85q0 -26 -16 -39t-40 -13q-41 0 -41 51q0 80 -80 80q-58 0 -87 -42.5t-29 -152.5q0 -108 34.5 -149t94.5 -41q46 0 80.5 30t42.5 76q1 8 12 8
q26 0 26 -13z" />
    <glyph glyph-name="egrave" unicode="&#xe8;" horiz-adv-x="492" 
d="M146 230q0 -105 29 -154.5t91 -49.5q56 0 91.5 26t43.5 73q1 8 11 8q28 0 28 -11q0 -48 -47 -94t-138 -46t-152.5 62.5t-61.5 173.5q0 97 59.5 166.5t154.5 69.5q92 0 142 -54t50 -142q0 -18 -35 -23t-163 -5h-103zM148 266h97q76 0 101 5q0 79 -19.5 111t-72.5 32
q-50 0 -74.5 -33.5t-31.5 -114.5zM230 681q15 0 20 -19q4 -14 38 -66t51 -73q5 -6 -0.5 -14.5t-15.5 -8.5q-18 0 -90.5 64.5t-89.5 88.5q-20 28 7 28h80z" />
    <glyph glyph-name="eacute" unicode="&#xe9;" horiz-adv-x="492" 
d="M146 230q0 -105 29 -154.5t91 -49.5q56 0 91.5 26t43.5 73q1 8 11 8q28 0 28 -11q0 -48 -47 -94t-138 -46t-152.5 62.5t-61.5 173.5q0 97 59.5 166.5t154.5 69.5q92 0 142 -54t50 -142q0 -18 -35 -23t-163 -5h-103zM148 266h97q76 0 101 5q0 79 -19.5 111t-72.5 32
q-50 0 -74.5 -33.5t-31.5 -114.5zM294 681h80q27 0 7 -28q-17 -24 -89.5 -88.5t-90.5 -64.5q-10 0 -15.5 8.5t-0.5 14.5q17 21 51 73t38 66q5 19 20 19z" />
    <glyph glyph-name="ecircumflex" unicode="&#xea;" horiz-adv-x="492" 
d="M146 230q0 -105 29 -154.5t91 -49.5q56 0 91.5 26t43.5 73q1 8 11 8q28 0 28 -11q0 -48 -47 -94t-138 -46t-152.5 62.5t-61.5 173.5q0 97 59.5 166.5t154.5 69.5q92 0 142 -54t50 -142q0 -18 -35 -23t-163 -5h-103zM148 266h97q76 0 101 5q0 79 -19.5 111t-72.5 32
q-50 0 -74.5 -33.5t-31.5 -114.5zM246 622q-66 -90 -69 -100q-5 -19 -20 -19h-25q-13 0 -15 8t8 20l114 143q8 10 23 10t23 -10l112 -143q9 -12 7.5 -20t-14.5 -8h-67q-12 0 -19 16q0 2 -1 3q-28 62 -57 100z" />
    <glyph glyph-name="edieresis" unicode="&#xeb;" horiz-adv-x="492" 
d="M146 230q0 -105 29 -154.5t91 -49.5q56 0 91.5 26t43.5 73q1 8 11 8q28 0 28 -11q0 -48 -47 -94t-138 -46t-152.5 62.5t-61.5 173.5q0 97 59.5 166.5t154.5 69.5q92 0 142 -54t50 -142q0 -18 -35 -23t-163 -5h-103zM148 266h97q76 0 101 5q0 79 -19.5 111t-72.5 32
q-50 0 -74.5 -33.5t-31.5 -114.5zM154 664q22 0 37 -16t15 -39t-15 -39t-37 -16t-37 16t-15 39t15 39t37 16zM348 664q22 0 37 -16t15 -39t-15 -39t-37 -16t-37 16t-15 39t15 39t37 16z" />
    <glyph glyph-name="igrave" unicode="&#xec;" horiz-adv-x="310" 
d="M213 159q0 -93 2 -121q18 0 40 1t26 1q9 0 9 -21t-9 -21q-5 0 -46.5 2.5t-71.5 2.5t-74 -2.5t-50 -2.5q-12 0 -12 22q0 20 12 20q9 0 35 -1t46 -1v356q-8 0 -41.5 -1t-39.5 -1q-12 0 -12 23q0 20 13 20q8 0 65 -0.5t99 -0.5q11 0 14 -3t3 -14q0 -14 -4 -101.5t-4 -156.5z
M129 681q15 0 20 -19q4 -14 38 -66t51 -73q5 -6 -0.5 -14.5t-15.5 -8.5q-18 0 -90.5 64.5t-89.5 88.5q-20 28 7 28h80z" />
    <glyph glyph-name="iacute" unicode="&#xed;" horiz-adv-x="310" 
d="M213 159q0 -93 2 -121q18 0 40 1t26 1q9 0 9 -21t-9 -21q-5 0 -46.5 2.5t-71.5 2.5t-74 -2.5t-50 -2.5q-12 0 -12 22q0 20 12 20q9 0 35 -1t46 -1v356q-8 0 -41.5 -1t-39.5 -1q-12 0 -12 23q0 20 13 20q8 0 65 -0.5t99 -0.5q11 0 14 -3t3 -14q0 -14 -4 -101.5t-4 -156.5z
M186 681h80q27 0 7 -28q-17 -24 -89.5 -88.5t-90.5 -64.5q-10 0 -15.5 8.5t-0.5 14.5q17 21 51 73t38 66q5 19 20 19z" />
    <glyph glyph-name="icircumflex" unicode="&#xee;" horiz-adv-x="310" 
d="M213 159q0 -93 2 -121q18 0 40 1t26 1q9 0 9 -21t-9 -21q-5 0 -46.5 2.5t-71.5 2.5t-74 -2.5t-50 -2.5q-12 0 -12 22q0 20 12 20q9 0 35 -1t46 -1v356q-8 0 -41.5 -1t-39.5 -1q-12 0 -12 23q0 20 13 20q8 0 65 -0.5t99 -0.5q11 0 14 -3t3 -14q0 -14 -4 -101.5t-4 -156.5z
M135 622q-66 -90 -69 -100q-5 -19 -20 -19h-25q-13 0 -15 8t8 20l114 143q8 10 23 10t23 -10l112 -143q9 -12 7.5 -20t-14.5 -8h-67q-12 0 -19 16q0 2 -1 3q-28 62 -57 100z" />
    <glyph glyph-name="idieresis" unicode="&#xef;" horiz-adv-x="310" 
d="M213 159q0 -93 2 -121q18 0 40 1t26 1q9 0 9 -21t-9 -21q-5 0 -46.5 2.5t-71.5 2.5t-74 -2.5t-50 -2.5q-12 0 -12 22q0 20 12 20q9 0 35 -1t46 -1v356q-8 0 -41.5 -1t-39.5 -1q-12 0 -12 23q0 20 13 20q8 0 65 -0.5t99 -0.5q11 0 14 -3t3 -14q0 -14 -4 -101.5t-4 -156.5z
M248 664q22 0 37 -16t15 -39t-15 -39t-37 -16t-37 16t-15 39t15 39t37 16zM54 664q22 0 37 -16t15 -39t-15 -39t-37 -16t-37 16t-15 39t15 39t37 16z" />
    <glyph glyph-name="eth" unicode="&#xf0;" horiz-adv-x="586" 
d="M457 624q68 -109 68 -311q0 -80 -29 -154.5t-88 -125.5t-135 -51q-83 0 -144.5 70.5t-61.5 177.5q0 114 61 184t149 70q114 0 146 -102q-6 142 -40 222q-102 -28 -136 -39q-5 0 -11 12.5t-6 22.5q0 8 5 10q7 1 127 33q-42 65 -117 65q-27 0 -37.5 -12.5t-10.5 -40.5
q0 -20 -13.5 -31.5t-32.5 -11.5q-20 0 -36 14t-16 39q0 39 40 59.5t101 20.5q119 0 189 -83q28 8 53 16t40.5 13.5t17.5 6.5q17 0 17 -35q0 -9 -3 -11q-4 -1 -17 -4.5t-37 -11t-43 -12.5zM285 25q69 0 100.5 56.5t31.5 181.5q0 77 -33 129.5t-97 52.5q-58 0 -85.5 -48.5
t-27.5 -176.5q0 -99 23.5 -147t87.5 -48z" />
    <glyph glyph-name="ntilde" unicode="&#xf1;" horiz-adv-x="612" 
d="M120 38v356q-8 0 -41.5 -1t-39.5 -1q-12 0 -12 23q0 20 13 20q8 0 59 -0.5t93 -0.5q11 0 14 -3t3 -14v-100q29 72 80 104.5t106 32.5q61 0 92.5 -37.5t31.5 -101.5q0 -54 -1 -144t-1 -133q19 0 44 1t30 1q9 0 9 -21t-9 -21q-6 0 -51 2.5t-74 2.5q-30 0 -70.5 -2.5
t-45.5 -2.5q-12 0 -12 22q0 20 12 20q8 0 31 -1t42 -1v275q0 46 -13.5 70t-47.5 24q-61 0 -105 -63t-44 -121q0 -157 2 -185q18 0 40 1t26 1q9 0 9 -21t-9 -21q-5 0 -46.5 2.5t-71.5 2.5t-74 -2.5t-50 -2.5q-12 0 -12 22q0 20 12 20q9 0 35 -1t46 -1zM476 657
q-32 -118 -109 -118q-25 0 -44.5 11.5t-29.5 24.5t-24.5 24.5t-29.5 11.5q-42 0 -60 -60q-4 -6 -11 -6q-8 0 -17 9.5t-6 17.5q34 106 107 106q24 0 44 -11t31 -25t25.5 -25t28.5 -11q44 0 63 69q1 7 10 7q8 0 16 -8.5t6 -16.5z" />
    <glyph glyph-name="ograve" unicode="&#xf2;" horiz-adv-x="540" 
d="M270 454q105 0 167 -66.5t62 -169.5q0 -99 -67 -167.5t-162 -68.5q-99 0 -164 64t-65 172q0 97 67 166.5t162 69.5zM270 414q-58 0 -90 -43t-32 -154t32 -154.5t90 -43.5q59 0 90.5 43t31.5 155q0 111 -31.5 154t-90.5 43zM251 681q15 0 20 -19q4 -14 38 -66t51 -73
q5 -6 -0.5 -14.5t-15.5 -8.5q-18 0 -90.5 64.5t-89.5 88.5q-20 28 7 28h80z" />
    <glyph glyph-name="oacute" unicode="&#xf3;" horiz-adv-x="540" 
d="M270 454q105 0 167 -66.5t62 -169.5q0 -99 -67 -167.5t-162 -68.5q-99 0 -164 64t-65 172q0 97 67 166.5t162 69.5zM270 414q-58 0 -90 -43t-32 -154t32 -154.5t90 -43.5q59 0 90.5 43t31.5 155q0 111 -31.5 154t-90.5 43zM311 681h80q27 0 7 -28q-17 -24 -89.5 -88.5
t-90.5 -64.5q-10 0 -15.5 8.5t-0.5 14.5q17 21 51 73t38 66q5 19 20 19z" />
    <glyph glyph-name="ocircumflex" unicode="&#xf4;" horiz-adv-x="540" 
d="M270 454q105 0 167 -66.5t62 -169.5q0 -99 -67 -167.5t-162 -68.5q-99 0 -164 64t-65 172q0 97 67 166.5t162 69.5zM270 414q-58 0 -90 -43t-32 -154t32 -154.5t90 -43.5q59 0 90.5 43t31.5 155q0 111 -31.5 154t-90.5 43zM267 622q-66 -90 -69 -100q-5 -19 -20 -19h-25
q-13 0 -15 8t8 20l114 143q8 10 23 10t23 -10l112 -143q9 -12 7.5 -20t-14.5 -8h-67q-12 0 -19 16q0 2 -1 3q-28 62 -57 100z" />
    <glyph glyph-name="otilde" unicode="&#xf5;" horiz-adv-x="540" 
d="M270 454q105 0 167 -66.5t62 -169.5q0 -99 -67 -167.5t-162 -68.5q-99 0 -164 64t-65 172q0 97 67 166.5t162 69.5zM270 414q-58 0 -90 -43t-32 -154t32 -154.5t90 -43.5q59 0 90.5 43t31.5 155q0 111 -31.5 154t-90.5 43zM436 657q-32 -118 -109 -118q-25 0 -44.5 11.5
t-29.5 24.5t-24.5 24.5t-29.5 11.5q-42 0 -60 -60q-5 -6 -11 -6q-8 0 -17 9.5t-6 17.5q34 106 107 106q24 0 44 -11t31 -25t25.5 -25t28.5 -11q44 0 63 69q1 7 10 7q8 0 16 -8.5t6 -16.5z" />
    <glyph glyph-name="odieresis" unicode="&#xf6;" horiz-adv-x="540" 
d="M270 454q105 0 167 -66.5t62 -169.5q0 -99 -67 -167.5t-162 -68.5q-99 0 -164 64t-65 172q0 97 67 166.5t162 69.5zM270 414q-58 0 -90 -43t-32 -154t32 -154.5t90 -43.5q59 0 90.5 43t31.5 155q0 111 -31.5 154t-90.5 43zM173 664q22 0 37 -16t15 -39t-15 -39t-37 -16
t-37 16t-15 39t15 39t37 16zM367 664q22 0 37 -16t15 -39t-15 -39t-37 -16t-37 16t-15 39t15 39t37 16z" />
    <glyph glyph-name="divide" unicode="&#xf7;" horiz-adv-x="572" 
d="M527 246h-481q-15 0 -15 30q0 31 15 31h481q15 0 15 -30q0 -31 -15 -31zM289 173q29 0 49 -20.5t20 -48.5t-20 -48.5t-49 -20.5t-49 20.5t-20 48.5t20 48.5t49 20.5zM289 521q29 0 49 -20.5t20 -48.5t-20 -48.5t-49 -20.5t-49 20.5t-20 48.5t20 48.5t49 20.5z" />
    <glyph glyph-name="oslash" unicode="&#xf8;" horiz-adv-x="540" 
d="M140 18l-25 -30q-3 -5 -21 -5q-33 0 -33 12l43 53q-63 66 -63 170q0 97 67 166.5t162 69.5q76 0 132 -37l24 31q3 6 21 6q33 0 33 -12l-43 -54q62 -65 62 -170q0 -99 -67 -167.5t-162 -68.5q-74 0 -130 36zM382 319l-204 -254q29 -46 92 -46q59 0 90.5 43t31.5 155
q0 57 -10 102zM158 115l204 253q-29 46 -92 46q-58 0 -90 -43t-32 -154q0 -59 10 -102z" />
    <glyph glyph-name="ugrave" unicode="&#xf9;" horiz-adv-x="583" 
d="M486 38q10 0 36 1t32 1q12 0 12 -20q0 -24 -13 -24q-9 0 -51 2t-77 2q-15 0 -20.5 4.5t-5.5 18.5v93q-30 -71 -79.5 -102t-102.5 -31q-121 0 -121 140v271q-13 0 -39 -1t-32 -1q-8 0 -8 22q0 21 8 21q2 0 51.5 -0.5t96.5 -0.5q17 0 17 -14q0 -9 -2 -142t-2 -160
q0 -88 64 -88q57 0 101 60t44 129v176h-69q-8 0 -8 19q0 21 8 21q2 0 52 -0.5t98 -0.5q16 0 16 -15q0 -7 -1.5 -69t-3 -150.5t-1.5 -161.5zM248 681q15 0 20 -19q4 -14 38 -66t51 -73q5 -6 -0.5 -14.5t-15.5 -8.5q-18 0 -90.5 64.5t-89.5 88.5q-20 28 7 28h80z" />
    <glyph glyph-name="uacute" unicode="&#xfa;" horiz-adv-x="583" 
d="M486 38q10 0 36 1t32 1q12 0 12 -20q0 -24 -13 -24q-9 0 -51 2t-77 2q-15 0 -20.5 4.5t-5.5 18.5v93q-30 -71 -79.5 -102t-102.5 -31q-121 0 -121 140v271q-13 0 -39 -1t-32 -1q-8 0 -8 22q0 21 8 21q2 0 51.5 -0.5t96.5 -0.5q17 0 17 -14q0 -9 -2 -142t-2 -160
q0 -88 64 -88q57 0 101 60t44 129v176h-69q-8 0 -8 19q0 21 8 21q2 0 52 -0.5t98 -0.5q16 0 16 -15q0 -7 -1.5 -69t-3 -150.5t-1.5 -161.5zM332 681h80q27 0 7 -28q-17 -24 -89.5 -88.5t-90.5 -64.5q-10 0 -15.5 8.5t-0.5 14.5q17 21 51 73t38 66q5 19 20 19z" />
    <glyph glyph-name="ucircumflex" unicode="&#xfb;" horiz-adv-x="583" 
d="M486 38q10 0 36 1t32 1q12 0 12 -20q0 -24 -13 -24q-9 0 -51 2t-77 2q-15 0 -20.5 4.5t-5.5 18.5v93q-30 -71 -79.5 -102t-102.5 -31q-121 0 -121 140v271q-13 0 -39 -1t-32 -1q-8 0 -8 22q0 21 8 21q2 0 51.5 -0.5t96.5 -0.5q17 0 17 -14q0 -9 -2 -142t-2 -160
q0 -88 64 -88q57 0 101 60t44 129v176h-69q-8 0 -8 19q0 21 8 21q2 0 52 -0.5t98 -0.5q16 0 16 -15q0 -7 -1.5 -69t-3 -150.5t-1.5 -161.5zM268 622q-66 -90 -69 -100q-5 -19 -20 -19h-25q-13 0 -15 8t8 20l114 143q8 10 23 10t23 -10l112 -143q9 -12 7.5 -20t-14.5 -8h-67
q-12 0 -19 16q0 2 -1 3q-28 62 -57 100z" />
    <glyph glyph-name="udieresis" unicode="&#xfc;" horiz-adv-x="583" 
d="M486 38q10 0 36 1t32 1q12 0 12 -20q0 -24 -13 -24q-9 0 -51 2t-77 2q-15 0 -20.5 4.5t-5.5 18.5v93q-30 -71 -79.5 -102t-102.5 -31q-121 0 -121 140v271q-13 0 -39 -1t-32 -1q-8 0 -8 22q0 21 8 21q2 0 51.5 -0.5t96.5 -0.5q17 0 17 -14q0 -9 -2 -142t-2 -160
q0 -88 64 -88q57 0 101 60t44 129v176h-69q-8 0 -8 19q0 21 8 21q2 0 52 -0.5t98 -0.5q16 0 16 -15q0 -7 -1.5 -69t-3 -150.5t-1.5 -161.5zM388 664q22 0 37 -16t15 -39t-15 -39t-37 -16t-37 16t-15 39t15 39t37 16zM194 664q22 0 37 -16t15 -39t-15 -39t-37 -16t-37 16
t-15 39t15 39t37 16z" />
    <glyph glyph-name="yacute" unicode="&#xfd;" horiz-adv-x="467" 
d="M255 3q-65 -155 -105.5 -214.5t-96.5 -59.5q-23 0 -37.5 13.5t-14.5 38.5q0 23 13 37t35 14q19 0 31 -13t12 -33q21 1 62 83t52 123q-13 44 -69.5 194t-83.5 208q-6 0 -21 -1t-23 -1q-9 0 -9 21q0 22 9 22l28 -1h69h76l34 1q13 0 13 -23q0 -20 -13 -20q-3 0 -25.5 1
t-36.5 1q46 -106 104 -282q41 124 102 282q-8 0 -33 -1t-29 -1q-8 0 -8 23q0 20 8 20q5 0 32.5 -0.5t49.5 -0.5q21 0 49.5 0.5t33.5 0.5q12 0 12 -22q0 -21 -12 -21q-2 0 -19.5 1t-30.5 1q-14 -27 -45.5 -105.5l-67.5 -170.5zM310 681h80q27 0 7 -28q-17 -24 -89.5 -88.5
t-90.5 -64.5q-10 0 -15.5 8.5t-0.5 14.5q17 21 51 73t38 66q5 19 20 19z" />
    <glyph glyph-name="thorn" unicode="&#xfe;" horiz-adv-x="582" 
d="M200 -223q18 0 57 1t44 1q8 0 8 -21t-8 -21q-6 0 -64.5 2t-88.5 2q-29 0 -73 -2t-50 -2q-12 0 -12 22q0 20 12 20q9 0 34.5 -1t43.5 -1q6 130 6 302q0 67 -1 253t-1 356q-10 0 -43 -1.5t-38 -1.5q-12 0 -12 22q0 28 13 28q15 0 88.5 -1.5t80.5 -1.5q11 0 14 -4t3 -19
q0 -57 -7 -171.5t-7 -171.5q47 88 149 88q88 0 140 -66t52 -165q0 -102 -55 -170t-141 -68q-94 0 -144 77v-285zM320 409q-53 0 -86.5 -38.5t-33.5 -80.5q0 -11 1 -62.5t1 -79.5q0 -53 39 -85.5t85 -32.5q50 0 77.5 51t27.5 140q0 98 -27 143t-84 45z" />
    <glyph glyph-name="ydieresis" unicode="&#xff;" horiz-adv-x="467" 
d="M255 3q-65 -155 -105.5 -214.5t-96.5 -59.5q-23 0 -37.5 13.5t-14.5 38.5q0 23 13 37t35 14q19 0 31 -13t12 -33q21 1 62 83t52 123q-13 44 -69.5 194t-83.5 208q-6 0 -21 -1t-23 -1q-9 0 -9 21q0 22 9 22l28 -1h69h76l34 1q13 0 13 -23q0 -20 -13 -20q-3 0 -25.5 1
t-36.5 1q46 -106 104 -282q41 124 102 282q-8 0 -33 -1t-29 -1q-8 0 -8 23q0 20 8 20q5 0 32.5 -0.5t49.5 -0.5q21 0 49.5 0.5t33.5 0.5q12 0 12 -22q0 -21 -12 -21q-2 0 -19.5 1t-30.5 1q-14 -27 -45.5 -105.5l-67.5 -170.5zM334 664q22 0 37 -16t15 -39t-15 -39t-37 -16
t-37 16t-15 39t15 39t37 16zM140 664q22 0 37 -16t15 -39t-15 -39t-37 -16t-37 16t-15 39t15 39t37 16z" />
    <glyph glyph-name="Amacron" unicode="&#x100;" horiz-adv-x="751" 
d="M655 47q18 0 48 1.5t37 1.5q4 0 7.5 -9t3.5 -18q0 -25 -11 -25q-7 0 -73 3t-102 3t-89.5 -3t-60.5 -3q-15 0 -15 26t15 26q11 0 45 -1.5t55 -1.5q-7 26 -37 112t-38 112h-213q-39 -115 -89 -222q7 0 54.5 0.5t56.5 0.5q11 0 11 -27q0 -25 -11 -25q-7 0 -45 3t-75 3
t-72 -3t-41 -3q-7 0 -11.5 8t-4.5 18q0 26 16 26q14 0 35.5 -1.5t24.5 -1.5q30 50 111.5 267.5l150.5 416.5q3 11 9.5 14t20.5 3q19 0 23 -15q13 -49 117.5 -327.5t146.5 -358.5zM335 567q-56 -167 -94 -259h186q-22 51 -52 135.5t-40 123.5zM353 879q22 0 74 2.5t60 2.5
q18 0 23.5 -6t5.5 -28q0 -35 -27 -35q-9 0 -61 0.5t-75 0.5t-60 -0.5t-44 -0.5q-15 0 -15 36q0 29 15 29q10 0 44 -0.5t60 -0.5z" />
    <glyph glyph-name="amacron" unicode="&#x101;" horiz-adv-x="517" 
d="M79 346q0 45 45.5 76.5t123.5 31.5q172 0 172 -175q0 -22 -1.5 -88.5t-1.5 -102.5q0 -51 36 -51q12 0 25.5 1.5t17.5 1.5q9 0 9 -21t-11 -21q-6 0 -32.5 -2.5t-39.5 -2.5q-47 0 -65 17.5t-30 59.5q-17 -35 -58.5 -58.5t-93.5 -23.5q-56 0 -90 32t-34 97q0 95 114 122
q56 14 160 21q0 90 -13 122.5t-66 32.5q-43 0 -61.5 -17.5t-18.5 -52.5q0 -20 -12.5 -30.5t-31.5 -10.5q-43 0 -43 42zM325 231q-16 -3 -48.5 -8t-55.5 -10q-40 -8 -55.5 -28t-15.5 -63q0 -46 16 -64.5t46 -18.5q42 0 78.5 32t36.5 81q0 47 -2 79zM237 617q20 0 67.5 2.5
t54.5 2.5q16 0 21 -6.5t5 -30.5q0 -38 -24 -38q-8 0 -55.5 1t-68.5 1q-20 0 -54 -1t-40 -1q-14 0 -14 40q0 31 14 31q9 0 39.5 -0.5t54.5 -0.5z" />
    <glyph glyph-name="Abreve" unicode="&#x102;" horiz-adv-x="751" 
d="M655 47q18 0 48 1.5t37 1.5q4 0 7.5 -9t3.5 -18q0 -25 -11 -25q-7 0 -73 3t-102 3t-89.5 -3t-60.5 -3q-15 0 -15 26t15 26q11 0 45 -1.5t55 -1.5q-7 26 -37 112t-38 112h-213q-39 -115 -89 -222q7 0 54.5 0.5t56.5 0.5q11 0 11 -27q0 -25 -11 -25q-7 0 -45 3t-75 3
t-72 -3t-41 -3q-7 0 -11.5 8t-4.5 18q0 26 16 26q14 0 35.5 -1.5t24.5 -1.5q30 50 111.5 267.5l150.5 416.5q3 11 9.5 14t20.5 3q19 0 23 -15q13 -49 117.5 -327.5t146.5 -358.5zM335 567q-56 -167 -94 -259h186q-22 51 -52 135.5t-40 123.5zM508 925q0 -63 -39.5 -105
t-104.5 -42q-66 0 -105.5 41.5t-39.5 105.5q0 13 28 13q18 0 18 -10q0 -40 27 -63t72 -23q48 0 73 23.5t25 62.5q0 10 20 10q26 0 26 -13z" />
    <glyph glyph-name="abreve" unicode="&#x103;" horiz-adv-x="517" 
d="M79 346q0 45 45.5 76.5t123.5 31.5q172 0 172 -175q0 -22 -1.5 -88.5t-1.5 -102.5q0 -51 36 -51q12 0 25.5 1.5t17.5 1.5q9 0 9 -21t-11 -21q-6 0 -32.5 -2.5t-39.5 -2.5q-47 0 -65 17.5t-30 59.5q-17 -35 -58.5 -58.5t-93.5 -23.5q-56 0 -90 32t-34 97q0 95 114 122
q56 14 160 21q0 90 -13 122.5t-66 32.5q-43 0 -61.5 -17.5t-18.5 -52.5q0 -20 -12.5 -30.5t-31.5 -10.5q-43 0 -43 42zM325 231q-16 -3 -48.5 -8t-55.5 -10q-40 -8 -55.5 -28t-15.5 -63q0 -46 16 -64.5t46 -18.5q42 0 78.5 32t36.5 81q0 47 -2 79zM374 667q0 -69 -36 -114.5
t-95 -45.5q-60 0 -96 45.5t-36 114.5q0 14 25 14q17 0 17 -11q0 -43 24.5 -68t65.5 -25q44 0 66.5 25.5t22.5 67.5q0 11 18 11q24 0 24 -14z" />
    <glyph glyph-name="Aogonek" unicode="&#x104;" horiz-adv-x="751" 
d="M655 47q18 0 48 1.5t37 1.5q4 0 7.5 -9t3.5 -18q0 -25 -11 -25q-7 0 -73 3t-102 3t-89.5 -3t-60.5 -3q-15 0 -15 26t15 26q11 0 45 -1.5t55 -1.5q-7 26 -37 112t-38 112h-213q-39 -115 -89 -222q7 0 54.5 0.5t56.5 0.5q11 0 11 -27q0 -25 -11 -25q-7 0 -45 3t-75 3
t-72 -3t-41 -3q-7 0 -11.5 8t-4.5 18q0 26 16 26q14 0 35.5 -1.5t24.5 -1.5q30 50 111.5 267.5l150.5 416.5q3 11 9.5 14t20.5 3q19 0 23 -15q13 -49 117.5 -327.5t146.5 -358.5zM335 567q-56 -167 -94 -259h186q-22 51 -52 135.5t-40 123.5zM608 0h37q-50 -21 -69 -48.5
t-19 -79.5q0 -43 15 -61t47 -18t52 14q4 2 5 2q7 0 13 -8.5t6 -16.5q0 -7 -4 -10q-26 -24 -76 -24q-62 0 -96.5 29.5t-34.5 88.5q0 57 43 94.5t81 37.5z" />
    <glyph glyph-name="aogonek" unicode="&#x105;" horiz-adv-x="517" 
d="M79 346q0 45 45.5 76.5t123.5 31.5q172 0 172 -175q0 -22 -1.5 -88.5t-1.5 -102.5q0 -51 36 -51q12 0 25.5 1.5t17.5 1.5q9 0 9 -21t-11 -21q-6 0 -32 -2.5t-39 -2.5q-40 -19 -56 -46t-16 -75q0 -43 15 -61t47 -18t52 14q4 2 5 2q7 0 13 -8.5t6 -16.5q0 -7 -4 -10
q-26 -24 -76 -24q-62 0 -96.5 29.5t-34.5 88.5q0 49 33 84t71 46q-24 6 -35.5 23t-19.5 49q-17 -35 -58.5 -58.5t-93.5 -23.5q-56 0 -90 32t-34 97q0 95 114 122q56 14 160 21q0 90 -13 122.5t-66 32.5q-43 0 -61.5 -17.5t-18.5 -52.5q0 -20 -12.5 -30.5t-31.5 -10.5
q-43 0 -43 42zM325 231q-16 -3 -48.5 -8t-55.5 -10q-40 -8 -55.5 -28t-15.5 -63q0 -46 16 -64.5t46 -18.5q42 0 78.5 32t36.5 81q0 47 -2 79z" />
    <glyph glyph-name="Cacute" unicode="&#x106;" horiz-adv-x="771" 
d="M425 26q74 0 138 56t101 168q5 8 15 8q18 0 18 -10q0 -9 -3 -86.5t-3 -90.5q0 -31 -79 -60t-191 -29q-166 0 -267.5 106t-101.5 277q0 78 23.5 146t69 121.5t119.5 84t168 30.5q116 0 183.5 -26.5t67.5 -57.5q0 -13 1.5 -77t1.5 -73t-18 -9q-16 0 -20 7
q-48 114 -95.5 153t-122.5 39q-246 0 -246 -342q0 -335 241 -335zM475 938h75q29 0 8 -26q-21 -24 -93.5 -82.5t-91.5 -58.5q-11 0 -17 8t-1 14q19 20 56.5 67.5t41.5 59.5q5 18 22 18z" />
    <glyph glyph-name="cacute" unicode="&#x107;" horiz-adv-x="476" 
d="M437 127q0 -49 -47 -97t-124 -48q-105 0 -165 63t-60 175q0 98 62 166t168 68q74 0 121.5 -37t47.5 -85q0 -26 -16 -39t-40 -13q-41 0 -41 51q0 80 -80 80q-58 0 -87 -42.5t-29 -152.5q0 -108 34.5 -149t94.5 -41q46 0 80.5 30t42.5 76q1 8 12 8q26 0 26 -13zM306 681h80
q27 0 7 -28q-17 -24 -89.5 -88.5t-90.5 -64.5q-10 0 -15.5 8.5t-0.5 14.5q17 21 51 73t38 66q5 19 20 19z" />
    <glyph glyph-name="Ccircumflex" unicode="&#x108;" horiz-adv-x="771" 
d="M425 26q74 0 138 56t101 168q5 8 15 8q18 0 18 -10q0 -9 -3 -86.5t-3 -90.5q0 -31 -79 -60t-191 -29q-166 0 -267.5 106t-101.5 277q0 78 23.5 146t69 121.5t119.5 84t168 30.5q116 0 183.5 -26.5t67.5 -57.5q0 -13 1.5 -77t1.5 -73t-18 -9q-16 0 -20 7
q-48 114 -95.5 153t-122.5 39q-246 0 -246 -342q0 -335 241 -335zM414 884q-73 -83 -76 -92q-5 -18 -22 -18h-27q-14 0 -16.5 7.5t8.5 18.5l125 131q9 10 26 10q16 0 25 -10l123 -131q10 -11 8 -18.5t-16 -7.5h-73q-3 0 -5.5 0.5t-4.5 1.5t-3.5 1.5t-3 3t-1.5 3.5t-2 4t-2 4
q-36 62 -63 92z" />
    <glyph glyph-name="ccircumflex" unicode="&#x109;" horiz-adv-x="476" 
d="M437 127q0 -49 -47 -97t-124 -48q-105 0 -165 63t-60 175q0 98 62 166t168 68q74 0 121.5 -37t47.5 -85q0 -26 -16 -39t-40 -13q-41 0 -41 51q0 80 -80 80q-58 0 -87 -42.5t-29 -152.5q0 -108 34.5 -149t94.5 -41q46 0 80.5 30t42.5 76q1 8 12 8q26 0 26 -13zM242 622
q-66 -90 -69 -100q-5 -19 -20 -19h-25q-13 0 -15 8t8 20l114 143q8 10 23 10t23 -10l112 -143q9 -12 7.5 -20t-14.5 -8h-67q-12 0 -19 16q0 2 -1 3q-28 62 -57 100z" />
    <glyph glyph-name="Cdotaccent" unicode="&#x10a;" horiz-adv-x="771" 
d="M425 26q74 0 138 56t101 168q5 8 15 8q18 0 18 -10q0 -9 -3 -86.5t-3 -90.5q0 -31 -79 -60t-191 -29q-166 0 -267.5 106t-101.5 277q0 78 23.5 146t69 121.5t119.5 84t168 30.5q116 0 183.5 -26.5t67.5 -57.5q0 -13 1.5 -77t1.5 -73t-18 -9q-16 0 -20 7
q-48 114 -95.5 153t-122.5 39q-246 0 -246 -342q0 -335 241 -335zM430 902q26 0 45 -17t19 -41t-19 -41t-45 -17t-45 17t-19 41t19 41t45 17z" />
    <glyph glyph-name="cdotaccent" unicode="&#x10b;" horiz-adv-x="476" 
d="M437 127q0 -49 -47 -97t-124 -48q-105 0 -165 63t-60 175q0 98 62 166t168 68q74 0 121.5 -37t47.5 -85q0 -26 -16 -39t-40 -13q-41 0 -41 51q0 80 -80 80q-58 0 -87 -42.5t-29 -152.5q0 -108 34.5 -149t94.5 -41q46 0 80.5 30t42.5 76q1 8 12 8q26 0 26 -13zM261 683
q26 0 44 -18t18 -44t-18 -45t-44 -19t-44.5 19t-18.5 45q0 25 18.5 43.5t44.5 18.5z" />
    <glyph glyph-name="Ccaron" unicode="&#x10c;" horiz-adv-x="771" 
d="M425 26q74 0 138 56t101 168q5 8 15 8q18 0 18 -10q0 -9 -3 -86.5t-3 -90.5q0 -31 -79 -60t-191 -29q-166 0 -267.5 106t-101.5 277q0 78 23.5 146t69 121.5t119.5 84t168 30.5q116 0 183.5 -26.5t67.5 -57.5q0 -13 1.5 -77t1.5 -73t-18 -9q-16 0 -20 7
q-48 114 -95.5 153t-122.5 39q-246 0 -246 -342q0 -335 241 -335zM441 828q71 80 76 92q5 18 22 18h27q14 0 16.5 -7.5t-8.5 -18.5l-125 -131q-9 -10 -26 -10q-16 0 -25 10l-123 131q-10 11 -8 18.5t16 7.5h73q5 0 8.5 -1t6.5 -4.5t3.5 -4.5t3.5 -8q30 -55 63 -92z" />
    <glyph glyph-name="ccaron" unicode="&#x10d;" horiz-adv-x="476" 
d="M437 127q0 -49 -47 -97t-124 -48q-105 0 -165 63t-60 175q0 98 62 166t168 68q74 0 121.5 -37t47.5 -85q0 -26 -16 -39t-40 -13q-41 0 -41 51q0 80 -80 80q-58 0 -87 -42.5t-29 -152.5q0 -108 34.5 -149t94.5 -41q46 0 80.5 30t42.5 76q1 8 12 8q26 0 26 -13zM270 562
q66 90 69 100q5 19 20 19h25q13 0 15 -8t-8 -20l-114 -143q-8 -10 -23 -10t-23 10l-112 143q-9 12 -7.5 20t14.5 8h67q12 0 19 -16q0 -2 1 -3q28 -62 57 -100z" />
    <glyph glyph-name="Dcaron" unicode="&#x10e;" horiz-adv-x="855" 
d="M197 2q-42 0 -87.5 -2t-49.5 -2q-12 0 -12 26q0 27 12 27q9 0 42 -1t51 -1v633q-10 0 -48 -1.5t-44 -1.5q-12 0 -12 26q0 28 13 28l58 -3q59 -3 97 -3h199q195 0 289 -93.5t94 -258.5q0 -184 -110.5 -280.5t-316.5 -96.5q-41 0 -97 2t-78 2zM667 378q0 92 -20.5 154
t-61 94.5t-89 45t-116.5 12.5q-46 0 -104 -5q-12 -93 -12 -439q0 -46 0.5 -87.5t1 -65t0.5 -26.5q0 -19 94 -19q75 0 128.5 15t95.5 51.5t62.5 103.5t20.5 166zM410 828q71 80 76 92q5 18 22 18h27q14 0 16.5 -7.5t-8.5 -18.5l-125 -131q-9 -10 -26 -10q-16 0 -25 10
l-123 131q-10 11 -8 18.5t16 7.5h73q5 0 8.5 -1t6.5 -4.5t3.5 -4.5t3.5 -8q30 -55 63 -92z" />
    <glyph glyph-name="dcaron" unicode="&#x10f;" horiz-adv-x="567" 
d="M468 38q7 0 35.5 1t35.5 1q12 0 12 -22q0 -20 -10 -20q-5 0 -51 2.5t-79 2.5q-31 0 -31 33v34q-51 -85 -149 -85q-88 0 -140 66t-52 170q0 100 54.5 166.5t145.5 66.5q48 0 78 -17.5t56 -54.5v292q0 13 -8 13q-9 0 -54 -1.5t-50 -1.5q-13 0 -13 26t14 26q15 0 104.5 -1.5
t96.5 -1.5q10 0 13 -4t3 -19q0 -3 -3.5 -72t-6.5 -180.5t-3 -215.5q0 -153 2 -204zM257 30q53 0 85 36t32 77q0 12 -0.5 70t-0.5 86q0 48 -33 79t-77 31q-59 0 -87.5 -45t-28.5 -145q0 -102 28 -145.5t82 -43.5zM554 733h48q27 0 19 -28q-7 -27 -43 -90t-53 -63
q-10 0 -15.5 8.5t-0.5 14.5q12 16 18.5 64t6.5 75q0 19 20 19z" />
    <glyph glyph-name="Dmacron" unicode="&#x110;" horiz-adv-x="855" 
d="M197 2q-42 0 -87.5 -2t-49.5 -2q-12 0 -12 26q0 27 12 27q9 0 42 -1t51 -1v633q-10 0 -48 -1.5t-44 -1.5q-12 0 -12 26q0 28 13 28l58 -3q59 -3 97 -3h199q195 0 289 -93.5t94 -258.5q0 -184 -110.5 -280.5t-316.5 -96.5q-41 0 -97 2t-78 2zM667 378q0 92 -20.5 154
t-61 94.5t-89 45t-116.5 12.5q-46 0 -104 -5q-12 -93 -12 -439q0 -46 0.5 -87.5t1 -65t0.5 -26.5q0 -19 94 -19q75 0 128.5 15t95.5 51.5t62.5 103.5t20.5 166zM384 879q22 0 74 2.5t60 2.5q18 0 23.5 -6t5.5 -28q0 -35 -27 -35q-9 0 -61 0.5t-75 0.5t-60 -0.5t-44 -0.5
q-15 0 -15 36q0 29 15 29q10 0 44 -0.5t60 -0.5z" />
    <glyph glyph-name="dmacron" unicode="&#x111;" horiz-adv-x="567" 
d="M468 38q7 0 35.5 1t35.5 1q12 0 12 -22q0 -20 -10 -20q-5 0 -51 2.5t-79 2.5q-31 0 -31 33v34q-51 -85 -149 -85q-88 0 -140 66t-52 170q0 100 54.5 166.5t145.5 66.5q48 0 78 -17.5t56 -54.5v178q-23 0 -59.5 -1t-43.5 -1q-17 0 -17 29q0 23 17 23q10 0 43.5 -0.5
t59.5 -0.5v65q0 13 -8 13q-9 0 -54 -1.5t-50 -1.5q-13 0 -13 26t14 26q15 0 104.5 -1.5t96.5 -1.5q10 0 13 -4t3 -19q0 -3 -0.5 -15.5l-1.5 -36.5l-2 -47q42 2 48 2q19 0 24.5 -4.5t5.5 -22.5q0 -28 -28 -28q-30 0 -53 1q-6 -170 -6 -317q0 -153 2 -204zM257 30q53 0 85 36
t32 77q0 12 -0.5 70t-0.5 86q0 48 -33 79t-77 31q-59 0 -87.5 -45t-28.5 -145q0 -102 28 -145.5t82 -43.5z" />
    <glyph glyph-name="Emacron" unicode="&#x112;" horiz-adv-x="788" 
d="M266 46q12 0 58.5 -0.5t85.5 -1t105 0.5q84 1 124.5 47.5t51.5 149.5q1 15 19 15q7 0 14.5 -3.5t7.5 -6.5q0 -23 -1 -77.5t-1.5 -101t-0.5 -49.5q0 -26 -42 -26q-11 0 -212.5 5t-256.5 5q-41 0 -97.5 -2.5t-60.5 -2.5q-12 0 -12 26q0 27 12 27q9 0 42 -1t51 -1v633
q-10 0 -48 -1.5t-44 -1.5q-12 0 -12 26q0 28 13 28l58 -3q59 -3 97 -3q29 0 141.5 1.5t213.5 2.5t103 1q14 0 14 -24q0 -2 -0.5 -77.5t-0.5 -111.5q0 -13 -19 -13q-18 0 -21 12q-9 52 -45.5 104.5t-75.5 55.5q-51 7 -251 7q-9 -92 -11 -284q103 0 136 3q29 19 48 61t19 75
q0 15 18 15q24 0 24 -18q0 -11 -3.5 -69.5t-3.5 -91.5q0 -30 3.5 -86t3.5 -80q0 -13 -24 -13q-18 0 -18 10q0 23 -21.5 78.5t-43.5 73.5q-31 4 -138 4q-1 -39 -1 -123q0 -46 0.5 -91t1 -72.5t0.5 -30.5zM384 879q22 0 74 2.5t60 2.5q18 0 23.5 -6t5.5 -28q0 -35 -27 -35
q-9 0 -61 0.5t-75 0.5t-60 -0.5t-44 -0.5q-15 0 -15 36q0 29 15 29q10 0 44 -0.5t60 -0.5z" />
    <glyph glyph-name="emacron" unicode="&#x113;" horiz-adv-x="492" 
d="M146 230q0 -105 29 -154.5t91 -49.5q56 0 91.5 26t43.5 73q1 8 11 8q28 0 28 -11q0 -48 -47 -94t-138 -46t-152.5 62.5t-61.5 173.5q0 97 59.5 166.5t154.5 69.5q92 0 142 -54t50 -142q0 -18 -35 -23t-163 -5h-103zM148 266h97q76 0 101 5q0 79 -19.5 111t-72.5 32
q-50 0 -74.5 -33.5t-31.5 -114.5zM239 617q20 0 67.5 2.5t54.5 2.5q16 0 21 -6.5t5 -30.5q0 -38 -24 -38q-8 0 -55.5 1t-68.5 1q-20 0 -54 -1t-40 -1q-14 0 -14 40q0 31 14 31q9 0 39.5 -0.5t54.5 -0.5z" />
    <glyph glyph-name="Ebreve" unicode="&#x114;" horiz-adv-x="788" 
d="M266 46q12 0 58.5 -0.5t85.5 -1t105 0.5q84 1 124.5 47.5t51.5 149.5q1 15 19 15q7 0 14.5 -3.5t7.5 -6.5q0 -23 -1 -77.5t-1.5 -101t-0.5 -49.5q0 -26 -42 -26q-11 0 -212.5 5t-256.5 5q-41 0 -97.5 -2.5t-60.5 -2.5q-12 0 -12 26q0 27 12 27q9 0 42 -1t51 -1v633
q-10 0 -48 -1.5t-44 -1.5q-12 0 -12 26q0 28 13 28l58 -3q59 -3 97 -3q29 0 141.5 1.5t213.5 2.5t103 1q14 0 14 -24q0 -2 -0.5 -77.5t-0.5 -111.5q0 -13 -19 -13q-18 0 -21 12q-9 52 -45.5 104.5t-75.5 55.5q-51 7 -251 7q-9 -92 -11 -284q103 0 136 3q29 19 48 61t19 75
q0 15 18 15q24 0 24 -18q0 -11 -3.5 -69.5t-3.5 -91.5q0 -30 3.5 -86t3.5 -80q0 -13 -24 -13q-18 0 -18 10q0 23 -21.5 78.5t-43.5 73.5q-31 4 -138 4q-1 -39 -1 -123q0 -46 0.5 -91t1 -72.5t0.5 -30.5zM555 925q0 -63 -39.5 -105t-104.5 -42q-66 0 -105.5 41.5t-39.5 105.5
q0 13 28 13q18 0 18 -10q0 -40 27 -63t72 -23q48 0 73 23.5t25 62.5q0 10 20 10q26 0 26 -13z" />
    <glyph glyph-name="ebreve" unicode="&#x115;" horiz-adv-x="492" 
d="M146 230q0 -105 29 -154.5t91 -49.5q56 0 91.5 26t43.5 73q1 8 11 8q28 0 28 -11q0 -48 -47 -94t-138 -46t-152.5 62.5t-61.5 173.5q0 97 59.5 166.5t154.5 69.5q92 0 142 -54t50 -142q0 -18 -35 -23t-163 -5h-103zM148 266h97q76 0 101 5q0 79 -19.5 111t-72.5 32
q-50 0 -74.5 -33.5t-31.5 -114.5zM386 667q0 -69 -36 -114.5t-95 -45.5q-60 0 -96 45.5t-36 114.5q0 14 25 14q17 0 17 -11q0 -43 24.5 -68t65.5 -25q44 0 66.5 25.5t22.5 67.5q0 11 18 11q24 0 24 -14z" />
    <glyph glyph-name="Edotaccent" unicode="&#x116;" horiz-adv-x="788" 
d="M266 46q12 0 58.5 -0.5t85.5 -1t105 0.5q84 1 124.5 47.5t51.5 149.5q1 15 19 15q7 0 14.5 -3.5t7.5 -6.5q0 -23 -1 -77.5t-1.5 -101t-0.5 -49.5q0 -26 -42 -26q-11 0 -212.5 5t-256.5 5q-41 0 -97.5 -2.5t-60.5 -2.5q-12 0 -12 26q0 27 12 27q9 0 42 -1t51 -1v633
q-10 0 -48 -1.5t-44 -1.5q-12 0 -12 26q0 28 13 28l58 -3q59 -3 97 -3q29 0 141.5 1.5t213.5 2.5t103 1q14 0 14 -24q0 -2 -0.5 -77.5t-0.5 -111.5q0 -13 -19 -13q-18 0 -21 12q-9 52 -45.5 104.5t-75.5 55.5q-51 7 -251 7q-9 -92 -11 -284q103 0 136 3q29 19 48 61t19 75
q0 15 18 15q24 0 24 -18q0 -11 -3.5 -69.5t-3.5 -91.5q0 -30 3.5 -86t3.5 -80q0 -13 -24 -13q-18 0 -18 10q0 23 -21.5 78.5t-43.5 73.5q-31 4 -138 4q-1 -39 -1 -123q0 -46 0.5 -91t1 -72.5t0.5 -30.5zM403 917q26 0 45 -17t19 -41t-19 -41t-45 -17t-45 17t-19 41t19 41
t45 17z" />
    <glyph glyph-name="edotaccent" unicode="&#x117;" horiz-adv-x="492" 
d="M146 230q0 -105 29 -154.5t91 -49.5q56 0 91.5 26t43.5 73q1 8 11 8q28 0 28 -11q0 -48 -47 -94t-138 -46t-152.5 62.5t-61.5 173.5q0 97 59.5 166.5t154.5 69.5q92 0 142 -54t50 -142q0 -18 -35 -23t-163 -5h-103zM148 266h97q76 0 101 5q0 79 -19.5 111t-72.5 32
q-50 0 -74.5 -33.5t-31.5 -114.5zM260 683q26 0 44 -18t18 -44t-18 -45t-44 -19t-44.5 19t-18.5 45q0 25 18.5 43.5t44.5 18.5z" />
    <glyph glyph-name="Eogonek" unicode="&#x118;" horiz-adv-x="788" 
d="M266 46q12 0 58.5 -0.5t85.5 -1t105 0.5q84 1 124.5 47.5t51.5 149.5q1 15 19 15q7 0 14.5 -3.5t7.5 -6.5q0 -23 -1 -77.5t-1.5 -101t-0.5 -49.5q0 -26 -42 -26q-4 0 -14 0.5t-28.5 1t-33.5 0.5q-43 -20 -59 -46.5t-16 -76.5q0 -43 15 -61t47 -18t52 14q4 2 5 2
q7 0 13 -8.5t6 -16.5q0 -7 -4 -10q-26 -24 -76 -24q-62 0 -96.5 29.5t-34.5 88.5q0 47 30.5 81.5t68.5 46.5q-275 7 -344 7q-41 0 -97.5 -2.5t-60.5 -2.5q-12 0 -12 26q0 27 12 27q9 0 42 -1t51 -1v633q-10 0 -48 -1.5t-44 -1.5q-12 0 -12 26q0 28 13 28l58 -3q59 -3 97 -3
q29 0 141.5 1.5t213.5 2.5t103 1q14 0 14 -24q0 -2 -0.5 -77.5t-0.5 -111.5q0 -13 -19 -13q-18 0 -21 12q-9 52 -45.5 104.5t-75.5 55.5q-51 7 -251 7q-9 -92 -11 -284q103 0 136 3q29 19 48 61t19 75q0 15 18 15q24 0 24 -18q0 -11 -3.5 -69.5t-3.5 -91.5q0 -30 3.5 -86
t3.5 -80q0 -13 -24 -13q-18 0 -18 10q0 23 -21.5 78.5t-43.5 73.5q-31 4 -138 4q-1 -39 -1 -123q0 -46 0.5 -91t1 -72.5t0.5 -30.5z" />
    <glyph glyph-name="eogonek" unicode="&#x119;" horiz-adv-x="492" 
d="M146 230q0 -105 29 -154.5t91 -49.5q56 0 91.5 26t43.5 73q1 8 11 8q28 0 28 -11q0 -42 -38 -85.5t-113 -52.5q-37 -19 -51.5 -45t-14.5 -73q0 -43 15 -61t47 -18t52 14q4 2 5 2q7 0 13 -8.5t6 -16.5q0 -7 -4 -10q-26 -24 -76 -24q-62 0 -96.5 29.5t-34.5 88.5
q0 42 24.5 74t57.5 47q-83 8 -137 69.5t-54 165.5q0 97 59.5 166.5t154.5 69.5q92 0 142 -54t50 -142q0 -18 -35 -23t-163 -5h-103zM148 266h97q76 0 101 5q0 79 -19.5 111t-72.5 32q-50 0 -74.5 -33.5t-31.5 -114.5z" />
    <glyph glyph-name="Ecaron" unicode="&#x11a;" horiz-adv-x="788" 
d="M266 46q12 0 58.5 -0.5t85.5 -1t105 0.5q84 1 124.5 47.5t51.5 149.5q1 15 19 15q7 0 14.5 -3.5t7.5 -6.5q0 -23 -1 -77.5t-1.5 -101t-0.5 -49.5q0 -26 -42 -26q-11 0 -212.5 5t-256.5 5q-41 0 -97.5 -2.5t-60.5 -2.5q-12 0 -12 26q0 27 12 27q9 0 42 -1t51 -1v633
q-10 0 -48 -1.5t-44 -1.5q-12 0 -12 26q0 28 13 28l58 -3q59 -3 97 -3q29 0 141.5 1.5t213.5 2.5t103 1q14 0 14 -24q0 -2 -0.5 -77.5t-0.5 -111.5q0 -13 -19 -13q-18 0 -21 12q-9 52 -45.5 104.5t-75.5 55.5q-51 7 -251 7q-9 -92 -11 -284q103 0 136 3q29 19 48 61t19 75
q0 15 18 15q24 0 24 -18q0 -11 -3.5 -69.5t-3.5 -91.5q0 -30 3.5 -86t3.5 -80q0 -13 -24 -13q-18 0 -18 10q0 23 -21.5 78.5t-43.5 73.5q-31 4 -138 4q-1 -39 -1 -123q0 -46 0.5 -91t1 -72.5t0.5 -30.5zM415 828q71 80 76 92q5 18 22 18h27q14 0 16.5 -7.5t-8.5 -18.5
l-125 -131q-9 -10 -26 -10q-16 0 -25 10l-123 131q-10 11 -8 18.5t16 7.5h73q5 0 8.5 -1t6.5 -4.5t3.5 -4.5t3.5 -8q30 -55 63 -92z" />
    <glyph glyph-name="ecaron" unicode="&#x11b;" horiz-adv-x="492" 
d="M146 230q0 -105 29 -154.5t91 -49.5q56 0 91.5 26t43.5 73q1 8 11 8q28 0 28 -11q0 -48 -47 -94t-138 -46t-152.5 62.5t-61.5 173.5q0 97 59.5 166.5t154.5 69.5q92 0 142 -54t50 -142q0 -18 -35 -23t-163 -5h-103zM148 266h97q76 0 101 5q0 79 -19.5 111t-72.5 32
q-50 0 -74.5 -33.5t-31.5 -114.5zM273 562q66 90 69 100q5 19 20 19h25q13 0 15 -8t-8 -20l-114 -143q-8 -10 -23 -10t-23 10l-112 143q-9 12 -7.5 20t14.5 8h67q12 0 19 -16q0 -2 1 -3q28 -62 57 -100z" />
    <glyph glyph-name="Gcircumflex" unicode="&#x11c;" horiz-adv-x="845" 
d="M725 318v-245q-68 -43 -152.5 -67t-156.5 -24q-160 0 -262 106.5t-102 276.5q0 78 24 146t70.5 121t121 84t168.5 31q117 0 189.5 -26.5t72.5 -57.5q0 -13 1.5 -76.5t1.5 -72.5q0 -11 -18 -11q-16 0 -20 8q-48 112 -100 152t-129 40q-119 0 -184.5 -84t-65.5 -258
q0 -166 61 -252t171 -86q83 0 131.5 32.5t54.5 82.5q4 34 4 180q-26 0 -87.5 -0.5t-63.5 -0.5q-13 0 -13 24q0 23 14 23q4 0 78.5 -4t122.5 -4q40 0 94.5 2t55.5 2q13 0 13 -22q0 -23 -12 -23q-6 0 -40 1.5t-43 1.5zM420 884q-73 -83 -76 -92q-5 -18 -22 -18h-27
q-14 0 -16.5 7.5t8.5 18.5l125 131q9 10 26 10q16 0 25 -10l123 -131q10 -11 8 -18.5t-16 -7.5h-73q-3 0 -5.5 0.5t-4.5 1.5t-3.5 1.5t-3 3t-1.5 3.5t-2 4t-2 4q-36 62 -63 92z" />
    <glyph glyph-name="gcircumflex" unicode="&#x11d;" horiz-adv-x="563" 
d="M139 211q-38 40 -38 95q0 64 51.5 106t125.5 42q98 0 148 -71q26 48 80 48q23 0 39 -15.5t16 -41.5q0 -18 -11.5 -28t-25.5 -10q-22 0 -25 17q-2 10 -8.5 17t-14.5 7q-18 0 -25.5 -13t-3.5 -27q8 -19 8 -44q0 -65 -52 -110t-125 -45q-44 0 -79 19.5t-41 19.5
q-36 0 -56.5 -20.5t-20.5 -47.5q0 -23 14.5 -37t43.5 -14q31 0 92.5 4t111.5 4q169 0 169 -154q0 -81 -68 -134.5t-184 -53.5q-91 0 -148.5 32t-57.5 94q0 37 23 68.5t62 49.5q-44 11 -73 45.5t-29 77.5q0 44 25.5 76t76.5 44zM181 -35q-53 -30 -53 -97q0 -51 35.5 -79.5
t101.5 -28.5q80 0 134.5 35.5t54.5 84.5q0 54 -29 72t-106 18q-75 0 -138 -5zM279 413q-46 0 -64.5 -26t-18.5 -89q0 -125 83 -125q80 0 80 118q0 64 -19.5 93t-60.5 29zM270 622q-66 -90 -69 -100q-5 -19 -20 -19h-25q-13 0 -15 8t8 20l114 143q8 10 23 10t23 -10l112 -143
q9 -12 7.5 -20t-14.5 -8h-67q-12 0 -19 16q0 2 -1 3q-28 62 -57 100z" />
    <glyph glyph-name="Gbreve" unicode="&#x11e;" horiz-adv-x="845" 
d="M725 318v-245q-68 -43 -152.5 -67t-156.5 -24q-160 0 -262 106.5t-102 276.5q0 78 24 146t70.5 121t121 84t168.5 31q117 0 189.5 -26.5t72.5 -57.5q0 -13 1.5 -76.5t1.5 -72.5q0 -11 -18 -11q-16 0 -20 8q-48 112 -100 152t-129 40q-119 0 -184.5 -84t-65.5 -258
q0 -166 61 -252t171 -86q83 0 131.5 32.5t54.5 82.5q4 34 4 180q-26 0 -87.5 -0.5t-63.5 -0.5q-13 0 -13 24q0 23 14 23q4 0 78.5 -4t122.5 -4q40 0 94.5 2t55.5 2q13 0 13 -22q0 -23 -12 -23q-6 0 -40 1.5t-43 1.5zM574 925q0 -63 -39.5 -105t-104.5 -42q-66 0 -105.5 41.5
t-39.5 105.5q0 13 28 13q18 0 18 -10q0 -40 27 -63t72 -23q48 0 73 23.5t25 62.5q0 10 20 10q26 0 26 -13z" />
    <glyph glyph-name="gbreve" unicode="&#x11f;" horiz-adv-x="563" 
d="M139 211q-38 40 -38 95q0 64 51.5 106t125.5 42q98 0 148 -71q26 48 80 48q23 0 39 -15.5t16 -41.5q0 -18 -11.5 -28t-25.5 -10q-22 0 -25 17q-2 10 -8.5 17t-14.5 7q-18 0 -25.5 -13t-3.5 -27q8 -19 8 -44q0 -65 -52 -110t-125 -45q-44 0 -79 19.5t-41 19.5
q-36 0 -56.5 -20.5t-20.5 -47.5q0 -23 14.5 -37t43.5 -14q31 0 92.5 4t111.5 4q169 0 169 -154q0 -81 -68 -134.5t-184 -53.5q-91 0 -148.5 32t-57.5 94q0 37 23 68.5t62 49.5q-44 11 -73 45.5t-29 77.5q0 44 25.5 76t76.5 44zM181 -35q-53 -30 -53 -97q0 -51 35.5 -79.5
t101.5 -28.5q80 0 134.5 35.5t54.5 84.5q0 54 -29 72t-106 18q-75 0 -138 -5zM279 413q-46 0 -64.5 -26t-18.5 -89q0 -125 83 -125q80 0 80 118q0 64 -19.5 93t-60.5 29zM411 667q0 -69 -36 -114.5t-95 -45.5q-60 0 -96 45.5t-36 114.5q0 14 25 14q17 0 17 -11
q0 -43 24.5 -68t65.5 -25q44 0 66.5 25.5t22.5 67.5q0 11 18 11q24 0 24 -14z" />
    <glyph glyph-name="Gdotaccent" unicode="&#x120;" horiz-adv-x="845" 
d="M725 318v-245q-68 -43 -152.5 -67t-156.5 -24q-160 0 -262 106.5t-102 276.5q0 78 24 146t70.5 121t121 84t168.5 31q117 0 189.5 -26.5t72.5 -57.5q0 -13 1.5 -76.5t1.5 -72.5q0 -11 -18 -11q-16 0 -20 8q-48 112 -100 152t-129 40q-119 0 -184.5 -84t-65.5 -258
q0 -166 61 -252t171 -86q83 0 131.5 32.5t54.5 82.5q4 34 4 180q-26 0 -87.5 -0.5t-63.5 -0.5q-13 0 -13 24q0 23 14 23q4 0 78.5 -4t122.5 -4q40 0 94.5 2t55.5 2q13 0 13 -22q0 -23 -12 -23q-6 0 -40 1.5t-43 1.5zM436 917q26 0 45 -17t19 -41t-19 -41t-45 -17t-45 17
t-19 41t19 41t45 17z" />
    <glyph glyph-name="gdotaccent" unicode="&#x121;" horiz-adv-x="563" 
d="M139 211q-38 40 -38 95q0 64 51.5 106t125.5 42q98 0 148 -71q26 48 80 48q23 0 39 -15.5t16 -41.5q0 -18 -11.5 -28t-25.5 -10q-22 0 -25 17q-2 10 -8.5 17t-14.5 7q-18 0 -25.5 -13t-3.5 -27q8 -19 8 -44q0 -65 -52 -110t-125 -45q-44 0 -79 19.5t-41 19.5
q-36 0 -56.5 -20.5t-20.5 -47.5q0 -23 14.5 -37t43.5 -14q31 0 92.5 4t111.5 4q169 0 169 -154q0 -81 -68 -134.5t-184 -53.5q-91 0 -148.5 32t-57.5 94q0 37 23 68.5t62 49.5q-44 11 -73 45.5t-29 77.5q0 44 25.5 76t76.5 44zM181 -35q-53 -30 -53 -97q0 -51 35.5 -79.5
t101.5 -28.5q80 0 134.5 35.5t54.5 84.5q0 54 -29 72t-106 18q-75 0 -138 -5zM279 413q-46 0 -64.5 -26t-18.5 -89q0 -125 83 -125q80 0 80 118q0 64 -19.5 93t-60.5 29zM285 683q26 0 44 -18t18 -44t-18 -45t-44 -19t-44.5 19t-18.5 45q0 25 18.5 43.5t44.5 18.5z" />
    <glyph glyph-name="Gcommaaccent" unicode="&#x122;" horiz-adv-x="845" 
d="M725 318v-245q-68 -43 -152.5 -67t-156.5 -24q-160 0 -262 106.5t-102 276.5q0 78 24 146t70.5 121t121 84t168.5 31q117 0 189.5 -26.5t72.5 -57.5q0 -13 1.5 -76.5t1.5 -72.5q0 -11 -18 -11q-16 0 -20 8q-48 112 -100 152t-129 40q-119 0 -184.5 -84t-65.5 -258
q0 -166 61 -252t171 -86q83 0 131.5 32.5t54.5 82.5q4 34 4 180q-26 0 -87.5 -0.5t-63.5 -0.5q-13 0 -13 24q0 23 14 23q4 0 78.5 -4t122.5 -4q40 0 94.5 2t55.5 2q13 0 13 -22q0 -23 -12 -23q-6 0 -40 1.5t-43 1.5zM362 -124q0 25 21 41.5t49 16.5q39 0 70 -30t31 -88
q0 -40 -18 -73.5t-42 -50.5t-43 -26t-27 -9q-5 0 -9 7t-4 15q0 7 5 7q37 12 63 41.5t26 76.5q0 43 -31 43q-6 0 -18.5 -8t-28.5 -8q-20 0 -32 12t-12 33z" />
    <glyph glyph-name="gcommaaccent" unicode="&#x123;" horiz-adv-x="563" 
d="M139 211q-38 40 -38 95q0 64 51.5 106t125.5 42q98 0 148 -71q26 48 80 48q23 0 39 -15.5t16 -41.5q0 -18 -11.5 -28t-25.5 -10q-22 0 -25 17q-2 10 -8.5 17t-14.5 7q-18 0 -25.5 -13t-3.5 -27q8 -19 8 -44q0 -65 -52 -110t-125 -45q-44 0 -79 19.5t-41 19.5
q-36 0 -56.5 -20.5t-20.5 -47.5q0 -23 14.5 -37t43.5 -14q31 0 92.5 4t111.5 4q169 0 169 -154q0 -81 -68 -134.5t-184 -53.5q-91 0 -148.5 32t-57.5 94q0 37 23 68.5t62 49.5q-44 11 -73 45.5t-29 77.5q0 44 25.5 76t76.5 44zM181 -35q-53 -30 -53 -97q0 -51 35.5 -79.5
t101.5 -28.5q80 0 134.5 35.5t54.5 84.5q0 54 -29 72t-106 18q-75 0 -138 -5zM279 413q-46 0 -64.5 -26t-18.5 -89q0 -125 83 -125q80 0 80 118q0 64 -19.5 93t-60.5 29zM360 551q0 -23 -19 -38t-45 -15q-37 0 -65 27.5t-28 80.5q0 37 16.5 67.5t38.5 46.5t39.5 24t24.5 8
q12 0 12 -20q0 -7 -4 -7q-34 -10 -58 -37t-24 -71q0 -39 28 -39q6 0 17 7t26 7q18 0 29.5 -11t11.5 -30z" />
    <glyph glyph-name="Hcircumflex" unicode="&#x124;" horiz-adv-x="909" 
d="M632 362q-90 -3 -181 -3t-186 3q-1 -39 -1 -122q0 -46 0.5 -90.5t1 -71.5t0.5 -29q3 0 39 1t44 1q9 0 9 -28q0 -25 -9 -25q-6 0 -57.5 2.5t-81.5 2.5q-41 0 -93.5 -2.5t-56.5 -2.5q-12 0 -12 26q0 27 12 27q9 0 42 -1t51 -1v633q-10 0 -48 -1.5t-44 -1.5q-12 0 -12 26
q0 28 13 28l56 -3q57 -3 95 -3q35 0 70 1.5t56.5 3t22.5 1.5q14 0 14 -28q0 -26 -12 -26q-6 0 -42 1.5t-47 1.5q-9 -46 -10 -277q94 3 186 3q91 0 181 -3v277q-10 0 -47.5 -1.5t-43.5 -1.5q-12 0 -12 26q0 28 13 28q1 0 56.5 -3t93.5 -3q35 0 70.5 1.5t57.5 3t23 1.5
q12 0 12 -28q0 -26 -11 -26q-6 0 -42 1.5t-46 1.5q-2 -11 -5 -71.5t-5.5 -163.5t-2.5 -207q0 -46 0.5 -90.5t1 -71.5t0.5 -29q4 0 40 1t45 1q7 0 7 -28q0 -25 -7 -25t-59 2.5t-81 2.5q-41 0 -93.5 -2.5t-56.5 -2.5q-12 0 -12 26q0 27 12 27q9 0 42 -1t50 -1v313zM435 884
q-73 -83 -76 -92q-5 -18 -22 -18h-27q-14 0 -16.5 7.5t8.5 18.5l125 131q9 10 26 10q16 0 25 -10l123 -131q10 -11 8 -18.5t-16 -7.5h-73q-3 0 -5.5 0.5t-4.5 1.5t-3.5 1.5t-3 3t-1.5 3.5t-2 4t-2 4q-36 62 -63 92z" />
    <glyph glyph-name="hcircumflex" unicode="&#x125;" horiz-adv-x="600" 
d="M505 38q18 0 43 1t30 1q9 0 9 -21t-9 -21q-6 0 -50 2.5t-74 2.5t-70 -2.5t-46 -2.5q-13 0 -13 22q0 20 13 20q9 0 31.5 -1t41.5 -1v275q0 46 -13.5 70t-47.5 24q-60 0 -105 -63.5t-45 -120.5q0 -42 0.5 -84.5t1 -69.5t0.5 -31q18 0 40.5 1t27.5 1q7 0 7 -21t-7 -21
t-48 2.5t-70 2.5q-30 0 -74 -2.5t-50 -2.5q-12 0 -12 22q0 20 12 20q9 0 35 -1t44 -1v638q0 11 -7 11q-20 0 -43.5 -1.5t-26.5 -1.5q-12 0 -12 26t13 26q15 0 87 -1.5t79 -1.5q10 0 13.5 -5t3.5 -18q0 -10 -3.5 -83l-8 -167t-6.5 -140q59 134 188 134q60 0 91.5 -37.5
t31.5 -101.5q0 -54 -1 -144t-1 -133zM142 884q-73 -83 -76 -92q-5 -18 -22 -18h-27q-14 0 -16.5 7.5t8.5 18.5l125 131q9 10 26 10q16 0 25 -10l123 -131q10 -11 8 -18.5t-16 -7.5h-73q-3 0 -5.5 0.5t-4.5 1.5t-3.5 1.5t-3 3t-1.5 3.5t-2 4t-2 4q-36 62 -63 92z" />
    <glyph glyph-name="Hbar" unicode="&#x126;" horiz-adv-x="909" 
d="M394 604q66 0 238 2v76q-10 0 -47.5 -1.5t-43.5 -1.5q-12 0 -12 26q0 28 13 28q1 0 56.5 -3t93.5 -3q35 0 70.5 1.5t57.5 3t23 1.5q12 0 12 -28q0 -26 -11 -26q-6 0 -42 1.5t-46 1.5q-2 -6 -5 -74h61q18 0 22 -4.5t4 -25.5q0 -17 -2.5 -24t-14.5 -7h-73q-5 -135 -5 -307
q0 -46 0.5 -90.5t1 -71.5t0.5 -29q4 0 40 1t45 1q7 0 7 -28q0 -25 -7 -25t-59 2.5t-81 2.5q-41 0 -93.5 -2.5t-56.5 -2.5q-12 0 -12 26q0 27 12 27q9 0 42 -1t50 -1v313q-90 -3 -181 -3t-186 3q-1 -39 -1 -122q0 -46 0.5 -90.5t1 -71.5t0.5 -29q3 0 39 1t44 1q9 0 9 -28
q0 -25 -9 -25q-6 0 -57.5 2.5t-81.5 2.5q-41 0 -93.5 -2.5t-56.5 -2.5q-12 0 -12 26q0 27 12 27q9 0 42 -1t51 -1v498h-60q-9 0 -14 0.5t-7.5 4t-2.5 5.5t0.5 9.5t0.5 12.5q0 3 -0.5 8t-0.5 7t1 4.5t4 3.5t7.5 2t12.5 1h59v77q-10 0 -48 -1.5t-44 -1.5q-12 0 -12 26
q0 28 13 28l56 -3q57 -3 95 -3q35 0 70 1.5t56.5 3t22.5 1.5q14 0 14 -28q0 -26 -12 -26q-6 0 -42 1.5t-47 1.5q-3 -12 -6 -78h125zM451 408q91 0 181 -3v143q-45 0 -127 0.5t-111 0.5q-85 0 -127 -1q-2 -80 -2 -143q94 3 186 3z" />
    <glyph glyph-name="hbar" unicode="&#x127;" horiz-adv-x="600" 
d="M505 38q18 0 43 1t30 1q9 0 9 -21t-9 -21q-6 0 -50 2.5t-74 2.5t-70 -2.5t-46 -2.5q-13 0 -13 22q0 20 13 20q9 0 31.5 -1t41.5 -1v275q0 46 -13.5 70t-47.5 24q-60 0 -105 -63.5t-45 -120.5q0 -42 0.5 -84.5t1 -69.5t0.5 -31q18 0 40.5 1t27.5 1q7 0 7 -21t-7 -21
t-48 2.5t-70 2.5q-30 0 -74 -2.5t-50 -2.5q-12 0 -12 22q0 20 12 20q9 0 35 -1t44 -1v522q-62 -2 -75 -2q-17 0 -17 29q0 23 17 23q9 0 33.5 -0.5t41.5 -0.5v67q0 11 -7 11q-20 0 -43.5 -1.5t-26.5 -1.5q-12 0 -12 26t13 26q15 0 87 -1.5t79 -1.5q10 0 13.5 -5t3.5 -18
q0 -4 -0.5 -17l-1.5 -38t-2 -45q13 0 31 1t30.5 1.5t18.5 0.5q18 0 21.5 -4t3.5 -23q0 -28 -28 -28q-5 0 -33 0.5t-47 0.5q-10 -209 -11 -239q59 134 188 134q60 0 91.5 -37.5t31.5 -101.5q0 -54 -1 -144t-1 -133z" />
    <glyph glyph-name="Itilde" unicode="&#x128;" horiz-adv-x="425" 
d="M275 682q-11 -58 -11 -442q0 -46 0.5 -90.5t1 -71.5t0.5 -29q3 0 39 1t44 1q9 0 9 -28q0 -25 -9 -25q-6 0 -57.5 2.5t-81.5 2.5q-41 0 -93.5 -2.5t-56.5 -2.5q-12 0 -12 26q0 27 12 27q9 0 42 -1t51 -1v633q-10 0 -48 -1.5t-44 -1.5q-12 0 -12 26q0 28 13 28l56 -3
q57 -3 95 -3q29 0 64.5 1.5t59.5 3t25 1.5q14 0 14 -28q0 -26 -12 -26q-6 0 -42 1.5t-47 1.5zM394 916q-35 -109 -120 -109q-27 0 -48.5 10.5t-32.5 23t-26.5 23t-32.5 10.5q-47 0 -66 -56q-7 -5 -13 -5q-9 0 -18.5 9t-6.5 16q38 97 118 97q33 0 58.5 -16.5t45 -33
t38.5 -16.5q47 0 69 63q1 7 11 7q8 0 17.5 -7.5t6.5 -15.5z" />
    <glyph glyph-name="itilde" unicode="&#x129;" horiz-adv-x="310" 
d="M213 159q0 -93 2 -121q18 0 40 1t26 1q9 0 9 -21t-9 -21q-5 0 -46.5 2.5t-71.5 2.5t-74 -2.5t-50 -2.5q-12 0 -12 22q0 20 12 20q9 0 35 -1t46 -1v356q-8 0 -41.5 -1t-39.5 -1q-12 0 -12 23q0 20 13 20q8 0 65 -0.5t99 -0.5q11 0 14 -3t3 -14q0 -14 -4 -101.5t-4 -156.5z
M317 657q-32 -118 -109 -118q-25 0 -44.5 11.5t-29.5 24.5t-24.5 24.5t-29.5 11.5q-42 0 -60 -60q-4 -6 -11 -6q-8 0 -17 9.5t-6 17.5q34 106 107 106q24 0 44 -11t31 -25t25.5 -25t28.5 -11q44 0 63 69q1 7 10 7q7 0 15.5 -8.5t6.5 -16.5z" />
    <glyph glyph-name="Imacron" unicode="&#x12a;" horiz-adv-x="425" 
d="M275 682q-11 -58 -11 -442q0 -46 0.5 -90.5t1 -71.5t0.5 -29q3 0 39 1t44 1q9 0 9 -28q0 -25 -9 -25q-6 0 -57.5 2.5t-81.5 2.5q-41 0 -93.5 -2.5t-56.5 -2.5q-12 0 -12 26q0 27 12 27q9 0 42 -1t51 -1v633q-10 0 -48 -1.5t-44 -1.5q-12 0 -12 26q0 28 13 28l56 -3
q57 -3 95 -3q29 0 64.5 1.5t59.5 3t25 1.5q14 0 14 -28q0 -26 -12 -26q-6 0 -42 1.5t-47 1.5zM190 879q22 0 74 2.5t60 2.5q18 0 23.5 -6t5.5 -28q0 -35 -27 -35q-9 0 -61 0.5t-75 0.5t-60 -0.5t-44 -0.5q-15 0 -15 36q0 29 15 29q10 0 44 -0.5t60 -0.5z" />
    <glyph glyph-name="imacron" unicode="&#x12b;" horiz-adv-x="310" 
d="M213 159q0 -93 2 -121q18 0 40 1t26 1q9 0 9 -21t-9 -21q-5 0 -46.5 2.5t-71.5 2.5t-74 -2.5t-50 -2.5q-12 0 -12 22q0 20 12 20q9 0 35 -1t46 -1v356q-8 0 -41.5 -1t-39.5 -1q-12 0 -12 23q0 20 13 20q8 0 65 -0.5t99 -0.5q11 0 14 -3t3 -14q0 -14 -4 -101.5t-4 -156.5z
M130 617q20 0 67.5 2.5t54.5 2.5q16 0 21 -6.5t5 -30.5q0 -38 -24 -38q-8 0 -55.5 1t-68.5 1q-20 0 -54 -1t-40 -1q-14 0 -14 40q0 31 14 31q9 0 39.5 -0.5t54.5 -0.5z" />
    <glyph glyph-name="Ibreve" unicode="&#x12c;" horiz-adv-x="425" 
d="M275 682q-11 -58 -11 -442q0 -46 0.5 -90.5t1 -71.5t0.5 -29q3 0 39 1t44 1q9 0 9 -28q0 -25 -9 -25q-6 0 -57.5 2.5t-81.5 2.5q-41 0 -93.5 -2.5t-56.5 -2.5q-12 0 -12 26q0 27 12 27q9 0 42 -1t51 -1v633q-10 0 -48 -1.5t-44 -1.5q-12 0 -12 26q0 28 13 28l56 -3
q57 -3 95 -3q29 0 64.5 1.5t59.5 3t25 1.5q14 0 14 -28q0 -26 -12 -26q-6 0 -42 1.5t-47 1.5zM357 925q0 -63 -39.5 -105t-104.5 -42q-66 0 -105.5 41.5t-39.5 105.5q0 13 28 13q18 0 18 -10q0 -40 27 -63t72 -23q48 0 73 23.5t25 62.5q0 10 20 10q26 0 26 -13z" />
    <glyph glyph-name="ibreve" unicode="&#x12d;" horiz-adv-x="310" 
d="M213 159q0 -93 2 -121q18 0 40 1t26 1q9 0 9 -21t-9 -21q-5 0 -46.5 2.5t-71.5 2.5t-74 -2.5t-50 -2.5q-12 0 -12 22q0 20 12 20q9 0 35 -1t46 -1v356q-8 0 -41.5 -1t-39.5 -1q-12 0 -12 23q0 20 13 20q8 0 65 -0.5t99 -0.5q11 0 14 -3t3 -14q0 -14 -4 -101.5t-4 -156.5z
M290 667q0 -69 -36 -114.5t-95 -45.5q-60 0 -96 45.5t-36 114.5q0 14 25 14q17 0 17 -11q0 -43 24.5 -68t65.5 -25q44 0 66.5 25.5t22.5 67.5q0 11 18 11q24 0 24 -14z" />
    <glyph glyph-name="Iogonek" unicode="&#x12e;" horiz-adv-x="425" 
d="M237 2h26q-9 0 -27 0.5t-26 0.5q-41 0 -93.5 -2.5t-56.5 -2.5q-12 0 -12 26q0 27 12 27q9 0 42 -1t51 -1v633q-10 0 -48 -1.5t-44 -1.5q-12 0 -12 26q0 28 13 28l56 -3q57 -3 95 -3q29 0 64.5 1.5t59.5 3t25 1.5q14 0 14 -28q0 -26 -12 -26q-6 0 -42 1.5t-47 1.5
q-11 -58 -11 -442q0 -46 0.5 -90.5t1 -71.5t0.5 -29q3 0 39 1t44 1q9 0 9 -28q0 -25 -9 -25q-7 0 -33.5 1.5t-43.5 1.5q-49 -20 -67.5 -47t-18.5 -80q0 -43 15 -61t47 -18t52 14q4 2 5 2q7 0 13 -8.5t6 -16.5q0 -7 -4 -10q-26 -24 -76 -24q-62 0 -96.5 29.5t-34.5 88.5
q0 57 43 94.5t81 37.5z" />
    <glyph glyph-name="iogonek" unicode="&#x12f;" horiz-adv-x="310" 
d="M180 2h31q-7 0 -23 0.5t-25 0.5q-30 0 -74 -2.5t-50 -2.5q-12 0 -12 22q0 20 12 20q9 0 35 -1t46 -1v356q-8 0 -41.5 -1t-39.5 -1q-12 0 -12 23q0 20 13 20q8 0 65 -0.5t99 -0.5q11 0 14 -3t3 -14q0 -14 -4 -101.5t-4 -156.5q0 -93 2 -121q18 0 40 1t26 1q9 0 9 -21
t-9 -21q-6 0 -28.5 1.5t-36.5 1.5q-50 -20 -68.5 -47.5t-18.5 -79.5q0 -43 15 -61t47 -18t52 14q4 2 5 2q7 0 13 -8.5t6 -16.5q0 -7 -4 -10q-26 -24 -76 -24q-62 0 -96.5 29.5t-34.5 88.5q0 57 43 94.5t81 37.5zM162 683q26 0 44 -18t18 -44t-18 -45t-44 -19t-44.5 19
t-18.5 45q0 25 18.5 43.5t44.5 18.5z" />
    <glyph glyph-name="Idotaccent" unicode="&#x130;" horiz-adv-x="425" 
d="M275 682q-11 -58 -11 -442q0 -46 0.5 -90.5t1 -71.5t0.5 -29q3 0 39 1t44 1q9 0 9 -28q0 -25 -9 -25q-6 0 -57.5 2.5t-81.5 2.5q-41 0 -93.5 -2.5t-56.5 -2.5q-12 0 -12 26q0 27 12 27q9 0 42 -1t51 -1v633q-10 0 -48 -1.5t-44 -1.5q-12 0 -12 26q0 28 13 28l56 -3
q57 -3 95 -3q29 0 64.5 1.5t59.5 3t25 1.5q14 0 14 -28q0 -26 -12 -26q-6 0 -42 1.5t-47 1.5zM212 917q26 0 45 -17t19 -41t-19 -41t-45 -17t-45 17t-19 41t19 41t45 17z" />
    <glyph glyph-name="dotlessi" unicode="&#x131;" horiz-adv-x="310" 
d="M213 159q0 -93 2 -121q18 0 40 1t26 1q9 0 9 -21t-9 -21q-5 0 -46.5 2.5t-71.5 2.5t-74 -2.5t-50 -2.5q-12 0 -12 22q0 20 12 20q9 0 35 -1t46 -1v356q-8 0 -41.5 -1t-39.5 -1q-12 0 -12 23q0 20 13 20q8 0 65 -0.5t99 -0.5q11 0 14 -3t3 -14q0 -14 -4 -101.5t-4 -156.5z
" />
    <glyph glyph-name="IJ" unicode="&#x132;" horiz-adv-x="850" 
d="M718 117q0 -59 -52.5 -97t-139.5 -38q-76 0 -113 32.5t-37 89.5q0 74 69 74q28 0 43 -17t15 -44q0 -38 -34 -70q20 -18 54 -18q38 0 61 33t23 92v528q-10 0 -48 -1.5t-44 -1.5q-12 0 -12 26q0 28 13 28q1 0 59 -3t96 -3q29 0 63.5 1.5t57.5 3t25 1.5q13 0 13 -28
q0 -26 -13 -26q-5 0 -41 1.5t-47 1.5q-3 -18 -7 -213.5t-4 -351.5zM275 682q-11 -58 -11 -442q0 -46 0.5 -90.5t1 -71.5t0.5 -29q3 0 39 1t44 1q9 0 9 -28q0 -25 -9 -25q-6 0 -57.5 2.5t-81.5 2.5q-41 0 -93.5 -2.5t-56.5 -2.5q-12 0 -12 26q0 27 12 27q9 0 42 -1t51 -1v633
q-10 0 -48 -1.5t-44 -1.5q-12 0 -12 26q0 28 13 28l56 -3q57 -3 95 -3q29 0 64.5 1.5t59.5 3t25 1.5q14 0 14 -28q0 -26 -12 -26q-6 0 -42 1.5t-47 1.5z" />
    <glyph glyph-name="ij" unicode="&#x133;" horiz-adv-x="620" 
d="M525 -4q0 -76 -11.5 -114.5t-51.5 -79.5q-33 -32 -78 -58t-60 -26t-15 22q0 15 6 17q42 22 63.5 40.5t37.5 57.5t16 99v440q-8 0 -41 -1t-39 -1q-12 0 -12 23q0 20 13 20q8 0 65 -0.5t99 -0.5q11 0 14 -3t3 -14q0 -14 -4.5 -183t-4.5 -238zM213 159q0 -93 2 -121
q18 0 40 1t26 1q9 0 9 -21t-9 -21q-5 0 -46.5 2.5t-71.5 2.5t-74 -2.5t-50 -2.5q-12 0 -12 22q0 20 12 20q9 0 35 -1t46 -1v356q-8 0 -41.5 -1t-39.5 -1q-12 0 -12 23q0 20 13 20q8 0 65 -0.5t99 -0.5q11 0 14 -3t3 -14q0 -14 -4 -101.5t-4 -156.5zM483 683q26 0 44 -18
t18 -44t-18 -45t-44 -19t-44.5 19t-18.5 45q0 25 18.5 43.5t44.5 18.5zM162 683q26 0 44 -18t18 -44t-18 -45t-44 -19t-44.5 19t-18.5 45q0 25 18.5 43.5t44.5 18.5z" />
    <glyph glyph-name="Jcircumflex" unicode="&#x134;" horiz-adv-x="488" 
d="M356 117q0 -59 -52.5 -97t-139.5 -38q-76 0 -113 32.5t-37 89.5q0 74 69 74q28 0 43 -17t15 -44q0 -38 -34 -70q20 -18 54 -18q38 0 61 33t23 92v528q-10 0 -48 -1.5t-44 -1.5q-12 0 -12 26q0 28 13 28q1 0 59 -3t96 -3q29 0 63.5 1.5t57.5 3t25 1.5q13 0 13 -28
q0 -26 -13 -26q-5 0 -41 1.5t-47 1.5q-3 -18 -7 -213.5t-4 -351.5zM277 884q-73 -83 -76 -92q-5 -18 -22 -18h-27q-14 0 -16.5 7.5t8.5 18.5l125 131q9 10 26 10q16 0 25 -10l123 -131q10 -11 8 -18.5t-16 -7.5h-73q-3 0 -5.5 0.5t-4.5 1.5t-3.5 1.5t-3 3t-1.5 3.5t-2 4
t-2 4q-36 62 -63 92z" />
    <glyph glyph-name="jcircumflex" unicode="&#x135;" horiz-adv-x="302" 
d="M204 -4q0 -76 -11.5 -114.5t-51.5 -79.5q-33 -32 -78 -58t-60 -26t-15 22q0 15 6 17q42 22 63.5 40.5t37.5 57.5t16 99v440q-9 0 -41.5 -1t-38.5 -1q-12 0 -12 23q0 20 13 20q8 0 65 -0.5t99 -0.5q11 0 14 -3t3 -14q0 -14 -4.5 -183t-4.5 -238zM138 622q-66 -90 -69 -100
q-5 -19 -20 -19h-25q-13 0 -15 8t8 20l114 143q8 10 23 10t23 -10l112 -143q9 -12 7.5 -20t-14.5 -8h-67q-12 0 -19 16q0 2 -1 3q-28 62 -57 100z" />
    <glyph glyph-name="Kcommaaccent" unicode="&#x136;" horiz-adv-x="799" 
d="M265 382q-1 -44 -1 -142q0 -46 0.5 -90.5t1 -71.5t0.5 -29q3 0 39 1t44 1q9 0 9 -28q0 -25 -9 -25q-6 0 -55.5 2.5t-79.5 2.5q-41 0 -95.5 -2.5t-58.5 -2.5q-12 0 -12 26q0 27 12 27q9 0 42 -1t51 -1v633q-10 0 -48 -1.5t-44 -1.5q-12 0 -12 26q0 28 13 28l58 -3
q59 -3 97 -3q29 0 63.5 1.5t57.5 3t24 1.5q14 0 14 -28q0 -26 -12 -26q-6 0 -42 1.5t-47 1.5q-9 -48 -9 -259q31 2 57 5q121 114 228 254q-10 0 -48.5 -2t-43.5 -2t-8.5 9t-3.5 17q0 29 13 29l53 -3q53 -3 91 -3q29 0 60 1.5t51 3t22 1.5q13 0 13 -23q0 -12 -4 -22t-9 -10
q-6 0 -48 2t-52 2q-122 -134 -257 -256q87 -8 133.5 -29t74.5 -62q7 -10 12.5 -20.5t11 -24t9 -23.5t8.5 -28t7 -27.5t8 -32t8 -32.5q13 -50 33 -73t57 -23q8 0 25.5 1.5t27.5 1.5q16 0 16 -26q0 -28 -20 -28q-19 0 -68.5 -1t-69.5 -1q-62 0 -90 28.5t-38 96.5
q-12 75 -20.5 113.5t-22.5 74t-35.5 49.5t-51.5 21.5t-79 7.5q-26 0 -51 -7zM344 -124q0 25 21 41.5t49 16.5q39 0 70 -30t31 -88q0 -40 -18 -73.5t-42 -50.5t-43 -26t-27 -9q-5 0 -9 7t-4 15q0 7 5 7q37 12 63 41.5t26 76.5q0 43 -31 43q-6 0 -18.5 -8t-28.5 -8
q-20 0 -32 12t-12 33z" />
    <glyph glyph-name="kcommaaccent" unicode="&#x137;" horiz-adv-x="577" 
d="M200 215q0 -141 3 -177q18 0 33.5 1t20.5 1q9 0 9 -21t-9 -21q-6 0 -41 2.5t-64 2.5q-30 0 -74 -2.5t-50 -2.5q-12 0 -12 22q0 20 12 20q9 0 35 -1t44 -1v638q0 11 -7 11q-20 0 -43.5 -1.5t-26.5 -1.5q-12 0 -12 26t13 26q15 0 86 -1.5t78 -1.5q10 0 13.5 -5t3.5 -18
q0 -3 -3 -55.5t-6 -159.5t-3 -243h54q59 59 126 144q-7 0 -40 -1t-38 -1q-11 0 -11 22q0 19 12 19q1 0 39.5 -0.5t65.5 -0.5h50t45.5 0.5t20.5 0.5q11 0 11 -19q0 -24 -11 -24q-4 0 -36 1t-40 1l-124 -124q20 -27 96 -119.5t95 -112.5q4 0 28.5 1t32.5 1q9 0 9 -21t-9 -21
q-5 0 -47 2.5t-72 2.5t-74 -2.5t-50 -2.5q-11 0 -11 22q0 20 11 20q5 0 29 -0.5t29 -0.5q-9 16 -64 88.5t-70 87.5h-57zM215 -124q0 25 21 41.5t49 16.5q39 0 70 -30t31 -88q0 -40 -18 -73.5t-42 -50.5t-43 -26t-27 -9q-5 0 -9 7t-4 15q0 7 5 7q37 12 63 41.5t26 76.5
q0 43 -31 43q-6 0 -18.5 -8t-28.5 -8q-20 0 -32 12t-12 33z" />
    <glyph glyph-name="Lacute" unicode="&#x139;" horiz-adv-x="747" 
d="M266 49q85 0 221 6q81 4 113.5 48t62.5 167q3 13 19 13q22 0 22 -10q0 -22 -1 -82.5t-1.5 -112.5t-0.5 -55q0 -26 -42 -26q-16 0 -217.5 3t-231.5 3q-41 0 -93.5 -2.5t-56.5 -2.5q-12 0 -12 26q0 27 12 27q9 0 42 -1t51 -1v633q-10 0 -48 -1.5t-44 -1.5q-12 0 -12 26
q0 28 13 28l56 -3q57 -3 95 -3q29 0 64.5 1.5t59.5 3t25 1.5q14 0 14 -28q0 -26 -12 -26q-6 0 -42 1.5t-47 1.5q-11 -58 -11 -442q0 -46 0.5 -90.5t1 -71.5t0.5 -29zM311 938h75q29 0 8 -26q-21 -24 -93.5 -82.5t-91.5 -58.5q-11 0 -17 8t-1 14q19 20 56.5 67.5t41.5 59.5
q5 18 22 18z" />
    <glyph glyph-name="lacute" unicode="&#x13a;" horiz-adv-x="304" 
d="M203 38q18 0 43 1t30 1q9 0 9 -21t-9 -21q-6 0 -50 2.5t-74 2.5t-74 -2.5t-50 -2.5q-12 0 -12 22q0 20 12 20q9 0 35 -1t44 -1v638q0 11 -7 11q-20 0 -43.5 -1.5t-26.5 -1.5q-12 0 -12 26t13 26q15 0 87 -1.5t79 -1.5q10 0 13.5 -5t3.5 -18q0 -4 -3.5 -60.5t-7 -166.5
t-3.5 -243q0 -157 3 -202zM171 938h75q29 0 8 -26q-21 -24 -93.5 -82.5t-91.5 -58.5q-11 0 -17 8t-1 14q19 20 56.5 67.5t41.5 59.5q5 18 22 18z" />
    <glyph glyph-name="Lcommaaccent" unicode="&#x13b;" horiz-adv-x="747" 
d="M266 49q85 0 221 6q81 4 113.5 48t62.5 167q3 13 19 13q22 0 22 -10q0 -22 -1 -82.5t-1.5 -112.5t-0.5 -55q0 -26 -42 -26q-16 0 -217.5 3t-231.5 3q-41 0 -93.5 -2.5t-56.5 -2.5q-12 0 -12 26q0 27 12 27q9 0 42 -1t51 -1v633q-10 0 -48 -1.5t-44 -1.5q-12 0 -12 26
q0 28 13 28l56 -3q57 -3 95 -3q29 0 64.5 1.5t59.5 3t25 1.5q14 0 14 -28q0 -26 -12 -26q-6 0 -42 1.5t-47 1.5q-11 -58 -11 -442q0 -46 0.5 -90.5t1 -71.5t0.5 -29zM286 -124q0 25 21 41.5t49 16.5q39 0 70 -30t31 -88q0 -40 -18 -73.5t-42 -50.5t-43 -26t-27 -9q-5 0 -9 7
t-4 15q0 7 5 7q37 12 63 41.5t26 76.5q0 43 -31 43q-6 0 -18.5 -8t-28.5 -8q-20 0 -32 12t-12 33z" />
    <glyph glyph-name="lcommaaccent" unicode="&#x13c;" horiz-adv-x="304" 
d="M203 38q18 0 43 1t30 1q9 0 9 -21t-9 -21q-6 0 -50 2.5t-74 2.5t-74 -2.5t-50 -2.5q-12 0 -12 22q0 20 12 20q9 0 35 -1t44 -1v638q0 11 -7 11q-20 0 -43.5 -1.5t-26.5 -1.5q-12 0 -12 26t13 26q15 0 87 -1.5t79 -1.5q10 0 13.5 -5t3.5 -18q0 -4 -3.5 -60.5t-7 -166.5
t-3.5 -243q0 -157 3 -202zM62 -124q0 25 21 41.5t49 16.5q39 0 70 -30t31 -88q0 -40 -18 -73.5t-42 -50.5t-43 -26t-27 -9q-5 0 -9 7t-4 15q0 7 5 7q37 12 63 41.5t26 76.5q0 43 -31 43q-6 0 -18.5 -8t-28.5 -8q-20 0 -32 12t-12 33z" />
    <glyph glyph-name="Lcaron" unicode="&#x13d;" horiz-adv-x="747" 
d="M266 49q85 0 221 6q81 4 113.5 48t62.5 167q3 13 19 13q22 0 22 -10q0 -22 -1 -82.5t-1.5 -112.5t-0.5 -55q0 -26 -42 -26q-16 0 -217.5 3t-231.5 3q-41 0 -93.5 -2.5t-56.5 -2.5q-12 0 -12 26q0 27 12 27q9 0 42 -1t51 -1v633q-10 0 -48 -1.5t-44 -1.5q-12 0 -12 26
q0 28 13 28l56 -3q57 -3 95 -3q29 0 64.5 1.5t59.5 3t25 1.5q14 0 14 -28q0 -26 -12 -26q-6 0 -42 1.5t-47 1.5q-11 -58 -11 -442q0 -46 0.5 -90.5t1 -71.5t0.5 -29zM450 733h48q27 0 19 -28q-7 -27 -43 -90t-53 -63q-10 0 -15.5 8.5t-0.5 14.5q12 16 18.5 64t6.5 75
q0 19 20 19z" />
    <glyph glyph-name="lcaron" unicode="&#x13e;" horiz-adv-x="308" 
d="M203 38q18 0 43 1t30 1q9 0 9 -21t-9 -21q-6 0 -50 2.5t-74 2.5t-74 -2.5t-50 -2.5q-12 0 -12 22q0 20 12 20q9 0 35 -1t44 -1v638q0 11 -7 11q-20 0 -43.5 -1.5t-26.5 -1.5q-12 0 -12 26t13 26q15 0 87 -1.5t79 -1.5q10 0 13.5 -5t3.5 -18q0 -4 -3.5 -60.5t-7 -166.5
t-3.5 -243q0 -157 3 -202zM293 733h48q27 0 19 -28q-7 -27 -43 -90t-53 -63q-10 0 -15.5 8.5t-0.5 14.5q12 16 18.5 64t6.5 75q0 19 20 19z" />
    <glyph glyph-name="Ldot" unicode="&#x13f;" horiz-adv-x="747" 
d="M266 49q85 0 221 6q81 4 113.5 48t62.5 167q3 13 19 13q22 0 22 -10q0 -22 -1 -82.5t-1.5 -112.5t-0.5 -55q0 -26 -42 -26q-16 0 -217.5 3t-231.5 3q-41 0 -93.5 -2.5t-56.5 -2.5q-12 0 -12 26q0 27 12 27q9 0 42 -1t51 -1v633q-10 0 -48 -1.5t-44 -1.5q-12 0 -12 26
q0 28 13 28l56 -3q57 -3 95 -3q29 0 64.5 1.5t59.5 3t25 1.5q14 0 14 -28q0 -26 -12 -26q-6 0 -42 1.5t-47 1.5q-11 -58 -11 -442q0 -46 0.5 -90.5t1 -71.5t0.5 -29zM431 490q30 0 51 -21t21 -51t-21 -51.5t-51 -21.5q-29 0 -50 21.5t-21 51.5q0 29 21 50.5t50 21.5z" />
    <glyph glyph-name="ldot" unicode="&#x140;" horiz-adv-x="347" 
d="M203 38q18 0 43 1t30 1q9 0 9 -21t-9 -21q-6 0 -50 2.5t-74 2.5t-74 -2.5t-50 -2.5q-12 0 -12 22q0 20 12 20q9 0 35 -1t44 -1v638q0 11 -7 11q-20 0 -43.5 -1.5t-26.5 -1.5q-12 0 -12 26t13 26q15 0 87 -1.5t79 -1.5q10 0 13.5 -5t3.5 -18q0 -4 -3.5 -60.5t-7 -166.5
t-3.5 -243q0 -157 3 -202zM313 454q25 0 42.5 -18t17.5 -42q0 -26 -17.5 -44t-42.5 -18t-42.5 18t-17.5 44q0 24 17.5 42t42.5 18z" />
    <glyph glyph-name="Lslash" unicode="&#x141;" horiz-adv-x="747" 
d="M265 359q-1 -37 -1 -119q0 -46 0.5 -90.5t1 -71.5t0.5 -29q85 0 221 6q81 4 113.5 48t62.5 167q3 13 19 13q22 0 22 -10q0 -22 -1 -82.5t-1.5 -112.5t-0.5 -55q0 -26 -42 -26q-16 0 -217.5 3t-231.5 3q-41 0 -93.5 -2.5t-56.5 -2.5q-12 0 -12 26q0 27 12 27q9 0 42 -1
t51 -1v241q-83 -54 -85 -55q-4 -3 -7 -3q-6 0 -16.5 14.5t-10.5 22.5q0 5 7 9q6 4 21 13l41 24.5t50 31.5v335q-10 0 -48 -1.5t-44 -1.5q-12 0 -12 26q0 28 13 28q5 0 29 -1.5t59 -3t63 -1.5q29 0 64.5 1.5t59.5 3t25 1.5q14 0 14 -28q0 -26 -12 -26q-6 0 -42 1.5t-47 1.5
q-7 -34 -10 -267q69 42 113 75q10 7 16 7t15.5 -12.5t9.5 -21.5q0 -10 -13 -19q-6 -4 -24 -14l-50 -29t-67 -42z" />
    <glyph glyph-name="lslash" unicode="&#x142;" horiz-adv-x="327" 
d="M114 278l-30 -37t-21.5 -28.5t-10.5 -13.5q-4 -4 -6 -4q-8 0 -20.5 8.5t-12.5 18.5q0 2 6 11q14 19 95 111v332q0 11 -7 11q-20 0 -43.5 -1.5t-26.5 -1.5q-12 0 -12 26t13 26q15 0 87 -1.5t79 -1.5q10 0 13.5 -5t3.5 -18q0 -6 -2 -37t-5 -92.5t-5 -132.5l30 35l20.5 25
t11.5 13q11 11 14 11q11 0 19.5 -7.5t8.5 -16.5t-8 -18q-4 -6 -16 -19l-36.5 -39l-44.5 -48q-1 -41 -1 -141q0 -160 3 -205q18 0 43 1t30 1q9 0 9 -21t-9 -21q-5 0 -50 2.5t-74 2.5q-30 0 -74 -2.5t-50 -2.5q-12 0 -12 22q0 20 12 20q9 0 35 -1t44 -1v240z" />
    <glyph glyph-name="Nacute" unicode="&#x143;" horiz-adv-x="893" 
d="M754 682q-7 -347 -7 -440q0 -80 1 -154v-74q0 -13 -5.5 -18t-25.5 -5q-18 0 -49 38l-229.5 291.5t-228.5 300.5q-3 -35 -3 -136q0 -364 3 -436q19 0 61 1t53 1q13 0 13 -28q0 -25 -12 -25q-11 0 -63 2.5t-81 2.5q-23 0 -63.5 -2.5t-55.5 -2.5q-14 0 -14 26q0 27 12 27
q8 0 38.5 -1t54.5 -1v633q-10 0 -48 -1.5t-44 -1.5q-12 0 -12 31q0 23 13 23q19 0 55 -3t56 -3q18 0 35.5 0.5t28.5 1.5t13 1q13 0 19 -4t13 -16q53 -77 190.5 -254.5l221.5 -279.5v506q-10 0 -50 -1t-46 -1q-12 0 -12 28q0 25 14 25l43 -3q43 -3 81 -3q40 0 76 3t40 3
q15 0 15 -23q0 -29 -14 -29q-5 0 -41.5 0.5t-45.5 0.5zM502 938h75q29 0 8 -26q-21 -24 -93.5 -82.5t-91.5 -58.5q-11 0 -17 8t-1 14q19 20 56.5 67.5t41.5 59.5q5 18 22 18z" />
    <glyph glyph-name="nacute" unicode="&#x144;" horiz-adv-x="612" 
d="M120 38v356q-8 0 -41.5 -1t-39.5 -1q-12 0 -12 23q0 20 13 20q8 0 59 -0.5t93 -0.5q11 0 14 -3t3 -14v-100q29 72 80 104.5t106 32.5q61 0 92.5 -37.5t31.5 -101.5q0 -54 -1 -144t-1 -133q19 0 44 1t30 1q9 0 9 -21t-9 -21q-6 0 -51 2.5t-74 2.5q-30 0 -70.5 -2.5
t-45.5 -2.5q-12 0 -12 22q0 20 12 20q8 0 31 -1t42 -1v275q0 46 -13.5 70t-47.5 24q-61 0 -105 -63t-44 -121q0 -157 2 -185q18 0 40 1t26 1q9 0 9 -21t-9 -21q-5 0 -46.5 2.5t-71.5 2.5t-74 -2.5t-50 -2.5q-12 0 -12 22q0 20 12 20q9 0 35 -1t46 -1zM357 681h80q27 0 7 -28
q-17 -24 -89.5 -88.5t-90.5 -64.5q-10 0 -15.5 8.5t-0.5 14.5q17 21 51 73t38 66q5 19 20 19z" />
    <glyph glyph-name="Ncommaaccent" unicode="&#x145;" horiz-adv-x="893" 
d="M754 682q-7 -347 -7 -440q0 -80 1 -154v-74q0 -13 -5.5 -18t-25.5 -5q-18 0 -49 38l-229.5 291.5t-228.5 300.5q-3 -35 -3 -136q0 -364 3 -436q19 0 61 1t53 1q13 0 13 -28q0 -25 -12 -25q-11 0 -63 2.5t-81 2.5q-23 0 -63.5 -2.5t-55.5 -2.5q-14 0 -14 26q0 27 12 27
q8 0 38.5 -1t54.5 -1v633q-10 0 -48 -1.5t-44 -1.5q-12 0 -12 31q0 23 13 23q19 0 55 -3t56 -3q18 0 35.5 0.5t28.5 1.5t13 1q13 0 19 -4t13 -16q53 -77 190.5 -254.5l221.5 -279.5v506q-10 0 -50 -1t-46 -1q-12 0 -12 28q0 25 14 25l43 -3q43 -3 81 -3q40 0 76 3t40 3
q15 0 15 -23q0 -29 -14 -29q-5 0 -41.5 0.5t-45.5 0.5zM378 -124q0 25 21 41.5t49 16.5q39 0 70 -30t31 -88q0 -40 -18 -73.5t-42 -50.5t-43 -26t-27 -9q-5 0 -9 7t-4 15q0 7 5 7q37 12 63 41.5t26 76.5q0 43 -31 43q-6 0 -18.5 -8t-28.5 -8q-20 0 -32 12t-12 33z" />
    <glyph glyph-name="ncommaaccent" unicode="&#x146;" horiz-adv-x="612" 
d="M120 38v356q-8 0 -41.5 -1t-39.5 -1q-12 0 -12 23q0 20 13 20q8 0 59 -0.5t93 -0.5q11 0 14 -3t3 -14v-100q29 72 80 104.5t106 32.5q61 0 92.5 -37.5t31.5 -101.5q0 -54 -1 -144t-1 -133q19 0 44 1t30 1q9 0 9 -21t-9 -21q-6 0 -51 2.5t-74 2.5q-30 0 -70.5 -2.5
t-45.5 -2.5q-12 0 -12 22q0 20 12 20q8 0 31 -1t42 -1v275q0 46 -13.5 70t-47.5 24q-61 0 -105 -63t-44 -121q0 -157 2 -185q18 0 40 1t26 1q9 0 9 -21t-9 -21q-5 0 -46.5 2.5t-71.5 2.5t-74 -2.5t-50 -2.5q-12 0 -12 22q0 20 12 20q9 0 35 -1t46 -1zM239 -124q0 25 21 41.5
t49 16.5q39 0 70 -30t31 -88q0 -40 -18 -73.5t-42 -50.5t-43 -26t-27 -9q-5 0 -9 7t-4 15q0 7 5 7q37 12 63 41.5t26 76.5q0 43 -31 43q-6 0 -18.5 -8t-28.5 -8q-20 0 -32 12t-12 33z" />
    <glyph glyph-name="Ncaron" unicode="&#x147;" horiz-adv-x="893" 
d="M754 682q-7 -347 -7 -440q0 -80 1 -154v-74q0 -13 -5.5 -18t-25.5 -5q-18 0 -49 38l-229.5 291.5t-228.5 300.5q-3 -35 -3 -136q0 -364 3 -436q19 0 61 1t53 1q13 0 13 -28q0 -25 -12 -25q-11 0 -63 2.5t-81 2.5q-23 0 -63.5 -2.5t-55.5 -2.5q-14 0 -14 26q0 27 12 27
q8 0 38.5 -1t54.5 -1v633q-10 0 -48 -1.5t-44 -1.5q-12 0 -12 31q0 23 13 23q19 0 55 -3t56 -3q18 0 35.5 0.5t28.5 1.5t13 1q13 0 19 -4t13 -16q53 -77 190.5 -254.5l221.5 -279.5v506q-10 0 -50 -1t-46 -1q-12 0 -12 28q0 25 14 25l43 -3q43 -3 81 -3q40 0 76 3t40 3
q15 0 15 -23q0 -29 -14 -29q-5 0 -41.5 0.5t-45.5 0.5zM471 828q71 80 76 92q5 18 22 18h27q14 0 16.5 -7.5t-8.5 -18.5l-125 -131q-9 -10 -26 -10q-16 0 -25 10l-123 131q-10 11 -8 18.5t16 7.5h73q5 0 8.5 -1t6.5 -4.5t3.5 -4.5t3.5 -8q30 -55 63 -92z" />
    <glyph glyph-name="ncaron" unicode="&#x148;" horiz-adv-x="612" 
d="M120 38v356q-8 0 -41.5 -1t-39.5 -1q-12 0 -12 23q0 20 13 20q8 0 59 -0.5t93 -0.5q11 0 14 -3t3 -14v-100q29 72 80 104.5t106 32.5q61 0 92.5 -37.5t31.5 -101.5q0 -54 -1 -144t-1 -133q19 0 44 1t30 1q9 0 9 -21t-9 -21q-6 0 -51 2.5t-74 2.5q-30 0 -70.5 -2.5
t-45.5 -2.5q-12 0 -12 22q0 20 12 20q8 0 31 -1t42 -1v275q0 46 -13.5 70t-47.5 24q-61 0 -105 -63t-44 -121q0 -157 2 -185q18 0 40 1t26 1q9 0 9 -21t-9 -21q-5 0 -46.5 2.5t-71.5 2.5t-74 -2.5t-50 -2.5q-12 0 -12 22q0 20 12 20q9 0 35 -1t46 -1zM323 562q66 90 69 100
q5 19 20 19h25q13 0 15 -8t-8 -20l-114 -143q-8 -10 -23 -10t-23 10l-112 143q-9 12 -7.5 20t14.5 8h67q12 0 19 -16q0 -2 1 -3q28 -62 57 -100z" />
    <glyph glyph-name="napostrophe" unicode="&#x149;" horiz-adv-x="612" 
d="M120 38v356q-8 0 -41.5 -1t-39.5 -1q-12 0 -12 23q0 20 13 20q8 0 59 -0.5t93 -0.5q11 0 14 -3t3 -14v-100q29 72 80 104.5t106 32.5q61 0 92.5 -37.5t31.5 -101.5q0 -54 -1 -144t-1 -133q19 0 44 1t30 1q9 0 9 -21t-9 -21q-6 0 -51 2.5t-74 2.5q-30 0 -70.5 -2.5
t-45.5 -2.5q-12 0 -12 22q0 20 12 20q8 0 31 -1t42 -1v275q0 46 -13.5 70t-47.5 24q-61 0 -105 -63t-44 -121q0 -157 2 -185q18 0 40 1t26 1q9 0 9 -21t-9 -21q-5 0 -46.5 2.5t-71.5 2.5t-74 -2.5t-50 -2.5q-12 0 -12 22q0 20 12 20q9 0 35 -1t46 -1zM122 681h48
q27 0 19 -28q-7 -27 -43 -90t-53 -63q-10 0 -15.5 8.5t-0.5 14.5q12 16 18.5 64t6.5 75q0 19 20 19z" />
    <glyph glyph-name="Eng" unicode="&#x14a;" horiz-adv-x="893" 
d="M754 682q-7 -347 -7 -440q0 -80 1 -154v-74v-4q0 -54 -20 -98t-47 -66.5t-49 -34.5t-31 -12q-6 0 -10 9.5t-4 19.5q0 9 4 10q43 15 74.5 54.5t31.5 102.5v5q-12 8 -29 29l-234.5 296t-226.5 296q-3 -35 -3 -136q0 -364 3 -436q19 0 62.5 1t54.5 1q13 0 13 -28
q0 -25 -12 -25q-11 0 -63 2.5t-81 2.5q-23 0 -63.5 -2.5t-55.5 -2.5q-14 0 -14 26q0 27 12 27q8 0 38.5 -1t54.5 -1v633q-10 0 -48 -1.5t-44 -1.5q-12 0 -12 31q0 23 13 23q19 0 55 -3t56 -3q18 0 35.5 0.5t28.5 1.5t13 1q13 0 19 -4t13 -16q52 -76 189 -251.5l225 -282.5
v506q-10 0 -51 -1t-47 -1q-12 0 -12 28q0 25 14 25l43 -3q43 -3 81 -3q40 0 76 3t40 3q15 0 15 -23q0 -29 -14 -29q-5 0 -41.5 0.5t-45.5 0.5z" />
    <glyph glyph-name="eng" unicode="&#x14b;" horiz-adv-x="612" 
d="M120 38v356q-8 0 -41.5 -1t-39.5 -1q-12 0 -12 23q0 20 13 20q8 0 59 -0.5t93 -0.5q11 0 14 -3t3 -14v-100q29 72 80 104.5t106 32.5q61 0 92.5 -37.5t31.5 -101.5q0 -54 -1 -144t-1 -133q0 -45 -21.5 -86t-50.5 -66t-55.5 -39.5t-38.5 -14.5q-6 0 -10 9.5t-4 19.5
q0 9 4 10q32 11 46.5 20t25 36t10.5 75v311q0 46 -13.5 70t-47.5 24q-61 0 -105 -63t-44 -121q0 -157 2 -185q18 0 40 1t26 1q9 0 9 -21t-9 -21q-5 0 -46.5 2.5t-71.5 2.5t-74 -2.5t-50 -2.5q-12 0 -12 22q0 20 12 20q9 0 35 -1t46 -1z" />
    <glyph glyph-name="Omacron" unicode="&#x14c;" horiz-adv-x="855" 
d="M429 747q155 0 262.5 -113.5t107.5 -272.5q0 -158 -107.5 -268.5t-262.5 -110.5q-156 0 -264.5 110.5t-108.5 268.5q0 159 108.5 272.5t264.5 113.5zM429 702q-129 0 -185 -83t-56 -262q0 -332 241 -332q125 0 181.5 79t56.5 253q0 161 -59.5 253t-178.5 92zM405 879
q22 0 74 2.5t60 2.5q18 0 23.5 -6t5.5 -28q0 -35 -27 -35q-9 0 -61 0.5t-75 0.5t-60 -0.5t-44 -0.5q-15 0 -15 36q0 29 15 29q10 0 44 -0.5t60 -0.5z" />
    <glyph glyph-name="omacron" unicode="&#x14d;" horiz-adv-x="540" 
d="M270 454q105 0 167 -66.5t62 -169.5q0 -99 -67 -167.5t-162 -68.5q-99 0 -164 64t-65 172q0 97 67 166.5t162 69.5zM270 414q-58 0 -90 -43t-32 -154t32 -154.5t90 -43.5q59 0 90.5 43t31.5 155q0 111 -31.5 154t-90.5 43zM250 617q20 0 67.5 2.5t54.5 2.5q16 0 21 -6.5
t5 -30.5q0 -38 -24 -38q-8 0 -55.5 1t-68.5 1q-20 0 -54 -1t-40 -1q-14 0 -14 40q0 31 14 31q9 0 39.5 -0.5t54.5 -0.5z" />
    <glyph glyph-name="Obreve" unicode="&#x14e;" horiz-adv-x="855" 
d="M429 747q155 0 262.5 -113.5t107.5 -272.5q0 -158 -107.5 -268.5t-262.5 -110.5q-156 0 -264.5 110.5t-108.5 268.5q0 159 108.5 272.5t264.5 113.5zM429 702q-129 0 -185 -83t-56 -262q0 -332 241 -332q125 0 181.5 79t56.5 253q0 161 -59.5 253t-178.5 92zM572 925
q0 -63 -39.5 -105t-104.5 -42q-66 0 -105.5 41.5t-39.5 105.5q0 13 28 13q18 0 18 -10q0 -40 27 -63t72 -23q48 0 73 23.5t25 62.5q0 10 20 10q26 0 26 -13z" />
    <glyph glyph-name="obreve" unicode="&#x14f;" horiz-adv-x="540" 
d="M270 454q105 0 167 -66.5t62 -169.5q0 -99 -67 -167.5t-162 -68.5q-99 0 -164 64t-65 172q0 97 67 166.5t162 69.5zM270 414q-58 0 -90 -43t-32 -154t32 -154.5t90 -43.5q59 0 90.5 43t31.5 155q0 111 -31.5 154t-90.5 43zM402 667q0 -69 -36 -114.5t-95 -45.5
q-60 0 -96 45.5t-36 114.5q0 14 25 14q17 0 17 -11q0 -43 24.5 -68t65.5 -25q44 0 66.5 25.5t22.5 67.5q0 11 18 11q24 0 24 -14z" />
    <glyph glyph-name="Ohungarumlaut" unicode="&#x150;" horiz-adv-x="855" 
d="M429 747q155 0 262.5 -113.5t107.5 -272.5q0 -158 -107.5 -268.5t-262.5 -110.5q-156 0 -264.5 110.5t-108.5 268.5q0 159 108.5 272.5t264.5 113.5zM429 702q-129 0 -185 -83t-56 -262q0 -332 241 -332q125 0 181.5 79t56.5 253q0 161 -59.5 253t-178.5 92zM396 938h63
q25 0 7 -26q-18 -24 -79 -82.5t-77 -58.5q-10 0 -14.5 8t-0.5 14q15 19 47 66.5t36 60.5q3 18 18 18zM555 938h63q24 0 6 -26q-16 -23 -78 -82t-78 -59q-9 0 -14 8t0 14q17 22 48 68.5t34 58.5q5 18 19 18z" />
    <glyph glyph-name="ohungarumlaut" unicode="&#x151;" horiz-adv-x="540" 
d="M270 454q105 0 167 -66.5t62 -169.5q0 -99 -67 -167.5t-162 -68.5q-99 0 -164 64t-65 172q0 97 67 166.5t162 69.5zM270 414q-58 0 -90 -43t-32 -154t32 -154.5t90 -43.5q59 0 90.5 43t31.5 155q0 111 -31.5 154t-90.5 43zM235 681h57q22 0 6 -28q-15 -25 -71 -89
t-71 -64q-9 0 -13 8.5t0 14.5q14 22 43 73.5t32 65.5q3 19 17 19zM379 681h57q22 0 6 -28q-15 -25 -71 -89t-71 -64q-8 0 -12.5 8.5t-0.5 14.5q14 22 43 73.5t32 65.5q5 19 17 19z" />
    <glyph glyph-name="OE" unicode="&#x152;" horiz-adv-x="1234" 
d="M598 41q32 1 174 1.5t193 1.5q84 1 124.5 48t51.5 150q1 15 19 15q7 0 14.5 -3.5t7.5 -6.5q0 -23 -1 -77.5t-1.5 -101t-0.5 -49.5q0 -26 -42 -26q-11 0 -271.5 4.5t-335.5 5.5q-58 -21 -118 -21q-149 0 -252.5 110.5t-103.5 268.5q0 159 104 272.5t252 113.5
q59 0 114 -20q53 0 200 1.5t273 2.5l126 1q14 0 14 -24q0 -2 -0.5 -77.5t-0.5 -111.5q0 -13 -19 -13q-18 0 -21 12q-9 52 -45.5 103.5t-75.5 54.5q-34 5 -380 13q71 -47 113.5 -124t50.5 -171q62 0 98 3q29 19 48 61t19 75q0 15 18 15q24 0 24 -18q0 -11 -3.5 -69.5
t-3.5 -91.5q0 -29 3.5 -86t3.5 -80q0 -13 -24 -13q-18 0 -18 10q0 23 -21.5 78.5t-43.5 73.5q-31 4 -99 4q-8 -212 -164 -315zM412 702q-120 0 -172 -83t-52 -262q0 -332 224 -332q116 0 168.5 79t52.5 253q0 161 -55.5 253t-165.5 92z" />
    <glyph glyph-name="oe" unicode="&#x153;" horiz-adv-x="832" 
d="M434 54q-66 -72 -164 -72q-99 0 -164 64t-65 172q0 97 67 166.5t162 69.5q105 0 169 -70q62 70 156 70q92 0 142 -53.5t50 -141.5q0 -19 -34.5 -24t-155.5 -5h-111q0 -105 29 -154.5t91 -49.5q56 0 91.5 26t43.5 73q1 8 11 8q28 0 28 -11q0 -48 -47 -94t-138 -46
q-101 0 -161 72zM270 414q-58 0 -90 -43t-32 -154t32 -154.5t90 -43.5q59 0 90.5 43t31.5 155q0 111 -31.5 154t-90.5 43zM488 266h94q77 0 102 5q0 76 -20 109.5t-70 33.5t-74.5 -33.5t-31.5 -114.5z" />
    <glyph glyph-name="Racute" unicode="&#x154;" horiz-adv-x="799" 
d="M266 47q23 0 63 2t43 2q9 0 9 -28q0 -25 -9 -25q-11 0 -67.5 2.5t-103.5 2.5q-37 0 -86.5 -2.5t-54.5 -2.5q-12 0 -12 26q0 27 12 27q10 0 46 -1t47 -1v633q-10 0 -48 -1.5t-44 -1.5q-12 0 -12 26q0 28 13 28l56 -3q57 -3 95 -3q33 0 94 1.5t96 1.5q110 0 161 -49.5
t51 -126.5q0 -71 -46 -109t-125 -45q80 -14 116 -33.5t62 -65.5q19 -32 34 -148q9 -64 26.5 -86t67.5 -22q8 0 26 2t26 2q16 0 16 -26q0 -29 -18 -29t-70 3t-80 3q-56 0 -84.5 24t-35.5 81q-4 32 -8.5 80t-7.5 69q-15 92 -101 112q-62 14 -148 14q-1 -50 -1 -134
q0 -46 0.5 -92.5t1 -75.5t0.5 -31zM275 688q-8 -59 -10 -271h59q57 0 99 10q71 19 71 126q0 101 -71 123q-39 12 -148 12zM413 938h75q29 0 8 -26q-21 -24 -93.5 -82.5t-91.5 -58.5q-11 0 -17 8t-1 14q19 20 56.5 67.5t41.5 59.5q5 18 22 18z" />
    <glyph glyph-name="racute" unicode="&#x155;" horiz-adv-x="452" 
d="M338 400q-36 -3 -80.5 -66.5t-44.5 -138.5q0 -129 2 -157q18 0 57 1t45 1t6 -21t-6 -21q-7 0 -65.5 2.5t-88.5 2.5t-74 -2.5t-50 -2.5q-12 0 -12 22q0 20 12 20q9 0 35 -1t46 -1v356q-8 0 -41.5 -1t-39.5 -1q-12 0 -12 23q0 20 13 20q8 0 59 -0.5t93 -0.5q11 0 14 -3
t3 -14v-110q18 56 61 98t92 42q75 0 75 -66q0 -65 -54 -65q-22 0 -36 13t-14 39q0 12 5 32zM309 681h80q27 0 7 -28q-17 -24 -89.5 -88.5t-90.5 -64.5q-10 0 -15.5 8.5t-0.5 14.5q17 21 51 73t38 66q5 19 20 19z" />
    <glyph glyph-name="Rcommaaccent" unicode="&#x156;" horiz-adv-x="799" 
d="M266 47q23 0 63 2t43 2q9 0 9 -28q0 -25 -9 -25q-11 0 -67.5 2.5t-103.5 2.5q-37 0 -86.5 -2.5t-54.5 -2.5q-12 0 -12 26q0 27 12 27q10 0 46 -1t47 -1v633q-10 0 -48 -1.5t-44 -1.5q-12 0 -12 26q0 28 13 28l56 -3q57 -3 95 -3q33 0 94 1.5t96 1.5q110 0 161 -49.5
t51 -126.5q0 -71 -46 -109t-125 -45q80 -14 116 -33.5t62 -65.5q19 -32 34 -148q9 -64 26.5 -86t67.5 -22q8 0 26 2t26 2q16 0 16 -26q0 -29 -18 -29t-70 3t-80 3q-56 0 -84.5 24t-35.5 81q-4 32 -8.5 80t-7.5 69q-15 92 -101 112q-62 14 -148 14q-1 -50 -1 -134
q0 -46 0.5 -92.5t1 -75.5t0.5 -31zM275 688q-8 -59 -10 -271h59q57 0 99 10q71 19 71 126q0 101 -71 123q-39 12 -148 12zM319 -124q0 25 21 41.5t49 16.5q39 0 70 -30t31 -88q0 -40 -18 -73.5t-42 -50.5t-43 -26t-27 -9q-5 0 -9 7t-4 15q0 7 5 7q37 12 63 41.5t26 76.5
q0 43 -31 43q-6 0 -18.5 -8t-28.5 -8q-20 0 -32 12t-12 33z" />
    <glyph glyph-name="rcommaaccent" unicode="&#x157;" horiz-adv-x="452" 
d="M338 400q-36 -3 -80.5 -66.5t-44.5 -138.5q0 -129 2 -157q18 0 57 1t45 1t6 -21t-6 -21q-7 0 -65.5 2.5t-88.5 2.5t-74 -2.5t-50 -2.5q-12 0 -12 22q0 20 12 20q9 0 35 -1t46 -1v356q-8 0 -41.5 -1t-39.5 -1q-12 0 -12 23q0 20 13 20q8 0 59 -0.5t93 -0.5q11 0 14 -3
t3 -14v-110q18 56 61 98t92 42q75 0 75 -66q0 -65 -54 -65q-22 0 -36 13t-14 39q0 12 5 32zM82 -124q0 25 21 41.5t49 16.5q39 0 70 -30t31 -88q0 -40 -18 -73.5t-42 -50.5t-43 -26t-27 -9q-5 0 -9 7t-4 15q0 7 5 7q37 12 63 41.5t26 76.5q0 43 -31 43q-6 0 -18.5 -8
t-28.5 -8q-20 0 -32 12t-12 33z" />
    <glyph glyph-name="Rcaron" unicode="&#x158;" horiz-adv-x="799" 
d="M266 47q23 0 63 2t43 2q9 0 9 -28q0 -25 -9 -25q-11 0 -67.5 2.5t-103.5 2.5q-37 0 -86.5 -2.5t-54.5 -2.5q-12 0 -12 26q0 27 12 27q10 0 46 -1t47 -1v633q-10 0 -48 -1.5t-44 -1.5q-12 0 -12 26q0 28 13 28l56 -3q57 -3 95 -3q33 0 94 1.5t96 1.5q110 0 161 -49.5
t51 -126.5q0 -71 -46 -109t-125 -45q80 -14 116 -33.5t62 -65.5q19 -32 34 -148q9 -64 26.5 -86t67.5 -22q8 0 26 2t26 2q16 0 16 -26q0 -29 -18 -29t-70 3t-80 3q-56 0 -84.5 24t-35.5 81q-4 32 -8.5 80t-7.5 69q-15 92 -101 112q-62 14 -148 14q-1 -50 -1 -134
q0 -46 0.5 -92.5t1 -75.5t0.5 -31zM275 688q-8 -59 -10 -271h59q57 0 99 10q71 19 71 126q0 101 -71 123q-39 12 -148 12zM368 828q71 80 76 92q5 18 22 18h27q14 0 16.5 -7.5t-8.5 -18.5l-125 -131q-9 -10 -26 -10q-16 0 -25 10l-123 131q-10 11 -8 18.5t16 7.5h73
q5 0 8.5 -1t6.5 -4.5t3.5 -4.5t3.5 -8q30 -55 63 -92z" />
    <glyph glyph-name="rcaron" unicode="&#x159;" horiz-adv-x="452" 
d="M338 400q-36 -3 -80.5 -66.5t-44.5 -138.5q0 -129 2 -157q18 0 57 1t45 1t6 -21t-6 -21q-7 0 -65.5 2.5t-88.5 2.5t-74 -2.5t-50 -2.5q-12 0 -12 22q0 20 12 20q9 0 35 -1t46 -1v356q-8 0 -41.5 -1t-39.5 -1q-12 0 -12 23q0 20 13 20q8 0 59 -0.5t93 -0.5q11 0 14 -3
t3 -14v-110q18 56 61 98t92 42q75 0 75 -66q0 -65 -54 -65q-22 0 -36 13t-14 39q0 12 5 32zM253 562q66 90 69 100q5 19 20 19h25q13 0 15 -8t-8 -20l-114 -143q-8 -10 -23 -10t-23 10l-112 143q-9 12 -7.5 20t14.5 8h67q12 0 19 -16q0 -2 1 -3q28 -62 57 -100z" />
    <glyph glyph-name="Sacute" unicode="&#x15a;" horiz-adv-x="636" 
d="M312 747q69 0 121 -12.5t73.5 -26.5t21.5 -25q0 -32 3 -79t3 -63q0 -14 -22 -14q-17 0 -22 13q-41 92 -76.5 127.5t-104.5 35.5q-60 0 -96 -31t-36 -80q0 -55 37 -86t150 -62q114 -32 166 -86.5t52 -145.5q0 -100 -74 -165t-209 -65q-54 0 -101 8t-76 20t-45.5 25
t-16.5 24q0 44 -1 97.5t-1 68.5q0 18 27 18q15 0 19 -11q38 -114 87 -160t118 -46q85 0 128.5 44.5t43.5 102.5q0 64 -35.5 100.5t-143.5 67.5q-114 32 -161 75t-47 126q0 95 60 150t158 55zM361 938h75q29 0 8 -26q-21 -24 -93.5 -82.5t-91.5 -58.5q-11 0 -17 8t-1 14
q19 20 56.5 67.5t41.5 59.5q5 18 22 18z" />
    <glyph glyph-name="sacute" unicode="&#x15b;" horiz-adv-x="416" 
d="M212 454q53 0 90.5 -14.5t37.5 -34.5q0 -15 0.5 -42.5t0.5 -35.5q0 -13 -18 -13q-10 0 -13 7q-21 53 -43 74.5t-64 21.5q-33 0 -53 -17.5t-20 -44.5q0 -26 22 -44t82 -36q73 -21 105.5 -57t32.5 -91q0 -64 -46 -104.5t-122 -40.5q-65 0 -107.5 18.5t-42.5 39.5
q0 17 -0.5 58t-0.5 53t20 12q11 0 13 -9q22 -76 51 -105t72 -29q44 0 69 21.5t25 52.5q0 32 -21 54t-79 38q-75 23 -107.5 53.5t-32.5 81.5t40 92t109 41zM257 681h80q27 0 7 -28q-17 -24 -89.5 -88.5t-90.5 -64.5q-10 0 -15.5 8.5t-0.5 14.5q17 21 51 73t38 66q5 19 20 19z
" />
    <glyph glyph-name="Scircumflex" unicode="&#x15c;" horiz-adv-x="636" 
d="M312 747q69 0 121 -12.5t73.5 -26.5t21.5 -25q0 -32 3 -79t3 -63q0 -14 -22 -14q-17 0 -22 13q-41 92 -76.5 127.5t-104.5 35.5q-60 0 -96 -31t-36 -80q0 -55 37 -86t150 -62q114 -32 166 -86.5t52 -145.5q0 -100 -74 -165t-209 -65q-54 0 -101 8t-76 20t-45.5 25
t-16.5 24q0 44 -1 97.5t-1 68.5q0 18 27 18q15 0 19 -11q38 -114 87 -160t118 -46q85 0 128.5 44.5t43.5 102.5q0 64 -35.5 100.5t-143.5 67.5q-114 32 -161 75t-47 126q0 95 60 150t158 55zM318 884q-73 -83 -76 -92q-5 -18 -22 -18h-27q-14 0 -16.5 7.5t8.5 18.5l125 131
q9 10 26 10q16 0 25 -10l123 -131q10 -11 8 -18.5t-16 -7.5h-73q-3 0 -5.5 0.5t-4.5 1.5t-3.5 1.5t-3 3t-1.5 3.5t-2 4t-2 4q-36 62 -63 92z" />
    <glyph glyph-name="scircumflex" unicode="&#x15d;" horiz-adv-x="416" 
d="M212 454q53 0 90.5 -14.5t37.5 -34.5q0 -15 0.5 -42.5t0.5 -35.5q0 -13 -18 -13q-10 0 -13 7q-21 53 -43 74.5t-64 21.5q-33 0 -53 -17.5t-20 -44.5q0 -26 22 -44t82 -36q73 -21 105.5 -57t32.5 -91q0 -64 -46 -104.5t-122 -40.5q-65 0 -107.5 18.5t-42.5 39.5
q0 17 -0.5 58t-0.5 53t20 12q11 0 13 -9q22 -76 51 -105t72 -29q44 0 69 21.5t25 52.5q0 32 -21 54t-79 38q-75 23 -107.5 53.5t-32.5 81.5t40 92t109 41zM205 622q-66 -90 -69 -100q-5 -19 -20 -19h-25q-13 0 -15 8t8 20l114 143q8 10 23 10t23 -10l112 -143q9 -12 7.5 -20
t-14.5 -8h-67q-12 0 -19 16q0 2 -1 3q-28 62 -57 100z" />
    <glyph glyph-name="Scedilla" unicode="&#x15e;" horiz-adv-x="636" 
d="M312 747q69 0 121 -12.5t73.5 -26.5t21.5 -25q0 -32 3 -79t3 -63q0 -14 -22 -14q-17 0 -22 13q-41 92 -76.5 127.5t-104.5 35.5q-60 0 -96 -31t-36 -80q0 -55 37 -86t150 -62q114 -32 166 -86.5t52 -145.5q0 -92 -63 -155t-180 -73l-18 -27.5t-19 -27.5q17 4 36 4
q45 0 70 -27.5t25 -75.5q0 -47 -34 -79.5t-92 -32.5q-52 0 -76 20t-24 51q0 18 22 18t22 -16q0 -17 14 -27.5t38 -10.5q35 0 50 15.5t15 58.5q0 41 -11 58t-37 17q-24 0 -44 -13q-2 -2 -8 -2q-19 0 -19 20q0 12 13 20q22 16 42 55h-5q-54 0 -101 8t-76 20t-45.5 25t-16.5 24
q0 44 -1 97.5t-1 68.5q0 18 27 18q15 0 19 -11q38 -114 87 -160t118 -46q85 0 128.5 44.5t43.5 102.5q0 64 -35.5 100.5t-143.5 67.5q-114 32 -161 75t-47 126q0 95 60 150t158 55z" />
    <glyph glyph-name="Scedilla" unicode="&#xf6c1;" horiz-adv-x="636" 
d="M312 747q69 0 121 -12.5t73.5 -26.5t21.5 -25q0 -32 3 -79t3 -63q0 -14 -22 -14q-17 0 -22 13q-41 92 -76.5 127.5t-104.5 35.5q-60 0 -96 -31t-36 -80q0 -55 37 -86t150 -62q114 -32 166 -86.5t52 -145.5q0 -92 -63 -155t-180 -73l-18 -27.5t-19 -27.5q17 4 36 4
q45 0 70 -27.5t25 -75.5q0 -47 -34 -79.5t-92 -32.5q-52 0 -76 20t-24 51q0 18 22 18t22 -16q0 -17 14 -27.5t38 -10.5q35 0 50 15.5t15 58.5q0 41 -11 58t-37 17q-24 0 -44 -13q-2 -2 -8 -2q-19 0 -19 20q0 12 13 20q22 16 42 55h-5q-54 0 -101 8t-76 20t-45.5 25t-16.5 24
q0 44 -1 97.5t-1 68.5q0 18 27 18q15 0 19 -11q38 -114 87 -160t118 -46q85 0 128.5 44.5t43.5 102.5q0 64 -35.5 100.5t-143.5 67.5q-114 32 -161 75t-47 126q0 95 60 150t158 55z" />
    <glyph glyph-name="scedilla" unicode="&#x15f;" horiz-adv-x="416" 
d="M212 454q53 0 90.5 -14.5t37.5 -34.5q0 -15 0.5 -42.5t0.5 -35.5q0 -13 -18 -13q-10 0 -13 7q-21 53 -43 74.5t-64 21.5q-33 0 -53 -17.5t-20 -44.5q0 -26 22 -44t82 -36q73 -21 105.5 -57t32.5 -91q0 -58 -38 -97t-103 -46l-18 -27.5t-19 -27.5q17 4 36 4q45 0 70 -27.5
t25 -75.5q0 -47 -34 -79.5t-92 -32.5q-52 0 -76 20t-24 51q0 18 22 18t22 -16q0 -17 14 -27.5t38 -10.5q35 0 50 15.5t15 58.5q0 41 -11 58t-37 17q-24 0 -44 -13q-2 -2 -8 -2q-19 0 -19 20q0 12 13 20q22 16 42 55q-62 1 -102 19.5t-40 38.5q0 17 -0.5 58t-0.5 53t20 12
q11 0 13 -9q22 -76 51 -105t72 -29q44 0 69 21.5t25 52.5q0 32 -21 54t-79 38q-75 23 -107.5 53.5t-32.5 81.5t40 92t109 41z" />
    <glyph glyph-name="scedilla" unicode="&#xf6c2;" horiz-adv-x="416" 
d="M212 454q53 0 90.5 -14.5t37.5 -34.5q0 -15 0.5 -42.5t0.5 -35.5q0 -13 -18 -13q-10 0 -13 7q-21 53 -43 74.5t-64 21.5q-33 0 -53 -17.5t-20 -44.5q0 -26 22 -44t82 -36q73 -21 105.5 -57t32.5 -91q0 -58 -38 -97t-103 -46l-18 -27.5t-19 -27.5q17 4 36 4q45 0 70 -27.5
t25 -75.5q0 -47 -34 -79.5t-92 -32.5q-52 0 -76 20t-24 51q0 18 22 18t22 -16q0 -17 14 -27.5t38 -10.5q35 0 50 15.5t15 58.5q0 41 -11 58t-37 17q-24 0 -44 -13q-2 -2 -8 -2q-19 0 -19 20q0 12 13 20q22 16 42 55q-62 1 -102 19.5t-40 38.5q0 17 -0.5 58t-0.5 53t20 12
q11 0 13 -9q22 -76 51 -105t72 -29q44 0 69 21.5t25 52.5q0 32 -21 54t-79 38q-75 23 -107.5 53.5t-32.5 81.5t40 92t109 41z" />
    <glyph glyph-name="Scaron" unicode="&#x160;" horiz-adv-x="636" 
d="M312 747q69 0 121 -12.5t73.5 -26.5t21.5 -25q0 -32 3 -79t3 -63q0 -14 -22 -14q-17 0 -22 13q-41 92 -76.5 127.5t-104.5 35.5q-60 0 -96 -31t-36 -80q0 -55 37 -86t150 -62q114 -32 166 -86.5t52 -145.5q0 -100 -74 -165t-209 -65q-54 0 -101 8t-76 20t-45.5 25
t-16.5 24q0 44 -1 97.5t-1 68.5q0 18 27 18q15 0 19 -11q38 -114 87 -160t118 -46q85 0 128.5 44.5t43.5 102.5q0 64 -35.5 100.5t-143.5 67.5q-114 32 -161 75t-47 126q0 95 60 150t158 55zM331 828q71 80 76 92q5 18 22 18h27q14 0 16.5 -7.5t-8.5 -18.5l-125 -131
q-9 -10 -26 -10q-16 0 -25 10l-123 131q-10 11 -8 18.5t16 7.5h73q5 0 8.5 -1t6.5 -4.5t3.5 -4.5t3.5 -8q30 -55 63 -92z" />
    <glyph glyph-name="scaron" unicode="&#x161;" horiz-adv-x="416" 
d="M212 454q53 0 90.5 -14.5t37.5 -34.5q0 -15 0.5 -42.5t0.5 -35.5q0 -13 -18 -13q-10 0 -13 7q-21 53 -43 74.5t-64 21.5q-33 0 -53 -17.5t-20 -44.5q0 -26 22 -44t82 -36q73 -21 105.5 -57t32.5 -91q0 -64 -46 -104.5t-122 -40.5q-65 0 -107.5 18.5t-42.5 39.5
q0 17 -0.5 58t-0.5 53t20 12q11 0 13 -9q22 -76 51 -105t72 -29q44 0 69 21.5t25 52.5q0 32 -21 54t-79 38q-75 23 -107.5 53.5t-32.5 81.5t40 92t109 41zM224 562q66 90 69 100q5 19 20 19h25q13 0 15 -8t-8 -20l-114 -143q-8 -10 -23 -10t-23 10l-112 143q-9 12 -7.5 20
t14.5 8h67q12 0 19 -16q0 -2 1 -3q28 -62 57 -100z" />
    <glyph glyph-name="Tcommaaccent" unicode="&#x162;" horiz-adv-x="772" 
d="M445 49q27 0 75 1t52 1q8 0 8 -28q0 -25 -8 -25q-6 0 -77.5 2.5t-100.5 2.5q-30 0 -108.5 -2.5t-83.5 -2.5q-14 0 -14 26q0 9 4 18t10 9q8 0 60 -1t70 -1v637q-53 -1 -81 -2.5t-57 -9t-41.5 -16.5t-29.5 -32.5t-27 -48.5t-27 -73q-5 -14 -21 -14q-18 0 -18 15
q0 36 3 118.5t3 84.5q0 24 13 24q1 0 24 -0.5t60 -1t79.5 -1.5t92 -1.5t88.5 -0.5q38 0 85 0.5t88.5 1.5t76.5 1.5t57 1t23 0.5q14 0 14 -17q0 -2 2.5 -79t2.5 -113q0 -13 -17 -13q-16 0 -21 11q-16 43 -25.5 65t-24.5 44.5t-28 30.5t-40 16t-55.5 9.5t-77.5 2.5
q-10 -157 -10 -449q0 -162 2 -191zM305 -124q0 25 21 41.5t49 16.5q39 0 70 -30t31 -88q0 -40 -18 -73.5t-42 -50.5t-43 -26t-27 -9q-5 0 -9 7t-4 15q0 7 5 7q37 12 63 41.5t26 76.5q0 43 -31 43q-6 0 -18.5 -8t-28.5 -8q-20 0 -32 12t-12 33z" />
    <glyph glyph-name="Tcommaaccent" unicode="&#x21a;" horiz-adv-x="772" 
d="M445 49q27 0 75 1t52 1q8 0 8 -28q0 -25 -8 -25q-6 0 -77.5 2.5t-100.5 2.5q-30 0 -108.5 -2.5t-83.5 -2.5q-14 0 -14 26q0 9 4 18t10 9q8 0 60 -1t70 -1v637q-53 -1 -81 -2.5t-57 -9t-41.5 -16.5t-29.5 -32.5t-27 -48.5t-27 -73q-5 -14 -21 -14q-18 0 -18 15
q0 36 3 118.5t3 84.5q0 24 13 24q1 0 24 -0.5t60 -1t79.5 -1.5t92 -1.5t88.5 -0.5q38 0 85 0.5t88.5 1.5t76.5 1.5t57 1t23 0.5q14 0 14 -17q0 -2 2.5 -79t2.5 -113q0 -13 -17 -13q-16 0 -21 11q-16 43 -25.5 65t-24.5 44.5t-28 30.5t-40 16t-55.5 9.5t-77.5 2.5
q-10 -157 -10 -449q0 -162 2 -191zM305 -124q0 25 21 41.5t49 16.5q39 0 70 -30t31 -88q0 -40 -18 -73.5t-42 -50.5t-43 -26t-27 -9q-5 0 -9 7t-4 15q0 7 5 7q37 12 63 41.5t26 76.5q0 43 -31 43q-6 0 -18.5 -8t-28.5 -8q-20 0 -32 12t-12 33z" />
    <glyph glyph-name="tcommaaccent" unicode="&#x163;" horiz-adv-x="371" 
d="M200 434q117 3 137 3q12 0 12 -21t-12 -21q-6 0 -63.5 1t-73.5 1q0 -58 -1 -158t-1 -130q0 -49 11.5 -66.5t42.5 -17.5q68 0 68 95q0 8 14 8q21 0 21 -19q0 -44 -30.5 -85.5t-91.5 -41.5q-75 0 -101.5 25t-26.5 88q0 24 1 116.5t1 132.5v52q-20 0 -56 -0.5t-40 -0.5
q-9 0 -9 22q0 20 9 20q7 0 41.5 -1.5t54.5 -1.5q0 14 -0.5 56t-0.5 61q0 17 18 17q4 0 14.5 -1t19.5 -1q6 0 15 1t15 1q16 0 16 -18q0 -11 -2 -52.5t-2 -63.5zM130 -124q0 25 21 41.5t49 16.5q39 0 70 -30t31 -88q0 -40 -18 -73.5t-42 -50.5t-43 -26t-27 -9q-5 0 -9 7t-4 15
q0 7 5 7q37 12 63 41.5t26 76.5q0 43 -31 43q-6 0 -18.5 -8t-28.5 -8q-20 0 -32 12t-12 33z" />
    <glyph glyph-name="tcommaaccent" unicode="&#x21b;" horiz-adv-x="371" 
d="M200 434q117 3 137 3q12 0 12 -21t-12 -21q-6 0 -63.5 1t-73.5 1q0 -58 -1 -158t-1 -130q0 -49 11.5 -66.5t42.5 -17.5q68 0 68 95q0 8 14 8q21 0 21 -19q0 -44 -30.5 -85.5t-91.5 -41.5q-75 0 -101.5 25t-26.5 88q0 24 1 116.5t1 132.5v52q-20 0 -56 -0.5t-40 -0.5
q-9 0 -9 22q0 20 9 20q7 0 41.5 -1.5t54.5 -1.5q0 14 -0.5 56t-0.5 61q0 17 18 17q4 0 14.5 -1t19.5 -1q6 0 15 1t15 1q16 0 16 -18q0 -11 -2 -52.5t-2 -63.5zM130 -124q0 25 21 41.5t49 16.5q39 0 70 -30t31 -88q0 -40 -18 -73.5t-42 -50.5t-43 -26t-27 -9q-5 0 -9 7t-4 15
q0 7 5 7q37 12 63 41.5t26 76.5q0 43 -31 43q-6 0 -18.5 -8t-28.5 -8q-20 0 -32 12t-12 33z" />
    <glyph glyph-name="Tcaron" unicode="&#x164;" horiz-adv-x="772" 
d="M445 49q27 0 75 1t52 1q8 0 8 -28q0 -25 -8 -25q-6 0 -77.5 2.5t-100.5 2.5q-30 0 -108.5 -2.5t-83.5 -2.5q-14 0 -14 26q0 9 4 18t10 9q8 0 60 -1t70 -1v637q-53 -1 -81 -2.5t-57 -9t-41.5 -16.5t-29.5 -32.5t-27 -48.5t-27 -73q-5 -14 -21 -14q-18 0 -18 15
q0 36 3 118.5t3 84.5q0 24 13 24q1 0 24 -0.5t60 -1t79.5 -1.5t92 -1.5t88.5 -0.5q38 0 85 0.5t88.5 1.5t76.5 1.5t57 1t23 0.5q14 0 14 -17q0 -2 2.5 -79t2.5 -113q0 -13 -17 -13q-16 0 -21 11q-16 43 -25.5 65t-24.5 44.5t-28 30.5t-40 16t-55.5 9.5t-77.5 2.5
q-10 -157 -10 -449q0 -162 2 -191zM403 828q71 80 76 92q5 18 22 18h27q14 0 16.5 -7.5t-8.5 -18.5l-125 -131q-9 -10 -26 -10q-16 0 -25 10l-123 131q-10 11 -8 18.5t16 7.5h73q5 0 8.5 -1t6.5 -4.5t3.5 -4.5t3.5 -8q30 -55 63 -92z" />
    <glyph glyph-name="tcaron" unicode="&#x165;" horiz-adv-x="371" 
d="M200 434q117 3 137 3q12 0 12 -21t-12 -21q-6 0 -63.5 1t-73.5 1q0 -58 -1 -158t-1 -130q0 -49 11.5 -66.5t42.5 -17.5q68 0 68 95q0 8 14 8q21 0 21 -19q0 -44 -30.5 -85.5t-91.5 -41.5q-75 0 -101.5 25t-26.5 88q0 24 1 116.5t1 132.5v52q-20 0 -56 -0.5t-40 -0.5
q-9 0 -9 22q0 20 9 20q7 0 41.5 -1.5t54.5 -1.5q0 14 -0.5 56t-0.5 61q0 17 18 17q4 0 14.5 -1t19.5 -1q6 0 15 1t15 1q16 0 16 -18q0 -11 -2 -52.5t-2 -63.5zM303 681h48q27 0 19 -28q-7 -27 -43 -90t-53 -63q-10 0 -15.5 8.5t-0.5 14.5q12 16 18.5 64t6.5 75q0 19 20 19z
" />
    <glyph glyph-name="Tbar" unicode="&#x166;" horiz-adv-x="772" 
d="M445 49q27 0 75 1t52 1q8 0 8 -28q0 -25 -8 -25q-6 0 -77.5 2.5t-100.5 2.5q-30 0 -108.5 -2.5t-83.5 -2.5q-14 0 -14 26q0 9 4 18t10 9q8 0 60 -1t70 -1v234q-52 0 -92.5 -0.5t-61 -1t-23.5 -0.5q-11 0 -11 36q0 28 11 28l61 -1h116v342q-53 -1 -81 -2.5t-57 -9
t-41.5 -16.5t-29.5 -32.5t-27 -48.5t-27 -73q-5 -14 -21 -14q-18 0 -18 15q0 36 3 118.5t3 84.5q0 24 13 24q1 0 24 -0.5t60 -1t79.5 -1.5t92 -1.5t88.5 -0.5q38 0 85 0.5t88.5 1.5t76.5 1.5t57 1t23 0.5q14 0 14 -17q0 -2 2.5 -79t2.5 -113q0 -13 -17 -13q-16 0 -21 11
q-16 43 -25.5 65t-24.5 44.5t-28 30.5t-40 16t-55.5 9.5t-77.5 2.5q-7 -86 -10 -345q39 0 83 1t72 2t32 1q13 0 17 -6t4 -27q0 -34 -20 -34q-3 0 -33 0.5t-73.5 0.5h-81.5v-42q0 -162 2 -191z" />
    <glyph glyph-name="tbar" unicode="&#x167;" horiz-adv-x="371" 
d="M200 434q117 3 137 3q12 0 12 -21t-12 -21q-6 0 -63.5 1t-73.5 1q0 -78 -1 -115q29 0 51 1t33.5 2t15.5 1q10 0 13.5 -5t3.5 -22q0 -28 -17 -28q-46 0 -100 1q-1 -47 -1 -123q0 -49 11.5 -66.5t42.5 -17.5q68 0 68 95q0 8 14 8q21 0 21 -19q0 -44 -30.5 -85.5
t-91.5 -41.5q-75 0 -101.5 25t-26.5 88q0 12 0.5 59.5t0.5 77.5q-55 -1 -89 -1q-9 0 -9 29q0 23 9 23q2 0 32.5 -0.5t57.5 -0.5v114q-20 0 -56 -0.5t-40 -0.5q-9 0 -9 22q0 20 9 20q7 0 41.5 -1.5t54.5 -1.5q0 14 -0.5 56t-0.5 61q0 17 18 17q4 0 14.5 -1t19.5 -1q6 0 15 1
t15 1q16 0 16 -18q0 -11 -2 -52.5t-2 -63.5z" />
    <glyph glyph-name="Utilde" unicode="&#x168;" horiz-adv-x="853" 
d="M732 682q-9 -229 -9 -446q0 -140 -64 -196t-218 -56q-172 0 -235 55.5t-63 200.5v442q-11 0 -48.5 -1.5t-42.5 -1.5q-13 0 -13 26q0 28 14 28l58 -3q58 -3 96 -3q30 0 63.5 1.5t56.5 3t25 1.5q12 0 12 -27t-11 -27q-5 0 -41 1.5t-48 1.5q-9 -111 -11 -277q-1 -134 8 -210
q6 -79 54.5 -116.5t148.5 -37.5q103 0 151 40t51 134q3 87 3 248v219q-9 0 -46 -1.5t-44 -1.5q-12 0 -12 27t14 27q1 0 38.5 -3t75.5 -3q29 0 58 1.5t46.5 3t19.5 1.5q13 0 13 -23q0 -31 -12 -31q-6 0 -43 1.5t-45 1.5zM617 916q-35 -109 -120 -109q-27 0 -48.5 10.5
t-32.5 23t-26.5 23t-32.5 10.5q-47 0 -66 -56q-7 -5 -13 -5q-9 0 -18.5 9t-6.5 16q38 97 118 97q33 0 58.5 -16.5t45 -33t38.5 -16.5q47 0 69 63q1 7 11 7q8 0 17.5 -7.5t6.5 -15.5z" />
    <glyph glyph-name="utilde" unicode="&#x169;" horiz-adv-x="583" 
d="M486 38q10 0 36 1t32 1q12 0 12 -20q0 -24 -13 -24q-9 0 -51 2t-77 2q-15 0 -20.5 4.5t-5.5 18.5v93q-30 -71 -79.5 -102t-102.5 -31q-121 0 -121 140v271q-13 0 -39 -1t-32 -1q-8 0 -8 22q0 21 8 21q2 0 51.5 -0.5t96.5 -0.5q17 0 17 -14q0 -9 -2 -142t-2 -160
q0 -88 64 -88q57 0 101 60t44 129v176h-69q-8 0 -8 19q0 21 8 21q2 0 52 -0.5t98 -0.5q16 0 16 -15q0 -7 -1.5 -69t-3 -150.5t-1.5 -161.5zM457 657q-32 -118 -109 -118q-25 0 -44.5 11.5t-29.5 24.5t-24.5 24.5t-29.5 11.5q-42 0 -60 -60q-4 -6 -11 -6q-8 0 -17 9.5
t-6 17.5q34 106 107 106q24 0 44 -11t31 -25t25.5 -25t28.5 -11q44 0 63 69q1 7 10 7q7 0 15.5 -8.5t6.5 -16.5z" />
    <glyph glyph-name="Umacron" unicode="&#x16a;" horiz-adv-x="853" 
d="M732 682q-9 -229 -9 -446q0 -140 -64 -196t-218 -56q-172 0 -235 55.5t-63 200.5v442q-11 0 -48.5 -1.5t-42.5 -1.5q-13 0 -13 26q0 28 14 28l58 -3q58 -3 96 -3q30 0 63.5 1.5t56.5 3t25 1.5q12 0 12 -27t-11 -27q-5 0 -41 1.5t-48 1.5q-9 -111 -11 -277q-1 -134 8 -210
q6 -79 54.5 -116.5t148.5 -37.5q103 0 151 40t51 134q3 87 3 248v219q-9 0 -46 -1.5t-44 -1.5q-12 0 -12 27t14 27q1 0 38.5 -3t75.5 -3q29 0 58 1.5t46.5 3t19.5 1.5q13 0 13 -23q0 -31 -12 -31q-6 0 -43 1.5t-45 1.5zM438 879q22 0 74 2.5t60 2.5q18 0 23.5 -6t5.5 -28
q0 -35 -27 -35q-9 0 -61 0.5t-75 0.5t-60 -0.5t-44 -0.5q-15 0 -15 36q0 29 15 29q10 0 44 -0.5t60 -0.5z" />
    <glyph glyph-name="umacron" unicode="&#x16b;" horiz-adv-x="583" 
d="M486 38q10 0 36 1t32 1q12 0 12 -20q0 -24 -13 -24q-9 0 -51 2t-77 2q-15 0 -20.5 4.5t-5.5 18.5v93q-30 -71 -79.5 -102t-102.5 -31q-121 0 -121 140v271q-13 0 -39 -1t-32 -1q-8 0 -8 22q0 21 8 21q2 0 51.5 -0.5t96.5 -0.5q17 0 17 -14q0 -9 -2 -142t-2 -160
q0 -88 64 -88q57 0 101 60t44 129v176h-69q-8 0 -8 19q0 21 8 21q2 0 52 -0.5t98 -0.5q16 0 16 -15q0 -7 -1.5 -69t-3 -150.5t-1.5 -161.5zM271 617q20 0 67.5 2.5t54.5 2.5q16 0 21 -6.5t5 -30.5q0 -38 -24 -38q-8 0 -55.5 1t-68.5 1q-20 0 -54 -1t-40 -1q-14 0 -14 40
q0 31 14 31q9 0 39.5 -0.5t54.5 -0.5z" />
    <glyph glyph-name="Ubreve" unicode="&#x16c;" horiz-adv-x="853" 
d="M732 682q-9 -229 -9 -446q0 -140 -64 -196t-218 -56q-172 0 -235 55.5t-63 200.5v442q-11 0 -48.5 -1.5t-42.5 -1.5q-13 0 -13 26q0 28 14 28l58 -3q58 -3 96 -3q30 0 63.5 1.5t56.5 3t25 1.5q12 0 12 -27t-11 -27q-5 0 -41 1.5t-48 1.5q-9 -111 -11 -277q-1 -134 8 -210
q6 -79 54.5 -116.5t148.5 -37.5q103 0 151 40t51 134q3 87 3 248v219q-9 0 -46 -1.5t-44 -1.5q-12 0 -12 27t14 27q1 0 38.5 -3t75.5 -3q29 0 58 1.5t46.5 3t19.5 1.5q13 0 13 -23q0 -31 -12 -31q-6 0 -43 1.5t-45 1.5zM595 925q0 -63 -39.5 -105t-104.5 -42
q-66 0 -105.5 41.5t-39.5 105.5q0 13 28 13q18 0 18 -10q0 -40 27 -63t72 -23q48 0 73 23.5t25 62.5q0 10 20 10q26 0 26 -13z" />
    <glyph glyph-name="ubreve" unicode="&#x16d;" horiz-adv-x="583" 
d="M486 38q10 0 36 1t32 1q12 0 12 -20q0 -24 -13 -24q-9 0 -51 2t-77 2q-15 0 -20.5 4.5t-5.5 18.5v93q-30 -71 -79.5 -102t-102.5 -31q-121 0 -121 140v271q-13 0 -39 -1t-32 -1q-8 0 -8 22q0 21 8 21q2 0 51.5 -0.5t96.5 -0.5q17 0 17 -14q0 -9 -2 -142t-2 -160
q0 -88 64 -88q57 0 101 60t44 129v176h-69q-8 0 -8 19q0 21 8 21q2 0 52 -0.5t98 -0.5q16 0 16 -15q0 -7 -1.5 -69t-3 -150.5t-1.5 -161.5zM420 667q0 -69 -36 -114.5t-95 -45.5q-60 0 -96 45.5t-36 114.5q0 14 25 14q17 0 17 -11q0 -43 24.5 -68t65.5 -25q44 0 66.5 25.5
t22.5 67.5q0 11 18 11q24 0 24 -14z" />
    <glyph glyph-name="Uring" unicode="&#x16e;" horiz-adv-x="853" 
d="M732 682q-9 -229 -9 -446q0 -140 -64 -196t-218 -56q-172 0 -235 55.5t-63 200.5v442q-11 0 -48.5 -1.5t-42.5 -1.5q-13 0 -13 26q0 28 14 28l58 -3q58 -3 96 -3q30 0 63.5 1.5t56.5 3t25 1.5q12 0 12 -27t-11 -27q-5 0 -41 1.5t-48 1.5q-9 -111 -11 -277q-1 -134 8 -210
q6 -79 54.5 -116.5t148.5 -37.5q103 0 151 40t51 134q3 87 3 248v219q-9 0 -46 -1.5t-44 -1.5q-12 0 -12 27t14 27q1 0 38.5 -3t75.5 -3q29 0 58 1.5t46.5 3t19.5 1.5q13 0 13 -23q0 -31 -12 -31q-6 0 -43 1.5t-45 1.5zM458 941q55 0 91.5 -28.5t36.5 -69.5q0 -40 -36.5 -68
t-91.5 -28t-91.5 28t-36.5 68q0 41 36.5 69.5t91.5 28.5zM459 905q-28 0 -45.5 -18t-17.5 -45t17.5 -44t45.5 -17t45.5 17.5t17.5 43.5q0 27 -18 45t-45 18z" />
    <glyph glyph-name="uring" unicode="&#x16f;" horiz-adv-x="583" 
d="M486 38q10 0 36 1t32 1q12 0 12 -20q0 -24 -13 -24q-9 0 -51 2t-77 2q-15 0 -20.5 4.5t-5.5 18.5v93q-30 -71 -79.5 -102t-102.5 -31q-121 0 -121 140v271q-13 0 -39 -1t-32 -1q-8 0 -8 22q0 21 8 21q2 0 51.5 -0.5t96.5 -0.5q17 0 17 -14q0 -9 -2 -142t-2 -160
q0 -88 64 -88q57 0 101 60t44 129v176h-69q-8 0 -8 19q0 21 8 21q2 0 52 -0.5t98 -0.5q16 0 16 -15q0 -7 -1.5 -69t-3 -150.5t-1.5 -161.5zM275 684q46 0 76 -28.5t30 -68.5q0 -39 -30 -67t-76 -28t-76 28t-30 67q0 41 30 69t76 28zM276 648q-23 0 -38 -18t-15 -44t15 -43
t38 -17q22 0 36.5 17t14.5 43q0 27 -14.5 44.5t-36.5 17.5z" />
    <glyph glyph-name="Uhungarumlaut" unicode="&#x170;" horiz-adv-x="853" 
d="M732 682q-9 -229 -9 -446q0 -140 -64 -196t-218 -56q-172 0 -235 55.5t-63 200.5v442q-11 0 -48.5 -1.5t-42.5 -1.5q-13 0 -13 26q0 28 14 28l58 -3q58 -3 96 -3q30 0 63.5 1.5t56.5 3t25 1.5q12 0 12 -27t-11 -27q-5 0 -41 1.5t-48 1.5q-9 -111 -11 -277q-1 -134 8 -210
q6 -79 54.5 -116.5t148.5 -37.5q103 0 151 40t51 134q3 87 3 248v219q-9 0 -46 -1.5t-44 -1.5q-12 0 -12 27t14 27q1 0 38.5 -3t75.5 -3q29 0 58 1.5t46.5 3t19.5 1.5q13 0 13 -23q0 -31 -12 -31q-6 0 -43 1.5t-45 1.5zM424 938h63q25 0 7 -26q-18 -24 -79 -82.5t-77 -58.5
q-10 0 -14.5 8t-0.5 14q15 19 47 66.5t36 60.5q3 18 18 18zM583 938h63q24 0 6 -26q-16 -23 -78 -82t-78 -59q-9 0 -14 8t0 14q17 22 48 68.5t34 58.5q5 18 19 18z" />
    <glyph glyph-name="uhungarumlaut" unicode="&#x171;" horiz-adv-x="583" 
d="M486 38q10 0 36 1t32 1q12 0 12 -20q0 -24 -13 -24q-9 0 -51 2t-77 2q-15 0 -20.5 4.5t-5.5 18.5v93q-30 -71 -79.5 -102t-102.5 -31q-121 0 -121 140v271q-13 0 -39 -1t-32 -1q-8 0 -8 22q0 21 8 21q2 0 51.5 -0.5t96.5 -0.5q17 0 17 -14q0 -9 -2 -142t-2 -160
q0 -88 64 -88q57 0 101 60t44 129v176h-69q-8 0 -8 19q0 21 8 21q2 0 52 -0.5t98 -0.5q16 0 16 -15q0 -7 -1.5 -69t-3 -150.5t-1.5 -161.5zM258 681h57q22 0 6 -28q-15 -25 -71 -89t-71 -64q-9 0 -13 8.5t0 14.5q14 22 43 73.5t32 65.5q3 19 17 19zM402 681h57q22 0 6 -28
q-15 -25 -71 -89t-71 -64q-8 0 -12.5 8.5t-0.5 14.5q14 22 43 73.5t32 65.5q5 19 17 19z" />
    <glyph glyph-name="Uogonek" unicode="&#x172;" horiz-adv-x="853" 
d="M732 682q-9 -229 -9 -446q0 -126 -51.5 -183t-171.5 -67q-40 -19 -55 -45.5t-15 -74.5q0 -43 15 -61t47 -18t52 14q4 2 5 2q7 0 13 -8.5t6 -16.5q0 -7 -4 -10q-26 -24 -76 -24q-62 0 -96.5 29.5t-34.5 88.5q0 43 25 75t59 47q-172 0 -235 55.5t-63 200.5v442
q-11 0 -48.5 -1.5t-42.5 -1.5q-13 0 -13 26q0 28 14 28l58 -3q58 -3 96 -3q30 0 63.5 1.5t56.5 3t25 1.5q12 0 12 -27t-11 -27q-5 0 -41 1.5t-48 1.5q-9 -111 -11 -277q-1 -134 8 -210q6 -79 54.5 -116.5t148.5 -37.5q103 0 151 40t51 134q3 87 3 248v219q-9 0 -46 -1.5
t-44 -1.5q-12 0 -12 27t14 27q1 0 38.5 -3t75.5 -3q29 0 58 1.5t46.5 3t19.5 1.5q13 0 13 -23q0 -31 -12 -31q-6 0 -43 1.5t-45 1.5z" />
    <glyph glyph-name="uogonek" unicode="&#x173;" horiz-adv-x="583" 
d="M486 38q10 0 36 1t32 1q12 0 12 -20q0 -24 -13 -24q-10 0 -36.5 1.5l-44.5 2.5q-49 -21 -67.5 -48t-18.5 -80q0 -43 15 -61t47 -18t52 14q4 2 5 2q7 0 13 -8.5t6 -16.5q0 -7 -4 -10q-26 -24 -76 -24q-62 0 -96.5 29.5t-34.5 88.5q0 56 41.5 93t79.5 39h-9
q-15 0 -20.5 4.5t-5.5 18.5v93q-30 -71 -79.5 -102t-102.5 -31q-121 0 -121 140v271q-13 0 -39 -1t-32 -1q-8 0 -8 22q0 21 8 21q2 0 51.5 -0.5t96.5 -0.5q17 0 17 -14q0 -9 -2 -142t-2 -160q0 -88 64 -88q57 0 101 60t44 129v176h-69q-8 0 -8 19q0 21 8 21q2 0 52 -0.5
t98 -0.5q16 0 16 -15q0 -7 -1.5 -69t-3 -150.5t-1.5 -161.5z" />
    <glyph glyph-name="Wcircumflex" unicode="&#x174;" horiz-adv-x="1161" 
d="M1013 685q-24 0 -62.5 -1.5t-43.5 -1.5q-10 0 -10 28q0 24 10 24q8 0 54.5 -3.5t78.5 -3.5q35 0 70 3.5t37 3.5q15 0 15 -26t-15 -26q-5 0 -31 1.5t-40 1.5q-85 -211 -226 -669q-7 -25 -31 -25q-16 0 -24 22q-2 26 -76 234.5l-130 354.5q-105 -299 -192 -586
q-8 -25 -31 -25q-17 0 -23 22q-4 41 -104 315t-147 357q-18 0 -46 -1.5t-35 -1.5q-11 0 -11 28q0 24 11 24q7 0 65 -3.5t95 -3.5q36 0 92.5 3.5t63.5 3.5q15 0 15 -26t-15 -26q-11 0 -48 1.5t-59 1.5q2 -5 85 -228.5t98 -274.5l148 469q9 34 -22 34q-27 0 -49 -1.5t-27 -1.5
q-10 0 -10 28q0 24 10 24q7 0 73 -3.5t102 -3.5t89.5 3.5t60.5 3.5q17 0 17 -26t-17 -26q-11 0 -47 1.5t-57 1.5q8 -31 87 -241t93 -262q11 36 77.5 241.5t81.5 261.5zM597 884q-73 -83 -76 -92q-5 -18 -22 -18h-27q-14 0 -16.5 7.5t8.5 18.5l125 131q9 10 26 10
q16 0 25 -10l123 -131q10 -11 8 -18.5t-16 -7.5h-73q-3 0 -5.5 0.5t-4.5 1.5t-3.5 1.5t-3 3t-1.5 3.5t-2 4t-2 4q-36 62 -63 92z" />
    <glyph glyph-name="wcircumflex" unicode="&#x175;" horiz-adv-x="767" 
d="M379 329q-32 -74 -71 -182t-49 -144q-3 -15 -33 -15q-20 0 -24 14q-13 45 -68 190.5t-81 201.5q-6 0 -21 -1t-23 -1q-9 0 -9 21q0 22 9 22q4 0 15 -0.5t35 -0.5h61q33 0 60.5 0.5t29.5 0.5q13 0 13 -23q0 -20 -13 -20q-3 0 -22.5 1t-33.5 1q46 -106 104 -282
q11 34 105 282q-11 0 -33 -1t-30 -1t-8 21q0 22 8 22l29 -1h76q36 0 66 0.5t31 0.5q13 0 13 -23q0 -20 -13 -20q-2 0 -21 1t-37 1q31 -63 105 -279q45 138 100 279q-7 0 -31 -1t-29 -1q-9 0 -9 23q0 20 9 20q4 0 31.5 -0.5t49.5 -0.5q21 0 49.5 0.5t33.5 0.5q11 0 11 -22
q0 -21 -11 -21q-3 0 -20.5 1t-29.5 1q-25 -48 -85 -199t-69 -192q-3 -15 -33 -15q-20 0 -24 14q-55 183 -113 327zM387 622q-66 -90 -69 -100q-5 -19 -20 -19h-25q-13 0 -15 8t8 20l114 143q8 10 23 10t23 -10l112 -143q9 -12 7.5 -20t-14.5 -8h-67q-12 0 -19 16q0 2 -1 3
q-28 62 -57 100z" />
    <glyph glyph-name="Ycircumflex" unicode="&#x176;" horiz-adv-x="785" 
d="M615 684q-5 0 -46.5 -1.5t-51.5 -1.5t-10 27q0 25 10 25q8 0 46 -3.5t75 -3.5t81.5 3.5t51.5 3.5q15 0 15 -26t-15 -26q-7 0 -30.5 1.5t-31.5 1.5q-16 -20 -112 -153t-150 -199q6 -160 6 -284q4 0 53 1t57 1t8 -28q0 -25 -8 -25q-5 0 -68.5 2.5t-93.5 2.5t-106 -2.5
t-81 -2.5q-14 0 -14 26q0 9 4 18t10 9t49.5 -1t74.5 -1q0 1 -0.5 22t-1 48.5t-0.5 60t1.5 64.5t3.5 53q-246 384 -249 388q-18 0 -46 -1.5t-35 -1.5q-11 0 -11 27q0 25 11 25q6 0 68.5 -3.5t98.5 -3.5t91 3.5t61 3.5q15 0 15 -26t-15 -26t-58 1.5t-47 1.5q89 -128 198 -311
q51 70 115 172.5t77 138.5zM400 884q-73 -83 -76 -92q-5 -18 -22 -18h-27q-14 0 -16.5 7.5t8.5 18.5l125 131q9 10 26 10q16 0 25 -10l123 -131q10 -11 8 -18.5t-16 -7.5h-73q-3 0 -5.5 0.5t-4.5 1.5t-3.5 1.5t-3 3t-1.5 3.5t-2 4t-2 4q-36 62 -63 92z" />
    <glyph glyph-name="ycircumflex" unicode="&#x177;" horiz-adv-x="467" 
d="M255 3q-65 -155 -105.5 -214.5t-96.5 -59.5q-23 0 -37.5 13.5t-14.5 38.5q0 23 13 37t35 14q19 0 31 -13t12 -33q21 1 62 83t52 123q-13 44 -69.5 194t-83.5 208q-6 0 -21 -1t-23 -1q-9 0 -9 21q0 22 9 22l28 -1h69h76l34 1q13 0 13 -23q0 -20 -13 -20q-3 0 -25.5 1
t-36.5 1q46 -106 104 -282q41 124 102 282q-8 0 -33 -1t-29 -1q-8 0 -8 23q0 20 8 20q5 0 32.5 -0.5t49.5 -0.5q21 0 49.5 0.5t33.5 0.5q12 0 12 -22q0 -21 -12 -21q-2 0 -19.5 1t-30.5 1q-14 -27 -45.5 -105.5l-67.5 -170.5zM238 622q-66 -90 -69 -100q-5 -19 -20 -19h-25
q-13 0 -15 8t8 20l114 143q8 10 23 10t23 -10l112 -143q9 -12 7.5 -20t-14.5 -8h-67q-12 0 -19 16q0 2 -1 3q-28 62 -57 100z" />
    <glyph glyph-name="Ydieresis" unicode="&#x178;" horiz-adv-x="785" 
d="M615 684q-5 0 -46.5 -1.5t-51.5 -1.5t-10 27q0 25 10 25q8 0 46 -3.5t75 -3.5t81.5 3.5t51.5 3.5q15 0 15 -26t-15 -26q-7 0 -30.5 1.5t-31.5 1.5q-16 -20 -112 -153t-150 -199q6 -160 6 -284q4 0 53 1t57 1t8 -28q0 -25 -8 -25q-5 0 -68.5 2.5t-93.5 2.5t-106 -2.5
t-81 -2.5q-14 0 -14 26q0 9 4 18t10 9t49.5 -1t74.5 -1q0 1 -0.5 22t-1 48.5t-0.5 60t1.5 64.5t3.5 53q-246 384 -249 388q-18 0 -46 -1.5t-35 -1.5q-11 0 -11 27q0 25 11 25q6 0 68.5 -3.5t98.5 -3.5t91 3.5t61 3.5q15 0 15 -26t-15 -26t-58 1.5t-47 1.5q89 -128 198 -311
q51 70 115 172.5t77 138.5zM512 883q24 0 40.5 -14.5t16.5 -35.5t-16.5 -36t-40.5 -15q-25 0 -41.5 15t-16.5 36t17 35.5t41 14.5zM298 883q24 0 40.5 -14.5t16.5 -35.5t-16.5 -36t-40.5 -15t-40.5 15t-16.5 36t16.5 35.5t40.5 14.5z" />
    <glyph glyph-name="Zacute" unicode="&#x179;" horiz-adv-x="803" 
d="M561 687q-35 2 -142 2q-52 0 -85 -2t-61.5 -12t-43.5 -19t-34.5 -35.5t-30.5 -48.5l-34 -70q-8 -14 -25 -14q-11 0 -16 3.5t-4 13.5q17 116 17 204q0 13 5 18t21 5q1 0 207.5 -1t347.5 -1q22 0 22 -24q0 -17 -11 -31l-494 -630h48.5h73h70.5q136 0 197 40.5t101 156.5
q6 16 25 16q12 0 17.5 -4t4.5 -15q-3 -23 -9.5 -101.5t-6.5 -110.5q0 -18 -6 -23t-29 -5q-22 0 -295.5 0.5t-306.5 0.5q-31 0 -31 24q0 18 18 36q16 16 194 244.5zM455 938h75q29 0 8 -26q-21 -24 -93.5 -82.5t-91.5 -58.5q-11 0 -17 8t-1 14q19 20 56.5 67.5t41.5 59.5
q5 18 22 18z" />
    <glyph glyph-name="zacute" unicode="&#x17a;" horiz-adv-x="466" 
d="M313 399q-17 1 -100 1q-36 0 -69.5 -30.5t-59.5 -84.5q-4 -14 -15 -14q-8 0 -14.5 3.5t-5.5 8.5q20 75 20 132q0 20 19 20q15 0 155.5 -1.5t164.5 -1.5q14 0 14 -17q0 -9 -7 -20l-272 -356q2 0 11.5 -0.5t34 -0.5h62.5q67 0 100.5 32.5t58.5 105.5q3 12 15 12
q8 0 13.5 -3.5t4.5 -10.5q-16 -106 -16 -157q0 -18 -14 -18q-21 0 -179.5 1.5t-178.5 1.5q-21 0 -21 19q0 10 10 22q9 9 62 80.5l116.5 156.5zM290 681h80q27 0 7 -28q-17 -24 -89.5 -88.5t-90.5 -64.5q-10 0 -15.5 8.5t-0.5 14.5q17 21 51 73t38 66q5 19 20 19z" />
    <glyph glyph-name="Zdotaccent" unicode="&#x17b;" horiz-adv-x="803" 
d="M561 687q-35 2 -142 2q-52 0 -85 -2t-61.5 -12t-43.5 -19t-34.5 -35.5t-30.5 -48.5l-34 -70q-8 -14 -25 -14q-11 0 -16 3.5t-4 13.5q17 116 17 204q0 13 5 18t21 5q1 0 207.5 -1t347.5 -1q22 0 22 -24q0 -17 -11 -31l-494 -630h48.5h73h70.5q136 0 197 40.5t101 156.5
q6 16 25 16q12 0 17.5 -4t4.5 -15q-3 -23 -9.5 -101.5t-6.5 -110.5q0 -18 -6 -23t-29 -5q-22 0 -295.5 0.5t-306.5 0.5q-31 0 -31 24q0 18 18 36q16 16 194 244.5zM412 917q26 0 45 -17t19 -41t-19 -41t-45 -17t-45 17t-19 41t19 41t45 17z" />
    <glyph glyph-name="zdotaccent" unicode="&#x17c;" horiz-adv-x="466" 
d="M313 399q-17 1 -100 1q-36 0 -69.5 -30.5t-59.5 -84.5q-4 -14 -15 -14q-8 0 -14.5 3.5t-5.5 8.5q20 75 20 132q0 20 19 20q15 0 155.5 -1.5t164.5 -1.5q14 0 14 -17q0 -9 -7 -20l-272 -356q2 0 11.5 -0.5t34 -0.5h62.5q67 0 100.5 32.5t58.5 105.5q3 12 15 12
q8 0 13.5 -3.5t4.5 -10.5q-16 -106 -16 -157q0 -18 -14 -18q-21 0 -179.5 1.5t-178.5 1.5q-21 0 -21 19q0 10 10 22q9 9 62 80.5l116.5 156.5zM252 683q26 0 44 -18t18 -44t-18 -45t-44 -19t-44.5 19t-18.5 45q0 25 18.5 43.5t44.5 18.5z" />
    <glyph glyph-name="Zcaron" unicode="&#x17d;" horiz-adv-x="803" 
d="M561 687q-35 2 -142 2q-52 0 -85 -2t-61.5 -12t-43.5 -19t-34.5 -35.5t-30.5 -48.5l-34 -70q-8 -14 -25 -14q-11 0 -16 3.5t-4 13.5q17 116 17 204q0 13 5 18t21 5q1 0 207.5 -1t347.5 -1q22 0 22 -24q0 -17 -11 -31l-494 -630h48.5h73h70.5q136 0 197 40.5t101 156.5
q6 16 25 16q12 0 17.5 -4t4.5 -15q-3 -23 -9.5 -101.5t-6.5 -110.5q0 -18 -6 -23t-29 -5q-22 0 -295.5 0.5t-306.5 0.5q-31 0 -31 24q0 18 18 36q16 16 194 244.5zM434 828q71 80 76 92q5 18 22 18h27q14 0 16.5 -7.5t-8.5 -18.5l-125 -131q-9 -10 -26 -10q-16 0 -25 10
l-123 131q-10 11 -8 18.5t16 7.5h73q5 0 8.5 -1t6.5 -4.5t3.5 -4.5t3.5 -8q30 -55 63 -92z" />
    <glyph glyph-name="zcaron" unicode="&#x17e;" horiz-adv-x="466" 
d="M313 399q-17 1 -100 1q-36 0 -69.5 -30.5t-59.5 -84.5q-4 -14 -15 -14q-8 0 -14.5 3.5t-5.5 8.5q20 75 20 132q0 20 19 20q15 0 155.5 -1.5t164.5 -1.5q14 0 14 -17q0 -9 -7 -20l-272 -356q2 0 11.5 -0.5t34 -0.5h62.5q67 0 100.5 32.5t58.5 105.5q3 12 15 12
q8 0 13.5 -3.5t4.5 -10.5q-16 -106 -16 -157q0 -18 -14 -18q-21 0 -179.5 1.5t-178.5 1.5q-21 0 -21 19q0 10 10 22q9 9 62 80.5l116.5 156.5zM269 562q66 90 69 100q5 19 20 19h25q13 0 15 -8t-8 -20l-114 -143q-8 -10 -23 -10t-23 10l-112 143q-9 12 -7.5 20t14.5 8h67
q12 0 19 -16q0 -2 1 -3q28 -62 57 -100z" />
    <glyph glyph-name="longs" unicode="&#x17f;" horiz-adv-x="314" 
d="M197 434q1 -77 0.5 -225.5t-0.5 -170.5q5 0 44 1t46 1q9 0 9 -21t-9 -21q-5 0 -57 2.5t-82 2.5q-29 0 -75 -2.5t-52 -2.5q-12 0 -12 22q0 20 12 20t45 -1t35 -1q3 47 3 396q0 14 -0.5 46t-0.5 53q0 107 50 158t128 51q64 0 92.5 -30t28.5 -71q0 -45 -41 -45
q-23 0 -33.5 10.5t-10.5 36.5q0 27 -9.5 42t-39.5 15q-36 0 -52 -26t-17 -88q0 -22 -1 -73.5t-1 -78.5z" />
    <glyph glyph-name="florin" unicode="&#x192;" horiz-adv-x="375" 
d="M214 -64q0 -107 -50 -158t-128 -51q-64 0 -92.5 30t-28.5 71q0 45 41 45q23 0 33.5 -10.5t10.5 -36.5q0 -27 9.5 -42t39.5 -15q35 0 50 25.5t19 89.5q6 97 3 512q-23 0 -52 -0.5t-34 -0.5q-8 0 -8 22q0 20 8 20q7 0 36 -1t50 -2q0 14 -0.5 46t-0.5 53q0 107 50 158
t128 51q64 0 92.5 -30t28.5 -71q0 -45 -41 -45q-23 0 -33.5 10.5t-10.5 36.5q0 27 -9.5 42t-39.5 15q-36 0 -52 -26t-17 -88q0 -22 -1 -73.5t-1 -78.5q16 0 39 1t39 1.5t22 0.5q12 0 12 -21t-12 -21q-70 0 -100 1v-460z" />
    <glyph glyph-name="Scommaaccent" unicode="&#x218;" horiz-adv-x="636" 
d="M312 747q69 0 121 -12.5t73.5 -26.5t21.5 -25q0 -32 3 -79t3 -63q0 -14 -22 -14q-17 0 -22 13q-41 92 -76.5 127.5t-104.5 35.5q-60 0 -96 -31t-36 -80q0 -55 37 -86t150 -62q114 -32 166 -86.5t52 -145.5q0 -100 -74 -165t-209 -65q-54 0 -101 8t-76 20t-45.5 25
t-16.5 24q0 44 -1 97.5t-1 68.5q0 18 27 18q15 0 19 -11q38 -114 87 -160t118 -46q85 0 128.5 44.5t43.5 102.5q0 64 -35.5 100.5t-143.5 67.5q-114 32 -161 75t-47 126q0 95 60 150t158 55zM239 -124q0 25 21 41.5t49 16.5q39 0 70 -30t31 -88q0 -40 -18 -73.5t-42 -50.5
t-43 -26t-27 -9q-5 0 -9 7t-4 15q0 7 5 7q37 12 63 41.5t26 76.5q0 43 -31 43q-6 0 -18.5 -8t-28.5 -8q-20 0 -32 12t-12 33z" />
    <glyph glyph-name="scommaaccent" unicode="&#x219;" horiz-adv-x="416" 
d="M212 454q53 0 90.5 -14.5t37.5 -34.5q0 -15 0.5 -42.5t0.5 -35.5q0 -13 -18 -13q-10 0 -13 7q-21 53 -43 74.5t-64 21.5q-33 0 -53 -17.5t-20 -44.5q0 -26 22 -44t82 -36q73 -21 105.5 -57t32.5 -91q0 -64 -46 -104.5t-122 -40.5q-65 0 -107.5 18.5t-42.5 39.5
q0 17 -0.5 58t-0.5 53t20 12q11 0 13 -9q22 -76 51 -105t72 -29q44 0 69 21.5t25 52.5q0 32 -21 54t-79 38q-75 23 -107.5 53.5t-32.5 81.5t40 92t109 41zM127 -124q0 25 21 41.5t49 16.5q39 0 70 -30t31 -88q0 -40 -18 -73.5t-42 -50.5t-43 -26t-27 -9q-5 0 -9 7t-4 15
q0 7 5 7q37 12 63 41.5t26 76.5q0 43 -31 43q-6 0 -18.5 -8t-28.5 -8q-20 0 -32 12t-12 33z" />
    <glyph glyph-name="circumflex" unicode="&#x2c6;" horiz-adv-x="468" 
d="M219 622q-66 -90 -69 -100q-5 -19 -20 -19h-25q-13 0 -15 8t8 20l114 143q8 10 23 10t23 -10l112 -143q9 -12 7.5 -20t-14.5 -8h-67q-12 0 -19 16q0 2 -1 3q-28 62 -57 100z" />
    <glyph glyph-name="caron" unicode="&#x2c7;" horiz-adv-x="468" 
d="M249 562q66 90 69 100q5 19 20 19h25q13 0 15 -8t-8 -20l-114 -143q-8 -10 -23 -10t-23 10l-112 143q-9 12 -7.5 20t14.5 8h67q12 0 19 -16q0 -2 1 -3q28 -62 57 -100z" />
    <glyph glyph-name="breve" unicode="&#x2d8;" horiz-adv-x="443" 
d="M353 667q0 -69 -36 -114.5t-95 -45.5q-60 0 -96 45.5t-36 114.5q0 14 25 14q17 0 17 -11q0 -43 24.5 -68t65.5 -25q44 0 66.5 25.5t22.5 67.5q0 11 18 11q24 0 24 -14z" />
    <glyph glyph-name="dotaccent" unicode="&#x2d9;" horiz-adv-x="310" 
d="M162 683q26 0 44 -18t18 -44t-18 -45t-44 -19t-44.5 19t-18.5 45q0 25 18.5 43.5t44.5 18.5z" />
    </font>
</defs>
</svg>
