<?xml version="1.0" encoding="utf-8"?>
<!-- Generator: Adobe Illustrator 21.0.0, SVG Export Plug-In . SVG Version: 6.00 Build 0)  -->
<svg version="1.1" id="Layer_1" xmlns="http://www.w3.org/2000/svg" xmlns:xlink="http://www.w3.org/1999/xlink" x="0px" y="0px"
	 viewBox="0 0 450.041 24.569" style="enable-background:new 0 0 450.041 24.569;" xml:space="preserve">
<style type="text/css">
	.st0{fill:#1D1D1B;}
</style>
<g>
	<path class="st0" d="M21.518,2.122c-0.069-1.181-0.227-1.419-0.934-1.419c-0.316,0-1.869,0.012-3.641,0.026
		c-2.357,0.018-5.103,0.04-5.849,0.04c-1.595,0-7.813-0.033-9.626-0.066c-0.41,0-0.833,0-1.066,0.303C0.177,1.411,0,4.284,0,4.754
		c0,0.432,0,1.235,0.496,1.235c0.512,0,0.762-0.953,0.824-1.239c0.447-1.812,0.663-2.113,5.649-2.113
		c0.984,0,1.951,0.079,2.072,0.13c0.13,0.243,0.281,2.101,0.281,4.135v11.669c0,3.748-0.198,4.207-1.939,4.474
		c-0.431,0.065-0.878,0.134-0.878,0.659c0,0.18,0.071,0.598,0.731,0.598c0.142,0,0.399-0.021,0.719-0.048
		c0.367-0.031,0.818-0.068,1.27-0.087c0.416-0.017,0.84-0.041,1.199-0.063c0.36-0.02,0.654-0.038,0.803-0.038
		c0.651,0,1.215,0.033,1.71,0.102c0.093,0.001,0.862,0.084,1.231,0.124l0.446,0.045c0.516,0,0.7-0.31,0.7-0.6
		c0-0.55-0.417-0.704-1.041-0.764c-1.372-0.146-1.945-0.584-1.945-2.924V7.322c-0.007-3.816,0.272-4.507,0.347-4.593
		c0.031-0.013,0.379-0.126,2.878-0.126c2.144,0,3.679,0.182,4.111,0.491c0.414,0.284,0.723,0.857,0.828,1.532
		c0.031,0.205,0.126,0.826,0.695,0.826c0.374,0,0.564-0.268,0.564-0.798c0-0.22-0.068-0.908-0.161-1.787L21.518,2.122
		 M189.438,22.905c-2.829,0-5.06-1.011-5.381-1.331c-0.131-0.152-0.326-1.211-0.326-2.364v-7.742l0.2-7.748
		c0.029-1.449,0.292-1.788,2.824-1.788c3.254,0,5.763,0.41,8.216,2.456c3.522,2.919,3.797,7.745,3.797,9.154
		C198.769,19.229,195.106,22.905,189.438,22.905 M188.264,0.469c-0.908,0-2.133,0.032-3.336,0.063l-0.125,0.004
		c-1.241,0.032-2.483,0.066-3.446,0.1h-2.684c-0.935,0-1.503,0.047-1.503,0.698c0,0.656,0.91,0.729,1.345,0.764
		c1.102,0.098,2.178,0.37,2.178,2.489v15.629c0,1.233-0.239,1.611-0.546,1.98c-0.2,0.17-0.534,0.455-1.461,0.681
		c-0.323,0.071-1.078,0.237-1.078,0.859c0,0.332,0.287,0.563,0.696,0.563c0.16,0,1.25-0.104,1.459-0.135
		c1.039-0.066,2.139-0.101,3.27-0.101c0.399,0,1.674,0.063,3.038,0.168c0.501,0.024,1.007,0.056,1.466,0.084
		c0.766,0.046,1.37,0.083,1.667,0.083c7.3,0,12.805-5.245,12.805-12.199C202.008,4.964,196.742,0.469,188.264,0.469 M50.673,22.84
		c-1.507-0.235-1.878-0.324-2.29-1.242c-0.165-0.301-0.171-0.546-0.171-3.095L48.178,8.008c0-2.492,0.188-4.41,0.35-5.101
		c0.178-0.444,0.318-0.795,1.509-0.979c0.52-0.082,1.025-0.208,1.025-0.762c0-0.303-0.167-0.663-0.966-0.663
		c-0.334,0-1.35,0-2.398,0.065c-1.034,0.07-2.023,0.102-2.396,0.102c-0.166,0-0.729-0.034-1.291-0.068
		c-0.542-0.034-1.122-0.067-1.358-0.067c-0.448,0-0.899,0.206-0.899,0.665c0,0.569,0.608,0.638,0.834,0.663
		c2.033,0.247,2.653,1.094,2.653,3.628v4.428c0,0.815-0.202,0.89-0.368,0.952C44.331,11,42.901,11,36.883,11
		c-1.274,0-3.644,0-4.169-0.187c-0.239-0.087-0.265-0.491-0.265-0.66V4.419c0-2.237,0.672-2.366,1.165-2.46
		c0.984-0.196,1.317-0.261,1.317-0.793c0-0.303-0.14-0.663-0.799-0.663c-0.283,0-1.075,0.039-1.913,0.08
		c-0.864,0.043-1.757,0.087-2.078,0.087c-0.209,0-0.844-0.016-1.502-0.032c-0.714-0.018-1.455-0.036-1.717-0.036
		c-0.425,0-1.066,0-1.066,0.699c0,0.561,0.487,0.602,0.85,0.63c2.147,0.12,2.703,0.976,2.703,4.165v7.714
		c0,1.672-0.132,6.7-0.558,8.106c-0.188,0.618-0.654,0.727-1.203,0.856c-0.987,0.171-1.357,0.236-1.357,0.796
		c0,0.699,0.98,0.699,1.303,0.699c0.272,0,1.021-0.049,1.813-0.1c0.784-0.05,1.594-0.104,1.874-0.104
		c0.272,0,1.069,0.035,1.858,0.101l0.138,0.012c0.771,0.063,1.5,0.123,1.794,0.123c0.272,0,1.102,0,1.102-0.699
		c0-0.69-0.857-0.697-1.186-0.697h-0.009c-2.309-0.056-2.523-1.536-2.563-3.464L32.35,14.81c-0.016-1.031,0.064-1.559,0.269-1.765
		c0.171-0.174,0.518-0.184,1.068-0.184l9.569-0.031c1.918,0,1.918,0.197,1.918,0.677v5.431c0,2.563-0.071,3.391-1.54,3.737
		c-1.087,0.245-1.379,0.311-1.379,0.792c0,0.231,0.164,0.521,0.397,0.578c0.063,0.024,0.123,0.05,1.05,0.05
		c0.621,0,1.432-0.012,2.066-0.021l0.906-0.011c0.3,0,1.067,0,1.867,0.034c0.775,0.034,1.586,0.067,1.855,0.067
		c0.812,0,0.934-0.416,0.934-0.664C51.331,23.173,51.122,22.954,50.673,22.84"/>
	<path class="st0" d="M142.486,23.114l-0.068-0.039c-0.162-0.094-0.544-0.176-1.155-0.3c-0.282-0.057-0.601-0.121-0.686-0.153
		c-0.874-0.362-1.281-1.87-1.281-2.775V4.016c0-0.296,0.093-1.783,1.939-2.019c0.313-0.026,1.046-0.089,1.046-0.731
		c0-0.282-0.153-0.731-0.564-0.731c-0.111,0-0.538,0.057-0.713,0.102c-0.668,0.032-1.831,0.065-2.708,0.065
		c-1.378,0-2.392-0.054-3.019-0.1l-0.56-0.049l-0.614-0.05c-0.438,0-0.698,0.235-0.698,0.63c0,0.517,0.271,0.582,1.404,0.856
		c0.779,0.203,1.479,0.522,1.479,2.162v14.488c0,3.475-0.792,3.933-1.603,4.104c-0.983,0.204-1.314,0.272-1.314,0.827
		c0,0.419,0.303,0.631,0.9,0.631l1.02-0.034l0.933-0.033c0.971-0.034,2.005-0.068,2.338-0.068c0.232,0,0.885,0.033,1.579,0.069
		c0.672,0.032,1.374,0.066,1.608,0.066c0.54,0,0.933-0.267,0.933-0.631c0-0.188-0.096-0.308-0.161-0.386L142.486,23.114
		L142.486,23.114z M172.266,0.636l-2.982,0.034c-0.261,0-1.006-0.024-1.775-0.048c-0.822-0.027-1.668-0.054-1.979-0.054
		c-0.695,0-0.8,0.354-0.8,0.566c0,0.434,0.497,0.661,0.968,0.73c2.617,0.621,3.09,0.734,3.09,5.173l0.001,9.606
		c-0.018,0.235-0.033,0.911-0.05,1.592l-0.037,1.334l-0.874-0.934l-0.493-0.534c-3.882-4.227-6.021-6.555-12.708-14.19
		c-1.577-1.809-2.578-2.853-2.99-3.11c-0.408-0.222-0.557-0.238-1.497-0.199l-2.15-0.034c-0.482,0-0.697,0.368-0.697,0.733
		c0,0.321,0.209,0.561,0.56,0.628c0.708,0.1,1.047,0.163,1.665,0.627c2.157,1.513,2.133,3.406,2.068,8.463l-0.103,3.92l-0.005,0.149
		c-0.066,1.824-0.178,4.877-0.812,6.403c-0.251,0.625-0.734,1.047-1.396,1.219l-0.185,0.045c-0.814,0.194-1.089,0.261-1.089,0.779
		c0,0.148,0.051,0.632,0.696,0.632c0.243,0,0.899-0.041,1.595-0.084c0.654-0.041,1.333-0.084,1.56-0.084
		c0.275,0,1.054,0.031,1.855,0.064c0.856,0.034,1.738,0.07,2.068,0.07c0.541,0,0.865-0.211,0.865-0.564
		c0-0.271-0.239-0.633-0.554-0.693c-2.766-0.463-3.265-0.546-3.169-4.231l0.134-6.66c0.015-0.199,0.05-1.179,0.088-2.216
		c0.041-1.153,0.092-2.589,0.1-2.684l0.011-0.033c0.314,0.216,0.966,0.954,1.198,1.218l0.178,0.198
		c0.155,0.208,2.636,2.933,6.702,7.397c2.958,3.247,6.016,6.605,7.03,7.746l0.158,0.173c0.59,0.65,0.713,0.785,1.075,0.785
		c0.224,0,0.463-0.16,0.463-0.396c0.052-0.479,0.102-2.659,0.102-2.678l0.268-13.917c0.071-4.705,0.424-5.218,1.419-5.487
		l0.175-0.05c0.935-0.262,1.155-0.323,1.155-0.807C173.166,1.093,173.102,0.636,172.266,0.636 M127.196,0.503l-0.558,0.031
		l-0.599,0.034c-0.565,0.034-1.16,0.068-1.359,0.068l-0.593-0.038c-0.269-0.022-0.586-0.046-0.888-0.061
		c-0.608-0.067-1.186-0.101-1.337-0.101c-0.584,0-0.935,0.21-0.935,0.563c0,0.209,0.164,0.481,0.651,0.626l0.101,0.019
		c1.908,0.361,2.268,0.456,2.268,1.299c0,0.576-0.152,1.194-1.018,3.149l-4.596,10.502c-0.427,1.037-1.126,2.54-1.52,3.134
		l-0.688-1.237l-3.906-7.881l0.592-1.523l2.278-5.097c0.92-2.025,1.384-2.106,2.082-2.228c0.638-0.097,0.96-0.343,0.96-0.731
		c0-0.189-0.066-0.63-0.697-0.63l-0.366,0.049l-0.39,0.053c-0.479,0.032-1.352,0.065-1.927,0.065c-0.158,0-0.641-0.03-1.144-0.061
		c-0.566-0.035-1.159-0.071-1.372-0.071c-0.372,0-0.866,0.062-0.866,0.595c0,0.681,0.604,0.751,0.993,0.798
		c0.621,0.096,1.255,0.289,1.255,0.981c0,0.207-0.107,0.514-0.17,0.697L113.4,3.653l-1.242,3.188
		c-0.314,0.829-0.576,1.512-0.729,1.829c-0.213-0.392-0.583-1.171-0.732-1.508L109.253,4c-0.08-0.159-0.341-0.73-0.341-1.426
		c0-0.605,0.387-0.724,0.899-0.815c0.365-0.08,0.743-0.162,0.743-0.593c0-0.436-0.266-0.729-0.684-0.729h-0.001l-0.932,0.08
		c-0.631,0.065-1.494,0.153-2.804,0.153c-0.205,0-0.826-0.041-1.426-0.081c-0.675-0.044-1.312-0.086-1.56-0.086
		c-0.31,0-1.033,0-1.033,0.663c0,0.665,0.471,0.665,1.067,0.665c1.316,0,2.01,0.522,2.747,2.063l3.809,8.143l-2.44,5.736
		c-0.22,0.571-0.64,1.484-0.866,1.822c-0.181-0.252-0.499-0.867-0.95-1.836l-4.506-9.718l-1.509-3.6c-0.243-0.575-0.65-1.538-0.65-2
		c0-0.269,0.345-0.482,0.985-0.612c0.237-0.037,0.792-0.122,0.792-0.596c0-0.463-0.336-0.698-1-0.698
		c-0.172,0-0.752,0.022-1.378,0.045c-0.722,0.027-1.505,0.056-1.774,0.056c-0.273,0-1.079-0.036-1.833-0.101l-0.455-0.019
		c-0.597-0.026-1.111-0.047-1.302-0.047c-0.536,0-0.897,0.267-0.897,0.665c0,0.578,0.703,0.66,1.01,0.696
		c0.977,0.086,1.937,0.328,2.941,2.303l1.271,2.576l8.151,17.759h0.775l4.289-9.735l0.088-0.188l0.173-0.366
		c0.103,0.18,0.271,0.497,0.544,1.054l4.5,9.167h0.802l9.026-20.179c0.293-0.684,0.838-1.957,1.598-2.275
		c0.584-0.226,0.905-0.351,0.905-0.812C128.028,0.986,127.968,0.503,127.196,0.503 M74.645,19.048c-0.315,0-0.517,0.242-0.844,0.672
		c-1.713,2.215-6.301,2.546-8.883,2.546c-2.612,0-2.823-0.237-2.823-3.159v-4.392c0-0.958,0.021-1.374,0.123-1.464
		c0.147-0.075,1.203-0.221,4.144-0.221c3.264,0,3.425,0.38,3.729,2.396c0.091,0.573,0.31,0.759,0.898,0.759
		c0.496,0,0.496-0.365,0.496-0.631c0-0.192-0.035-0.732-0.07-1.258c-0.032-0.487-0.063-0.964-0.063-1.124
		c0-0.734,0.032-1.214,0.085-2.008l0.082-1.298l0.035-0.585c0-0.443-0.237-0.766-0.564-0.766c-0.587,0-0.704,0.398-0.795,0.924
		c-0.152,0.939-0.538,1.382-1.297,1.524l-4.393,0.201l-0.641,0.014c-1.13,0-1.564-0.128-1.629-0.188
		c-0.07-0.117-0.173-0.762-0.173-1.775V5.627c0-1.658,0.135-2.647,0.394-2.933c0.218-0.219,0.626-0.259,2.731-0.259
		c3.912,0,5.395,0.197,6.057,0.76c0.373,0.53,0.455,0.842,0.455,1.761c0,0.491,0.052,0.933,0.699,0.933
		c0.176,0,0.264-0.047,0.42-0.13l0.076-0.039l0.038-0.076c0.121-0.239,0.172-0.907,0.329-3.183l0.122-1.651l-5.917-0.107h-2.515
		c-3.176,0-5.791-0.034-6.697-0.064c-0.227-0.038-0.271-0.052-0.379-0.037c-1.121,0-1.424,0.044-1.56,0.114
		c-0.199,0.069-0.313,0.269-0.313,0.551c0,0.657,0.655,0.76,1.105,0.83c1.416,0.164,2.049,0.712,2.049,3.53v5.802
		c0,0.549-0.019,2.075-0.036,3.562c-0.016,1.42-0.032,2.805-0.032,3.28c0,3.315-0.08,4.288-1.868,4.638
		c-0.446,0.09-0.848,0.212-0.848,0.728c0,0.596,0.65,0.596,1.403,0.596c0.211,0,0.595-0.018,1.062-0.04
		c0.428-0.019,0.928-0.043,1.436-0.059c1.033-0.034,2.064-0.068,2.398-0.068c0.537,0,2.133,0.064,3.772,0.167
		c1.702,0.11,3.138,0.202,3.471,0.202c1.806,0,2.615-0.426,3.768-1.985c0.603-0.822,1.493-2.283,1.493-2.804
		C75.176,19.292,74.957,19.048,74.645,19.048 M242.595,1.595c4.941,0,10.232,4.625,10.232,11.51c0,6.499-4.44,9.899-8.826,9.899
		c-4.32,0-10.402-3.591-10.402-11.576C233.599,5.456,237.129,1.595,242.595,1.595 M243.332,0.132
		c-7.313,0-13.042,5.551-13.042,12.636c0,5.619,3.935,11.665,12.571,11.665c7.489,0,13.141-5.417,13.141-12.602
		C256.002,6.196,252.036,0.132,243.332,0.132 M368.036,10.209c-4.128-1.399-5.592-2.616-5.592-4.651
		c0-2.431,2.569-4.063,4.972-4.063c2.887,0,5.374,1.823,6.048,4.432c0.162,0.632,0.424,0.967,0.758,0.967
		c0.313,0,0.531-0.245,0.531-0.595c0-0.43-0.334-2.699-0.338-2.717c-0.068-0.549-0.306-2.361-0.431-2.57
		c-0.039-0.076-0.142-0.275-0.398-0.275c-0.312,0-0.441,0.254-0.495,0.362l-0.053,0.147l-0.779-0.25l-0.778-0.248
		c-1.31-0.436-2.498-0.648-3.631-0.648c-4.316,0-7.574,2.808-7.574,6.532c0,3.609,2.636,5.234,7.186,6.821
		c4.283,1.51,5.727,2.749,5.727,4.916c0,1.864-1.527,4.637-5.738,4.637c-3.914,0-5.953-2.497-6.56-4.846
		c-0.167-0.556-0.398-1.125-0.853-1.125c-0.159,0-0.531,0.062-0.531,0.632c0,0.204,0.753,4.52,1.067,5.113
		c0.412,0.821,3.765,1.723,6.405,1.723c6.586,0,8.345-4.508,8.345-7.17C375.323,13.081,371.723,11.482,368.036,10.209
		 M216.721,10.209c-4.128-1.4-5.591-2.617-5.591-4.651c0-2.431,2.569-4.063,4.971-4.063c2.885,0,5.373,1.823,6.05,4.429
		c0.109,0.442,0.328,0.97,0.757,0.97c0.313,0,0.53-0.245,0.53-0.595c0-0.39-0.271-2.276-0.337-2.716
		c-0.03-0.239-0.293-2.344-0.429-2.568c-0.039-0.076-0.14-0.278-0.401-0.278c-0.315,0-0.447,0.266-0.492,0.36l-0.056,0.149
		l-0.764-0.245l-0.795-0.254c-1.307-0.435-2.493-0.647-3.628-0.647c-4.316,0-7.574,2.808-7.574,6.532
		c0,3.609,2.635,5.234,7.186,6.821c4.282,1.509,5.728,2.749,5.728,4.916c0,1.864-1.529,4.637-5.743,4.637
		c-3.911,0-5.949-2.497-6.555-4.846c-0.169-0.556-0.403-1.125-0.855-1.125c-0.159,0-0.529,0.062-0.529,0.632
		c0,0.205,0.753,4.522,1.067,5.113c0.407,0.821,3.76,1.723,6.404,1.723c6.586,0,8.343-4.508,8.343-7.17
		C224.007,13.079,220.407,11.482,216.721,10.209 M387.637,23.838l0.005,0.01l-0.036,0.02L387.637,23.838z M402.318,2.123
		c-0.067-1.181-0.225-1.42-0.933-1.42c-0.315,0-1.867,0.012-3.64,0.026c-2.356,0.018-5.104,0.04-5.851,0.04
		c-1.597,0-7.813-0.033-9.625-0.066c-0.408,0-0.829,0-1.066,0.303c-0.227,0.404-0.405,3.278-0.405,3.748
		c0,0.432,0,1.235,0.499,1.235c0.513,0,0.762-0.953,0.824-1.239c0.446-1.812,0.661-2.113,5.649-2.113
		c0.984,0,1.952,0.079,2.073,0.13c0.129,0.243,0.278,2.102,0.278,4.135v11.669c0,3.748-0.196,4.208-1.936,4.473
		c-0.435,0.066-0.881,0.135-0.881,0.66c0,0.18,0.071,0.598,0.73,0.598c0.144,0,0.401-0.022,0.72-0.049
		c0.367-0.03,0.82-0.067,1.271-0.087c0.413-0.016,0.837-0.041,1.195-0.062c0.361-0.021,0.656-0.039,0.809-0.039
		c0.651,0,1.214,0.033,1.707,0.101c0.094,0.002,0.868,0.084,1.24,0.125l0.438,0.044c0.517,0,0.7-0.309,0.7-0.598
		c0-0.551-0.418-0.705-1.043-0.765c-1.37-0.146-1.942-0.584-1.942-2.925V7.319c-0.009-3.814,0.271-4.504,0.346-4.59
		c0.031-0.013,0.378-0.126,2.881-0.126c2.142,0,3.677,0.182,4.108,0.491c0.413,0.285,0.725,0.858,0.828,1.534
		c0.032,0.203,0.129,0.824,0.696,0.824c0.374,0,0.562-0.268,0.562-0.798c0-0.217-0.067-0.896-0.157-1.759L402.318,2.123
		 M449.511,19.048c-0.312,0-0.504,0.23-0.847,0.672c-1.712,2.215-6.297,2.546-8.878,2.546c-2.612,0-2.822-0.237-2.822-3.159v-4.392
		c0-0.959,0.019-1.375,0.122-1.464c0.147-0.076,1.203-0.221,4.142-0.221c3.265,0,3.426,0.38,3.732,2.394
		c0.085,0.575,0.304,0.762,0.894,0.762c0.499,0,0.499-0.365,0.499-0.631c0-0.192-0.036-0.732-0.07-1.258
		c-0.031-0.487-0.062-0.964-0.062-1.124c0-0.756,0.032-1.251,0.087-2.074l0.078-1.232l0.036-0.584c0-0.443-0.239-0.766-0.567-0.766
		c-0.582,0-0.699,0.398-0.795,0.924c-0.15,0.939-0.536,1.382-1.294,1.524l-4.395,0.201l-0.642,0.014
		c-1.126,0-1.56-0.128-1.628-0.191c-0.07-0.115-0.173-0.758-0.173-1.772v-3.59c0-1.657,0.135-2.646,0.393-2.932
		c0.221-0.22,0.628-0.26,2.733-0.26c3.914,0,5.396,0.197,6.057,0.76c0.373,0.53,0.454,0.842,0.454,1.761
		c0,0.491,0.055,0.933,0.7,0.933c0.175,0,0.262-0.046,0.419-0.129l0.079-0.04l0.039-0.078c0.115-0.232,0.168-0.849,0.326-3.182
		l0.121-1.65l-5.914-0.107h-2.518c-3.178,0-5.791-0.034-6.695-0.064l-0.378-0.037c-1.123,0-1.428,0.044-1.563,0.115
		c-0.196,0.068-0.311,0.268-0.311,0.55c0,0.658,0.656,0.76,1.104,0.83c1.416,0.164,2.046,0.712,2.046,3.53v5.802
		c0,0.549-0.017,2.075-0.032,3.562c-0.017,1.419-0.031,2.805-0.031,3.279c0,3.315-0.079,4.288-1.87,4.638
		c-0.447,0.089-0.849,0.212-0.849,0.728c0,0.596,0.65,0.596,1.403,0.596c0.21,0,0.594-0.018,1.058-0.039
		c0.432-0.02,0.932-0.044,1.434-0.06c1.036-0.034,2.072-0.068,2.405-0.068c0.535,0,2.132,0.064,3.771,0.167
		c1.702,0.11,3.138,0.202,3.472,0.202c1.806,0,2.614-0.427,3.767-1.985c0.603-0.822,1.494-2.282,1.494-2.804
		C450.042,19.292,449.822,19.048,449.511,19.048 M425.868,19.083c-0.311,0-0.411,0.126-0.748,0.546l-0.104,0.132
		c-0.479,0.67-1.285,1.275-2.163,1.619c-2.1,0.833-5.604,0.922-7.015,0.922c-1.77,0-2.62-0.081-2.62-1.919v-7.646
		c0-9.254,0.339-9.712,0.828-10.377c0.329-0.332,0.346-0.334,1.109-0.479l0.094-0.018c0.313-0.058,0.786-0.145,0.786-0.762
		c0-0.17-0.062-0.564-0.632-0.564c-0.241,0-0.884,0.048-1.565,0.099c-0.676,0.05-1.374,0.103-1.62,0.103
		c-0.33,0-1.463-0.06-2.373-0.108c-0.637-0.033-1.173-0.061-1.283-0.061c-1.104,0-1.335,0.361-1.335,0.665
		c0,0.567,0.664,0.612,0.943,0.631c1.707,0.145,2.074,0.89,2.074,4.198v14.32c0,0.778-0.222,2.142-1.712,2.53
		c-0.578,0.145-0.804,0.366-0.804,0.792c0,0.563,0.649,0.563,1,0.563c0.159,0,0.46-0.018,0.83-0.04
		c0.345-0.021,0.753-0.046,1.171-0.062c0.856-0.069,1.675-0.101,1.958-0.101c0.504,0,1.912,0.056,3.403,0.113l0.538,0.022
		c1.749,0.104,3.428,0.167,4.038,0.167c1.889,0,3.03-0.372,3.939-1.281c0.788-0.756,1.79-2.527,1.79-3.442
		C426.397,19.318,426.174,19.083,425.868,19.083 M275.564,7.369c0,1.458-0.533,2.643-1.583,3.523
		c-0.508,0.413-1.207,0.979-4.293,0.979c-2.016,0-2.016-0.32-2.016-0.577v-5.97c0-2.953,0.199-3.258,2.152-3.258
		C272.607,2.066,275.564,3.925,275.564,7.369 M283.539,22.904c-1.037,0-1.929-0.441-2.646-1.31l-0.961-1.194l-2.748-3.955
		c-0.499-0.731-1.584-2.44-2.513-4.056c2.222-1.407,4.17-2.953,4.17-5.925c0-1.783-0.759-5.929-7.777-5.929
		c-0.345,0-1.321,0.024-2.321,0.049c-1.045,0.025-2.113,0.052-2.508,0.052l-0.415-0.01c-0.324-0.011-0.77-0.024-1.203-0.024h-0.014
		c-0.709-0.034-1.451-0.034-1.721-0.034c-0.71,0-1.102,0-1.102,0.733c0,0.455,0.412,0.542,0.862,0.595
		c1.322,0.197,2.122,0.591,2.122,4.403v11.367c0,4.759-0.386,4.839-1.565,5.084l-0.099,0.028c-0.362,0.103-1.118,0.314-1.118,0.892
		c0,0.53,0.752,0.53,1,0.53c0.261,0,1.026-0.032,1.779-0.064l0.078-0.003c0.799-0.034,1.598-0.068,1.897-0.068
		c0.273,0,1.115,0.062,1.928,0.122l0.165,0.013c0.948,0.07,1.825,0.135,2.168,0.135c0.588,0,0.967-0.234,0.967-0.599
		c0-0.588-0.675-0.657-1.046-0.695c-2.834-0.232-3.215-1.625-3.215-2.959v-5.635c0-1.077,0.191-1.112,1.214-1.112
		c2.18,0,2.78,0.077,3.234,0.788l4.461,6.739c1.68,2.57,3.171,3.571,5.317,3.571c1,0,2.678-0.116,2.678-0.897
		C284.609,22.904,284.273,22.904,283.539,22.904 M323.549,17.271c-0.275,0-0.541,0.298-1.296,1.451l-0.217,0.323
		c-2.048,2.553-4.836,3.96-7.846,3.96c-5.362,0-9.562-4.938-9.562-11.24c0-7.117,4.652-10.303,9.263-10.303
		c5.175,0,7.536,4.089,8.313,5.848c0.456,1.03,0.761,1.161,0.976,1.161c0.258,0,0.533-0.157,0.533-0.598
		c0-0.348-0.166-1.607-0.319-2.76l-0.091-0.809c-0.149-1.6-0.174-1.847-0.268-2.038c-0.037-0.079-0.139-0.288-0.392-0.288
		c-0.176,0-0.351,0.129-0.525,0.393c-0.153,0.245-0.221,0.245-0.273,0.245c-0.177-0.021-0.932-0.479-1.294-0.698l-0.532-0.312
		c-1.887-1.014-3.813-1.506-5.893-1.506c-8.407,0-12.806,6.493-12.806,12.906c0,6.768,5.031,11.496,12.235,11.496
		c4.29,0,9.06-2.229,9.334-2.561c0.278-0.391,1.123-3.759,1.123-4.108C324.013,17.368,323.761,17.271,323.549,17.271
		 M344.125,13.159c-0.125,0.155-1.078,0.323-2.399,0.323c-0.903,0-4.549-0.115-5.039-0.273l-0.038-0.024l-0.013-0.009
		c0.028-0.114,0.111-0.327,0.245-0.637l0.053-0.124l3.254-6.846l0.357-0.763c0.164,0.198,0.464,0.847,0.567,1.073l0.104,0.219
		l2.312,5.465C343.907,12.458,344.111,13.077,344.125,13.159 M353.5,23.16l-0.104-0.021c-1.76-0.219-2.511-1.198-3.281-2.929
		l-0.935-2.135l-2.617-6.747l-2.279-5.497l-1.578-4.023c-0.264-0.685-0.368-0.977-0.43-1.145c-0.071-0.201-0.082-0.232-0.213-0.512
		L341.993,0h-0.618l-0.229,0.374c-0.138,0.222-0.283,0.453-0.462,0.814l-8.786,18.242c-0.303,0.622-1.223,2.518-2.556,3.382
		l-0.073,0.049c-0.649,0.421-0.784,0.508-0.784,0.845c0,0.396,0.294,0.663,0.731,0.663c0.083,0,0.312-0.022,1.393-0.207
		c0.476-0.095,0.891-0.095,1.224-0.095c0.465,0,0.911,0.034,1.69,0.095c0.162,0.033,1.56,0.207,1.662,0.207
		c0.456,0,0.799-0.272,0.799-0.631c0-0.144-0.031-0.266-0.188-0.465l-0.052-0.049c-0.13-0.096-0.549-0.213-1.22-0.34
		c-0.506-0.16-1.356-0.533-1.356-1.226c0-1.109,1.113-3.747,1.815-5.149c0.435-0.871,0.582-1.008,0.857-1.029l0.054-0.006
		c0.265-0.015,1.812-0.025,4.017-0.025c0.249,0,0.974-0.017,1.707-0.033c0.75-0.018,1.512-0.035,1.782-0.035
		c1.484,0,1.603,0.015,1.834,0.634l1.404,3.81l0.114,0.342c0.165,0.489,0.444,1.308,0.444,1.827c0,0.187,0,0.757-1.156,0.95
		c-0.327,0.054-0.823,0.136-0.823,0.594c0,0.304,0.266,0.765,0.665,0.765c0.14,0,1.027-0.146,1.139-0.169
		c0.553-0.065,1.051-0.065,1.579-0.065c1.002,0,1.673,0.079,2.601,0.191l0.736,0.092c0.54,0.071,0.895,0.118,1.323,0.118
		c0.686,0,1.035-0.212,1.035-0.63C354.297,23.314,353.816,23.221,353.5,23.16"/>
</g>
</svg>
